<svg id="Layer_1" data-name="Layer 1" xmlns="http://www.w3.org/2000/svg" viewBox="0 0 102.81 82.3"><defs><style>.cls-1{fill:#bee4d7;}.cls-2{fill:#332766;}.cls-3{fill:#fc593a;}.cls-4{fill:#7fb1cd;}.cls-5{fill:#ffbd36;}.cls-6{fill:#317170;}.cls-7{fill:#455ec4;}.cls-8{fill:#5a70e0;}.cls-9{fill:#849af7;}.cls-10{fill:#f4aec5;}.cls-11{fill:#d8d5ca;}.cls-12{fill:#0a3c33;}.cls-13{fill:#072d26;}.cls-14{fill:#1e1742;}.cls-15{fill:#051536;}.cls-16{fill:#f27851;}.cls-17{fill:#e67052;}.cls-18{fill:#7bb1cc;}.cls-19{fill:#9acfe5;}.cls-20{fill:#0b2149;}</style></defs><path class="cls-1" d="M506.42,326.1l.87-.47a32.59,32.59,0,0,1-1.87-26.83l-.91-.41A33.65,33.65,0,0,0,506.42,326.1Z" transform="translate(-483.29 -280.28)"/><path class="cls-1" d="M504.8,299.36s2.93-4.82,0-5.9C503.53,293,501.88,295,504.8,299.36Z" transform="translate(-483.29 -280.28)"/><path class="cls-1" d="M504.16,301.35s-.79-5.94-3.53-4.52C499.47,297.44,499.52,300.27,504.16,301.35Z" transform="translate(-483.29 -280.28)"/><path class="cls-1" d="M503.71,301.68s1.9-5.47,4.27-3.17C509,299.5,508.4,302.22,503.71,301.68Z" transform="translate(-483.29 -280.28)"/><path class="cls-1" d="M503,306.56s1.66-5.59,4.12-3.41C508.2,304.08,507.74,306.84,503,306.56Z" transform="translate(-483.29 -280.28)"/><path class="cls-1" d="M502.76,310.6s1.68-5.58,4.13-3.39C507.94,308.14,507.47,310.9,502.76,310.6Z" transform="translate(-483.29 -280.28)"/><path class="cls-1" d="M503.26,315.56s.75-5.87,3.49-4.19C507.92,312.08,507.89,314.91,503.26,315.56Z" transform="translate(-483.29 -280.28)"/><path class="cls-1" d="M504.17,319.49s.91-5.85,3.61-4.08C508.92,316.16,508.83,319,504.17,319.49Z" transform="translate(-483.29 -280.28)"/><path class="cls-1" d="M506.09,324.34s-.56-6,2.43-5.1C509.79,319.62,510.39,322.4,506.09,324.34Z" transform="translate(-483.29 -280.28)"/><path class="cls-1" d="M503.19,305.29s-.79-6-3.52-4.52C498.5,301.38,498.55,304.21,503.19,305.29Z" transform="translate(-483.29 -280.28)"/><path class="cls-1" d="M502.87,309.46s-.8-5.95-3.53-4.53C498.18,305.54,498.22,308.38,502.87,309.46Z" transform="translate(-483.29 -280.28)"/><path class="cls-1" d="M503.14,313.54s-2-5.64-4.3-3.53C497.84,310.9,498.45,313.68,503.14,313.54Z" transform="translate(-483.29 -280.28)"/><path class="cls-1" d="M503.91,318s-2.47-5.41-4.59-3C498.42,316,499.28,318.72,503.91,318Z" transform="translate(-483.29 -280.28)"/><path class="cls-1" d="M505.32,322.33s-3.1-5-4.89-2.26C499.67,321.23,500.86,323.78,505.32,322.33Z" transform="translate(-483.29 -280.28)"/><path class="cls-2" d="M561.57,334.18l4.35,2.23c3.73-2.84,6.09-7.66,7.54-11.93l-1.83-4.19,2.51,2a46.65,46.65,0,0,0,1.38-6.46,21.77,21.77,0,0,0-12,.27l1.17,3.34-3.45-2.34c-9.88,5.3-10.63,19.51-10.63,19.51,5.23,2.69,9.4,2.75,12.71,1.33Z" transform="translate(-483.29 -280.28)"/><path class="cls-3" d="M559.88,344.64c17.35-7.45,23.1-21.13,23.16-21.27l-.59-.24c-.05.14-5.72,13.58-22.82,20.93Z" transform="translate(-483.29 -280.28)"/><polygon class="cls-3" points="94.77 49.92 95.4 50 95.99 45.61 95.36 45.52 94.77 49.92"/><polygon class="cls-3" points="91.97 53.24 92.61 53.19 92.27 48.77 91.64 48.82 91.97 53.24"/><polygon class="cls-3" points="88.4 56.65 89.04 56.61 88.7 52.19 88.07 52.23 88.4 56.65"/><rect class="cls-3" x="567.85" y="335.2" width="0.64" height="4.43" transform="translate(-506.66 -237.39) rotate(-4.24)"/><polygon class="cls-3" points="80.84 61.98 81.47 61.94 81.14 57.52 80.5 57.57 80.84 61.98"/><polygon class="cls-3" points="95.9 49.37 99.81 47.27 99.5 46.72 95.6 48.8 95.9 49.37"/><rect class="cls-3" x="576.08" y="331.96" width="4.43" height="0.64" transform="translate(-555.72 -94.25) rotate(-17.21)"/><rect class="cls-3" x="572.25" y="336.22" width="4.43" height="0.64" transform="translate(-496.6 -256.45) rotate(-2.35)"/><rect class="cls-3" x="569.66" y="337.9" width="0.64" height="4.44" transform="translate(-259.18 626.34) rotate(-89.42)"/><rect class="cls-3" x="564.37" y="340.99" width="0.64" height="4.43" transform="matrix(0.1, -0.99, 0.99, 0.1, -317.71, 589.6)"/><path class="cls-3" d="M582.18,321.69a1.54,1.54,0,1,0,2.19.13A1.55,1.55,0,0,0,582.18,321.69Z" transform="translate(-483.29 -280.28)"/><path class="cls-3" d="M577.68,323.86a1.55,1.55,0,1,0,2.18,0A1.55,1.55,0,0,0,577.68,323.86Z" transform="translate(-483.29 -280.28)"/><path class="cls-3" d="M574.38,326.87a1.54,1.54,0,1,0,2.07.69A1.54,1.54,0,0,0,574.38,326.87Z" transform="translate(-483.29 -280.28)"/><path class="cls-3" d="M570.81,330.28a1.55,1.55,0,0,0,1.38,2.77,1.55,1.55,0,0,0-1.38-2.77Z" transform="translate(-483.29 -280.28)"/><path class="cls-3" d="M567.14,333a1.55,1.55,0,1,0,2.07.7A1.54,1.54,0,0,0,567.14,333Z" transform="translate(-483.29 -280.28)"/><path class="cls-3" d="M563.25,335.62a1.54,1.54,0,1,0,2.07.69A1.54,1.54,0,0,0,563.25,335.62Z" transform="translate(-483.29 -280.28)"/><path class="cls-3" d="M585.26,327.79a1.55,1.55,0,1,1-.75-2.06A1.55,1.55,0,0,1,585.26,327.79Z" transform="translate(-483.29 -280.28)"/><path class="cls-3" d="M582.59,332.56a1.54,1.54,0,1,1-.34-2.16A1.55,1.55,0,0,1,582.59,332.56Z" transform="translate(-483.29 -280.28)"/><path class="cls-3" d="M578.55,337.92a1.54,1.54,0,1,1,.22-2.17A1.54,1.54,0,0,1,578.55,337.92Z" transform="translate(-483.29 -280.28)"/><path class="cls-3" d="M574,341.7a1.55,1.55,0,1,1,.33-2.16A1.55,1.55,0,0,1,574,341.7Z" transform="translate(-483.29 -280.28)"/><path class="cls-3" d="M568.53,345.15a1.54,1.54,0,1,1-1.59-2.64,1.52,1.52,0,0,1,2.11.52A1.54,1.54,0,0,1,568.53,345.15Z" transform="translate(-483.29 -280.28)"/><path class="cls-4" d="M548.94,318.93l.3.79a29.84,29.84,0,0,0,7.89-5.09C562.32,310,565,304.27,565,298l-.76,0C564.32,312.56,549.1,318.87,548.94,318.93Z" transform="translate(-483.29 -280.28)"/><path class="cls-4" d="M564.59,298.87s3.83-2.86,1.34-8C565.93,290.88,562.69,294.51,564.59,298.87Z" transform="translate(-483.29 -280.28)"/><path class="cls-4" d="M563.88,303.41s6,1.27,7.31-5.76C571.19,297.65,568,296.87,563.88,303.41Z" transform="translate(-483.29 -280.28)"/><path class="cls-4" d="M564.08,303.41s-5.71-2.41-4-9.34C560.05,294.07,563.15,295.27,564.08,303.41Z" transform="translate(-483.29 -280.28)"/><path class="cls-4" d="M561.64,308.8s5.85,1.94,7.85-4.87C569.49,303.93,566.37,302.79,561.64,308.8Z" transform="translate(-483.29 -280.28)"/><path class="cls-4" d="M561.84,308.83a7.82,7.82,0,0,1-3.15-9.71S561.68,300.67,561.84,308.83Z" transform="translate(-483.29 -280.28)"/><path class="cls-4" d="M557.55,313.76s5.51,3,8.56-3.27C566.11,310.49,563.19,308.78,557.55,313.76Z" transform="translate(-483.29 -280.28)"/><path class="cls-4" d="M557.75,313.82a7.88,7.88,0,0,1-1.63-10.07S558.85,305.82,557.75,313.82Z" transform="translate(-483.29 -280.28)"/><path class="cls-4" d="M553.09,317.12s4.69,4.43,9.16-.66C562.25,316.46,559.79,314,553.09,317.12Z" transform="translate(-483.29 -280.28)"/><path class="cls-4" d="M553.27,317.23s-3.93-5.25.79-10.06C554.06,307.17,556.25,309.93,553.27,317.23Z" transform="translate(-483.29 -280.28)"/><path class="cls-5" d="M503.29,340.88s-10.67-5.68-5.8-8.13-.47-6.06-4.49-6.27-8.77-6.19-3.87-7.72-7.64-9.27-4.07-9.07,8.23,2.47,9,7.54,5.08,1,4.43-1.78,6.53,4,2.47,9,3.48,5.41,4.39,2.71,3.9,2.14,1.29,6.08-1.78,6.4.43,7.83S503.29,340.88,503.29,340.88Z" transform="translate(-483.29 -280.28)"/><path class="cls-6" d="M489.37,329.64s-4.93,1.1-6.08-3.2C483.29,326.44,488,326.26,489.37,329.64Z" transform="translate(-483.29 -280.28)"/><path class="cls-6" d="M511.34,347.38l-.52.18c-2.82-7.89-22.71-18.11-22.91-18.21l.25-.49C489,329.28,508.45,339.28,511.34,347.38Z" transform="translate(-483.29 -280.28)"/><path class="cls-6" d="M494.8,333.07l-.54-.12c.54-2.39-3.09-5.51-3.12-5.55l.35-.41C491.65,327.12,495.41,330.36,494.8,333.07Z" transform="translate(-483.29 -280.28)"/><path class="cls-6" d="M494.36,330.71a.27.27,0,0,0-.07.08l-.41-.37c1-1.1.07-3.87.06-3.89l.52-.18C494.51,326.48,495.45,329.33,494.36,330.71Z" transform="translate(-483.29 -280.28)"/><path class="cls-6" d="M492.21,328.22s-4.83-1.49-3.69-5.79C488.52,322.43,492.71,324.61,492.21,328.22Z" transform="translate(-483.29 -280.28)"/><path class="cls-6" d="M494.21,327.54s-2.84-4.17.73-6.83C494.94,320.71,496.85,325,494.21,327.54Z" transform="translate(-483.29 -280.28)"/><path class="cls-6" d="M499.51,336.13l-.46-.3c1.35-2-.92-6.25-.94-6.29l.48-.27C498.69,329.46,501,333.82,499.51,336.13Z" transform="translate(-483.29 -280.28)"/><path class="cls-6" d="M500.53,333.24a2.21,2.21,0,0,1-.68.58l-.26-.49c1.32-.68,1.45-3.59,1.45-3.62l.55,0A7,7,0,0,1,500.53,333.24Z" transform="translate(-483.29 -280.28)"/><path class="cls-6" d="M498.82,330.68s-4-3.11-1.38-6.73C497.44,324,500.57,327.48,498.82,330.68Z" transform="translate(-483.29 -280.28)"/><path class="cls-6" d="M500.93,330.76s-1.17-4.92,3.12-6.13C504.05,324.63,504.29,329.35,500.93,330.76Z" transform="translate(-483.29 -280.28)"/><path class="cls-6" d="M504,338.09a2.89,2.89,0,0,1-.83.73l-.28-.47c2.12-1.24,1.94-6,1.94-6.07l.55,0C505.39,332.44,505.52,336.18,504,338.09Z" transform="translate(-483.29 -280.28)"/><path class="cls-6" d="M507.05,335.22a3.77,3.77,0,0,1-2.56,1.67v-.55c1.47,0,2.88-2.57,2.89-2.6l.49.27A9.24,9.24,0,0,1,507.05,335.22Z" transform="translate(-483.29 -280.28)"/><path class="cls-6" d="M505,333.62s-2.19-4.55,1.74-6.64C506.7,327,508,331.54,505,333.62Z" transform="translate(-483.29 -280.28)"/><path class="cls-6" d="M506.82,334.63s1.13-4.92,5.51-4.11C512.33,330.52,510.46,334.86,506.82,334.63Z" transform="translate(-483.29 -280.28)"/><path class="cls-6" d="M496.21,334c-2.41,1.38-6.61-1.25-6.79-1.36l.29-.46c.05,0,4.1,2.56,6.23,1.35Z" transform="translate(-483.29 -280.28)"/><path class="cls-6" d="M493.74,334.36c-1.06,1.34-3.92,1.28-4.05,1.28l0-.55s2.94.05,3.7-1.21l.47.28Z" transform="translate(-483.29 -280.28)"/><path class="cls-6" d="M490.81,332.93s-2.85-4.17-6.62-1.81C484.19,331.12,487.51,334.47,490.81,332.93Z" transform="translate(-483.29 -280.28)"/><path class="cls-6" d="M490.75,335s-4.82-1.48-6.31,2.72C484.44,337.76,489.13,338.31,490.75,335Z" transform="translate(-483.29 -280.28)"/><path class="cls-6" d="M500.6,336.7c-1.66,2.09-6.29,1.73-6.49,1.72l0-.55c.05,0,4.81.37,6.14-1.69l.47.3C500.71,336.56,500.65,336.63,500.6,336.7Z" transform="translate(-483.29 -280.28)"/><path class="cls-6" d="M498.17,339.12a8.08,8.08,0,0,1-2.42,1.85l-.24-.49s2.63-1.31,2.72-2.79l.54,0A2.5,2.5,0,0,1,498.17,339.12Z" transform="translate(-483.29 -280.28)"/><path class="cls-6" d="M495.49,338.05s-4.46-2.37-6.71,1.47C488.78,339.52,493.28,341,495.49,338.05Z" transform="translate(-483.29 -280.28)"/><path class="cls-6" d="M496.42,340s-5,.91-4.34,5.32C492.08,345.28,496.49,343.6,496.42,340Z" transform="translate(-483.29 -280.28)"/><path class="cls-6" d="M505.23,341.34c-1.57,2-5.69,2.3-5.88,2.32l0-.55c.05,0,4.81-.38,5.8-2.62l.51.22A3,3,0,0,1,505.23,341.34Z" transform="translate(-483.29 -280.28)"/><path class="cls-6" d="M503,344.37a9,9,0,0,1-1.65,1.56l-.32-.45s2.4-1.71,2.25-3.18l.55-.05A3.13,3.13,0,0,1,503,344.37Z" transform="translate(-483.29 -280.28)"/><path class="cls-6" d="M500.65,343.08s-4.77-1.65-6.4,2.5C494.25,345.58,498.92,346.29,500.65,343.08Z" transform="translate(-483.29 -280.28)"/><path class="cls-6" d="M501.87,344.82s-4.76,1.68-3.46,5.94C498.41,350.76,502.51,348.4,501.87,344.82Z" transform="translate(-483.29 -280.28)"/><polygon class="cls-3" points="68.98 60.55 43.2 60.55 43.2 0 68.98 13.08 68.98 60.55"/><rect class="cls-3" x="60.92" y="15.95" width="2" height="9.1"/><rect class="cls-3" x="55.89" y="15.95" width="2" height="9.1"/><rect class="cls-3" x="50.33" y="15.72" width="2" height="9.1"/><rect class="cls-7" x="60.92" y="29.95" width="2" height="9.1"/><rect class="cls-7" x="55.89" y="29.95" width="2" height="9.1"/><rect class="cls-7" x="50.33" y="29.72" width="2" height="9.1"/><rect class="cls-7" x="60.92" y="44.95" width="2" height="9.1"/><rect class="cls-7" x="55.89" y="44.95" width="2" height="9.1"/><rect class="cls-7" x="50.33" y="44.72" width="2" height="9.1"/><rect class="cls-8" x="29.56" y="21.46" width="23.69" height="40.22"/><rect class="cls-9" x="31.22" y="24.49" width="4.98" height="5.39"/><rect class="cls-9" x="38.22" y="24.49" width="4.98" height="5.39"/><rect class="cls-9" x="45.35" y="24.79" width="4.98" height="5.39"/><rect class="cls-10" x="31.22" y="32.49" width="4.98" height="5.39"/><rect class="cls-9" x="38.22" y="32.49" width="4.98" height="5.39"/><rect class="cls-9" x="45.35" y="32.79" width="4.98" height="5.39"/><rect class="cls-10" x="31.22" y="40.49" width="4.98" height="5.39"/><rect class="cls-9" x="38.22" y="40.49" width="4.98" height="5.39"/><rect class="cls-9" x="45.35" y="40.79" width="4.98" height="5.39"/><rect class="cls-10" x="31.22" y="48.49" width="4.98" height="5.39"/><rect class="cls-9" x="38.22" y="48.49" width="4.98" height="5.39"/><rect class="cls-9" x="45.35" y="48.79" width="4.98" height="5.39"/><rect class="cls-6" x="61.7" y="32.79" width="19.84" height="29.93"/><rect class="cls-2" x="64.79" y="36.07" width="13.96" height="2.2"/><rect class="cls-2" x="64.79" y="42.07" width="13.96" height="2.2"/><rect class="cls-2" x="64.79" y="48.07" width="13.96" height="2.2"/><rect class="cls-2" x="64.79" y="54.07" width="13.96" height="2.2"/><path class="cls-2" d="M520.21,310.54v40.6H498.73S497.11,314.64,520.21,310.54Z" transform="translate(-483.29 -280.28)"/><path class="cls-11" d="M586.1,358.6c0,1.74-4,4-42.72,4s-54.6-1.37-54.6-3.11,15.86-3.2,54.6-3.2S586.1,356.85,586.1,358.6Z" transform="translate(-483.29 -280.28)"/><path class="cls-12" d="M491.93,357.85S503.4,337.43,535.11,337c26.59-.34,40.9,9.27,48.3,21.4C583.41,358.42,525.67,360.4,491.93,357.85Z" transform="translate(-483.29 -280.28)"/><path class="cls-4" d="M490.36,358.08s7.58-5.07,12.2-3.43,9.8,3.57,14.8,1.69,11.54-7.8,18.54-6.5,12.51,6.54,20.3,6.5,6.53-.56,11.42-.63,12.62.46,16,2.85C583.59,358.56,537,362.69,490.36,358.08Z" transform="translate(-483.29 -280.28)"/><path class="cls-4" d="M573.83,359.11c-2.24-.19-4.46-.23-6.31-.2-4.89.07-3.62.6-11.42.64s-13.3-5.21-20.3-6.51-13.55,4.63-18.54,6.51q-.42.15-.84.27C540.5,360.75,562,359.84,573.83,359.11Z" transform="translate(-483.29 -280.28)"/><path class="cls-13" d="M503.44,349.65a35.86,35.86,0,0,1,15.77-8.76c10-2.49,24.15-3.41,35.08-.36,11.78,3.28,27,11.55,18.67,12.13-9.38.65-15.41-2.18-21.15-1.9-14.2.67-13.2-6.9-20.15-5.26s-11.51,8.17-16.86,8.22S501.1,353.26,503.44,349.65Z" transform="translate(-483.29 -280.28)"/><rect class="cls-14" x="25.16" y="38.98" width="2.66" height="2.4"/><rect class="cls-14" x="29.1" y="38.98" width="2.5" height="2.49"/><rect class="cls-14" x="33.07" y="38.98" width="2.5" height="2.49"/><rect class="cls-14" x="25.16" y="43.98" width="2.66" height="2.4"/><rect class="cls-14" x="29.1" y="43.98" width="2.5" height="2.49"/><rect class="cls-14" x="33.07" y="43.98" width="2.5" height="2.49"/><rect class="cls-14" x="25.16" y="48.98" width="2.66" height="2.4"/><rect class="cls-14" x="29.1" y="48.98" width="2.5" height="2.49"/><rect class="cls-14" x="33.07" y="48.98" width="2.5" height="2.49"/><rect class="cls-14" x="25.16" y="54.98" width="2.66" height="2.4"/><rect class="cls-14" x="21.16" y="43.98" width="2.66" height="2.4"/><rect class="cls-14" x="21.16" y="48.98" width="2.66" height="2.4"/><rect class="cls-14" x="21.16" y="54.98" width="2.66" height="2.4"/><rect class="cls-14" x="29.1" y="54.98" width="2.5" height="2.49"/><rect class="cls-14" x="33.07" y="54.98" width="2.5" height="2.49"/><path class="cls-15" d="M542.3,305.32c1.3,1,2.26,3.17,5.87,3.14s-1.58,5.37-5,5.27-7.13-.8-6.21-5.75C537.64,304.11,541,304.31,542.3,305.32Z" transform="translate(-483.29 -280.28)"/><path class="cls-15" d="M542.27,306.6s1.67,2.86,2.78,3.07-7.35,3.26-7.35,3.26l2-5Z" transform="translate(-483.29 -280.28)"/><path class="cls-16" d="M543.38,312.21a1.9,1.9,0,0,1,.22-2.26c1-1.06,4-1.95,4.48-4a3.76,3.76,0,0,0-1.06-3.74c-.59-.75-1.17-.77-1.46-1.24s.28-.8,1.5.17c.59.47,3.75,2.42,3.57,4.94C550.41,309.4,544.76,314.11,543.38,312.21Z" transform="translate(-483.29 -280.28)"/><path class="cls-17" d="M546.79,330.57c.34-.2,2.11-.65,1.75,1.05s-4.07,5.13-4.64,5.29-.79-.73-.79-.73S544.72,331.75,546.79,330.57Z" transform="translate(-483.29 -280.28)"/><path class="cls-17" d="M543.17,336a3.26,3.26,0,0,0-.28.88c0,.44,2,1.34,1.75.73s-.83-.81-.7-1S543.17,336,543.17,336Z" transform="translate(-483.29 -280.28)"/><path class="cls-17" d="M539.07,338.46c0-.36.75-1.85,2-.47s1.94,6.16,1.73,6.65-1.14,0-1.14,0S538.82,340.64,539.07,338.46Z" transform="translate(-483.29 -280.28)"/><path class="cls-17" d="M541.58,344.54a3.78,3.78,0,0,0,.6.77c.36.31,2.38-.4,1.72-.68s-1.23,0-1.27-.17S541.58,344.54,541.58,344.54Z" transform="translate(-483.29 -280.28)"/><path class="cls-18" d="M544.77,319.5l3.28,2.87s4,3.72,4.21,4.58-6.9,9.77-6.9,9.77l-2.26-2.1,2.4-5.71-3-2.62Z" transform="translate(-483.29 -280.28)"/><path class="cls-19" d="M538.86,319.69s-4.34,3.59-2.85,10.88a51.31,51.31,0,0,0,4.7,13l2.47-.08s-1.58-6.08-1.48-9.47,3.07-14.54,3.07-14.54S544.34,320.38,538.86,319.69Z" transform="translate(-483.29 -280.28)"/><path class="cls-16" d="M545.35,311.84c-.53-2.58-4-2.19-6.59-1.18-1.62.64-4.23,1.78-2.27,5.09,1.37,2.31,2.14,3.52.89,6.27-.16.36.11-.44,0,0,1.73.62,2.68-.24,4.67-.28a13,13,0,0,0,3.78-1c-.61-1.85-.55,0-.59-.12C543.91,317.29,545.8,314,545.35,311.84Z" transform="translate(-483.29 -280.28)"/><path class="cls-20" d="M546.09,320.64c-.81-2.15-1.07-2.49-.42-3.78,1.44-2.91-2.6-6.93-2.6-6.93l-1,0c2.72,2.9,2.26,4.12,1.4,4.33-2.87.69-4.81-3.51-4.81-3.51l-.94.41a5.5,5.5,0,0,1,1.91,3.79c.31,3.14-2.1,2.88-2.1,2.88.22,1,.68,1.25.19,3.12l-.85,1.52C539.59,323.45,546.13,322.46,546.09,320.64Z" transform="translate(-483.29 -280.28)"/><path class="cls-17" d="M539.74,307.9a3.88,3.88,0,0,1-.09,2.48c-.35.51,2.51,1.72,2.44,1-.09-.88-.61-1.41-.06-2.41Z" transform="translate(-483.29 -280.28)"/><path class="cls-16" d="M541.65,305.41c.76.75,1.49,4,.66,4.65-.36.3-1.8-.09-2.68-1.52a2.65,2.65,0,0,1-.18-2.75A1.41,1.41,0,0,1,541.65,305.41Z" transform="translate(-483.29 -280.28)"/><path class="cls-15" d="M542.24,306c.06.46.07.73-.91.6-1.21-.15-1,.75-.92,1.07.33.91-1.08,0-.67,1.06s-.89-.24-1-.4-.5-.89.23-2.43S542.05,304.56,542.24,306Z" transform="translate(-483.29 -280.28)"/><path class="cls-16" d="M537.32,313.3a1.9,1.9,0,0,0-.39-2.22c-1.13-.95-4.07-1.56-4.74-3.5a3.8,3.8,0,0,1,.76-3.81c.52-.8,1.09-.88,1.34-1.37s-.34-.76-1.47.31c-.53.52-3.5,2.75-3.13,5.22C530.17,311.17,536.11,315.31,537.32,313.3Z" transform="translate(-483.29 -280.28)"/><path class="cls-15" d="M537.52,317.79s1.34.56,3.29-.91c0,0,1-.57,1,0s-.77,1.21-1.14,1.4-1.26,1.76.77,1.65,1.27,1.09.7,1.22-2.89.72-2.15,1.1,1.09.81,1.14.53a7.48,7.48,0,0,1-4.25-.35A4,4,0,0,0,537.52,317.79Z" transform="translate(-483.29 -280.28)"/></svg>