<svg id="Layer_1" data-name="Layer 1" xmlns="http://www.w3.org/2000/svg" viewBox="0 0 88.05 91.54"><defs><style>.cls-1{fill:#d8d5ca;}.cls-2{fill:#332766;}.cls-3{fill:#1e1341;}.cls-4{fill:#fc593a;}.cls-5{fill:#ffbd36;}.cls-6{fill:#5a70e0;}.cls-7{fill:#317170;}.cls-8{fill:#fca09f;}.cls-9{fill:#114839;}.cls-10{fill:#e0623f;}.cls-11{fill:#ee9d7f;}.cls-12{fill:#2e87cd;}.cls-13{fill:#7bb1cc;}.cls-14{fill:#9acfe5;}.cls-15{fill:#f33d25;}.cls-16{fill:#e67052;}.cls-17{fill:#f27851;}.cls-18{fill:#051536;}.cls-19{fill:#9bc2e0;}.cls-20{fill:#c7e0ef;}.cls-21{fill:#abd5ef;}</style></defs><path class="cls-1" d="M357.25,248.77c0,1.55-3.61,3.55-38.66,3.55s-49.39-1.22-49.39-2.77,14.34-2.86,49.39-2.86S357.25,247.21,357.25,248.77Z" transform="translate(-269.2 -160.79)"/><path class="cls-2" d="M354.32,210.94a38.4,38.4,0,1,1-38.4-38.4A38.39,38.39,0,0,1,354.32,210.94Z" transform="translate(-269.2 -160.79)"/><path class="cls-3" d="M319,194.57s-14-11.81-8.42-15.94c11-8.11,42.12,10.31,32,22.44s-8.76,3.71-11.8,3.71-8.08,5.05-4.71,8.08,3.7,13.82,8.08,13.82,4,12.55-3.55,19.75c0,0-3.41,1.86-10.88,2.71,0,0-10.62-14.29-6-20.44,4.05-5.39,2-11.79,5.39-17.19S322.83,201.15,319,194.57Z" transform="translate(-269.2 -160.79)"/><path class="cls-3" d="M286,186.82s12.71,4.65,9.85,9.2-6.23,7.74-4.71,11.62,11.11,14.66,5.13,21.56c-4.63,5.35-4.27,10.41-2.26,13.29,0,0-14.95-10.25-16.52-28.6C276.92,206.82,277.17,196.52,286,186.82Z" transform="translate(-269.2 -160.79)"/><path class="cls-4" d="M283,180.08s-6.15-1.72-4.86-7.2C278.09,172.88,283.46,175.5,283,180.08Z" transform="translate(-269.2 -160.79)"/><path class="cls-4" d="M296.81,213l-.69-.1c1.59-10.49-14.46-33.78-14.62-34l.57-.39C282.74,179.45,298.44,202.24,296.81,213Z" transform="translate(-269.2 -160.79)"/><path class="cls-4" d="M287,187.16l-.53-.46c2-2.35-.15-8-.17-8l.65-.26C287,178.64,289.24,184.5,287,187.16Z" transform="translate(-269.2 -160.79)"/><path class="cls-4" d="M287.86,184.26l-.12,0-.24-.65c1.74-.65,2.4-4.26,2.41-4.3l.68.12C290.56,179.63,289.91,183.38,287.86,184.26Z" transform="translate(-269.2 -160.79)"/><path class="cls-4" d="M287,180.2s-4.49-4.55-.64-8.67C286.32,171.53,289.68,176.48,287,180.2Z" transform="translate(-269.2 -160.79)"/><path class="cls-4" d="M289.6,180.64s-.68-6.35,4.9-7.18C294.5,173.46,294,179.42,289.6,180.64Z" transform="translate(-269.2 -160.79)"/><path class="cls-4" d="M290.36,193.39l-.33-.61c2.73-1.47,2.72-7.53,2.71-7.59h.7C293.44,185.45,293.45,191.72,290.36,193.39Z" transform="translate(-269.2 -160.79)"/><path class="cls-4" d="M293.23,190.77a2.55,2.55,0,0,1-1.11.24v-.7c1.87,0,3.76-3.13,3.78-3.16l.6.36A8.87,8.87,0,0,1,293.23,190.77Z" transform="translate(-269.2 -160.79)"/><path class="cls-4" d="M292.85,186.9s-2.57-5.85,2.49-8.33C295.34,178.57,296.72,184.39,292.85,186.9Z" transform="translate(-269.2 -160.79)"/><path class="cls-4" d="M295.16,188.25s1.64-6.18,7.14-5C302.3,183.29,299.75,188.7,295.16,188.25Z" transform="translate(-269.2 -160.79)"/><path class="cls-4" d="M294.19,198.26a4,4,0,0,1-1.37.32l0-.7c3.09-.11,5.76-5.54,5.79-5.6l.63.31C299.12,192.79,297,197,294.19,198.26Z" transform="translate(-269.2 -160.79)"/><path class="cls-4" d="M299.31,196.88c-1.16.5-2.72.93-3.85.34l.31-.62c1.67.85,4.76-1.14,4.79-1.16l.38.58A10.76,10.76,0,0,1,299.31,196.88Z" transform="translate(-269.2 -160.79)"/><path class="cls-4" d="M297.93,193.85s.29-6.38,5.92-6.36C303.85,187.49,302.51,193.32,297.93,193.85Z" transform="translate(-269.2 -160.79)"/><path class="cls-4" d="M299.41,196.09s4.19-4.81,8.59-1.29C308,194.8,303.32,198.52,299.41,196.09Z" transform="translate(-269.2 -160.79)"/><path class="cls-4" d="M288,189c-3.52.09-6.63-5.36-6.76-5.59l.61-.34s3,5.31,6.13,5.23Z" transform="translate(-269.2 -160.79)"/><path class="cls-4" d="M285,188c-2,.86-5.14-.91-5.27-1l.34-.61s3.25,1.82,4.85.87l.35.59A1.74,1.74,0,0,1,285,188Z" transform="translate(-269.2 -160.79)"/><path class="cls-4" d="M282.59,184.61s-.68-6.35-6.3-6C276.29,178.62,278,184.35,282.59,184.61Z" transform="translate(-269.2 -160.79)"/><path class="cls-4" d="M281.25,186.93s-4.49-4.55-8.65-.75C272.6,186.18,277.5,189.6,281.25,186.93Z" transform="translate(-269.2 -160.79)"/><path class="cls-4" d="M291.23,194.67c-3.1,1.34-8-1.83-8.26-2l.38-.58s5.14,3.3,7.85,1.8l.34.61A1.77,1.77,0,0,1,291.23,194.67Z" transform="translate(-269.2 -160.79)"/><path class="cls-4" d="M287.08,195.91a10.26,10.26,0,0,1-3.81.62l0-.7s3.71.11,4.69-1.48l.6.37A3.27,3.27,0,0,1,287.08,195.91Z" transform="translate(-269.2 -160.79)"/><path class="cls-4" d="M284.73,193.12s-3.54-5.32-8.36-2.39C276.37,190.73,280.53,195,284.73,193.12Z" transform="translate(-269.2 -160.79)"/><path class="cls-4" d="M284.62,195.79s-6.08-1.95-8,3.34C276.6,199.13,282.53,199.9,284.62,195.79Z" transform="translate(-269.2 -160.79)"/><path class="cls-4" d="M293.62,202.61c-2.95,1.27-7.73-.84-7.95-.94L286,201c.06,0,5.6,2.46,8,.55l.43.55A3.81,3.81,0,0,1,293.62,202.61Z" transform="translate(-269.2 -160.79)"/><path class="cls-4" d="M289.34,204.67a11.09,11.09,0,0,1-2.77.74l-.09-.69s3.69-.47,4.41-2.19l.64.27A3.93,3.93,0,0,1,289.34,204.67Z" transform="translate(-269.2 -160.79)"/><path class="cls-4" d="M287.47,201.82s-4.32-4.7-8.62-1.06C278.85,200.76,283.62,204.35,287.47,201.82Z" transform="translate(-269.2 -160.79)"/><path class="cls-4" d="M287.78,204.48s-6.31-1-7.4,4.55C280.38,209,286.36,208.86,287.78,204.48Z" transform="translate(-269.2 -160.79)"/><path class="cls-5" d="M320.68,219.19l.36,1.14a42.4,42.4,0,0,0,11.46-6.58c7.62-6.09,11.87-14,12.28-22.83l-1.07-.11C342.75,211.37,320.9,219.12,320.68,219.19Z" transform="translate(-269.2 -160.79)"/><path class="cls-5" d="M344.13,192.14s5.59-3.73,2.46-11.12C346.59,181,341.77,185.88,344.13,192.14Z" transform="translate(-269.2 -160.79)"/><path class="cls-5" d="M342.8,198.48s8.28,2.22,10.69-7.57C353.49,190.91,349.06,189.58,342.8,198.48Z" transform="translate(-269.2 -160.79)"/><path class="cls-5" d="M343.08,198.5s-7.86-3.82-5-13.42C338.1,185.08,342.37,187,343.08,198.5Z" transform="translate(-269.2 -160.79)"/><path class="cls-5" d="M339.26,205.89s8.08,3.15,11.39-6.27C350.65,199.62,346.35,197.79,339.26,205.89Z" transform="translate(-269.2 -160.79)"/><path class="cls-5" d="M339.54,205.94s-7.49-4.67-3.72-13.87C335.82,192.07,339.91,194.46,339.54,205.94Z" transform="translate(-269.2 -160.79)"/><path class="cls-5" d="M333.15,212.56s7.53,4.61,12.27-4C345.42,208.59,341.43,206,333.15,212.56Z" transform="translate(-269.2 -160.79)"/><path class="cls-5" d="M333.42,212.66a11.11,11.11,0,0,1-1.55-14.28S335.56,201.5,333.42,212.66Z" transform="translate(-269.2 -160.79)"/><path class="cls-5" d="M326.65,217s6.26,6.57,12.91-.26C339.56,216.69,336.28,213.05,326.65,217Z" transform="translate(-269.2 -160.79)"/><path class="cls-5" d="M326.88,217.12s-5.13-7.66,1.85-14.07C328.73,203.05,331.6,207.08,326.88,217.12Z" transform="translate(-269.2 -160.79)"/><path class="cls-6" d="M327.58,192.4l4.74,1.22c3-3.59,4.24-8.82,4.71-13.3l-2.7-3.69,2.88,1.39a46.31,46.31,0,0,0-.08-6.6,21.6,21.6,0,0,0-11.62,2.91l1.87,3-3.88-1.52c-8.47,7.35-6.05,21.38-6.05,21.38,5.69,1.46,9.77.6,12.69-1.52Z" transform="translate(-269.2 -160.79)"/><path class="cls-7" d="M312.2,219.05l.12-1.48a48.43,48.43,0,0,1-35-19.35L276,199A50.06,50.06,0,0,0,312.2,219.05Z" transform="translate(-269.2 -160.79)"/><path class="cls-7" d="M277.48,199.45s-3.66-7.56-7.39-4.74C268.5,195.9,269.71,199.61,277.48,199.45Z" transform="translate(-269.2 -160.79)"/><path class="cls-7" d="M279.44,201.86s-8.06-3.82-8.5.75C270.76,204.55,274.34,206.79,279.44,201.86Z" transform="translate(-269.2 -160.79)"/><path class="cls-7" d="M279.49,202.69s-5.3-6.8-.5-7.89C281,194.33,284,197.27,279.49,202.69Z" transform="translate(-269.2 -160.79)"/><path class="cls-7" d="M285,207.48s-5.64-6.59-.92-7.9C286.12,199,289.2,201.83,285,207.48Z" transform="translate(-269.2 -160.79)"/><path class="cls-7" d="M289.87,211.08s-5.62-6.6-.9-7.9C291,202.62,294.05,205.45,289.87,211.08Z" transform="translate(-269.2 -160.79)"/><path class="cls-7" d="M296.47,214.47s-6.73-5.69-2.42-7.75C295.89,205.84,299.4,208.16,296.47,214.47Z" transform="translate(-269.2 -160.79)"/><path class="cls-7" d="M302.11,216.51s-6.56-5.86-2.17-7.8C301.8,207.88,305.25,210.29,302.11,216.51Z" transform="translate(-269.2 -160.79)"/><path class="cls-7" d="M309.73,218s-7.91-4.12-4.41-7.15C306.82,209.59,310.77,211.09,309.73,218Z" transform="translate(-269.2 -160.79)"/><path class="cls-7" d="M283.59,206.25s-8.07-3.81-8.5.76C274.91,209,278.48,211.18,283.59,206.25Z" transform="translate(-269.2 -160.79)"/><path class="cls-7" d="M288.53,210s-8.07-3.81-8.51.75C279.84,212.72,283.42,215,288.53,210Z" transform="translate(-269.2 -160.79)"/><path class="cls-7" d="M293.85,213s-8.63-2.11-7.89,2.52C286.27,217.48,290.23,219,293.85,213Z" transform="translate(-269.2 -160.79)"/><path class="cls-7" d="M300.08,215.66s-8.75-1.29-7.48,3.29C293.14,220.9,297.2,222,300.08,215.66Z" transform="translate(-269.2 -160.79)"/><path class="cls-7" d="M306.6,217.36s-8.74-.14-6.78,4.29C300.66,223.54,304.8,224.11,306.6,217.36Z" transform="translate(-269.2 -160.79)"/><path class="cls-8" d="M320.05,212.51c13.66-13,14.3-27.85,14.3-28l-.63,0c0,.14-.64,14.72-14.11,27.56Z" transform="translate(-269.2 -160.79)"/><polygon class="cls-8" points="62.86 31.85 63.48 31.71 62.51 27.39 61.88 27.53 62.86 31.85"/><polygon class="cls-8" points="61.39 35.94 61.98 35.67 60.12 31.65 59.54 31.91 61.39 35.94"/><polygon class="cls-8" points="59.24 40.38 59.82 40.12 57.96 36.09 57.39 36.35 59.24 40.38"/><rect class="cls-8" x="324.98" y="200.63" width="0.64" height="4.43" transform="translate(-324.11 -7.02) rotate(-24.59)"/><polygon class="cls-8" points="54 48.01 54.58 47.75 52.73 43.72 52.15 43.99 54 48.01"/><polygon class="cls-8" points="63.73 30.95 66.66 27.62 66.19 27.2 63.25 30.52 63.73 30.95"/><rect class="cls-8" x="330.79" y="194.19" width="4.44" height="0.64" transform="translate(-318.73 82.63) rotate(-37.58)"/><polygon class="cls-8" points="59.78 40.2 63.87 38.48 63.63 37.9 59.53 39.6 59.78 40.2"/><rect class="cls-8" x="325.72" y="204.43" width="4.44" height="0.64" transform="translate(-319.15 -37.7) rotate(-19.78)"/><rect class="cls-8" x="321.84" y="209.17" width="4.43" height="0.64" transform="translate(-311.36 -72.88) rotate(-14.51)"/><path class="cls-8" d="M333,183.23a1.55,1.55,0,1,0,2.09-.64A1.54,1.54,0,0,0,333,183.23Z" transform="translate(-269.2 -160.79)"/><path class="cls-8" d="M329.49,186.83a1.55,1.55,0,1,0,2.05-.78A1.55,1.55,0,0,0,329.49,186.83Z" transform="translate(-269.2 -160.79)"/><path class="cls-8" d="M327.46,190.8a1.54,1.54,0,1,0,2.17-.07A1.54,1.54,0,0,0,327.46,190.8Z" transform="translate(-269.2 -160.79)"/><path class="cls-8" d="M325.3,195.24a1.55,1.55,0,1,0,2.18-.06A1.55,1.55,0,0,0,325.3,195.24Z" transform="translate(-269.2 -160.79)"/><path class="cls-8" d="M322.79,199.07A1.55,1.55,0,1,0,325,199,1.55,1.55,0,0,0,322.79,199.07Z" transform="translate(-269.2 -160.79)"/><path class="cls-8" d="M320.06,202.88a1.54,1.54,0,1,0,2.18-.07A1.54,1.54,0,0,0,320.06,202.88Z" transform="translate(-269.2 -160.79)"/><path class="cls-8" d="M338,187.87a1.54,1.54,0,1,1-1.41-1.66A1.53,1.53,0,0,1,338,187.87Z" transform="translate(-269.2 -160.79)"/><path class="cls-8" d="M337.13,193.27a1.54,1.54,0,1,1-1.07-1.89A1.54,1.54,0,0,1,337.13,193.27Z" transform="translate(-269.2 -160.79)"/><path class="cls-8" d="M335.21,199.71a1.55,1.55,0,1,1-.55-2.11A1.55,1.55,0,0,1,335.21,199.71Z" transform="translate(-269.2 -160.79)"/><path class="cls-8" d="M332.24,204.84a1.54,1.54,0,1,1-2.58-1.69,1.54,1.54,0,0,1,2.58,1.69Z" transform="translate(-269.2 -160.79)"/><path class="cls-8" d="M328.33,210a1.54,1.54,0,1,1-.25-2.17A1.54,1.54,0,0,1,328.33,210Z" transform="translate(-269.2 -160.79)"/><path class="cls-9" d="M299.83,210.23s-7.38-9.56-1.94-9.79,2.06-5.71-1.51-7.56-5.45-9.25-.36-8.63-3.14-11.6,0-9.95,6.49,5.64,5.06,10.57,4.22,3,4.77.2,4.32,6.31-1.45,9.23.94,6.36,2.89,4.27,2.67,3.56-1.33,6.08-4.26,5.09-2.83,7.31S299.83,210.23,299.83,210.23Z" transform="translate(-269.2 -160.79)"/><path class="cls-5" d="M315.1,192.66l-.52.66a30.29,30.29,0,0,1-5.92-7.3c-3.49-6-4.3-12.29-2.33-18.24l.74.2C302.49,181.8,315,192.55,315.1,192.66Z" transform="translate(-269.2 -160.79)"/><path class="cls-5" d="M306.45,168.76s-2.75-3.91,1.19-8C307.64,160.79,309.59,165.24,306.45,168.76Z" transform="translate(-269.2 -160.79)"/><path class="cls-5" d="M305.73,173.28s-6-.68-5.15-7.75C300.58,165.53,303.85,165.79,305.73,173.28Z" transform="translate(-269.2 -160.79)"/><path class="cls-5" d="M305.54,173.22s6.15-.49,6.69-7.56C312.23,165.66,308.92,165.82,305.54,173.22Z" transform="translate(-269.2 -160.79)"/><path class="cls-5" d="M306.19,179.09s-6.14,0-5.94-7.08C300.25,172,303.55,171.91,306.19,179.09Z" transform="translate(-269.2 -160.79)"/><path class="cls-5" d="M306,179a7.71,7.71,0,0,0,6-8.18S308.66,171.38,306,179Z" transform="translate(-269.2 -160.79)"/><path class="cls-5" d="M308.53,185.06s-6.14,1.1-7.09-5.79C301.44,179.27,304.73,178.58,308.53,185.06Z" transform="translate(-269.2 -160.79)"/><path class="cls-5" d="M308.33,185.06a7.79,7.79,0,0,0,4.64-9S309.75,177.14,308.33,185.06Z" transform="translate(-269.2 -160.79)"/><path class="cls-5" d="M311.72,189.64s-5.8,2.72-8.46-3.51C303.26,186.13,306.34,184.58,311.72,189.64Z" transform="translate(-269.2 -160.79)"/><path class="cls-5" d="M311.52,189.69s5.34-3.73,2.35-9.76C313.87,179.93,311,181.85,311.52,189.69Z" transform="translate(-269.2 -160.79)"/><path class="cls-10" d="M325,215.67s0-1-1.51-1.24c-1.81-.31-5.71,1.69-8,.52a4.75,4.75,0,0,1-2.63-4c-.23-1.16.21-1.71,0-2.37s-1-.39-1,1.54c0,.92-.72,5.44,1.75,7.33C316.8,219.89,325.1,218,325,215.67Z" transform="translate(-269.2 -160.79)"/><path class="cls-11" d="M324.7,241.34c.52,2.44,1.86,5.63,1.93,7.3,0,.27,0,.37-.92.58s-.08.74,1.45.8,1-7.05.48-10.4C327.14,236.7,324.11,238.51,324.7,241.34Z" transform="translate(-269.2 -160.79)"/><path class="cls-12" d="M327.85,249.35a2.67,2.67,0,0,1-2.14-.13s-1.51.12-.6.56S327.82,250.66,327.85,249.35Z" transform="translate(-269.2 -160.79)"/><path class="cls-11" d="M315.42,231.93c1.36,2.12,3.76,4.66,4.44,6.2.1.25.1.35-.66.85s.2.73,1.64.27-1.55-7-3.29-9.91C316,226.76,313.84,229.48,315.42,231.93Z" transform="translate(-269.2 -160.79)"/><path class="cls-12" d="M321.25,238.38a2.59,2.59,0,0,1-2.05.6s-1.37.62-.36.73S321.7,239.62,321.25,238.38Z" transform="translate(-269.2 -160.79)"/><path class="cls-13" d="M319.08,224.05s-6.21-2.36-6.65.54c-.39,2.61,5.31,11.6,5.31,11.6a3.94,3.94,0,0,0,3-1L319,229.33l3.77-.34-1.17-4.06Z" transform="translate(-269.2 -160.79)"/><path class="cls-14" d="M327.33,225l1.09,21.7-2.66.1-5-22.12S322.81,225.61,327.33,225Z" transform="translate(-269.2 -160.79)"/><path class="cls-4" d="M327.54,226.42h0a1.42,1.42,0,0,1,0-.2h0c-.36-2.67-.71-4.37.5-6.84,1.72-3.54-1.16-4.38-2.9-4.93s-4.7-.92-5.93,2a12.69,12.69,0,0,0-.75,7.39C319.07,226.43,328.4,229.4,327.54,226.42Z" transform="translate(-269.2 -160.79)"/><path class="cls-15" d="M325.1,214.45c-.17-.06-.35-.1-.54-.15.14.41.33.88.5,1.33.58,1.56,0,2.43-2.8,2.78s.16,2,1.88,2.45-.8.89-3.37,1.6,3.78,1.65,5.14,2.33c.91.46.57,1.94.25,2.87,1,0,1.62-.37,1.38-1.24a1.42,1.42,0,0,1,0-.2c-.36-2.67-.71-4.37.5-6.84a4.41,4.41,0,0,0,.52-2.07c-.13-.42-.27-.84-.43-1.24A5.88,5.88,0,0,0,325.1,214.45Z" transform="translate(-269.2 -160.79)"/><path class="cls-16" d="M327.29,213.46s-1.51.46-1.39,1.68-4.19-.21-3.5-.69c.88-.62,1.73-.65,2.29-1.84Z" transform="translate(-269.2 -160.79)"/><path class="cls-17" d="M327.75,210c-1.27-.08-4.76,1.72-4.72,3,0,.54,1.5,1.5,3.48,1.18a3.19,3.19,0,0,0,2.63-1.93A1.64,1.64,0,0,0,327.75,210Z" transform="translate(-269.2 -160.79)"/><path class="cls-18" d="M326.77,209.68c-.49.16-.53.28.28,1.45s1.06,1.28.71,1.41c-1,.35-.19,1-1.44,1.37s.11.79,1.2.53a2.73,2.73,0,0,0,2-1.75A2.23,2.23,0,0,0,326.77,209.68Z" transform="translate(-269.2 -160.79)"/><path class="cls-18" d="M329.49,212.69a2.7,2.7,0,0,1-2,1.75c-.81.19-1.78.05-1.69-.23s.82.25,1.28-.49,1-.46,1.41-1,0-.88-.94-2.2c-.38-.54-.28-.8,0-.91A2.28,2.28,0,0,1,329.49,212.69Z" transform="translate(-269.2 -160.79)"/><path class="cls-19" d="M320.63,207.94a1.64,1.64,0,0,1-1.7,1.57l-10.09-.22a1.64,1.64,0,0,1-1.63-1.65l0-1a1.65,1.65,0,0,1,1.71-1.57l10.09.23a1.64,1.64,0,0,1,1.63,1.64Z" transform="translate(-269.2 -160.79)"/><path class="cls-20" d="M307.89,208.26a1.64,1.64,0,0,1-1.7,1.57l-1,0a1.64,1.64,0,0,1-1.63-1.65l.2-8.35a1.65,1.65,0,0,1,1.71-1.57l1,0a1.63,1.63,0,0,1,1.63,1.65Z" transform="translate(-269.2 -160.79)"/><polygon class="cls-19" points="53.16 44.58 33.18 44.13 33.6 26.35 53.7 22.15 53.16 44.58"/><path class="cls-19" d="M324.57,183c0,.75-.47,1.36-1,1.36l-14.48-.05a1.23,1.23,0,0,1-1-1.37v-1.53c0-.76.47-1.37,1-1.37l14.48.06a1.22,1.22,0,0,1,1,1.36Z" transform="translate(-269.2 -160.79)"/><path class="cls-20" d="M325.53,182.19a1.62,1.62,0,0,1-1,2.1l-22.25,8.33a1.7,1.7,0,0,1-2.19-.9l-.68-1.69a1.62,1.62,0,0,1,1-2.1l22.24-8.33a1.7,1.7,0,0,1,2.19.91Z" transform="translate(-269.2 -160.79)"/><path class="cls-20" d="M325.77,189.79a1.59,1.59,0,0,1-.95,2.08L303.06,200a1.67,1.67,0,0,1-2.15-.92l-.68-1.68a1.6,1.6,0,0,1,.95-2.09l21.75-8.15a1.69,1.69,0,0,1,2.16.92Z" transform="translate(-269.2 -160.79)"/><path class="cls-20" d="M327.09,197a1.59,1.59,0,0,1-.95,2.09l-21.75,8.15a1.69,1.69,0,0,1-2.16-.92l-.68-1.69a1.59,1.59,0,0,1,.95-2.08l21.76-8.15a1.69,1.69,0,0,1,2.16.92Z" transform="translate(-269.2 -160.79)"/><path class="cls-20" d="M322.3,208a1.64,1.64,0,0,1-1.71,1.57l-1,0a1.63,1.63,0,0,1-1.63-1.65l.2-8.35a1.64,1.64,0,0,1,1.7-1.57l1,0a1.64,1.64,0,0,1,1.63,1.65Z" transform="translate(-269.2 -160.79)"/><path class="cls-21" d="M323.08,210.66a1.67,1.67,0,0,1-1.76,1.57l-17.39-.39a1.66,1.66,0,0,1-1.68-1.64l0-.91a1.67,1.67,0,0,1,1.76-1.57l17.39.39a1.66,1.66,0,0,1,1.68,1.65Z" transform="translate(-269.2 -160.79)"/><path class="cls-19" d="M320.89,215a1.64,1.64,0,0,1-1.7,1.57l-13.7-.3a1.65,1.65,0,0,1-1.63-1.65l.05-2a1.63,1.63,0,0,1,1.7-1.57l13.7.3a1.64,1.64,0,0,1,1.63,1.65Z" transform="translate(-269.2 -160.79)"/><path class="cls-21" d="M317.65,219.85a1.64,1.64,0,0,1-1.7,1.57l-7.4-.16a1.65,1.65,0,0,1-1.63-1.65l.06-2.52a1.65,1.65,0,0,1,1.71-1.57l7.39.17a1.64,1.64,0,0,1,1.63,1.65Z" transform="translate(-269.2 -160.79)"/><path class="cls-17" d="M328.24,217s-.4-.9-1.92-.5c-1.76.47-4.4,3.9-7,3.79a5,5,0,0,1-4.18-2.56c-.72-.95-.58-1.63-1.05-2.14s-1,.05-.24,1.82c.38.84,1.78,5.21,4.85,5.89C322.75,224.16,329.4,219,328.24,217Z" transform="translate(-269.2 -160.79)"/></svg>