<svg id="Layer_1" data-name="Layer 1" xmlns="http://www.w3.org/2000/svg" viewBox="0 0 112.63 79.2"><defs><style>.cls-1{fill:#ffbd36;}.cls-2{fill:#317170;}.cls-3{fill:#fc593a;}.cls-4{fill:#bee4d7;}.cls-5{fill:#332766;}.cls-6{fill:#d8d5ca;}.cls-7{fill:#130c2d;}.cls-8{fill:#0d5d42;}.cls-9{fill:#e0623f;}.cls-10{fill:#f27851;}.cls-11{fill:#6e86cc;}.cls-12{fill:#7bb1cc;}.cls-13{fill:#9acfe5;}.cls-14{fill:#f79254;}.cls-15{fill:#dd743a;}.cls-16{fill:#062440;}.cls-17{fill:#051536;}.cls-18{fill:#e67052;}</style></defs><path class="cls-1" d="M555.17,183.49s-2.54-5.05,1.82-7.47C557,176,558.48,181.1,555.17,183.49Z" transform="translate(-472.26 -172.4)"/><path class="cls-1" d="M541.88,212.17l-.34-.51c7.81-5.2,13.5-29.59,13.55-29.83l.6.14C555.46,183,549.89,206.83,541.88,212.17Z" transform="translate(-472.26 -172.4)"/><path class="cls-1" d="M552.92,190.32v-.61c2.74-.08,5.14-4.86,5.17-4.91l.55.28C558.53,185.29,556,190.24,552.92,190.32Z" transform="translate(-472.26 -172.4)"/><path class="cls-1" d="M555.37,189.19l-.11-.05.29-.54c1.46.74,4.22-1,4.25-1l.33.52C560,188.21,557.16,190,555.37,189.19Z" transform="translate(-472.26 -172.4)"/><path class="cls-1" d="M557.48,186.19s.31-5.65,5.29-5.59C562.77,180.6,561.54,185.75,557.48,186.19Z" transform="translate(-472.26 -172.4)"/><path class="cls-1" d="M558.77,188.18s3.75-4.23,7.61-1.07C566.38,187.11,562.21,190.36,558.77,188.18Z" transform="translate(-472.26 -172.4)"/><path class="cls-1" d="M550.88,196.27l.2-.58c2.59.91,6.54-2.7,6.58-2.74l.42.45C557.91,193.56,553.81,197.3,550.88,196.27Z" transform="translate(-472.26 -172.4)"/><path class="cls-1" d="M554.3,196.59a2.36,2.36,0,0,1-.81-.58l.46-.41c1.09,1.24,4.28.59,4.31.59l.13.6A7.89,7.89,0,0,1,554.3,196.59Z" transform="translate(-472.26 -172.4)"/><path class="cls-1" d="M556.61,194s2.3-5.17,6.93-3.33C563.54,190.7,560.56,195.07,556.61,194Z" transform="translate(-472.26 -172.4)"/><path class="cls-1" d="M557.1,196.35s5-2.61,7.5,1.72C564.6,198.07,559.54,199.62,557.1,196.35Z" transform="translate(-472.26 -172.4)"/><path class="cls-1" d="M550,201.68a3.35,3.35,0,0,1-1-.7l.44-.44c1.92,2,7.06.47,7.11.46l.18.59C556.48,201.65,552.46,202.81,550,201.68Z" transform="translate(-472.26 -172.4)"/><path class="cls-1" d="M553.92,204.21a4.24,4.24,0,0,1-2.51-2.32l.59-.16c.43,1.6,3.58,2.43,3.61,2.44l-.15.6A11.07,11.07,0,0,1,553.92,204.21Z" transform="translate(-472.26 -172.4)"/><path class="cls-1" d="M555.09,201.51s4.34-3.62,7.68.08C562.77,201.59,558.16,204.18,555.09,201.51Z" transform="translate(-472.26 -172.4)"/><path class="cls-1" d="M554.5,203.8s5.65-.12,6,4.86C560.46,208.66,555.24,207.81,554.5,203.8Z" transform="translate(-472.26 -172.4)"/><path class="cls-1" d="M552.33,192.1c-2.16-2.25-.45-7.52-.37-7.75l.58.2s-1.66,5.14.23,7.12Z" transform="translate(-472.26 -172.4)"/><path class="cls-1" d="M551.24,189.52c-1.74-.79-2.46-3.91-2.49-4.05l.6-.13s.74,3.21,2.32,3.68l-.18.59A1.06,1.06,0,0,1,551.24,189.52Z" transform="translate(-472.26 -172.4)"/><path class="cls-1" d="M552,186s3.76-4.22.17-7.69C552.16,178.26,549.42,182.79,552,186Z" transform="translate(-472.26 -172.4)"/><path class="cls-1" d="M549.68,186.46s.3-5.64-4.66-6.11C545,180.35,545.69,185.6,549.68,186.46Z" transform="translate(-472.26 -172.4)"/><path class="cls-1" d="M550.55,197.6c-2.72-1.23-3.58-6.35-3.62-6.58l.61-.1c0,.05.9,5.33,3.5,6.21l-.2.59A1.78,1.78,0,0,1,550.55,197.6Z" transform="translate(-472.26 -172.4)"/><path class="cls-1" d="M547.28,195.63a9,9,0,0,1-2.68-2.13l.47-.4s2.14,2.5,3.77,2.2l.11.6A2.81,2.81,0,0,1,547.28,195.63Z" transform="translate(-472.26 -172.4)"/><path class="cls-1" d="M547.7,192.42s1.37-5.48-3.41-6.89C544.29,185.53,544,190.81,547.7,192.42Z" transform="translate(-472.26 -172.4)"/><path class="cls-1" d="M545.88,194s-2.34-5.15-7-3.26C538.92,190.69,542,195,545.88,194Z" transform="translate(-472.26 -172.4)"/><path class="cls-1" d="M546.78,203.9c-2.58-1.18-4-5.56-4.12-5.76l.59-.2c0,.05,1.72,5.13,4.42,5.6l-.1.6A3.26,3.26,0,0,1,546.78,203.9Z" transform="translate(-472.26 -172.4)"/><path class="cls-1" d="M542.89,202.32a9.8,9.8,0,0,1-2.14-1.37l.4-.47s2.5,2.14,4.06,1.58l.21.58A3.4,3.4,0,0,1,542.89,202.32Z" transform="translate(-472.26 -172.4)"/><path class="cls-1" d="M543.64,199.4s.5-5.63-4.45-6.27C539.19,193.13,539.69,198.39,543.64,199.4Z" transform="translate(-472.26 -172.4)"/><path class="cls-1" d="M542.09,201.19s-3.12-4.71-7.39-2.13C534.7,199.06,538.37,202.87,542.09,201.19Z" transform="translate(-472.26 -172.4)"/><path class="cls-2" d="M546.69,235.29l-.11,1.09a39,39,0,0,0,12.16-1.47c8.7-2.45,15.17-7.65,18.72-15.06l-.87-.48C568.35,236.58,546.9,235.3,546.69,235.29Z" transform="translate(-472.26 -172.4)"/><path class="cls-2" d="M576.46,220.66s6.12-1.17,6.12-8.6C582.58,212.06,576.71,214.47,576.46,220.66Z" transform="translate(-472.26 -172.4)"/><path class="cls-2" d="M573,225.59s6.27,4.88,11.85-2.6C584.89,223,581.59,220.25,573,225.59Z" transform="translate(-472.26 -172.4)"/><path class="cls-2" d="M573.27,225.71s-5.32-6.09.59-13.25C573.86,212.46,576.82,215.63,573.27,225.71Z" transform="translate(-472.26 -172.4)"/><path class="cls-2" d="M567.34,230.64s5.76,5.6,12-1.25C579.32,229.39,576.32,226.28,567.34,230.64Z" transform="translate(-472.26 -172.4)"/><path class="cls-2" d="M567.56,230.78s-4.7-6.69,1.83-13.17C569.39,217.61,572,221.12,567.56,230.78Z" transform="translate(-472.26 -172.4)"/><path class="cls-2" d="M559.72,234.13s4.77,6.65,11.91,1C571.63,235.16,569.17,231.49,559.72,234.13Z" transform="translate(-472.26 -172.4)"/><path class="cls-2" d="M559.92,234.31a10.29,10.29,0,0,1,3.82-12.74S565.77,225.56,559.92,234.31Z" transform="translate(-472.26 -172.4)"/><path class="cls-2" d="M552.59,235.53s3,7.86,11.11,4.43C563.7,240,562.21,235.68,552.59,235.53Z" transform="translate(-472.26 -172.4)"/><path class="cls-2" d="M552.73,235.76s-1.61-8.39,6.65-11.35C559.38,224.41,560.38,228.89,552.73,235.76Z" transform="translate(-472.26 -172.4)"/><path class="cls-3" d="M555.73,230c16.09-18.63,15-38,15-38.15l-.82.06c0,.19,1,19.18-14.83,37.54Z" transform="translate(-472.26 -172.4)"/><polygon class="cls-3" points="96.55 30.26 97.34 30 95.53 24.51 94.74 24.77 96.55 30.26"/><polygon class="cls-3" points="95.16 35.74 95.89 35.32 92.97 30.34 92.25 30.75 95.16 35.74"/><polygon class="cls-3" points="92.93 41.78 93.65 41.36 90.73 36.37 90.02 36.79 92.93 41.78"/><polygon class="cls-3" points="90.17 47.06 90.88 46.65 87.97 41.65 87.25 42.07 90.17 47.06"/><polygon class="cls-3" points="87.1 52.34 87.81 51.92 84.91 46.94 84.19 47.36 87.1 52.34"/><polygon class="cls-3" points="97.56 28.97 100.95 24.28 100.28 23.8 96.89 28.48 97.56 28.97"/><rect class="cls-3" x="567.38" y="204.54" width="5.78" height="0.83" transform="translate(-458.2 273.05) rotate(-43.15)"/><rect class="cls-3" x="565.33" y="211.72" width="5.78" height="0.83" transform="translate(-504.92 122.31) rotate(-28.3)"/><rect class="cls-3" x="562.1" y="218.48" width="5.78" height="0.83" transform="translate(-511.58 90.43) rotate(-25.34)"/><polygon class="cls-3" points="85.72 54.51 91.15 52.53 90.86 51.75 85.44 53.74 85.72 54.51"/><path class="cls-3" d="M568.79,190.33a2,2,0,1,0,2.63-1.09A2,2,0,0,0,568.79,190.33Z" transform="translate(-472.26 -172.4)"/><path class="cls-3" d="M564.74,195.44a2,2,0,1,0,2.56-1.26A2,2,0,0,0,564.74,195.44Z" transform="translate(-472.26 -172.4)"/><path class="cls-3" d="M562.6,200.85a2,2,0,1,0,2.82-.36A2,2,0,0,0,562.6,200.85Z" transform="translate(-472.26 -172.4)"/><path class="cls-3" d="M560.36,206.89a2,2,0,1,0,3.19,2.46,2,2,0,0,0-3.19-2.46Z" transform="translate(-472.26 -172.4)"/><path class="cls-3" d="M557.6,212.17a2,2,0,1,0,2.82-.36A2,2,0,0,0,557.6,212.17Z" transform="translate(-472.26 -172.4)"/><path class="cls-3" d="M554.53,217.46a2,2,0,1,0,2.82-.37A2,2,0,0,0,554.53,217.46Z" transform="translate(-472.26 -172.4)"/><path class="cls-3" d="M575.88,195.72a2,2,0,1,1-2-2A2,2,0,0,1,575.88,195.72Z" transform="translate(-472.26 -172.4)"/><path class="cls-3" d="M575.47,202.84a2,2,0,1,1-1.64-2.33A2,2,0,0,1,575.47,202.84Z" transform="translate(-472.26 -172.4)"/><path class="cls-3" d="M573.78,211.43a2,2,0,1,1-1-2.67A2,2,0,0,1,573.78,211.43Z" transform="translate(-472.26 -172.4)"/><path class="cls-3" d="M570.58,218.47a2,2,0,1,1-.84-2.72A2,2,0,0,1,570.58,218.47Z" transform="translate(-472.26 -172.4)"/><path class="cls-3" d="M566.16,225.62a2,2,0,1,1-3.38-2.19,2,2,0,0,1,3.38,2.19Z" transform="translate(-472.26 -172.4)"/><path class="cls-4" d="M507.74,243.09l-.14-1a32.56,32.56,0,0,1-25.9-7.27l-.69.72A33.6,33.6,0,0,0,507.74,243.09Z" transform="translate(-472.26 -172.4)"/><path class="cls-4" d="M482,235.61s-3.56-4.38-5.57-2C475.6,234.67,477,236.92,482,235.61Z" transform="translate(-472.26 -172.4)"/><path class="cls-4" d="M483.67,236.89s-5.86-1.26-5.44,1.79C478.41,240,481.1,240.9,483.67,236.89Z" transform="translate(-472.26 -172.4)"/><path class="cls-4" d="M483.84,237.42s-4.52-3.63-1.55-5.08C483.55,231.72,485.93,233.19,483.84,237.42Z" transform="translate(-472.26 -172.4)"/><path class="cls-4" d="M488.2,239.7s-4.7-3.44-1.82-5C487.61,234,490.05,235.37,488.2,239.7Z" transform="translate(-472.26 -172.4)"/><path class="cls-4" d="M491.91,241.32s-4.68-3.46-1.8-5C491.34,235.61,493.78,237,491.91,241.32Z" transform="translate(-472.26 -172.4)"/><path class="cls-4" d="M496.75,242.52s-5.28-2.69-2.77-4.7C495,237,497.7,237.94,496.75,242.52Z" transform="translate(-472.26 -172.4)"/><path class="cls-4" d="M500.76,243s-5.2-2.82-2.62-4.77C499.23,237.39,501.85,238.43,500.76,243Z" transform="translate(-472.26 -172.4)"/><path class="cls-4" d="M506,242.81s-5.81-1.48-4-4C502.77,237.73,505.59,238.1,506,242.81Z" transform="translate(-472.26 -172.4)"/><path class="cls-4" d="M487.06,239.12s-5.87-1.25-5.44,1.8C481.8,242.22,484.48,243.13,487.06,239.12Z" transform="translate(-472.26 -172.4)"/><path class="cls-4" d="M490.88,240.83s-5.87-1.25-5.45,1.8C485.61,243.93,488.29,244.84,490.88,240.83Z" transform="translate(-472.26 -172.4)"/><path class="cls-4" d="M494.81,242s-6,0-4.78,2.86C490.54,246.05,493.36,246.41,494.81,242Z" transform="translate(-472.26 -172.4)"/><path class="cls-4" d="M499.3,242.74s-5.92.5-4.39,3.3C495.56,247.24,498.39,247.33,499.3,242.74Z" transform="translate(-472.26 -172.4)"/><path class="cls-4" d="M503.82,242.85s-5.73,1.25-3.77,3.85C500.89,247.81,503.69,247.54,503.82,242.85Z" transform="translate(-472.26 -172.4)"/><path class="cls-4" d="M484.1,181s-6.15-1.72-4.86-7.2C479.24,173.75,484.61,176.37,484.1,181Z" transform="translate(-472.26 -172.4)"/><path class="cls-4" d="M498,213.87l-.69-.1c1.59-10.49-14.46-33.78-14.62-34l.57-.4C483.89,180.32,499.59,203.11,498,213.87Z" transform="translate(-472.26 -172.4)"/><path class="cls-4" d="M488.1,188l-.53-.45c2-2.35-.14-8-.17-8l.65-.26C488.15,179.51,490.39,185.36,488.1,188Z" transform="translate(-472.26 -172.4)"/><path class="cls-4" d="M489,185.12l-.13,0-.24-.65c1.74-.66,2.4-4.26,2.41-4.3l.68.12C491.71,180.5,491.06,184.25,489,185.12Z" transform="translate(-472.26 -172.4)"/><path class="cls-4" d="M488.11,181.07s-4.49-4.55-.64-8.67C487.47,172.4,490.83,177.35,488.11,181.07Z" transform="translate(-472.26 -172.4)"/><path class="cls-4" d="M490.75,181.51s-.68-6.35,4.9-7.18C495.65,174.33,495.2,180.29,490.75,181.51Z" transform="translate(-472.26 -172.4)"/><path class="cls-4" d="M491.51,194.26l-.33-.61c2.73-1.47,2.72-7.53,2.71-7.59h.7C494.59,186.32,494.61,192.59,491.51,194.26Z" transform="translate(-472.26 -172.4)"/><path class="cls-4" d="M494.38,191.64a2.88,2.88,0,0,1-1.11.24v-.7c1.87,0,3.76-3.13,3.78-3.16l.6.35A8.87,8.87,0,0,1,494.38,191.64Z" transform="translate(-472.26 -172.4)"/><path class="cls-4" d="M494,187.76s-2.57-5.84,2.49-8.32C496.49,179.44,497.87,185.26,494,187.76Z" transform="translate(-472.26 -172.4)"/><path class="cls-4" d="M496.31,189.11s1.64-6.17,7.14-5C503.45,184.16,500.9,189.56,496.31,189.11Z" transform="translate(-472.26 -172.4)"/><path class="cls-4" d="M495.34,199.12a3.82,3.82,0,0,1-1.37.33l0-.7c3.09-.11,5.76-5.54,5.79-5.6l.63.3C500.27,193.66,498.18,197.91,495.34,199.12Z" transform="translate(-472.26 -172.4)"/><path class="cls-4" d="M500.46,197.75c-1.16.5-2.71.93-3.85.34l.32-.62c1.66.85,4.75-1.14,4.78-1.16l.38.58A11.89,11.89,0,0,1,500.46,197.75Z" transform="translate(-472.26 -172.4)"/><path class="cls-4" d="M499.08,194.72s.29-6.38,5.92-6.36C505,188.36,503.66,194.19,499.08,194.72Z" transform="translate(-472.26 -172.4)"/><path class="cls-4" d="M500.56,197s4.2-4.81,8.59-1.29C509.15,195.67,504.47,199.39,500.56,197Z" transform="translate(-472.26 -172.4)"/><path class="cls-4" d="M489.13,189.88c-3.52.09-6.62-5.36-6.75-5.59l.6-.34c0,.05,3,5.31,6.13,5.23Z" transform="translate(-472.26 -172.4)"/><path class="cls-4" d="M486.14,188.82c-2,.86-5.13-.91-5.27-1l.34-.61s3.25,1.82,4.85.87l.36.59A1.83,1.83,0,0,1,486.14,188.82Z" transform="translate(-472.26 -172.4)"/><path class="cls-4" d="M483.74,185.48s-.68-6.35-6.3-6C477.44,179.49,479.13,185.22,483.74,185.48Z" transform="translate(-472.26 -172.4)"/><path class="cls-4" d="M482.4,187.8s-4.48-4.55-8.65-.76C473.75,187,478.65,190.47,482.4,187.8Z" transform="translate(-472.26 -172.4)"/><path class="cls-4" d="M492.38,195.54c-3.1,1.33-8-1.84-8.26-2l.38-.58c.05,0,5.14,3.3,7.85,1.8l.34.61A3,3,0,0,1,492.38,195.54Z" transform="translate(-472.26 -172.4)"/><path class="cls-4" d="M488.23,196.78a10.49,10.49,0,0,1-3.81.62l0-.7s3.71.11,4.69-1.48l.6.37A3.27,3.27,0,0,1,488.23,196.78Z" transform="translate(-472.26 -172.4)"/><path class="cls-4" d="M485.88,194s-3.54-5.32-8.35-2.39C477.53,191.6,481.68,195.89,485.88,194Z" transform="translate(-472.26 -172.4)"/><path class="cls-4" d="M485.77,196.66s-6.08-1.95-8,3.34C477.75,200,483.68,200.77,485.77,196.66Z" transform="translate(-472.26 -172.4)"/><path class="cls-4" d="M494.77,203.48c-2.94,1.26-7.73-.84-7.95-.94l.29-.63c.05,0,5.59,2.46,8,.55l.43.55A3.57,3.57,0,0,1,494.77,203.48Z" transform="translate(-472.26 -172.4)"/><path class="cls-4" d="M490.49,205.54a11.09,11.09,0,0,1-2.77.74l-.09-.69s3.69-.47,4.41-2.19l.64.27A3.93,3.93,0,0,1,490.49,205.54Z" transform="translate(-472.26 -172.4)"/><path class="cls-4" d="M488.62,202.69s-4.32-4.7-8.62-1.06C480,201.63,484.78,205.22,488.62,202.69Z" transform="translate(-472.26 -172.4)"/><path class="cls-4" d="M488.93,205.35s-6.31-1-7.4,4.54C481.53,209.89,487.51,209.73,488.93,205.35Z" transform="translate(-472.26 -172.4)"/><path class="cls-5" d="M493.63,225.25s-11.11-4.78-6.45-7.63-1-6-5-5.86-9.25-5.45-4.5-7.38-8.38-8.61-4.81-8.71,8.41,1.78,9.55,6.78,5.15.59,4.27-2.14,6.84,3.43,3.21,8.77,3.92,5.11,4.6,2.34,4.06,1.81,1.79,6-1.26,6.53,1.07,7.77S493.63,225.25,493.63,225.25Z" transform="translate(-472.26 -172.4)"/><path class="cls-1" d="M500.39,236.17l-.1.84a30.53,30.53,0,0,1-8.87-3.11c-6.12-3.25-10.12-8.19-11.57-14.28l.73-.22C484,233.56,500.22,236.15,500.39,236.17Z" transform="translate(-472.26 -172.4)"/><path class="cls-1" d="M480.47,220.38s-4.4-1.87-3.18-7.4C477.29,213,481.29,215.74,480.47,220.38Z" transform="translate(-472.26 -172.4)"/><path class="cls-1" d="M482.23,224.61s-5.5,2.6-8.46-3.89C473.77,220.72,476.69,219.23,482.23,224.61Z" transform="translate(-472.26 -172.4)"/><path class="cls-1" d="M482,224.66s5-3.65,1.71-9.95C483.75,214.71,481,216.58,482,224.66Z" transform="translate(-472.26 -172.4)"/><path class="cls-1" d="M485.67,229.31s-5.22,3.21-8.77-2.91C476.9,226.4,479.66,224.59,485.67,229.31Z" transform="translate(-472.26 -172.4)"/><path class="cls-1" d="M485.48,229.38a7.71,7.71,0,0,0,.78-10.1S483.72,221.46,485.48,229.38Z" transform="translate(-472.26 -172.4)"/><path class="cls-1" d="M490.81,233.16s-4.65,4.16-9.08-1.2C481.73,232,484.16,229.64,490.81,233.16Z" transform="translate(-472.26 -172.4)"/><path class="cls-1" d="M490.63,233.26a7.79,7.79,0,0,0-.79-10.11S487.68,225.79,490.63,233.26Z" transform="translate(-472.26 -172.4)"/><path class="cls-1" d="M495.93,235.38s-3.51,5.36-9.05,1.46C486.88,236.84,488.69,233.9,495.93,235.38Z" transform="translate(-472.26 -172.4)"/><path class="cls-1" d="M495.79,235.53s2.57-6-3.14-9.54C492.65,226,491.18,229.16,495.79,235.53Z" transform="translate(-472.26 -172.4)"/><path class="cls-6" d="M567,248.05c0,1.55-3.56,3.56-38,3.56s-48.62-1.22-48.62-2.78S494.49,246,529,246,567,246.49,567,248.05Z" transform="translate(-472.26 -172.4)"/><path class="cls-5" d="M557.6,216.36a33.51,33.51,0,1,1-33.51-33.51A33.51,33.51,0,0,1,557.6,216.36Z" transform="translate(-472.26 -172.4)"/><path class="cls-7" d="M526.75,202.08s-12.23-10.31-7.35-13.91c9.61-7.08,36.76,9,27.94,19.58S539.69,211,537,211s-7,4.41-4.11,7,3.23,12.06,7.05,12.06,3.5,11-3.1,17.24c0,0-3,1.62-9.49,2.37,0,0-9.27-12.48-5.24-17.85,3.52-4.7,1.75-10.29,4.7-15S530.12,207.82,526.75,202.08Z" transform="translate(-472.26 -172.4)"/><path class="cls-7" d="M498,195.32s11.09,4.05,8.59,8-5.43,6.76-4.11,10.15,9.7,12.79,4.48,18.81c-4.05,4.67-3.73,9.08-2,11.6,0,0-13.05-8.94-14.42-25C490.06,212.77,490.27,203.78,498,195.32Z" transform="translate(-472.26 -172.4)"/><path class="cls-2" d="M539,205.08c-3.35-1.85-11.62-7.77-4.46-13.21s2.23-6.12,1.42-11.12c-.56-3.46,2.2-6.92,7.67-6.92s9.18,6.92,6.71,10.87,3.53,3.42,5.26,3.9c2.93.8,5.38,5.35-.56,8.69-6.84,3.86.87.92,1,4.07.08,2.89-2.83,5.46-7.25,5.21S542.08,206.8,539,205.08Z" transform="translate(-472.26 -172.4)"/><path class="cls-8" d="M543.65,215.5s4.44-23.73-2.92-35.71c0,0,2.22,1.68,5.2,9.42,2.34,6.08,2.83,20.84,1.08,26.29Z" transform="translate(-472.26 -172.4)"/><path class="cls-2" d="M495.31,205.05c-2.86-1.57-9.9-6.62-3.8-11.25s1.9-5.21,1.21-9.48c-.48-2.94,1.87-5.89,6.54-5.89s7.81,5.89,5.71,9.26,3,2.92,4.48,3.32c2.49.68,4.58,4.56-.48,7.41-5.83,3.29.74.78.82,3.47.07,2.46-2.41,4.65-6.18,4.44S498,206.52,495.31,205.05Z" transform="translate(-472.26 -172.4)"/><path class="cls-8" d="M499.31,213.93s3.79-20.21-2.48-30.42c0,0,1.88,1.43,4.42,8,2,5.19,2.41,17.76.93,22.4Z" transform="translate(-472.26 -172.4)"/><path class="cls-9" d="M538.71,220.21a1.92,1.92,0,0,0-2.17.68c-.83,1.25-1.12,4.3-3,5.22a3.71,3.71,0,0,1-3.87-.29c-.85-.42-1-1-1.51-1.18s-.72.44.47,1.44c.58.48,3.12,3.2,5.54,2.52C537.36,227.71,540.84,221.19,538.71,220.21Z" transform="translate(-472.26 -172.4)"/><path class="cls-2" d="M523.2,225.53c-4-.62-14.27-3.5-9.16-11.45s0-6.85-2.59-11.49c-1.8-3.22-.32-7.63,5.09-9.6s11.55,3.54,10.54,8.33,4.71,2.11,6.59,2c3.18-.26,7.23,3.35,2.57,8.79-5.37,6.27,1.19.6,2.41,3.67,1.12,2.83-.83,6.41-5.29,7.76S526.91,226.11,523.2,225.53Z" transform="translate(-472.26 -172.4)"/><path class="cls-8" d="M531.58,234.13s-4.13-25-15.71-34.22c0,0,2.79.86,8.52,7.44,4.5,5.16,10.28,19.57,10.52,25.58Z" transform="translate(-472.26 -172.4)"/><path class="cls-10" d="M533.25,241.53c.47,2.32,1.7,5.35,1.76,6.94,0,.25,0,.34-.85.54s-.07.71,1.33.77,1-6.7.46-9.88C535.49,237.12,532.71,238.84,533.25,241.53Z" transform="translate(-472.26 -172.4)"/><path class="cls-11" d="M536.13,249.13s-1.26.46-2-.12c0,0-1.38.11-.54.54S536.1,250.38,536.13,249.13Z" transform="translate(-472.26 -172.4)"/><path class="cls-12" d="M541.07,226.83s-7.2,5-8.24,7.63c-.93,2.33,1.23,11.7,1.23,11.7a3.54,3.54,0,0,0,2.91-.25l-.18-7.29,6.08-5.55h0Z" transform="translate(-472.26 -172.4)"/><path class="cls-10" d="M544.69,243.5c2,1.54,5.12,3.12,6.3,4.36.18.19.22.29-.3,1s.44.62,1.6-.32-3.92-6.08-6.58-8.27C543.39,238.38,542.37,241.72,544.69,243.5Z" transform="translate(-472.26 -172.4)"/><path class="cls-11" d="M552.36,247.61s-.69,1.24-1.67,1.28c0,0-1,1.07-.06.82S553.21,248.63,552.36,247.61Z" transform="translate(-472.26 -172.4)"/><path class="cls-13" d="M542.13,226.79s-3.73,8.51-2.75,11.32c.89,2.53,9.22,8.55,9.22,8.55a3.76,3.76,0,0,0,2.17-2.25l-5.27-5.74s2.11-6.63,1.07-9.09a5.93,5.93,0,0,0,.14.59Z" transform="translate(-472.26 -172.4)"/><path class="cls-14" d="M546.46,229.45h0a1.53,1.53,0,0,1-.11-.16h0c-1.35-2.24-2.3-3.62-2.23-6.26.12-3.78-2.67-3.45-4.38-3.29s-4.39.95-4.31,4a12.77,12.77,0,0,0,2.21,6.84C539.21,232.62,548.34,231.77,546.46,229.45Z" transform="translate(-472.26 -172.4)"/><path class="cls-15" d="M546.35,229.29a1.53,1.53,0,0,0,.11.16h0c1.46,1.79-3.67,2.71-6.8,2.08-.48-.73,1.86-.92,2.73-1.63,2-1.62-5.14-1.76-3.91-2.36s3.31-.38,2.44-2.33a5,5,0,0,1,.7-5.06c.86-.83,2.3.14,2.45,1.93a4.79,4.79,0,0,1,0,.95C544.05,225.67,545,227.05,546.35,229.29Z" transform="translate(-472.26 -172.4)"/><path class="cls-9" d="M539.5,217.51s-.38,1.44.69,2-2.26,3.21-2.31,2.42c-.07-1,.33-1.7-.37-2.76Z" transform="translate(-472.26 -172.4)"/><path class="cls-10" d="M536.93,215.4c-.7,1-1,4.64.07,5.25.46.27,2-.41,2.71-2.15a3,3,0,0,0-.28-3.07A1.58,1.58,0,0,0,536.93,215.4Z" transform="translate(-472.26 -172.4)"/><path class="cls-16" d="M540,215.38a2.55,2.55,0,0,1,.45,2.46c-.24.74-.85,1.43-1,1.22s.61-.53.23-1.26.1-1-.15-1.66-.73-.43-2.27-.38c-.63,0-.78-.2-.76-.46A2.22,2.22,0,0,1,540,215.38Z" transform="translate(-472.26 -172.4)"/><path class="cls-17" d="M536.31,216.2c-.37-.89-1.71-.68-1.28-1.31.28-.42.28-.1,3.47-.75,1.48-.3,1.77.33,2.06,1.17a4.44,4.44,0,0,1-.84,3.79c-1,1.11,0-.74-.35-1.59s-.65-.48-1.21-.34S536.91,217.63,536.31,216.2Z" transform="translate(-472.26 -172.4)"/><path class="cls-18" d="M542.56,219.84a1.83,1.83,0,0,0-1.79,1.18c-.7,1.35-.95,4.2-2.72,5.33a3.79,3.79,0,0,1-3.93.16c-.9-.34-1.1-.89-1.65-1s-.67.53.64,1.4c.63.42,3.5,2.86,5.85,1.9C542.05,227.53,544.81,220.57,542.56,219.84Z" transform="translate(-472.26 -172.4)"/></svg>