<svg id="Layer_1" data-name="Layer 1" xmlns="http://www.w3.org/2000/svg" viewBox="0 0 89.67 96.38"><defs><style>.cls-1{fill:#0d1e51;}.cls-2{fill:#fad1cb;}.cls-3{fill:#ffbd35;}.cls-4{fill:#fc593a;}.cls-5{fill:#bee4d7;}.cls-6{fill:#d8d5ca;}.cls-7{fill:#317270;}.cls-8{fill:#fba571;}.cls-9{fill:#f4a517;}.cls-10{fill:#c1dde5;}.cls-11{fill:#f33d25;}.cls-12{fill:#317170;}.cls-13{fill:#e28c71;}.cls-14{fill:#f27851;}.cls-15{fill:#7585f8;}.cls-16{fill:#051536;}.cls-17{fill:#0b2149;}.cls-18{fill:#f79254;}.cls-19{fill:#e67052;}.cls-20{fill:#e27539;}.cls-21{fill:#519d45;}.cls-22{fill:#0a3c33;}.cls-23{fill:#114839;}.cls-24{fill:#e0623f;}.cls-25{fill:#ee9d7f;}.cls-26{fill:#7bb1cc;}.cls-27{fill:#0d5d42;}</style></defs><path class="cls-1" d="M395,191.68s-6.16-1.72-4.86-7.2C390.14,184.48,395.51,187.1,395,191.68Z" transform="translate(-378.37 -156.04)"/><path class="cls-1" d="M408.86,224.6l-.69-.1c1.59-10.49-14.46-33.78-14.63-34l.58-.39C394.79,191.05,410.49,213.84,408.86,224.6Z" transform="translate(-378.37 -156.04)"/><path class="cls-1" d="M399,198.76l-.52-.46c2-2.35-.15-8-.17-8.05L399,190C399.05,190.24,401.29,196.1,399,198.76Z" transform="translate(-378.37 -156.04)"/><path class="cls-1" d="M399.91,195.85l-.12.05-.24-.65c1.73-.65,2.4-4.26,2.4-4.3l.69.12C402.61,191.23,402,195,399.91,195.85Z" transform="translate(-378.37 -156.04)"/><path class="cls-1" d="M399,191.8s-4.49-4.55-.64-8.66C398.37,183.14,401.73,188.08,399,191.8Z" transform="translate(-378.37 -156.04)"/><path class="cls-1" d="M401.65,192.24s-.68-6.35,4.9-7.18C406.55,185.06,406.09,191,401.65,192.24Z" transform="translate(-378.37 -156.04)"/><path class="cls-1" d="M402.41,205l-.33-.61c2.73-1.47,2.71-7.53,2.71-7.59h.7C405.49,197.06,405.5,203.32,402.41,205Z" transform="translate(-378.37 -156.04)"/><path class="cls-1" d="M405.28,202.37a2.55,2.55,0,0,1-1.11.24v-.7c1.87,0,3.76-3.13,3.78-3.16l.6.36A9,9,0,0,1,405.28,202.37Z" transform="translate(-378.37 -156.04)"/><path class="cls-1" d="M404.9,198.5s-2.57-5.85,2.49-8.33C407.39,190.17,408.77,196,404.9,198.5Z" transform="translate(-378.37 -156.04)"/><path class="cls-1" d="M407.21,199.85s1.63-6.18,7.14-5C414.35,194.89,411.8,200.3,407.21,199.85Z" transform="translate(-378.37 -156.04)"/><path class="cls-1" d="M406.24,209.85a3.87,3.87,0,0,1-1.37.33l0-.7c3.09-.11,5.76-5.54,5.79-5.6l.63.31C411.17,204.39,409.08,208.64,406.24,209.85Z" transform="translate(-378.37 -156.04)"/><path class="cls-1" d="M411.36,208.48c-1.17.5-2.72.93-3.86.34l.32-.62c1.67.85,4.76-1.14,4.79-1.16l.38.58A10.76,10.76,0,0,1,411.36,208.48Z" transform="translate(-378.37 -156.04)"/><path class="cls-1" d="M410,205.46s.28-6.39,5.92-6.37C415.9,199.09,414.56,204.92,410,205.46Z" transform="translate(-378.37 -156.04)"/><path class="cls-1" d="M411.46,207.69s4.19-4.81,8.59-1.29C420.05,206.4,415.37,210.12,411.46,207.69Z" transform="translate(-378.37 -156.04)"/><path class="cls-1" d="M400,200.61c-3.51.09-6.62-5.36-6.75-5.59l.61-.34s3,5.31,6.13,5.23Z" transform="translate(-378.37 -156.04)"/><path class="cls-1" d="M397,199.55c-2,.86-5.14-.91-5.28-1l.35-.61s3.25,1.82,4.85.87l.35.59A1.74,1.74,0,0,1,397,199.55Z" transform="translate(-378.37 -156.04)"/><path class="cls-1" d="M394.63,196.21s-.67-6.35-6.3-6C388.33,190.22,390,196,394.63,196.21Z" transform="translate(-378.37 -156.04)"/><path class="cls-1" d="M393.3,198.53s-4.49-4.55-8.66-.75C384.64,197.78,389.54,201.2,393.3,198.53Z" transform="translate(-378.37 -156.04)"/><path class="cls-1" d="M403.28,206.27c-3.11,1.33-8-1.83-8.26-2l.38-.58c.05,0,5.13,3.3,7.85,1.8l.34.61A2.2,2.2,0,0,1,403.28,206.27Z" transform="translate(-378.37 -156.04)"/><path class="cls-1" d="M399.13,207.51a10.26,10.26,0,0,1-3.81.62l0-.7s3.71.11,4.69-1.48l.59.37A3.19,3.19,0,0,1,399.13,207.51Z" transform="translate(-378.37 -156.04)"/><path class="cls-1" d="M396.78,204.72s-3.54-5.32-8.36-2.39C388.42,202.33,392.58,206.62,396.78,204.72Z" transform="translate(-378.37 -156.04)"/><path class="cls-1" d="M396.67,207.39s-6.08-1.95-8,3.34C388.65,210.73,394.58,211.5,396.67,207.39Z" transform="translate(-378.37 -156.04)"/><path class="cls-1" d="M405.67,214.21c-2.95,1.26-7.73-.84-7.95-.94l.28-.63c.06,0,5.59,2.46,8,.55l.43.55A3.81,3.81,0,0,1,405.67,214.21Z" transform="translate(-378.37 -156.04)"/><path class="cls-1" d="M401.39,216.27a11.51,11.51,0,0,1-2.78.74l-.08-.69s3.69-.47,4.41-2.19l.64.26A3.91,3.91,0,0,1,401.39,216.27Z" transform="translate(-378.37 -156.04)"/><path class="cls-1" d="M399.52,213.42s-4.33-4.7-8.63-1.06C390.89,212.36,395.67,216,399.52,213.42Z" transform="translate(-378.37 -156.04)"/><path class="cls-1" d="M399.83,216.08s-6.31-1-7.4,4.54C392.43,220.62,398.4,220.46,399.83,216.08Z" transform="translate(-378.37 -156.04)"/><path class="cls-2" d="M442.77,208.81c9.76-16.16,6.47-30.63,6.44-30.77l-.62.15c0,.14,3.25,14.37-6.37,30.29Z" transform="translate(-378.37 -156.04)"/><rect class="cls-2" x="448.05" y="182.16" width="0.64" height="4.43" transform="translate(-412.47 75.86) rotate(-27.98)"/><polygon class="cls-2" points="70.42 34.78 70.91 34.37 68.07 30.97 67.57 31.38 70.42 34.78"/><polygon class="cls-2" points="69.51 39.63 70 39.22 67.15 35.83 66.66 36.23 69.51 39.63"/><rect class="cls-2" x="444.98" y="195.9" width="0.64" height="4.43" transform="translate(-401.86 175.44) rotate(-39.86)"/><polygon class="cls-2" points="66.47 48.37 66.95 47.96 64.11 44.56 63.62 44.97 66.47 48.37"/><polygon class="cls-2" points="71.36 29.34 73.32 25.36 72.75 25.09 70.79 29.06 71.36 29.34"/><polygon class="cls-2" points="71.08 33.96 73.76 30.43 73.25 30.04 70.57 33.58 71.08 33.96"/><polygon class="cls-2" points="69.99 39.31 73.48 36.58 73.09 36.08 69.59 38.8 69.99 39.31"/><polygon class="cls-2" points="68.33 44.75 71.97 42.2 71.6 41.69 67.97 44.23 68.33 44.75"/><rect class="cls-2" x="443.62" y="204.53" width="4.43" height="0.64" transform="translate(-421.23 92.47) rotate(-29.78)"/><path class="cls-2" d="M447.53,177.17a1.54,1.54,0,1,0,1.85-1.17A1.55,1.55,0,0,0,447.53,177.17Z" transform="translate(-378.37 -156.04)"/><path class="cls-2" d="M445.13,181.55a1.54,1.54,0,1,0,1.77-1.28A1.54,1.54,0,0,0,445.13,181.55Z" transform="translate(-378.37 -156.04)"/><path class="cls-2" d="M444.21,185.92a1.54,1.54,0,1,0,2.72,1.45,1.54,1.54,0,1,0-2.72-1.45Z" transform="translate(-378.37 -156.04)"/><path class="cls-2" d="M443.29,190.78a1.55,1.55,0,1,0,2.09-.64A1.55,1.55,0,0,0,443.29,190.78Z" transform="translate(-378.37 -156.04)"/><path class="cls-2" d="M441.88,195.13a1.55,1.55,0,1,0,2.73,1.45,1.55,1.55,0,0,0-2.73-1.45Z" transform="translate(-378.37 -156.04)"/><path class="cls-2" d="M440.25,199.52a1.54,1.54,0,1,0,2.09-.64A1.55,1.55,0,0,0,440.25,199.52Z" transform="translate(-378.37 -156.04)"/><path class="cls-2" d="M453.58,180.33a1.54,1.54,0,1,1-1.8-1.23A1.54,1.54,0,0,1,453.58,180.33Z" transform="translate(-378.37 -156.04)"/><path class="cls-2" d="M454.19,185.77a1.55,1.55,0,1,1-1.54-1.55A1.53,1.53,0,0,1,454.19,185.77Z" transform="translate(-378.37 -156.04)"/><path class="cls-2" d="M454,192.48a1.54,1.54,0,1,1-3-.8,1.54,1.54,0,0,1,3,.8Z" transform="translate(-378.37 -156.04)"/><path class="cls-2" d="M452.52,198.21a1.54,1.54,0,0,1-2.94-1,1.54,1.54,0,0,1,2.94,1Z" transform="translate(-378.37 -156.04)"/><path class="cls-2" d="M450.1,204.19a1.55,1.55,0,1,1-.81-2A1.56,1.56,0,0,1,450.1,204.19Z" transform="translate(-378.37 -156.04)"/><path class="cls-3" d="M450.81,223.85l4.74,1.21c3-3.58,4.24-8.81,4.71-13.29l-2.7-3.69,2.88,1.39a46.31,46.31,0,0,0-.08-6.6,21.6,21.6,0,0,0-11.62,2.91l1.87,3-3.88-1.52c-8.47,7.35-6.05,21.37-6.05,21.37,5.69,1.47,9.77.61,12.69-1.51Z" transform="translate(-378.37 -156.04)"/><path class="cls-4" d="M442.48,239.73c12.75-10,14.51-22.66,14.52-22.79l-.54-.07c0,.12-1.75,12.54-14.32,22.43Z" transform="translate(-378.37 -156.04)"/><polygon class="cls-4" points="76 67.67 76.55 67.6 76.06 63.82 75.52 63.89 76 67.67"/><polygon class="cls-4" points="74.42 71.05 74.94 70.87 73.68 67.27 73.16 67.45 74.42 71.05"/><polygon class="cls-4" points="72.21 74.67 72.73 74.5 71.47 70.9 70.95 71.08 72.21 74.67"/><rect class="cls-4" x="447.49" y="229.99" width="0.55" height="3.81" transform="translate(-429.79 4.54) rotate(-19.25)"/><polygon class="cls-4" points="67.11 80.78 67.63 80.59 66.37 77 65.86 77.18 67.11 80.78"/><polygon class="cls-4" points="76.82 66.97 79.6 64.36 79.23 63.96 76.45 66.56 76.82 66.97"/><polygon class="cls-4" points="75.19 70.59 78.42 68.56 78.13 68.1 74.9 70.13 75.19 70.59"/><polygon class="cls-4" points="72.69 74.56 76.33 73.43 76.17 72.91 72.53 74.03 72.69 74.56"/><polygon class="cls-4" points="69.71 78.44 73.41 77.49 73.27 76.96 69.58 77.9 69.71 78.44"/><rect class="cls-4" x="444.25" y="237.2" width="3.81" height="0.55" transform="translate(-410.25 -82.66) rotate(-9.08)"/><path class="cls-4" d="M455.92,215.73a1.32,1.32,0,1,0,2.21,1.46,1.32,1.32,0,1,0-2.21-1.46Z" transform="translate(-378.37 -156.04)"/><path class="cls-4" d="M452.65,218.53a1.33,1.33,0,1,0,1.82-.5A1.34,1.34,0,0,0,452.65,218.53Z" transform="translate(-378.37 -156.04)"/><path class="cls-4" d="M450.59,221.76a1.33,1.33,0,0,0,1.75,2,1.33,1.33,0,0,0-1.75-2Z" transform="translate(-378.37 -156.04)"/><path class="cls-4" d="M448.38,225.38a1.33,1.33,0,0,0,1.75,2,1.33,1.33,0,0,0-1.75-2Z" transform="translate(-378.37 -156.04)"/><path class="cls-4" d="M445.93,228.46a1.33,1.33,0,1,0,1.87.12A1.32,1.32,0,0,0,445.93,228.46Z" transform="translate(-378.37 -156.04)"/><path class="cls-4" d="M443.28,231.49a1.31,1.31,0,0,0-.12,1.87,1.33,1.33,0,1,0,.12-1.87Z" transform="translate(-378.37 -156.04)"/><path class="cls-4" d="M459.82,220.11a1.33,1.33,0,1,1-1.07-1.54A1.33,1.33,0,0,1,459.82,220.11Z" transform="translate(-378.37 -156.04)"/><path class="cls-4" d="M458.67,224.67a1.33,1.33,0,1,1-.77-1.72A1.34,1.34,0,0,1,458.67,224.67Z" transform="translate(-378.37 -156.04)"/><path class="cls-4" d="M456.49,230a1.32,1.32,0,0,1-1.85.3,1.33,1.33,0,1,1,1.85-.3Z" transform="translate(-378.37 -156.04)"/><path class="cls-4" d="M453.54,234.16a1.33,1.33,0,1,1-2.07-1.66,1.33,1.33,0,0,1,2.07,1.66Z" transform="translate(-378.37 -156.04)"/><path class="cls-4" d="M449.78,238.24a1.33,1.33,0,1,1,0-1.88A1.33,1.33,0,0,1,449.78,238.24Z" transform="translate(-378.37 -156.04)"/><path class="cls-5" d="M410.33,243.81l-.2-1A32.55,32.55,0,0,1,383.88,237l-.65.75A33.6,33.6,0,0,0,410.33,243.81Z" transform="translate(-378.37 -156.04)"/><path class="cls-5" d="M384.24,237.74s-3.79-4.18-5.67-1.66C377.78,237.15,379.26,239.32,384.24,237.74Z" transform="translate(-378.37 -156.04)"/><path class="cls-5" d="M386,238.93S380,238,380.62,241C380.87,242.3,383.6,243.07,386,238.93Z" transform="translate(-378.37 -156.04)"/><path class="cls-5" d="M386.15,239.45s-4.7-3.38-1.82-5C385.56,233.77,388,235.11,386.15,239.45Z" transform="translate(-378.37 -156.04)"/><path class="cls-5" d="M390.64,241.49s-4.89-3.19-2.1-4.92C389.73,235.83,392.25,237.06,390.64,241.49Z" transform="translate(-378.37 -156.04)"/><path class="cls-5" d="M394.43,242.9s-4.87-3.2-2.07-4.93C393.55,237.23,396.06,238.47,394.43,242.9Z" transform="translate(-378.37 -156.04)"/><path class="cls-5" d="M399.32,243.84s-5.41-2.4-3-4.55C397.32,238.38,400,239.21,399.32,243.84Z" transform="translate(-378.37 -156.04)"/><path class="cls-5" d="M403.35,244.08s-5.34-2.53-2.88-4.62C401.52,238.58,404.2,239.48,403.35,244.08Z" transform="translate(-378.37 -156.04)"/><path class="cls-5" d="M408.55,243.63s-5.88-1.17-4.19-3.78C405.08,238.73,407.91,239,408.55,243.63Z" transform="translate(-378.37 -156.04)"/><path class="cls-5" d="M389.46,241s-5.92-.93-5.34,2.1C384.38,244.35,387.1,245.12,389.46,241Z" transform="translate(-378.37 -156.04)"/><path class="cls-5" d="M393.37,242.47s-5.93-.93-5.35,2.1C388.27,245.85,391,246.62,393.37,242.47Z" transform="translate(-378.37 -156.04)"/><path class="cls-5" d="M397.36,243.38s-6,.27-4.62,3.11C393.31,247.71,396.15,247.91,397.36,243.38Z" transform="translate(-378.37 -156.04)"/><path class="cls-5" d="M401.88,243.92s-5.89.82-4.21,3.54C398.39,248.61,401.22,248.56,401.88,243.92Z" transform="translate(-378.37 -156.04)"/><path class="cls-5" d="M406.4,243.79s-5.66,1.55-3.56,4.05C403.74,248.89,406.52,248.48,406.4,243.79Z" transform="translate(-378.37 -156.04)"/><path class="cls-5" d="M440.63,246.7l-.15-1a32.58,32.58,0,0,0,22.45-14.81l.87.48A33.62,33.62,0,0,1,440.63,246.7Z" transform="translate(-378.37 -156.04)"/><path class="cls-5" d="M462.86,231.74s2.05-5.25,4.7-3.56C468.69,228.89,468.07,231.44,462.86,231.74Z" transform="translate(-378.37 -156.04)"/><path class="cls-5" d="M461.67,233.46s5.2-3,5.74,0C467.63,234.81,465.35,236.49,461.67,233.46Z" transform="translate(-378.37 -156.04)"/><path class="cls-5" d="M461.68,234s3.2-4.83-.07-5.31C460.21,228.5,458.4,230.62,461.68,234Z" transform="translate(-378.37 -156.04)"/><path class="cls-5" d="M458.21,237.52s3.44-4.71.21-5.34C457,231.91,455.13,234,458.21,237.52Z" transform="translate(-378.37 -156.04)"/><path class="cls-5" d="M455.17,240.19s3.42-4.72.19-5.34C454,234.58,452.08,236.63,455.17,240.19Z" transform="translate(-378.37 -156.04)"/><path class="cls-5" d="M450.93,242.81s4.21-4.17,1.21-5.32C450.86,237,448.63,238.73,450.93,242.81Z" transform="translate(-378.37 -156.04)"/><path class="cls-5" d="M447.26,244.47s4.09-4.27,1-5.34C447,238.67,444.83,240.47,447.26,244.47Z" transform="translate(-378.37 -156.04)"/><path class="cls-5" d="M442.23,245.89s5.09-3.18,2.58-5C443.74,240.08,441.17,241.29,442.23,245.89Z" transform="translate(-378.37 -156.04)"/><path class="cls-5" d="M459.12,236.62s5.21-3,5.74.06C465.08,238,462.81,239.65,459.12,236.62Z" transform="translate(-378.37 -156.04)"/><path class="cls-5" d="M456,239.41s5.2-3,5.73.06C462,240.76,459.7,242.44,456,239.41Z" transform="translate(-378.37 -156.04)"/><path class="cls-5" d="M452.6,241.68s5.68-1.87,5.43,1.27C457.92,244.29,455.34,245.48,452.6,241.68Z" transform="translate(-378.37 -156.04)"/><path class="cls-5" d="M448.57,243.79s5.79-1.32,5.19,1.81C453.5,246.94,450.83,247.89,448.57,243.79Z" transform="translate(-378.37 -156.04)"/><path class="cls-5" d="M444.3,245.28s5.84-.56,4.77,2.52C448.6,249.1,445.86,249.7,444.3,245.28Z" transform="translate(-378.37 -156.04)"/><path class="cls-6" d="M466.62,248.87c0,1.55-3.56,3.55-38.05,3.55S380,251.2,380,249.65s14.12-2.86,48.62-2.86S466.62,247.31,466.62,248.87Z" transform="translate(-378.37 -156.04)"/><path class="cls-7" d="M404.52,236s-11.1-4.78-6.45-7.63-1-6-5-5.87-9.25-5.44-4.5-7.37-8.38-8.61-4.8-8.71,8.41,1.78,9.55,6.78,5.15.59,4.27-2.14,6.84,3.43,3.21,8.77,3.91,5.11,4.59,2.34,4.07,1.81,1.8,5.95-1.26,6.53,1.07,7.77S404.52,236,404.52,236Z" transform="translate(-378.37 -156.04)"/><path class="cls-8" d="M412.46,245.28l-.1.83a29.88,29.88,0,0,1-8.87-3.1c-6.12-3.26-10.12-8.19-11.57-14.29l.73-.21C396,242.66,412.29,245.25,412.46,245.28Z" transform="translate(-378.37 -156.04)"/><path class="cls-8" d="M392.54,229.49s-4.4-1.88-3.18-7.41C389.36,222.08,393.36,224.84,392.54,229.49Z" transform="translate(-378.37 -156.04)"/><path class="cls-8" d="M394.3,233.72s-5.5,2.59-8.46-3.89C385.84,229.83,388.76,228.34,394.3,233.72Z" transform="translate(-378.37 -156.04)"/><path class="cls-8" d="M394.11,233.76s5-3.64,1.71-9.95C395.82,223.81,393.09,225.69,394.11,233.76Z" transform="translate(-378.37 -156.04)"/><path class="cls-8" d="M397.74,238.41s-5.23,3.21-8.77-2.9C389,235.51,391.73,233.69,397.74,238.41Z" transform="translate(-378.37 -156.04)"/><path class="cls-8" d="M397.55,238.48a7.71,7.71,0,0,0,.78-10.1S395.79,230.56,397.55,238.48Z" transform="translate(-378.37 -156.04)"/><path class="cls-8" d="M402.88,242.26s-4.65,4.16-9.09-1.19C393.79,241.07,396.23,238.75,402.88,242.26Z" transform="translate(-378.37 -156.04)"/><path class="cls-8" d="M402.7,242.37a7.8,7.8,0,0,0-.79-10.11S399.75,234.89,402.7,242.37Z" transform="translate(-378.37 -156.04)"/><path class="cls-8" d="M408,244.48s-3.51,5.36-9.05,1.47C399,246,400.76,243,408,244.48Z" transform="translate(-378.37 -156.04)"/><path class="cls-8" d="M407.85,244.63s2.58-6-3.13-9.54C404.72,235.09,403.25,238.26,407.85,244.63Z" transform="translate(-378.37 -156.04)"/><path class="cls-9" d="M439.88,248c0,1.35-6,2.55-13.47,2.7s-13.53-.84-13.56-2.19,6-2.55,13.47-2.69S439.86,246.67,439.88,248Z" transform="translate(-378.37 -156.04)"/><rect class="cls-9" x="412.81" y="244.15" width="27.04" height="4.12" transform="translate(-382.95 -147.93) rotate(-1.08)"/><path class="cls-10" d="M439.81,243.89c0,1.35-6,2.56-13.47,2.7s-13.54-.84-13.57-2.18,6-2.56,13.47-2.7S439.78,242.55,439.81,243.89Z" transform="translate(-378.37 -156.04)"/><path class="cls-11" d="M445.48,244.62c0,1.89-8.54,3.59-19.15,3.79s-19.25-1.17-19.29-3.06,8.54-3.6,19.16-3.8S445.44,242.72,445.48,244.62Z" transform="translate(-378.37 -156.04)"/><rect class="cls-4" x="406.41" y="179.92" width="38.44" height="63.76" transform="translate(-382.31 -147.93) rotate(-1.09)"/><path class="cls-11" d="M444.24,179.56c0,1.89-8.54,3.59-19.15,3.79s-19.24-1.17-19.28-3.06,8.54-3.6,19.15-3.8S444.21,177.66,444.24,179.56Z" transform="translate(-378.37 -156.04)"/><path class="cls-9" d="M438.59,179.66c0,1.34-6,2.55-13.47,2.69s-13.54-.83-13.57-2.18,6-2.55,13.48-2.69S438.56,178.31,438.59,179.66Z" transform="translate(-378.37 -156.04)"/><rect class="cls-9" x="411.51" y="175.8" width="27.04" height="4.12" transform="translate(-381.67 -147.95) rotate(-1.09)"/><path class="cls-3" d="M438.51,175.54c0,1.35-6,2.55-13.47,2.7s-13.54-.84-13.56-2.19,6-2.55,13.47-2.69S438.48,174.19,438.51,175.54Z" transform="translate(-378.37 -156.04)"/><rect class="cls-11" x="406.99" y="239.22" width="38.44" height="5.77" transform="translate(-382.88 -147.92) rotate(-1.09)"/><path class="cls-4" d="M445.37,238.85c0,1.9-8.54,3.6-19.15,3.8s-19.25-1.17-19.29-3.07,8.54-3.59,19.16-3.79S445.33,237,445.37,238.85Z" transform="translate(-378.37 -156.04)"/><path class="cls-12" d="M417.13,238.22S412,223,423.86,216.53c10.06-5.47,8.54-11.34,8.54-11.34s7.74,15.75-.33,25.1A24.73,24.73,0,0,1,417.13,238.22Z" transform="translate(-378.37 -156.04)"/><path class="cls-13" d="M422,162.86a1.89,1.89,0,0,1,2.21.57c.9,1.22,1.35,4.28,3.27,5.11a3.79,3.79,0,0,0,3.89-.48c.83-.47.94-1.05,1.46-1.27s.74.4-.41,1.48c-.55.51-3,3.37-5.45,2.81C423.77,170.33,419.94,163.94,422,162.86Z" transform="translate(-378.37 -156.04)"/><path class="cls-14" d="M428.83,176.08c-1.27,2.94-3.28,9.32-1.87,9.55s2.29-.09,1.51-.45-.79-.46-.72-.7c.44-1.51,2.38-4.16,3.39-6.28C432.31,175.73,429.94,173.51,428.83,176.08Z" transform="translate(-378.37 -156.04)"/><path class="cls-15" d="M426.48,184.89a2.49,2.49,0,0,0,2,.29s1.35.39.42.62S426.21,186.09,426.48,184.89Z" transform="translate(-378.37 -156.04)"/><path class="cls-16" d="M426.74,171.41s5.91-2.12,6.67.5c.69,2.36-3.92,10.51-3.92,10.51a3.76,3.76,0,0,1-2.94-.52l1.45-6.27-7.66.67,3.23-3.68Z" transform="translate(-378.37 -156.04)"/><path class="cls-14" d="M422.72,180.79c-1.26,2.94-3.27,9.32-1.86,9.56s2.28-.1,1.5-.46-.79-.46-.72-.7c.44-1.51,2.38-4.15,3.39-6.28C426.2,180.45,423.83,178.22,422.72,180.79Z" transform="translate(-378.37 -156.04)"/><path class="cls-15" d="M420.37,189.6a2.45,2.45,0,0,0,2,.29s1.36.4.42.63S420.11,190.8,420.37,189.6Z" transform="translate(-378.37 -156.04)"/><path class="cls-17" d="M421.29,173.36s5.25.65,6,3.27c.68,2.35-3.93,10.5-3.93,10.5a3.74,3.74,0,0,1-2.94-.51l1.37-6.9s-3.4-.86-4.22-2.49c-1.95-3.9,1.05-3.84,1.05-3.84Z" transform="translate(-378.37 -156.04)"/><path class="cls-18" d="M425.27,172.18a12.82,12.82,0,0,0-.69-7.21c-1.15-2.85-3.95-2.5-5.59-2s-4.36,1.34-2.74,4.81c1.13,2.41.8,4.07.45,6.68h0l0,.19h0C415.85,177.59,424.64,174.71,425.27,172.18Z" transform="translate(-378.37 -156.04)"/><path class="cls-19" d="M419.54,160.76s.83,1.25,0,2.1,3.19,2.33,3,1.56c-.27-1-.88-1.52-.55-2.76Z" transform="translate(-378.37 -156.04)"/><path class="cls-14" d="M421.31,157.9c1,.69,2.43,4.13,1.64,5-.35.39-2,.24-3.28-1.18a3,3,0,0,1-.74-3A1.6,1.6,0,0,1,421.31,157.9Z" transform="translate(-378.37 -156.04)"/><path class="cls-16" d="M422,156.38c.41.28,1.13,2.43-.89,2.76-1.36.22-1.56.34-1.38.64.54.89-.44.84.21,1.9s-.57.53-1.21-.32c-.12-.17-1.71-1.09-1.25-2.59C418,157,420.5,155.29,422,156.38Z" transform="translate(-378.37 -156.04)"/><path class="cls-20" d="M416.7,174.49l0,.19h0c-.63,2.25,4.48,1,7.12-.8.16-.86-2.09-.1-3.18-.4-2.5-.71,4.05-3.7,2.68-3.75s-3.22,1-3.19-1.19-.1-3-1.25-3.91c-2.36-1.87-3.43.82-2.93,2.28a6.3,6.3,0,0,0,.33.9C417.38,170.22,417.05,171.88,416.7,174.49Z" transform="translate(-378.37 -156.04)"/><path class="cls-21" d="M425.36,174.82c-2.54-1.31-4-8.27,2.87-11.09,4.75-1.94,6.17-2.56,8.82-5.33C437.05,158.4,436.22,180.42,425.36,174.82Z" transform="translate(-378.37 -156.04)"/><path class="cls-22" d="M437.05,158.4s-3.55,16.23-12.45,15.82l-.35-.43S432.92,173.45,437.05,158.4Z" transform="translate(-378.37 -156.04)"/><path class="cls-22" d="M431.57,164.87s.82,3.28-.66,5.75.88-.55.88-.55A8.33,8.33,0,0,0,431.57,164.87Z" transform="translate(-378.37 -156.04)"/><path class="cls-22" d="M434.69,169.77a6.93,6.93,0,0,0-4.29,1.89c-1.54,1.74.22-.82.22-.82A6.74,6.74,0,0,1,434.69,169.77Z" transform="translate(-378.37 -156.04)"/><path class="cls-22" d="M432.23,173.26a6.94,6.94,0,0,0-4.68.28c-2.05,1.09.48-.69.48-.69A6.76,6.76,0,0,1,432.23,173.26Z" transform="translate(-378.37 -156.04)"/><path class="cls-22" d="M428.55,166.87s.82,3.28-.66,5.75.89-.55.89-.55A8.38,8.38,0,0,0,428.55,166.87Z" transform="translate(-378.37 -156.04)"/><path class="cls-14" d="M417.39,164.28c.48,0,1.79.38,1.87,1.46.12,1.44-1.42,4.27,0,5.83s3.11,1.32,4.26,1.28,1.64-.5,2.31-.46.49.67-1.38,1.1c-.89.2-5.21,1.6-7.35,0C414.28,171.48,414.56,164.3,417.39,164.28Z" transform="translate(-378.37 -156.04)"/><path class="cls-23" d="M432.1,205.6s2,29.5-15.09,33.12l-.91-.58S432.36,233.36,432.1,205.6Z" transform="translate(-378.37 -156.04)"/><path class="cls-23" d="M425.18,219.32s3.32,5.23,1.84,10.16,1.38-1.36,1.38-1.36A13.85,13.85,0,0,0,425.18,219.32Z" transform="translate(-378.37 -156.04)"/><path class="cls-23" d="M433.73,226.2s-5.1,1.59-7.1,5.31,0-1.49,0-1.49A13.44,13.44,0,0,1,433.73,226.2Z" transform="translate(-378.37 -156.04)"/><path class="cls-23" d="M430.94,233.36s-5.39-.1-8.7,2.76.54-1.42.54-1.42A14.41,14.41,0,0,1,430.94,233.36Z" transform="translate(-378.37 -156.04)"/><path class="cls-23" d="M420.54,224.21s3.33,5.22,1.85,10.16,1.38-1.37,1.38-1.37A13.79,13.79,0,0,0,420.54,224.21Z" transform="translate(-378.37 -156.04)"/><path class="cls-16" d="M452.16,212.06s-1.37-.58-.85-1.79,1.07.75,3.07-.52c1.1-.69,3.52-.2,2.49,1.52s1.78.29,2.14,2.36c.23,1.34-2.49,2-.91,2.44s2.6,1.6,1.66,3.12-3.7,1.53-4.8.21-4-3.33-2.61-5.46C454,211.32,452.16,212.06,452.16,212.06Z" transform="translate(-378.37 -156.04)"/><path class="cls-24" d="M454.15,217.12s.11-.72-1-1c-1.29-.29-4.31,1.1-5.89.16a3.33,3.33,0,0,1-1.6-3.11c-.08-.87.28-1.27.18-1.77s-.67-.32-.87,1.12c-.09.69-1,4.06.7,5.55C447.84,220.05,454.06,218.88,454.15,217.12Z" transform="translate(-378.37 -156.04)"/><path class="cls-25" d="M447.27,233.34c.29,4.53,1.83,11.59,2,15.41,0,.27.06.31-.83.54s-.23.79,1.36.77,2.17-7.16,2.32-10.94a40.64,40.64,0,0,1,.18-7.31c.06,1.14.15,2.43.28,3.84.38,4.14,4.88,9.56,5.22,13,0,.27,0,.37-.8.65s0,.76,1.35.72.53-7.24-.18-10.61C457.59,236.49,446.93,228.1,447.27,233.34Z" transform="translate(-378.37 -156.04)"/><path class="cls-26" d="M448.73,224.93c2.73,2.2,6.24,1.52,7.73,1.17.4,3.92,2.75,18.62,3,20.65a5.61,5.61,0,0,1-1.95.58c-5.79-9-5.12-12.89-5.18-14-.22,1.31.49,7.73-.76,14a2.24,2.24,0,0,1-2.59,0c-.05-.4-2.39-10-2-14A31.29,31.29,0,0,1,448.73,224.93Z" transform="translate(-378.37 -156.04)"/><path class="cls-15" d="M450.69,249.21s-1.2.57-1.93,0c0,0-1.35.21-.5.61S450.74,250.54,450.69,249.21Z" transform="translate(-378.37 -156.04)"/><path class="cls-15" d="M459,249.34s-1.19.56-1.93,0c0,0-1.34.21-.49.61S459,250.67,459,249.34Z" transform="translate(-378.37 -156.04)"/><path class="cls-14" d="M448.86,225.41s.86-.36.47-3.8c-.18-1.64-.8-1.75.55-3.54s3.95-2.62,4.76-1.42c1.51,2.26.94,3.37.79,4.94-.08.91-.86,2,.37,4.32Z" transform="translate(-378.37 -156.04)"/><path class="cls-17" d="M456.38,226.3s-4.74,1.51-7.89-.77c0,0-.78-5.21,1-6.86a1.94,1.94,0,0,0,2.62-.79,4,4,0,0,1,2.15-1.61,5.73,5.73,0,0,1,.81.51,2.46,2.46,0,0,1,.77,1Z" transform="translate(-378.37 -156.04)"/><path class="cls-24" d="M454.64,213s-1.16,2.12-.81,3c.19.5-2.3,1.49-2,1a1.86,1.86,0,0,0-.07-2.26Z" transform="translate(-378.37 -156.04)"/><path class="cls-14" d="M452.64,211.41c-.8.68-1.82,3.81-1.07,4.55.33.32,1.8.58,2.77-1.29a2.94,2.94,0,0,0,.43-2.71A1.38,1.38,0,0,0,452.64,211.41Z" transform="translate(-378.37 -156.04)"/><path class="cls-16" d="M452.06,211.51c-.1.43-.13.67.84.63,1.21,0,1,.79.81,1.07-.4.82,1.06.06.57,1s.9-.15,1-.3.56-.77,0-2.26S452.37,210.22,452.06,211.51Z" transform="translate(-378.37 -156.04)"/><path class="cls-16" d="M456.46,226.1s.16,1.34-5.35.36c-.83-.15.77-1.64,1.77-1.71s.16-1.36-1.18-1.4-1.94-1-.66-.82a1.67,1.67,0,0,0,1.84-2.15c-.34-1.17,1.32-3.33,1.32-3.33l1.59.71,0,.05Z" transform="translate(-378.37 -156.04)"/><path class="cls-12" d="M444.79,193.54s-5.81,2.34-7.39-2.5c-1.08-3.31-1.43-4.3-3.18-6.24C434.22,184.8,447,185,444.79,193.54Z" transform="translate(-378.37 -156.04)"/><path class="cls-12" d="M445.74,208.6s-6,1.66-7.05-3.32c-.69-3.42-.93-4.45-2.44-6.58C436.25,198.7,448.91,200.37,445.74,208.6Z" transform="translate(-378.37 -156.04)"/><path class="cls-12" d="M448.36,201s-2.1-5.9,2.79-7.27c3.36-.94,4.37-1.26,6.38-2.92C457.53,190.84,456.8,203.59,448.36,201Z" transform="translate(-378.37 -156.04)"/><path class="cls-27" d="M444,217.05s6.14-25.11-6-28.63c0,0,5.46.32,7.94,6.76,1.95,5.06,2.36,17.34.9,21.87Z" transform="translate(-378.37 -156.04)"/><path class="cls-27" d="M446.51,206.44s.5-8.21,6.84-9.78a12.91,12.91,0,0,0-5.69,10.22Z" transform="translate(-378.37 -156.04)"/><path class="cls-27" d="M446.25,211.21s-.5-8.2-6.84-9.78a12.94,12.94,0,0,1,5.69,10.22Z" transform="translate(-378.37 -156.04)"/><path class="cls-19" d="M455.77,217.91s-.11-.72-1.25-.69c-1.32,0-3.78,2.06-5.56,1.54a3.54,3.54,0,0,1-2.47-2.58c-.34-.81-.11-1.28-.36-1.73s-.74-.15-.49,1.27c.12.68.31,4.09,2.34,5.12C450.64,222.18,456.22,219.6,455.77,217.91Z" transform="translate(-378.37 -156.04)"/></svg>