<svg id="Layer_1" data-name="Layer 1" xmlns="http://www.w3.org/2000/svg" viewBox="0 0 86.67 77.79"><defs><style>.cls-1{fill:#d8d5ca;}.cls-2{fill:#0d5d42;}.cls-3{fill:#114839;}.cls-4{fill:#da2222;}.cls-5{fill:#ffc001;}.cls-6{fill:#fec746;}.cls-7{fill:#ffbd36;}.cls-8{fill:#a6b900;}.cls-9{fill:#fc9627;}.cls-10{fill:#795144;}.cls-11{fill:#fc593a;}.cls-12{fill:#f33d25;}.cls-13{fill:#0a3c33;}.cls-14{fill:#5e9a20;}.cls-15{fill:#e3f0d1;}.cls-16{fill:#332766;}.cls-17{fill:#1e1341;}.cls-18{fill:#130c2d;}.cls-19{fill:#3e59c6;}.cls-20{fill:#317170;}.cls-21{fill:#fba571;}.cls-22{fill:#e67052;}.cls-23{fill:#5a70e0;}.cls-24{fill:#c7e0ef;}.cls-25{fill:#f27851;}.cls-26{fill:#7585f8;}.cls-27{fill:#9acfe5;}.cls-28{fill:#f79254;}.cls-29{fill:#dd743a;}.cls-30{fill:#051536;}</style></defs><path class="cls-1" d="M575.27,124.21c0,1.56-3.55,3.56-38,3.56S488.6,126.55,488.6,125s14.12-2.86,48.62-2.86S575.27,122.65,575.27,124.21Z" transform="translate(-488.6 -49.98)"/><path class="cls-2" d="M522.4,83.12c.34-1,.87-2.62,3.57-2.14s8.13-2.82,7.56-8.34,2.74-5,1.56-8.67c-.86-2.64-4.9-3.29-6.53-1.6s-5.32.51-5.45,4.94c-.16,5.31-8.17,4.32-4,10.38,1.87,2.72,1.22,6.41-1,11l1.24,1S522,84.27,522.4,83.12Z" transform="translate(-488.6 -49.98)"/><path class="cls-3" d="M525.61,85.23c.59-.85,1.53-2.3,4-1.11s8.59-.54,9.52-6,8.6-5,5.79-9.07-5.92-.81-7.93.39-3.28,0-6.48.76c-5.17,1.25-7.72,5.79-6.64,8.93s-.54,6.51-3.9,10.36l.93,1.28S524.92,86.23,525.61,85.23Z" transform="translate(-488.6 -49.98)"/><path class="cls-2" d="M525.25,88.87c.79-.66,2-1.93,4.11-.13s6.53,4.43,8.89-.6,9.63-2.48,8-7.18-5.48-2.37-7.74-1.76-3.64-2.74-6.45-1a13.71,13.71,0,0,0-5.6,5.74c-1.68,2.87-1.52,4.11-5.8,6.92l.64.89S524.31,89.65,525.25,88.87Z" transform="translate(-488.6 -49.98)"/><path class="cls-4" d="M524.25,95.77s1.54-5.8-6.24-8.58c-1.9-.68-5.88-1.28-6,5.46s1,5.27-.07,6.73,2-1.44,3.24-1.28S522.94,101.9,524.25,95.77Z" transform="translate(-488.6 -49.98)"/><path class="cls-5" d="M556.77,82.43s1-5.19-7.44-5-7.34,7.85-6,14.16,4.15,10.83,9.17,10.82C556.12,102.44,558,86.35,556.77,82.43Z" transform="translate(-488.6 -49.98)"/><path class="cls-6" d="M547.48,82.43s1-5.19-7.44-5-7.35,7.85-6,14.16,4.13,10.83,9.16,10.82C546.82,102.44,548.71,86.35,547.48,82.43Z" transform="translate(-488.6 -49.98)"/><path class="cls-7" d="M544.65,86.07s-.87-5.21,7.57-4.78,7.13,8,5.62,14.32-4.42,10.71-9.44,10.57C544.77,106.08,543.31,90,544.65,86.07Z" transform="translate(-488.6 -49.98)"/><path class="cls-7" d="M545,86.76s1-5.19-7.44-5-7.34,7.86-6,14.17,4.52,10.24,9.54,10.24C544.71,106.18,546.21,90.67,545,86.76Z" transform="translate(-488.6 -49.98)"/><path class="cls-8" d="M541.08,81.27s-1.87.88-.76,1.23.65,1.45,3.84,1.33,6.11-1.3,4.6-2.06A10.4,10.4,0,0,0,541.08,81.27Z" transform="translate(-488.6 -49.98)"/><path class="cls-9" d="M537.73,87.36s-.72-5.26,7.71-4.83,8.73,6.57,7.21,12.83-5.19,12.11-8.65,11S536.39,91.25,537.73,87.36Z" transform="translate(-488.6 -49.98)"/><path class="cls-8" d="M543.68,81.77a11,11,0,0,1,4.45-7.13s-.06.75,1,.64-6.11,4.87-4.6,6.49Z" transform="translate(-488.6 -49.98)"/><path class="cls-10" d="M503.84,78.24s-4-3.57-2.81-5.7c0,0,1,.53,1.34-.15s.85,4.75,2.41,4.55Z" transform="translate(-488.6 -49.98)"/><path class="cls-11" d="M503.45,81s3-4.91,7-2.07,5.65,6.4,12.26,7.21,11.73,2.43,13.2,8.42c1.4,5.71-.52,13-13.45,11.53C511.48,104.79,499.08,91,503.45,81Z" transform="translate(-488.6 -49.98)"/><path class="cls-12" d="M522.47,106c12.84,1.46,14.82-5.71,13.47-11.41-2.48,4.25-7.74,5.67-10.72,4.82C520.36,98.06,522,96,523.65,93s-3.83-2.61-10-1.61-8.41-10.6-8.41-10.6a7.17,7.17,0,0,1-1.94.49C499.33,91.3,511.59,104.8,522.47,106Z" transform="translate(-488.6 -49.98)"/><path class="cls-13" d="M505.19,76.17a4.91,4.91,0,0,0-3.4,5.25c.32,3.29.48,5.16-.8,6.32s3.86-.9,5.12-4.36,2.46,2.14,2.47,2.85,2-2.46,1.83-4.18,2.59,1,5.74,0c0,0-4.18-2.11-5.06-3.82A5.05,5.05,0,0,0,505.19,76.17Z" transform="translate(-488.6 -49.98)"/><path class="cls-2" d="M501.79,81.42c.32,3.29.48,5.16-.8,6.32s3.66-.82,5-4.15c-.77-2.6,1.12-4.26,1.71-5.35s-1.78.18-3.41.75c-.93.32-.66-1-.25-2.25A4.61,4.61,0,0,0,501.79,81.42Z" transform="translate(-488.6 -49.98)"/><path class="cls-14" d="M549.7,104.4s-1.44-2-.29-3.45,2.18-2.18,2.15-3.45,1.81-2.62,2.62-2.36,3.38,1.91,2.57,4.68.76,5.11-.86,5.83-2.71.7-3.37-.21S551.07,105.61,549.7,104.4Z" transform="translate(-488.6 -49.98)"/><polygon class="cls-14" points="63.61 49.96 72.58 52.91 72.37 51.5 64.13 48.03 63.61 49.96"/><path class="cls-2" d="M564.47,100.91c-.11-.81-2.13-1.21-2.83-1.63-2.32-1.41-7.57-7.78-7.57-7.78l-.75,1.37,6.91,6.61-6.73-3.67-.22,1.58,6.46,4.21,0,.92-4.29-1v1.78l4.43.48-.22.74-10-1.5-.16,1.81s8.9,1.49,12.75,1.38C563.66,106.12,565,104.52,564.47,100.91Z" transform="translate(-488.6 -49.98)"/><path class="cls-13" d="M546.31,100.27s-2.64-.9-1.62-2.17-.91-3.07-.47-4.08,2.66-2.69,3.73-1.79,1,0,1.81-1,2.44-1.37,3.23-.35,1.61,4.39.16,6.3-3,2-2.43,3.48a1.89,1.89,0,0,1-2.23,2.71C546.55,103,546.25,101.76,546.31,100.27Z" transform="translate(-488.6 -49.98)"/><path class="cls-2" d="M550.21,97.29s-1.52,4.06,2.06,3.55c1.71-.25,2.9.6,2.65-.93s2.33,0,.94-3.68c-.32-.85,1.08-.82,1.41-1.42a3.45,3.45,0,0,0,.14-3.18c-.38-1.19-2.39-3.4-3.51-1.91s-2.29,3.07-1.35,3.87S550.46,95.91,550.21,97.29Z" transform="translate(-488.6 -49.98)"/><path class="cls-13" d="M548.3,107.61s-1.63-1.87-.62-3.4,2-2.39,1.81-3.64,1.54-2.79,2.38-2.6,4.51,1.84,4,4.68.28,4.74-1.27,5.62-2.63,1-3.38.11S549.77,108.68,548.3,107.61Z" transform="translate(-488.6 -49.98)"/><path class="cls-15" d="M518.45,105.22a4.16,4.16,0,0,1,1.92.83c.76.56,4,1.06,3.69-.92s-2.13-1.36-3.75-1c-3.89.91-6.16-1.62-6.55-1.52A8.75,8.75,0,0,0,518.45,105.22Z" transform="translate(-488.6 -49.98)"/><path class="cls-13" d="M518.45,105.22s-5.63-.86-8.27-8.7c0,0-2.19-4.94-6-.7S512.09,106.12,518.45,105.22Z" transform="translate(-488.6 -49.98)"/><rect class="cls-16" x="13.01" y="48.67" width="38.89" height="25.11"/><rect class="cls-17" x="43.83" y="48.67" width="30.65" height="25.11"/><polygon class="cls-18" points="44.08 48.67 44.08 48.67 50.93 56.92 74.47 56.87 74.37 48.67 44.08 48.67"/><polygon class="cls-16" points="74.37 48.67 82.1 54.91 50.42 54.91 44.08 48.67 74.37 48.67"/><polygon class="cls-18" points="43.83 48.67 41.62 56.92 13.01 56.92 13.01 48.67 43.83 48.67"/><polygon class="cls-16" points="13.01 48.67 5.14 54.91 37.37 54.91 43.83 48.67 13.01 48.67"/><path class="cls-19" d="M559.7,109.93a.74.74,0,0,1-.79.69H537.83a.75.75,0,0,1-.8-.69h0a.75.75,0,0,1,.8-.7h21.08a.74.74,0,0,1,.79.7Z" transform="translate(-488.6 -49.98)"/><path class="cls-16" d="M559,109.93a.74.74,0,0,0-.79-.7H537.83a.7.7,0,1,0,0,1.39h20.33A.74.74,0,0,0,559,109.93Z" transform="translate(-488.6 -49.98)"/><path class="cls-19" d="M559.7,112.56a.74.74,0,0,1-.79.69H537.83a.75.75,0,0,1-.8-.69h0a.75.75,0,0,1,.8-.7h21.08a.74.74,0,0,1,.79.7Z" transform="translate(-488.6 -49.98)"/><path class="cls-16" d="M559,112.56a.74.74,0,0,0-.79-.7H537.83a.7.7,0,1,0,0,1.39h20.33A.74.74,0,0,0,559,112.56Z" transform="translate(-488.6 -49.98)"/><path class="cls-20" d="M534.8,68.49s-12.31,5-15.65-5.28c-2.29-7-3-9.13-6.75-13.23C512.4,50,539.46,50.39,534.8,68.49Z" transform="translate(-488.6 -49.98)"/><path class="cls-20" d="M536.81,100.41s-12.8,3.51-14.94-7c-1.46-7.25-2-9.42-5.17-13.93C516.7,79.44,543.53,83,536.81,100.41Z" transform="translate(-488.6 -49.98)"/><path class="cls-20" d="M542.36,84.38S537.92,71.87,548.28,69c7.12-2,9.25-2.66,13.51-6.18C561.79,62.78,560.25,89.8,542.36,84.38Z" transform="translate(-488.6 -49.98)"/><path class="cls-2" d="M533.16,118.33s13-53.23-12.82-60.67c0,0,11.58.66,16.84,14.31,4.13,10.72,5,36.75,1.91,46.36Z" transform="translate(-488.6 -49.98)"/><path class="cls-21" d="M518.07,125.05s2-5,5.76-5.49,5.94-5,8.89-4A42.78,42.78,0,0,0,543.18,118c3.49.27,9,5,8.42,6.86S533.62,127.79,518.07,125.05Z" transform="translate(-488.6 -49.98)"/><path class="cls-2" d="M538.44,95.84s1.06-17.4,14.5-20.74a27.42,27.42,0,0,0-12.06,21.67Z" transform="translate(-488.6 -49.98)"/><path class="cls-2" d="M537.89,106s-1.06-17.39-14.5-20.74a27.42,27.42,0,0,1,12.06,21.67Z" transform="translate(-488.6 -49.98)"/><path class="cls-22" d="M562.75,89.81a1.33,1.33,0,0,0-1.92.56c-.9,1.4-1.64,5-3.7,6a4.18,4.18,0,0,1-4.32-.25c-.95-.46-1.12-1.08-1.7-1.29s-.8.5.55,1.59c.65.52,3.53,3.48,6.22,2.69C561.4,98.12,564.5,91,562.75,89.81Z" transform="translate(-488.6 -49.98)"/><path class="cls-23" d="M535.94,94.5c-.14.3.22,1.06,1.07.83a2.34,2.34,0,0,1,1.21-.14S536.55,93.19,535.94,94.5Z" transform="translate(-488.6 -49.98)"/><path class="cls-23" d="M535,97.53a.76.76,0,0,0,1.23-.56,2.37,2.37,0,0,1,.45-1.12S534.16,96.38,535,97.53Z" transform="translate(-488.6 -49.98)"/><path class="cls-24" d="M549,93.35S548,90,546,90.7a2.88,2.88,0,0,0-1.8,4.36l.85-.36s-1.06-2.17.53-2.85,2.49,1.74,2.49,1.74Z" transform="translate(-488.6 -49.98)"/><path class="cls-24" d="M550.62,94s3.82-4.43,6-.85,2.29,7-2.93,8.06l-.27-.65s4.82-1.4,3.51-4.49-2.33-4.27-6-1.49Z" transform="translate(-488.6 -49.98)"/><path class="cls-24" d="M550.31,93.47c-1.65-1-6.81.35-7.28,2.28-.51,2.12.93,7.26,1.41,8.62s7.63-.77,9.61-2.06S552.38,94.68,550.31,93.47Z" transform="translate(-488.6 -49.98)"/><polygon class="cls-24" points="55.77 49.57 55.67 49.48 51.81 45.71 49.66 47.18 55.92 53.08 55.77 49.57"/><path class="cls-24" d="M540.2,94.72s.48.2.48.56a2.36,2.36,0,0,1-1,1.47c-.41.18-1.34.93-1.87.43S539.41,94.84,540.2,94.72Z" transform="translate(-488.6 -49.98)"/><path class="cls-23" d="M537,100.06a.76.76,0,0,0,.45-1.27,2.49,2.49,0,0,1-.51-1.1S535.57,99.89,537,100.06Z" transform="translate(-488.6 -49.98)"/><path class="cls-23" d="M535.32,102.71a.76.76,0,0,0,.45-1.27,2.25,2.25,0,0,1-.51-1.1S533.89,102.54,535.32,102.71Z" transform="translate(-488.6 -49.98)"/><path class="cls-23" d="M537.9,104.53a.76.76,0,0,0,0-1.35,2.41,2.41,0,0,1-.89-.83S536.51,104.91,537.9,104.53Z" transform="translate(-488.6 -49.98)"/><path class="cls-23" d="M535.62,106.81a.76.76,0,0,0,.51-1.25,2.4,2.4,0,0,1-.46-1.12S534.2,106.58,535.62,106.81Z" transform="translate(-488.6 -49.98)"/><path class="cls-25" d="M558,109.48c.32,4.45,2,11.38,2.2,15.13,0,.26.06.31-.89.53-1.1.25-.26.77,1.47.76s2.33-7,2.49-10.74a36,36,0,0,1,.19-7.18c.06,1.12.16,2.38.3,3.77.41,4.06,5.26,9.39,5.62,12.8,0,.27,0,.37-.85.63s0,.76,1.44.72.58-7.11-.19-10.42a111.71,111.71,0,0,1-1.92-13.29h0l0-.2h0c-.15-2.7-.36-4.42,1-6.8,1.93-3.41-.79-4.46-2.42-5.13s-6.21-1.3-6.69,1.34c-.41,2.23,1.58,5.51.31,8.94A17.1,17.1,0,0,0,558,109.48Z" transform="translate(-488.6 -49.98)"/><path class="cls-26" d="M561.72,125.05a2.49,2.49,0,0,1-2.08,0s-1.44.22-.53.61S561.77,126.37,561.72,125.05Z" transform="translate(-488.6 -49.98)"/><path class="cls-26" d="M570.64,125.18a2.46,2.46,0,0,1-2.07,0s-1.45.22-.54.6S570.7,126.49,570.64,125.18Z" transform="translate(-488.6 -49.98)"/><path class="cls-27" d="M559.62,101.23c2.94,2.16,6.71,1.48,8.32,1.15.43,3.85.75,6.62,1,8.6a17,17,0,0,1-5.19.77c-.14-1.39-.24-2.65-.3-3.77a19.84,19.84,0,0,0-.29,3.76c-2.1,0-4.07-.38-5.05-1.12,0-.39-.09-.78-.12-1.14A16.88,16.88,0,0,1,559.62,101.23Z" transform="translate(-488.6 -49.98)"/><path class="cls-22" d="M569.25,94.39s1.55-4.42-3.43-.29c-.74.6-.42,3.52-.42,3.52l2.07,1.09Z" transform="translate(-488.6 -49.98)"/><path class="cls-28" d="M566.79,90.2s-2,4.23-4.93,3.59c-.89-.19-1.58-1.44,1.13-4.45l-1,.22a19.35,19.35,0,0,0-3.45,7.68c-.84,4.42,0,6.44,0,6.44s.9.77,4.94,1.13a12.18,12.18,0,0,0,4.68-.38s-.57-5.08-.24-6.81c0,0-2.4,0-2.15-3.21a5.68,5.68,0,0,1,1.79-3.9Z" transform="translate(-488.6 -49.98)"/><path class="cls-22" d="M566.05,87.72s-.95,1.22-.15,2.15-3.45,2.14-3.18,1.37c.35-1,1-1.49.78-2.79Z" transform="translate(-488.6 -49.98)"/><path class="cls-25" d="M564.46,84.66c-1.05.62-2.8,4-2.06,5,.32.44,2.05.41,3.44-.94a3.11,3.11,0,0,0,1-3A1.64,1.64,0,0,0,564.46,84.66Z" transform="translate(-488.6 -49.98)"/><path class="cls-29" d="M565.26,102.7c.22-.65-.11-1-1.2-1.2-1.61-.21-4.1-1.32-2.76-1.07a13.36,13.36,0,0,0,4.72,0c1.53-.31,1.91-2.81,1.91-2.81-.33,1.73.24,6.81.24,6.81a12.18,12.18,0,0,1-4.68.38c-4-.36-4.94-1.13-4.94-1.13C563.91,104.48,565.08,103.25,565.26,102.7Z" transform="translate(-488.6 -49.98)"/><path class="cls-30" d="M563.48,84.9c-.3.4-.26.52,1,1s1.57.47,1.36.77c-.62.86.39.89-.36,1.92s.55.59,1.26-.23a2.64,2.64,0,0,0,.57-2.52A2.21,2.21,0,0,0,563.48,84.9Z" transform="translate(-488.6 -49.98)"/><path class="cls-30" d="M565.53,88.63s-.27.28-.95,0-1.62-1.22-2-1.18-.86,2-.17,2.49,2.77,0,3.46-.83C566,88.93,565.53,88.63,565.53,88.63Z" transform="translate(-488.6 -49.98)"/><path class="cls-25" d="M563.55,88.91s-.17-.63-.63-.77-.49.44-.43.65.68.73,1.06.62S563.64,89.14,563.55,88.91Z" transform="translate(-488.6 -49.98)"/><path class="cls-30" d="M567.36,85.88a2.63,2.63,0,0,1-.57,2.52,4.37,4.37,0,0,1-1.95,1.39c-.09,0,.56-.37.47-.64s.8-.26.74-1.11.5-.91.53-1.64-.52-.71-2-1.29c-.61-.24-.67-.5-.54-.74A2.29,2.29,0,0,1,567.36,85.88Z" transform="translate(-488.6 -49.98)"/><path class="cls-22" d="M569.28,91.84a1.47,1.47,0,0,0-2.06.1c-1.3,1.16-2.09,5.24-4.32,6.25a4.61,4.61,0,0,1-4.62-.42c-1-.5-1.18-1.16-1.8-1.39s-.86.49.57,1.67c.68.56,3.71,3.73,6.6,3C567.44,100.1,571.13,93.12,569.28,91.84Z" transform="translate(-488.6 -49.98)"/></svg>