<svg id="Layer_1" data-name="Layer 1" xmlns="http://www.w3.org/2000/svg" viewBox="0 0 115.47 87.33"><defs><style>.cls-1{fill:#317170;}.cls-2{fill:#0d5d42;}.cls-3{fill:#114839;}.cls-4{fill:#7fb1cd;}.cls-5{fill:#4a8e8b;}.cls-6{fill:#fc9627;}.cls-7{fill:#ffbd36;}.cls-8{fill:#9bc2e0;}.cls-9{fill:#e0623f;}.cls-10{fill:#f27851;}.cls-11{fill:#6e86cc;}.cls-12{fill:#7bb1cc;}.cls-13{fill:#9acfe5;}.cls-14{fill:#fc593a;}.cls-15{fill:#f33d25;}.cls-16{fill:#f9957a;}.cls-17{fill:#062440;}.cls-18{fill:#051536;}.cls-19{fill:#e67052;}</style></defs><path class="cls-1" d="M220.19,226.14c-4-2.22-13.3-7.44-4.69-14s-.67-14.11-1.65-20.13c-.68-4.16,1.89-7.12,8.49-7.12s14.46,12,11.5,16.71,4.24,4.12,6.32,4.69c3.53,1,6.47,6.44-.67,10.47-8.23,4.64,1,1.1,1.15,4.89.1,3.48-3.4,6.57-8.73,6.28S224,228.22,220.19,226.14Z" transform="translate(-128.4 -166.83)"/><path class="cls-2" d="M225.84,238.69s5.35-28.55-3.5-43c0,0,2.66,2,6.25,11.33,2.82,7.32,3.4,25.08,1.3,31.64Z" transform="translate(-128.4 -166.83)"/><path class="cls-1" d="M164.16,212.41c3.38-13-17.58-5.61-7.14-13.55s3.9-14.64,2.71-21.94c-.82-5,3.2-10.09,11.2-10.09s13.37,10.09,9.78,15.86,5.14,5,7.67,5.68c4.27,1.17,7.84,7.81-.82,12.69-10,5.63,1.27,1.34,1.4,5.93.12,4.22-4.12,8-10.58,7.61S162.85,217.46,164.16,212.41Z" transform="translate(-128.4 -166.83)"/><path class="cls-2" d="M173.48,227.55s4-34.54-6.71-52c0,0,3.23,2.45,7.58,13.74,3.41,8.87,4.12,30.4,1.58,38.35Z" transform="translate(-128.4 -166.83)"/><path class="cls-3" d="M196.62,211.74c2.77-10.63-14.4-4.6-5.85-11.1s3.19-12,2.22-18c-.68-4.13,2.62-8.26,9.16-8.26s11,8.26,8,13-.32,7.88,1.75,8.45c3.49,1,5.42,4.92,5.52,8.68.1,3.45-3.89,9.29-9.18,9S195.54,215.87,196.62,211.74Z" transform="translate(-128.4 -166.83)"/><path class="cls-2" d="M202.23,224.19s5.31-28.34-3.48-42.66c0,0,2.64,2,6.21,11.26,2.79,7.26,3.37,24.89,1.29,31.4Z" transform="translate(-128.4 -166.83)"/><path class="cls-3" d="M137.17,227.17c-4-2.23-14-9.35-5.36-15.9s2.68-7.36,1.71-13.38c-.68-4.16,2.64-8.32,9.23-8.32s11,8.32,8.07,13.08,4.24,4.12,6.33,4.69c3.52,1,6.47,6.44-.68,10.46-8.23,4.65,1.05,1.11,1.16,4.9.1,3.47-3.4,6.57-8.73,6.27S140.94,229.25,137.17,227.17Z" transform="translate(-128.4 -166.83)"/><path class="cls-2" d="M142.83,239.71s5.34-28.55-3.51-43c0,0,2.66,2,6.25,11.34,2.82,7.32,3.4,25.07,1.31,31.63Z" transform="translate(-128.4 -166.83)"/><path class="cls-4" d="M224.87,250.38c0,1.65-3.78,3.78-40.48,3.78s-51.72-1.29-51.72-2.95,15-3,51.72-3S224.87,248.72,224.87,250.38Z" transform="translate(-128.4 -166.83)"/><path class="cls-1" d="M134,251.23s3.1-22.52,42.87-23.68c44.59-1.3,56.08,11,64.26,23.16C241.17,250.71,171.32,253.78,134,251.23Z" transform="translate(-128.4 -166.83)"/><path class="cls-4" d="M132.67,251.21s14.07-5.91,19.18-4.26,10.83,3.56,16.35,1.68,12.75-7.8,20.48-6.5,13.82,6.55,22.43,6.5,7.21-.56,12.61-.63,13.75.33,17.45,2.71C241.17,250.71,184.22,255.82,132.67,251.21Z" transform="translate(-128.4 -166.83)"/><path class="cls-5" d="M146.92,240.28a40,40,0,0,1,17.2-8.77c10.88-2.49,26.35-3.41,38.28-.36,12.86,3.28,29.41,11.55,20.38,12.13-10.24.65-16.82-2.17-23.08-1.9-15.49.68-14.41-6.9-22-5.26s-12.55,8.17-18.4,8.22S144.37,243.88,146.92,240.28Z" transform="translate(-128.4 -166.83)"/><rect class="cls-6" x="26.88" y="60.4" width="9.31" height="8.45"/><path class="cls-7" d="M174,230.43c.23.4.1.72-.3.72H148.66a1.49,1.49,0,0,1-1.14-.72l-8.88-15.37c-.23-.4-.09-.72.31-.72H164a1.49,1.49,0,0,1,1.14.72Z" transform="translate(-128.4 -166.83)"/><rect class="cls-7" x="23.69" y="68.36" width="15.68" height="2.48"/><polygon class="cls-6" points="13.28 49.57 15.47 54.27 21.63 54.27 19.18 49.57 13.28 49.57"/><polygon class="cls-6" points="21.83 49.57 24.02 54.27 30.18 54.27 27.73 49.57 21.83 49.57"/><polygon class="cls-6" points="29.59 49.57 31.77 54.27 37.93 54.27 35.48 49.57 29.59 49.57"/><polygon class="cls-6" points="16.58 55.71 18.77 60.4 24.92 60.4 22.48 55.71 16.58 55.71"/><polygon class="cls-6" points="25.13 55.71 27.32 60.4 33.48 60.4 31.03 55.71 25.13 55.71"/><polygon class="cls-6" points="32.89 55.71 35.07 60.4 41.23 60.4 38.78 55.71 32.89 55.71"/><rect class="cls-6" x="55.1" y="60.04" width="9.31" height="8.45"/><path class="cls-7" d="M202.24,230.07c.23.4.1.72-.3.72H176.88a1.51,1.51,0,0,1-1.15-.72l-8.87-15.37c-.23-.4-.09-.72.31-.72h25.06a1.49,1.49,0,0,1,1.14.72Z" transform="translate(-128.4 -166.83)"/><rect class="cls-7" x="51.91" y="68" width="15.68" height="2.48"/><polygon class="cls-6" points="41.5 49.21 43.69 53.91 49.84 53.91 47.4 49.21 41.5 49.21"/><polygon class="cls-6" points="50.05 49.21 52.24 53.91 58.4 53.91 55.95 49.21 50.05 49.21"/><polygon class="cls-6" points="57.81 49.21 59.99 53.91 66.15 53.91 63.7 49.21 57.81 49.21"/><polygon class="cls-6" points="44.8 55.35 46.99 60.04 53.14 60.04 50.7 55.35 44.8 55.35"/><polygon class="cls-6" points="53.35 55.35 55.54 60.04 61.69 60.04 59.25 55.35 53.35 55.35"/><polygon class="cls-6" points="61.1 55.35 63.29 60.04 69.45 60.04 67 55.35 61.1 55.35"/><rect class="cls-6" x="84.39" y="60.51" width="9.31" height="8.45"/><path class="cls-7" d="M231.54,230.54c.23.4.09.72-.31.72H206.17a1.49,1.49,0,0,1-1.14-.72l-8.87-15.37c-.23-.4-.1-.72.3-.72h25.06a1.52,1.52,0,0,1,1.15.72Z" transform="translate(-128.4 -166.83)"/><rect class="cls-7" x="81.2" y="68.47" width="15.68" height="2.48"/><polygon class="cls-6" points="70.8 49.68 72.98 54.38 79.14 54.38 76.69 49.68 70.8 49.68"/><polygon class="cls-6" points="79.35 49.68 81.53 54.38 87.69 54.38 85.25 49.68 79.35 49.68"/><polygon class="cls-6" points="87.1 49.68 89.29 54.38 95.44 54.38 93 49.68 87.1 49.68"/><polygon class="cls-8" points="74.1 55.82 76.28 60.51 82.44 60.51 79.99 55.82 74.1 55.82"/><polygon class="cls-6" points="82.65 55.82 84.83 60.51 90.99 60.51 88.54 55.82 82.65 55.82"/><polygon class="cls-6" points="90.4 55.82 92.58 60.51 98.74 60.51 96.29 55.82 90.4 55.82"/><path class="cls-2" d="M178.34,185.78s-3.19,4.29-2.62,8.48-.92-1.19-.92-1.19A13.5,13.5,0,0,1,178.34,185.78Z" transform="translate(-128.4 -166.83)"/><path class="cls-2" d="M182.32,194.69s-5,5-5.1,10.56-1-1.73-1-1.73A18,18,0,0,1,182.32,194.69Z" transform="translate(-128.4 -166.83)"/><path class="cls-2" d="M167.58,190.83s5.65,4.24,6.5,9.77.71-1.85.71-1.85A17.91,17.91,0,0,0,167.58,190.83Z" transform="translate(-128.4 -166.83)"/><path class="cls-2" d="M161.92,180s6.91,1.49,10,6.15-.13-2-.13-2A17.82,17.82,0,0,0,161.92,180Z" transform="translate(-128.4 -166.83)"/><path class="cls-2" d="M196.9,201.73s6,3.8,7.23,9.24.57-1.9.57-1.9A17.91,17.91,0,0,0,196.9,201.73Z" transform="translate(-128.4 -166.83)"/><path class="cls-2" d="M197.23,191.12s6,3.79,7.24,9.23.56-1.89.56-1.89A17.85,17.85,0,0,0,197.23,191.12Z" transform="translate(-128.4 -166.83)"/><path class="cls-2" d="M196.48,185.19s6,3.8,7.24,9.24.56-1.9.56-1.9A17.85,17.85,0,0,0,196.48,185.19Z" transform="translate(-128.4 -166.83)"/><path class="cls-2" d="M213.85,197.24s-6,3.79-7.24,9.23-.56-1.89-.56-1.89A17.85,17.85,0,0,1,213.85,197.24Z" transform="translate(-128.4 -166.83)"/><path class="cls-2" d="M219.84,199.59s6,3.79,7.24,9.23.57-1.9.57-1.9A17.93,17.93,0,0,0,219.84,199.59Z" transform="translate(-128.4 -166.83)"/><path class="cls-2" d="M221.36,210.42s6,3.79,7.24,9.23.57-1.9.57-1.9A17.93,17.93,0,0,0,221.36,210.42Z" transform="translate(-128.4 -166.83)"/><path class="cls-2" d="M237.36,207.62s-6,3.79-7.24,9.23-.56-1.9-.56-1.9A17.86,17.86,0,0,1,237.36,207.62Z" transform="translate(-128.4 -166.83)"/><path class="cls-2" d="M221.36,210.42s6,3.79,7.24,9.23.57-1.9.57-1.9A17.93,17.93,0,0,0,221.36,210.42Z" transform="translate(-128.4 -166.83)"/><path class="cls-2" d="M136.63,202.86s6,3.79,7.24,9.23.56-1.89.56-1.89A17.85,17.85,0,0,0,136.63,202.86Z" transform="translate(-128.4 -166.83)"/><path class="cls-2" d="M149.93,206.82s-3.81,2.42-4.62,5.89-.36-1.21-.36-1.21A11.41,11.41,0,0,1,149.93,206.82Z" transform="translate(-128.4 -166.83)"/><path class="cls-9" d="M205.49,213.37a1.88,1.88,0,0,0-2.16.67c-.83,1.26-1.12,4.31-3,5.23a3.74,3.74,0,0,1-3.88-.3c-.84-.42-1-1-1.51-1.18s-.72.44.48,1.45c.58.48,3.11,3.19,5.53,2.51C204.15,220.86,207.63,214.34,205.49,213.37Z" transform="translate(-128.4 -166.83)"/><path class="cls-10" d="M200,234.68c.46,2.32,1.69,5.35,1.76,6.94,0,.25,0,.34-.85.54s-.07.72,1.32.77,1-6.69.46-9.88C202.27,230.27,199.5,232,200,234.68Z" transform="translate(-128.4 -166.83)"/><path class="cls-11" d="M202.91,242.29s-1.25.45-2-.13c0,0-1.38.12-.55.54S202.88,243.54,202.91,242.29Z" transform="translate(-128.4 -166.83)"/><path class="cls-12" d="M207.86,220s-7.2,5.05-8.24,7.64c-.93,2.32,1.23,11.69,1.23,11.69a3.54,3.54,0,0,0,2.91-.25l-.18-7.28,6.07-5.56h0Z" transform="translate(-128.4 -166.83)"/><path class="cls-10" d="M211.48,236.66c2,1.54,5.12,3.11,6.29,4.35.19.19.23.29-.29,1s.44.62,1.6-.32-3.92-6.07-6.58-8.27C210.18,231.53,209.15,234.87,211.48,236.66Z" transform="translate(-128.4 -166.83)"/><path class="cls-11" d="M219.15,240.76s-.69,1.25-1.67,1.28c0,0-1,1.07-.06.82S220,241.79,219.15,240.76Z" transform="translate(-128.4 -166.83)"/><path class="cls-13" d="M208.92,219.94s-3.73,8.51-2.75,11.32c.89,2.53,9.21,8.56,9.21,8.56a3.79,3.79,0,0,0,2.17-2.25l-5.27-5.74s2.11-6.64,1.07-9.1c0-.08.15.59.15.59Z" transform="translate(-128.4 -166.83)"/><path class="cls-14" d="M213.24,222.6h0l-.11-.16h0c-1.34-2.23-2.3-3.61-2.22-6.25.11-3.79-2.68-3.46-4.38-3.3s-4.39,1-4.31,4a12.71,12.71,0,0,0,2.21,6.83C206,225.77,215.13,224.92,213.24,222.6Z" transform="translate(-128.4 -166.83)"/><path class="cls-15" d="M213.13,222.44l.11.16h0c1.46,1.8-3.67,2.71-6.79,2.08-.49-.72,1.86-.92,2.73-1.62,2-1.63-5.14-1.77-3.91-2.36s3.3-.39,2.43-2.33a5,5,0,0,1,.71-5.07c.86-.82,2.29.14,2.45,1.94a5.56,5.56,0,0,1,0,.95C210.83,218.83,211.79,220.21,213.13,222.44Z" transform="translate(-128.4 -166.83)"/><path class="cls-16" d="M206.29,210.67s-.38,1.44.68,2-2.25,3.2-2.3,2.41c-.07-1,.33-1.7-.37-2.76Z" transform="translate(-128.4 -166.83)"/><path class="cls-10" d="M203.71,208.55c-.7,1-1,4.65.08,5.26.45.26,2-.42,2.7-2.15a3,3,0,0,0-.27-3.08A1.6,1.6,0,0,0,203.71,208.55Z" transform="translate(-128.4 -166.83)"/><path class="cls-17" d="M206.75,208.53a2.49,2.49,0,0,1,.45,2.46c-.24.74-.84,1.44-1,1.22s.61-.52.23-1.26.1-1-.15-1.66-.73-.43-2.27-.38c-.63,0-.79-.19-.77-.45A2.23,2.23,0,0,1,206.75,208.53Z" transform="translate(-128.4 -166.83)"/><path class="cls-18" d="M203.1,209.35c-.38-.89-1.71-.68-1.29-1.31.29-.42.29-.1,3.47-.75,1.49-.3,1.78.33,2.06,1.17a4.4,4.4,0,0,1-.83,3.79c-1,1.12,0-.74-.36-1.58s-.64-.49-1.2-.35S203.7,210.79,203.1,209.35Z" transform="translate(-128.4 -166.83)"/><path class="cls-19" d="M209,213.07c-.4,0-1.1.64-1.2,1.77-.12,1.52.74,4.25-.46,6a3.78,3.78,0,0,1-3.57,1.65c-1,0-1.36-.4-1.92-.31s-.42.74,1.13,1c.74.14,4.32,1.3,6.13-.49C211.51,220.36,211.4,212.88,209,213.07Z" transform="translate(-128.4 -166.83)"/></svg>