<svg id="Layer_1" data-name="Layer 1" xmlns="http://www.w3.org/2000/svg" viewBox="0 0 83.45 75.74"><defs><style>.cls-1{fill:#0a3c33;}.cls-2{fill:#ffbd36;}.cls-3{fill:#bee4d7;}.cls-4{fill:#ffc001;}.cls-5{fill:#fba571;}.cls-6{fill:#614dd3;}.cls-7{fill:#d8d5ca;}.cls-8{fill:#fc593a;}.cls-9{fill:#f27851;}.cls-10{fill:#f79254;}.cls-11{fill:#ee9d7f;}.cls-12{fill:#7585f8;}.cls-13{fill:#7bb1cc;}.cls-14{fill:#9acfe5;}.cls-15{fill:#051536;}</style></defs><path class="cls-1" d="M78.74,214.56l-.09.84A29.45,29.45,0,0,0,88,214.27c6.67-1.87,11.64-5.86,14.36-11.55l-.67-.36C95.35,215.55,78.9,214.57,78.74,214.56Z" transform="translate(-26.02 -178.88)"/><path class="cls-1" d="M101.57,203.35s4.7-.9,4.69-6.6C106.26,196.75,101.76,198.6,101.57,203.35Z" transform="translate(-26.02 -178.88)"/><path class="cls-1" d="M99,207.12s4.81,3.75,9.09-2C108,205.13,105.51,203,99,207.12Z" transform="translate(-26.02 -178.88)"/><path class="cls-1" d="M99.12,207.21s-4.08-4.67.46-10.16C99.58,197.05,101.85,199.49,99.12,207.21Z" transform="translate(-26.02 -178.88)"/><path class="cls-1" d="M94.58,211s4.42,4.29,9.19-1C103.77,210,101.46,207.66,94.58,211Z" transform="translate(-26.02 -178.88)"/><path class="cls-1" d="M94.75,211.11A7.82,7.82,0,0,1,96.15,201S98.17,203.7,94.75,211.11Z" transform="translate(-26.02 -178.88)"/><path class="cls-1" d="M88.74,213.67s3.65,5.1,9.13.79C97.87,214.46,96,211.65,88.74,213.67Z" transform="translate(-26.02 -178.88)"/><path class="cls-1" d="M88.89,213.81A7.88,7.88,0,0,1,91.82,204S93.37,207.1,88.89,213.81Z" transform="translate(-26.02 -178.88)"/><path class="cls-1" d="M83.26,214.75s2.28,6,8.52,3.4C91.78,218.15,90.65,214.86,83.26,214.75Z" transform="translate(-26.02 -178.88)"/><path class="cls-1" d="M83.37,214.92s-1.24-6.43,5.1-8.7C88.47,206.22,89.23,209.66,83.37,214.92Z" transform="translate(-26.02 -178.88)"/><path class="cls-2" d="M84.25,218.74c12.34-14.29,11.53-29.11,11.52-29.26l-.63.05c0,.14.79,14.71-11.37,28.79Z" transform="translate(-26.02 -178.88)"/><rect class="cls-2" x="93.57" y="193.38" width="0.64" height="4.43" transform="translate(-82.69 -139.51) rotate(-18.3)"/><polygon class="cls-2" points="67.19 23.13 67.74 22.81 65.51 18.99 64.95 19.3 67.19 23.13"/><rect class="cls-2" x="90.34" y="202.35" width="0.64" height="4.43" transform="translate(-116.18 -106.11) rotate(-30.01)"/><rect class="cls-2" x="88.22" y="206.4" width="0.64" height="4.43" transform="translate(-118.97 -106) rotate(-30.21)"/><polygon class="cls-2" points="61 35.87 61.55 35.55 59.32 31.72 58.77 32.04 61 35.87"/><polygon class="cls-2" points="69.03 17.94 71.63 14.34 71.11 13.97 68.51 17.56 69.03 17.94"/><polygon class="cls-2" points="67.98 22.44 71.21 19.41 70.78 18.94 67.54 21.98 67.98 22.44"/><polygon class="cls-2" points="66 27.53 69.9 25.43 69.6 24.87 65.7 26.96 66 27.53"/><polygon class="cls-2" points="63.45 32.62 67.47 30.72 67.19 30.14 63.18 32.04 63.45 32.62"/><polygon class="cls-2" points="59.95 37.53 64.11 36.01 63.89 35.41 59.73 36.94 59.95 37.53"/><path class="cls-2" d="M94.27,188.34a1.54,1.54,0,1,0,2-.83A1.54,1.54,0,0,0,94.27,188.34Z" transform="translate(-26.02 -178.88)"/><path class="cls-2" d="M91.16,192.26a1.55,1.55,0,1,0,2-1A1.55,1.55,0,0,0,91.16,192.26Z" transform="translate(-26.02 -178.88)"/><path class="cls-2" d="M89.52,196.42A1.54,1.54,0,1,0,92,198.3a1.54,1.54,0,0,0-.28-2.16A1.53,1.53,0,0,0,89.52,196.42Z" transform="translate(-26.02 -178.88)"/><path class="cls-2" d="M87.8,201.05a1.55,1.55,0,1,0,2.17-.28A1.54,1.54,0,0,0,87.8,201.05Z" transform="translate(-26.02 -178.88)"/><path class="cls-2" d="M85.68,205.1a1.54,1.54,0,1,0,2.17-.28A1.55,1.55,0,0,0,85.68,205.1Z" transform="translate(-26.02 -178.88)"/><path class="cls-2" d="M83.33,209.15a1.54,1.54,0,1,0,2.16-.28A1.55,1.55,0,0,0,83.33,209.15Z" transform="translate(-26.02 -178.88)"/><path class="cls-2" d="M99.7,192.48a1.54,1.54,0,0,1-1.51,1.57,1.55,1.55,0,1,1,1.51-1.57Z" transform="translate(-26.02 -178.88)"/><path class="cls-2" d="M99.39,197.94a1.54,1.54,0,1,1-3-.53,1.54,1.54,0,0,1,3,.53Z" transform="translate(-26.02 -178.88)"/><path class="cls-2" d="M98.09,204.53a1.54,1.54,0,1,1-.75-2.05A1.53,1.53,0,0,1,98.09,204.53Z" transform="translate(-26.02 -178.88)"/><path class="cls-2" d="M95.64,209.93a1.54,1.54,0,1,1-.65-2.09A1.54,1.54,0,0,1,95.64,209.93Z" transform="translate(-26.02 -178.88)"/><path class="cls-2" d="M92.25,215.41a1.54,1.54,0,1,1-.46-2.13A1.55,1.55,0,0,1,92.25,215.41Z" transform="translate(-26.02 -178.88)"/><path class="cls-3" d="M64.41,206.53l-.2-1A32.57,32.57,0,0,1,38,199.7l-.65.76A33.6,33.6,0,0,0,64.41,206.53Z" transform="translate(-26.02 -178.88)"/><path class="cls-3" d="M38.32,200.45s-3.79-4.18-5.66-1.66C31.86,199.86,33.34,202,38.32,200.45Z" transform="translate(-26.02 -178.88)"/><path class="cls-3" d="M40,201.64s-5.92-.94-5.34,2.09C35,205,37.68,205.78,40,201.64Z" transform="translate(-26.02 -178.88)"/><path class="cls-3" d="M40.23,202.16s-4.7-3.38-1.82-5C39.64,196.48,42.09,197.82,40.23,202.16Z" transform="translate(-26.02 -178.88)"/><path class="cls-3" d="M44.72,204.2s-4.89-3.18-2.09-4.92C43.81,198.54,46.33,199.77,44.72,204.2Z" transform="translate(-26.02 -178.88)"/><path class="cls-3" d="M48.51,205.61s-4.87-3.19-2.07-4.92C47.63,200,50.14,201.19,48.51,205.61Z" transform="translate(-26.02 -178.88)"/><path class="cls-3" d="M53.41,206.55s-5.42-2.39-3-4.54C51.4,201.09,54.1,201.92,53.41,206.55Z" transform="translate(-26.02 -178.88)"/><path class="cls-3" d="M57.43,206.8s-5.34-2.54-2.87-4.62C55.6,201.29,58.28,202.19,57.43,206.8Z" transform="translate(-26.02 -178.88)"/><path class="cls-3" d="M62.63,206.34s-5.88-1.16-4.19-3.78C59.16,201.45,62,201.66,62.63,206.34Z" transform="translate(-26.02 -178.88)"/><path class="cls-3" d="M43.55,203.69s-5.93-.94-5.35,2.09C38.46,207.06,41.18,207.83,43.55,203.69Z" transform="translate(-26.02 -178.88)"/><path class="cls-3" d="M47.45,205.19s-5.93-.93-5.35,2.09C42.35,208.57,45.08,209.33,47.45,205.19Z" transform="translate(-26.02 -178.88)"/><path class="cls-3" d="M51.44,206.09s-6,.27-4.62,3.12C47.39,210.42,50.23,210.62,51.44,206.09Z" transform="translate(-26.02 -178.88)"/><path class="cls-3" d="M56,206.63s-5.88.83-4.2,3.54C52.47,211.33,55.3,211.27,56,206.63Z" transform="translate(-26.02 -178.88)"/><path class="cls-3" d="M60.48,206.5s-5.66,1.56-3.56,4.05C57.82,211.61,60.6,211.19,60.48,206.5Z" transform="translate(-26.02 -178.88)"/><path class="cls-3" d="M78.3,219.85l.72-.68a32.6,32.6,0,0,1-9-25.37l-1-.15A33.6,33.6,0,0,0,78.3,219.85Z" transform="translate(-26.02 -178.88)"/><path class="cls-3" d="M69.62,194.51s1.54-5.43-1.59-5.69C66.7,188.71,65.65,191.12,69.62,194.51Z" transform="translate(-26.02 -178.88)"/><path class="cls-3" d="M69.53,196.59s-2.34-5.52-4.6-3.42C64,194.07,64.77,196.79,69.53,196.59Z" transform="translate(-26.02 -178.88)"/><path class="cls-3" d="M69.19,197s.37-5.78,3.27-4.19C73.69,193.52,73.85,196.31,69.19,197Z" transform="translate(-26.02 -178.88)"/><path class="cls-3" d="M69.84,201.92s.1-5.84,3.06-4.38C74.16,198.15,74.44,200.94,69.84,201.92Z" transform="translate(-26.02 -178.88)"/><path class="cls-3" d="M70.65,205.88s.13-5.82,3.08-4.37C75,202.13,75.27,204.92,70.65,205.88Z" transform="translate(-26.02 -178.88)"/><path class="cls-3" d="M72.44,210.53s-.83-5.86,2.26-5C76,205.94,76.74,208.67,72.44,210.53Z" transform="translate(-26.02 -178.88)"/><path class="cls-3" d="M74.37,214.07s-.68-5.87,2.4-4.88C78.07,209.61,78.73,212.35,74.37,214.07Z" transform="translate(-26.02 -178.88)"/><path class="cls-3" d="M77.52,218.24s-2.13-5.6,1-5.56C79.83,212.7,81.14,215.22,77.52,218.24Z" transform="translate(-26.02 -178.88)"/><path class="cls-3" d="M69.65,200.65s-2.35-5.52-4.6-3.42C64.09,198.12,64.89,200.84,69.65,200.65Z" transform="translate(-26.02 -178.88)"/><path class="cls-3" d="M70.44,204.75s-2.34-5.52-4.6-3.42C64.88,202.23,65.68,204.94,70.44,204.75Z" transform="translate(-26.02 -178.88)"/><path class="cls-3" d="M71.8,208.62s-3.4-4.92-5.09-2.27C66,207.48,67.31,210,71.8,208.62Z" transform="translate(-26.02 -178.88)"/><path class="cls-3" d="M73.73,212.74s-3.81-4.56-5.23-1.69C67.9,212.27,69.45,214.64,73.73,212.74Z" transform="translate(-26.02 -178.88)"/><path class="cls-3" d="M76.24,216.51s-4.32-4-5.32-.88C70.5,217,72.33,219.09,76.24,216.51Z" transform="translate(-26.02 -178.88)"/><path class="cls-4" d="M59.33,212.09s-11.1-4.78-6.45-7.62-1-6-5-5.87-9.25-5.44-4.5-7.37-8.38-8.62-4.81-8.71,8.41,1.78,9.56,6.78,5.14.59,4.27-2.14,6.83,3.42,3.2,8.77,3.92,5.11,4.6,2.34,4.06,1.81,1.79,5.95-1.25,6.53,1.07,7.77S59.33,212.09,59.33,212.09Z" transform="translate(-26.02 -178.88)"/><path class="cls-5" d="M65.84,215.21l-.69.48a30.34,30.34,0,0,1-3.53-8.7c-1.6-6.74-.55-13,3.07-18.13l.64.41C56.94,201.16,65.75,215.07,65.84,215.21Z" transform="translate(-26.02 -178.88)"/><path class="cls-5" d="M64.52,189.83S63,185.3,68,182.55C68,182.55,68.55,187.38,64.52,189.83Z" transform="translate(-26.02 -178.88)"/><path class="cls-5" d="M62.51,194s-5.58-2.41-2.67-8.92C59.84,185,62.89,186.24,62.51,194Z" transform="translate(-26.02 -178.88)"/><path class="cls-5" d="M62.35,193.84s6,1.32,8.6-5.3C71,188.54,67.74,187.73,62.35,193.84Z" transform="translate(-26.02 -178.88)"/><path class="cls-5" d="M61.26,199.64s-5.86-1.8-3.62-8.5C57.64,191.14,60.83,192,61.26,199.64Z" transform="translate(-26.02 -178.88)"/><path class="cls-5" d="M61.09,199.54a7.71,7.71,0,0,0,8.09-6.09S65.86,193,61.09,199.54Z" transform="translate(-26.02 -178.88)"/><path class="cls-5" d="M61.77,206s-6.19-.74-5.11-7.61C56.66,198.43,60,198.73,61.77,206Z" transform="translate(-26.02 -178.88)"/><path class="cls-5" d="M61.58,206a7.78,7.78,0,0,0,7.06-7.27S65.23,198.81,61.58,206Z" transform="translate(-26.02 -178.88)"/><path class="cls-5" d="M63.49,211.34s-6.34.92-7.08-5.81C56.41,205.53,59.82,204.94,63.49,211.34Z" transform="translate(-26.02 -178.88)"/><path class="cls-5" d="M63.28,211.33s6.19-2,5.09-8.65C68.37,202.68,65,203.67,63.28,211.33Z" transform="translate(-26.02 -178.88)"/><path class="cls-6" d="M77.71,189.52s-5-2-3.47-6.5C74.24,183,78.54,185.7,77.71,189.52Z" transform="translate(-26.02 -178.88)"/><path class="cls-6" d="M86.53,218.47l-.58-.15c2.26-8.7-9.24-29.73-9.36-29.94l.52-.28C77.59,189,88.84,209.54,86.53,218.47Z" transform="translate(-26.02 -178.88)"/><path class="cls-6" d="M80.47,195.83l-.41-.43c1.91-1.8.57-6.75.56-6.8l.57-.16C81.25,188.66,82.63,193.79,80.47,195.83Z" transform="translate(-26.02 -178.88)"/><path class="cls-6" d="M81.49,193.46a.35.35,0,0,1-.11,0l-.14-.57c1.52-.4,2.39-3.38,2.4-3.41l.57.16C84.17,189.8,83.29,192.9,81.49,193.46Z" transform="translate(-26.02 -178.88)"/><path class="cls-6" d="M81.08,190s-3.39-4.23.22-7.36C81.3,182.61,83.7,187.07,81.08,190Z" transform="translate(-26.02 -178.88)"/><path class="cls-6" d="M83.27,190.57s0-5.41,4.75-5.62C88,185,87.12,189.93,83.27,190.57Z" transform="translate(-26.02 -178.88)"/><path class="cls-6" d="M82.8,201.38l-.22-.54c2.42-1,2.94-6.11,2.94-6.16l.59.06C86.09,195,85.55,200.25,82.8,201.38Z" transform="translate(-26.02 -178.88)"/><path class="cls-6" d="M85.45,199.42a2.26,2.26,0,0,1-1,.11l.07-.59c1.57.19,3.44-2.31,3.46-2.33l.47.35A7.6,7.6,0,0,1,85.45,199.42Z" transform="translate(-26.02 -178.88)"/><path class="cls-6" d="M85.46,196.12s-1.65-5.15,2.83-6.8C88.29,189.32,88.94,194.35,85.46,196.12Z" transform="translate(-26.02 -178.88)"/><path class="cls-6" d="M87.29,197.46s1.92-5.06,6.45-3.55C93.74,193.91,91.12,198.24,87.29,197.46Z" transform="translate(-26.02 -178.88)"/><path class="cls-6" d="M85.61,205.82a3.17,3.17,0,0,1-1.18.15l0-.59c2.62.17,5.35-4.17,5.37-4.21l.51.31C90.23,201.64,88.1,205,85.61,205.82Z" transform="translate(-26.02 -178.88)"/><path class="cls-6" d="M90,205.1a4.06,4.06,0,0,1-3.28,0l.33-.49c1.32.86,4.1-.55,4.13-.56l.27.52A9.29,9.29,0,0,1,90,205.1Z" transform="translate(-26.02 -178.88)"/><path class="cls-6" d="M89.14,202.43s.8-5.35,5.54-4.84C94.68,197.59,93.05,202.38,89.14,202.43Z" transform="translate(-26.02 -178.88)"/><path class="cls-6" d="M90.19,204.45s4-3.7,7.35-.34C97.54,204.11,93.28,206.84,90.19,204.45Z" transform="translate(-26.02 -178.88)"/><path class="cls-6" d="M81.17,197.48c-3-.23-5.11-5.09-5.2-5.3l.54-.23c0,.05,2.09,4.74,4.71,4.94Z" transform="translate(-26.02 -178.88)"/><path class="cls-6" d="M78.75,196.33c-1.75.55-4.25-1.22-4.36-1.3l.34-.48s2.58,1.82,4,1.15l.25.54Z" transform="translate(-26.02 -178.88)"/><path class="cls-6" d="M77,193.3s0-5.41-4.79-5.59C72.22,187.71,73.16,192.69,77,193.3Z" transform="translate(-26.02 -178.88)"/><path class="cls-6" d="M75.69,195.15s-3.39-4.23-7.23-1.4C68.46,193.75,72.29,197.07,75.69,195.15Z" transform="translate(-26.02 -178.88)"/><path class="cls-6" d="M83.42,202.54c-2.73.85-6.62-2.25-6.79-2.39l.38-.46s4,3.23,6.45,2.2l.24.55Z" transform="translate(-26.02 -178.88)"/><path class="cls-6" d="M79.82,203.22a8.77,8.77,0,0,1-3.27.19l.08-.59s3.13.42,4.09-.83l.47.36A2.77,2.77,0,0,1,79.82,203.22Z" transform="translate(-26.02 -178.88)"/><path class="cls-6" d="M78.08,200.66s-2.53-4.79-6.84-2.74C71.24,197.92,74.37,201.9,78.08,200.66Z" transform="translate(-26.02 -178.88)"/><path class="cls-6" d="M77.75,202.91s-5-2.18-7,2.11C70.7,205,75.63,206.19,77.75,202.91Z" transform="translate(-26.02 -178.88)"/><path class="cls-6" d="M84.74,209.44c-2.59.8-6.44-1.38-6.61-1.48l.29-.52s4.5,2.56,6.73,1.17l.31.5A3.13,3.13,0,0,1,84.74,209.44Z" transform="translate(-26.02 -178.88)"/><path class="cls-6" d="M81,210.8a9.77,9.77,0,0,1-2.41.38v-.59s3.14-.07,3.9-1.46l.52.28A3.32,3.32,0,0,1,81,210.8Z" transform="translate(-26.02 -178.88)"/><path class="cls-6" d="M79.63,208.23s-3.24-4.34-7.18-1.64C72.45,206.59,76.17,210,79.63,208.23Z" transform="translate(-26.02 -178.88)"/><path class="cls-6" d="M79.66,210.5s-5.23-1.37-6.63,3.19C73,213.69,78.08,214.07,79.66,210.5Z" transform="translate(-26.02 -178.88)"/><path class="cls-7" d="M109.47,251.06c0,1.55-3.42,3.56-36.64,3.56S26,253.4,26,251.84,39.62,249,72.83,249,109.47,249.5,109.47,251.06Z" transform="translate(-26.02 -178.88)"/><path class="cls-8" d="M57.64,215.8s-8.37-1.17-5.76-4-1.77-3.86-4.45-3-7.24-1.95-4.4-4.13-7.24-4.26-4.85-5,6-.35,7.69,2.81,3.58-.56,2.48-2.24,5.25,1,3.79,5.32,3.58,2.72,3.53.73,3.07.47,2.31,3.68.36,4.63,2.16,5S57.64,215.8,57.64,215.8Z" transform="translate(-26.02 -178.88)"/><path class="cls-8" d="M51.76,210.17s-23.5,42.15,1.05,42.44,22-4.08,36.16-.77c9.48,2.21,7.76-28.38,2.3-38.72Z" transform="translate(-26.02 -178.88)"/><path class="cls-8" d="M55.35,211.41s4.34-32.82,18.87-32.53S90.72,204.8,88.12,214l-5.42-.63s7.37-31.78-9.33-31.79c-3.79,0-15.35,10.53-13.71,30.14Z" transform="translate(-26.02 -178.88)"/><path class="cls-9" d="M47.46,213.15s1.52-2,.73-1.87-1.08.52-1.48,1.73Z" transform="translate(-26.02 -178.88)"/><path class="cls-10" d="M49,224.1c0,.44-.31,1.64-1.2,1.25-1.42-.63-3.1-4.44-3.26-5.56s2.16-6.95,2.16-6.95a.68.68,0,0,1,.88.35l-.39,6.41S48.9,222.6,49,224.1Z" transform="translate(-26.02 -178.88)"/><path class="cls-11" d="M44.93,252.11c-.56-.43-.55-.51-.46-.7a4.19,4.19,0,0,1,.29-.49l-1.11-.42a4.84,4.84,0,0,0-.24,1.06A1.94,1.94,0,0,0,44.93,252.11Z" transform="translate(-26.02 -178.88)"/><path class="cls-12" d="M43.41,251.56l0,0c-.39,1,1,1.2,1.77,1.17s-.23-.6-.23-.6A1.94,1.94,0,0,1,43.41,251.56Z" transform="translate(-26.02 -178.88)"/><path class="cls-13" d="M51.45,231.8a18.32,18.32,0,0,1-.24,3.69,21.88,21.88,0,0,1-1.77,5.39c-.66,2.17-2.51,7.54-4.68,10.26-.26.32-1.49-.25-1.45-.76.24-3.43.3-5,1.8-8.45a24.12,24.12,0,0,1-.77-4.25c0-1.61.17-5.47,1.31-7.08Z" transform="translate(-26.02 -178.88)"/><path class="cls-11" d="M51.6,252.64c-.64-.3-.65-.39-.6-.59a3.18,3.18,0,0,1,.19-.54L50,251.34a4.91,4.91,0,0,0,0,1.08A1.89,1.89,0,0,0,51.6,252.64Z" transform="translate(-26.02 -178.88)"/><path class="cls-12" d="M50,252.42h0c-.19,1,1.22,1,2,.76s-.35-.53-.35-.53A1.89,1.89,0,0,1,50,252.42Z" transform="translate(-26.02 -178.88)"/><path class="cls-14" d="M53.67,231.41a17.61,17.61,0,0,1,.54,3.65,20.67,20.67,0,0,1-.59,5.65c-.18,2.26-.85,7.9-2.39,11-.19.37-1.51.07-1.59-.44-.48-3.4-.75-4.92,0-8.64a24.81,24.81,0,0,1-1.65-4c-.34-1.58-1-5.39-.21-7.2Z" transform="translate(-26.02 -178.88)"/><path class="cls-10" d="M51.57,221.67c1.14.92,2.08,3.12,2.37,10.22.07,1.57-9,1.72-9,.16,0-4.17.77-5.87,2.06-9.59C47.35,221.45,49.31,219.84,51.57,221.67Z" transform="translate(-26.02 -178.88)"/><path class="cls-9" d="M57.48,213.05s-.49-1.86,0-1.41.79.36.57,1.62Z" transform="translate(-26.02 -178.88)"/><path class="cls-10" d="M52.09,222.2c-.2.38-.45,1.61.3,1.64,1.19,0,3.83-2.65,4.38-3.59s1.34-7.15,1.34-7.15a.44.44,0,0,0-.73-.06L55.09,219A15.87,15.87,0,0,0,52.09,222.2Z" transform="translate(-26.02 -178.88)"/><path class="cls-9" d="M50,215.12c1.21.4,2.7,1.55,1.75,4.61-.65,2.12-3.09.35-3.09.35S47,214.14,50,215.12Z" transform="translate(-26.02 -178.88)"/><path class="cls-9" d="M51.05,219.83a2.62,2.62,0,0,0-.14,1.57c.23.7-1.73.7-2.19.39s.49-.95-.11-2.53C48.06,217.85,51.05,219.83,51.05,219.83Z" transform="translate(-26.02 -178.88)"/><path class="cls-15" d="M51.83,215.88a2.8,2.8,0,0,1-.78,2.86c-1.34,1.06-.54,1.91-1.09,2.06a2.51,2.51,0,0,1-2.78-1c-.87-1.71-.48-5.83,1.82-5.73S51.72,215.17,51.83,215.88Z" transform="translate(-26.02 -178.88)"/><path class="cls-15" d="M49.79,215.15a1.68,1.68,0,1,1-1.68-1.69A1.68,1.68,0,0,1,49.79,215.15Z" transform="translate(-26.02 -178.88)"/></svg>