<svg id="Layer_1" data-name="Layer 1" xmlns="http://www.w3.org/2000/svg" viewBox="0 0 102.63 78.67"><defs><style>.cls-1{fill:#ffbd36;}.cls-2{fill:#0a3c33;}.cls-3{fill:#fba571;}.cls-4{fill:#bee4d7;}.cls-5{fill:#fc593a;}.cls-6{fill:#7fb1cd;}.cls-7{fill:#d8d5ca;}.cls-8{fill:#317170;}.cls-9{fill:#0d5d42;}.cls-10{fill:#e28c71;}.cls-11{fill:#f9b5a0;}.cls-12{fill:#7585f8;}.cls-13{fill:#7bb1cc;}.cls-14{fill:#9acfe5;}.cls-15{fill:#0b2149;}.cls-16{fill:#e0623f;}.cls-17{fill:#f27851;}.cls-18{fill:#051536;}</style></defs><path class="cls-1" d="M146.41,312.08s-4.92,1.1-6.07-3.2C140.34,308.88,145.06,308.7,146.41,312.08Z" transform="translate(-139.44 -286.47)"/><path class="cls-1" d="M168.39,329.82l-.52.18c-2.82-7.9-22.71-18.11-22.91-18.21l.25-.49C146,311.72,165.5,321.71,168.39,329.82Z" transform="translate(-139.44 -286.47)"/><path class="cls-1" d="M151.85,315.51l-.54-.12c.53-2.39-3.09-5.51-3.13-5.55l.36-.42C148.7,309.56,152.45,312.8,151.85,315.51Z" transform="translate(-139.44 -286.47)"/><path class="cls-1" d="M151.4,313.14a.27.27,0,0,1-.07.08l-.41-.36c1-1.11.08-3.87.07-3.9l.52-.17C151.55,308.91,152.49,311.77,151.4,313.14Z" transform="translate(-139.44 -286.47)"/><path class="cls-1" d="M149.25,310.66s-4.82-1.49-3.69-5.79C145.56,304.87,149.75,307.05,149.25,310.66Z" transform="translate(-139.44 -286.47)"/><path class="cls-1" d="M151.26,310s-2.85-4.17.72-6.83C152,303.15,153.9,307.47,151.26,310Z" transform="translate(-139.44 -286.47)"/><path class="cls-1" d="M156.56,318.57l-.46-.3c1.35-2-.93-6.26-.95-6.3l.49-.26C155.74,311.89,158.09,316.25,156.56,318.57Z" transform="translate(-139.44 -286.47)"/><path class="cls-1" d="M157.58,315.68a2,2,0,0,1-.69.57l-.25-.48c1.31-.68,1.45-3.59,1.45-3.62l.55,0A7.12,7.12,0,0,1,157.58,315.68Z" transform="translate(-139.44 -286.47)"/><path class="cls-1" d="M155.86,313.12s-4-3.11-1.38-6.73C154.48,306.39,157.62,309.92,155.86,313.12Z" transform="translate(-139.44 -286.47)"/><path class="cls-1" d="M158,313.19s-1.17-4.91,3.11-6.12C161.09,307.07,161.34,311.79,158,313.19Z" transform="translate(-139.44 -286.47)"/><path class="cls-1" d="M161.05,320.53a3.21,3.21,0,0,1-.83.73l-.28-.47c2.11-1.24,1.94-6,1.94-6.07l.55,0C162.43,314.88,162.57,318.62,161.05,320.53Z" transform="translate(-139.44 -286.47)"/><path class="cls-1" d="M164.1,317.66a3.85,3.85,0,0,1-2.56,1.67v-.55c1.48,0,2.88-2.57,2.9-2.6l.48.27A9.8,9.8,0,0,1,164.1,317.66Z" transform="translate(-139.44 -286.47)"/><path class="cls-1" d="M162,316.06s-2.2-4.55,1.74-6.64C163.75,309.42,165,314,162,316.06Z" transform="translate(-139.44 -286.47)"/><path class="cls-1" d="M163.87,317.07s1.12-4.93,5.5-4.11C169.37,313,167.5,317.3,163.87,317.07Z" transform="translate(-139.44 -286.47)"/><path class="cls-1" d="M153.26,316.41c-2.41,1.38-6.62-1.25-6.79-1.36l.29-.47s4.1,2.57,6.22,1.35Z" transform="translate(-139.44 -286.47)"/><path class="cls-1" d="M150.78,316.8c-1.06,1.33-3.91,1.28-4,1.28v-.56s2.95.06,3.7-1.21l.47.29A2.43,2.43,0,0,1,150.78,316.8Z" transform="translate(-139.44 -286.47)"/><path class="cls-1" d="M147.86,315.37s-2.85-4.17-6.63-1.82C141.23,313.55,144.56,316.91,147.86,315.37Z" transform="translate(-139.44 -286.47)"/><path class="cls-1" d="M147.8,317.48S143,316,141.49,320.2C141.49,320.2,146.18,320.75,147.8,317.48Z" transform="translate(-139.44 -286.47)"/><path class="cls-1" d="M157.64,319.14c-1.66,2.09-6.28,1.73-6.49,1.71l0-.55c.05,0,4.81.38,6.14-1.68l.46.3C157.75,319,157.7,319.07,157.64,319.14Z" transform="translate(-139.44 -286.47)"/><path class="cls-1" d="M155.22,321.55a8.13,8.13,0,0,1-2.42,1.86l-.25-.5s2.63-1.31,2.72-2.78l.55,0A2.54,2.54,0,0,1,155.22,321.55Z" transform="translate(-139.44 -286.47)"/><path class="cls-1" d="M152.53,320.49s-4.45-2.38-6.71,1.46C145.82,322,150.32,323.39,152.53,320.49Z" transform="translate(-139.44 -286.47)"/><path class="cls-1" d="M153.46,322.39s-5,.92-4.33,5.33C149.13,327.72,153.54,326,153.46,322.39Z" transform="translate(-139.44 -286.47)"/><path class="cls-1" d="M162.28,323.77c-1.58,2-5.7,2.31-5.89,2.33l0-.56c.05,0,4.82-.37,5.81-2.62l.5.23A3,3,0,0,1,162.28,323.77Z" transform="translate(-139.44 -286.47)"/><path class="cls-1" d="M160.07,326.8a8.51,8.51,0,0,1-1.66,1.56l-.31-.45s2.39-1.7,2.25-3.17l.54-.06A3,3,0,0,1,160.07,326.8Z" transform="translate(-139.44 -286.47)"/><path class="cls-1" d="M157.7,325.52s-4.77-1.65-6.4,2.49C151.3,328,156,328.73,157.7,325.52Z" transform="translate(-139.44 -286.47)"/><path class="cls-1" d="M158.91,327.26s-4.76,1.68-3.45,5.93C155.46,333.19,159.56,330.84,158.91,327.26Z" transform="translate(-139.44 -286.47)"/><path class="cls-2" d="M173.36,319.84l-.4.73a30,30,0,0,1-7-6.25c-4.42-5.34-6.24-11.43-5.25-17.62l.75.09C159.17,311.16,173.22,319.75,173.36,319.84Z" transform="translate(-139.44 -286.47)"/><path class="cls-2" d="M161,297.65s-3.34-3.41-.12-8.06C160.84,289.59,163.49,293.67,161,297.65Z" transform="translate(-139.44 -286.47)"/><path class="cls-2" d="M161,302.23s-6.07.31-6.34-6.82C154.64,295.41,157.91,295.15,161,302.23Z" transform="translate(-139.44 -286.47)"/><path class="cls-2" d="M160.79,302.2s6-1.48,5.37-8.55C166.16,293.65,162.92,294.35,160.79,302.2Z" transform="translate(-139.44 -286.47)"/><path class="cls-2" d="M162.37,307.88s-6.05,1-7-6C155.37,301.86,158.61,301.23,162.37,307.88Z" transform="translate(-139.44 -286.47)"/><path class="cls-2" d="M162.17,307.87a7.71,7.71,0,0,0,4.57-9S163.56,299.88,162.17,307.87Z" transform="translate(-139.44 -286.47)"/><path class="cls-2" d="M165.66,313.4s-5.89,2.07-7.94-4.56C157.72,308.84,160.85,307.62,165.66,313.4Z" transform="translate(-139.44 -286.47)"/><path class="cls-2" d="M165.46,313.43a7.8,7.8,0,0,0,3.12-9.65S165.57,305.39,165.46,313.43Z" transform="translate(-139.44 -286.47)"/><path class="cls-2" d="M169.54,317.4s-5.28,3.62-8.92-2.09C160.62,315.31,163.42,313.28,169.54,317.4Z" transform="translate(-139.44 -286.47)"/><path class="cls-2" d="M169.36,317.48s4.65-4.54.73-10C170.09,307.47,167.52,309.84,169.36,317.48Z" transform="translate(-139.44 -286.47)"/><path class="cls-3" d="M203.87,330.75l-.11,1.1a39.48,39.48,0,0,0,12.16-1.48c8.7-2.44,15.17-7.65,18.72-15.06l-.87-.47C225.53,332,204.09,330.76,203.87,330.75Z" transform="translate(-139.44 -286.47)"/><path class="cls-3" d="M233.64,316.13s6.12-1.17,6.12-8.61C239.76,307.52,233.89,309.93,233.64,316.13Z" transform="translate(-139.44 -286.47)"/><path class="cls-3" d="M230.22,321.05s6.27,4.89,11.85-2.6C242.07,318.45,238.77,315.71,230.22,321.05Z" transform="translate(-139.44 -286.47)"/><path class="cls-3" d="M230.45,321.17s-5.32-6.09.59-13.25C231,307.92,234,311.09,230.45,321.17Z" transform="translate(-139.44 -286.47)"/><path class="cls-3" d="M224.52,326.1s5.76,5.6,12-1.24C236.51,324.86,233.5,321.74,224.52,326.1Z" transform="translate(-139.44 -286.47)"/><path class="cls-3" d="M224.75,326.24s-4.71-6.69,1.82-13.17C226.57,313.07,229.2,316.58,224.75,326.24Z" transform="translate(-139.44 -286.47)"/><path class="cls-3" d="M216.91,329.59s4.76,6.65,11.9,1C228.81,330.62,226.35,327,216.91,329.59Z" transform="translate(-139.44 -286.47)"/><path class="cls-3" d="M217.1,329.77A10.29,10.29,0,0,1,220.93,317S223,321,217.1,329.77Z" transform="translate(-139.44 -286.47)"/><path class="cls-3" d="M209.77,331s3,7.87,11.11,4.43C220.88,335.42,219.4,331.14,209.77,331Z" transform="translate(-139.44 -286.47)"/><path class="cls-3" d="M209.91,331.22s-1.61-8.39,6.65-11.35C216.56,319.87,217.56,324.35,209.91,331.22Z" transform="translate(-139.44 -286.47)"/><path class="cls-4" d="M214.42,328.2c16.09-18.63,15-37.94,15-38.14l-.83.05c0,.19,1,19.19-14.82,37.55Z" transform="translate(-139.44 -286.47)"/><polygon class="cls-4" points="88.06 14.44 88.85 14.17 87.03 8.69 86.25 8.95 88.06 14.44"/><polygon class="cls-4" points="86.67 19.92 87.39 19.5 84.48 14.52 83.76 14.93 86.67 19.92"/><polygon class="cls-4" points="84.43 25.96 85.16 25.55 82.24 20.55 81.53 20.97 84.43 25.96"/><rect class="cls-4" x="219.6" y="312.12" width="0.83" height="5.78" transform="translate(-268.22 -132.64) rotate(-30.26)"/><polygon class="cls-4" points="78.61 36.52 79.32 36.1 76.41 31.11 75.7 31.54 78.61 36.52"/><polygon class="cls-4" points="89.07 13.15 92.46 8.46 91.79 7.98 88.4 12.66 89.07 13.15"/><rect class="cls-4" x="226.07" y="302.79" width="5.78" height="0.83" transform="translate(-284.89 -47.87) rotate(-43.15)"/><polygon class="cls-4" points="85.12 25.65 90.21 22.91 89.82 22.18 84.73 24.92 85.12 25.65"/><rect class="cls-4" x="220.79" y="316.72" width="5.78" height="0.83" transform="translate(-253.62 -160.27) rotate(-25.33)"/><rect class="cls-4" x="216.35" y="323.36" width="5.78" height="0.83" transform="matrix(0.94, -0.34, 0.34, 0.94, -237.33, -191.44)"/><path class="cls-4" d="M227.48,288.57a2,2,0,1,0,2.63-1.09A2,2,0,0,0,227.48,288.57Z" transform="translate(-139.44 -286.47)"/><path class="cls-4" d="M223.44,293.68a2,2,0,1,0,2.55-1.26A2,2,0,0,0,223.44,293.68Z" transform="translate(-139.44 -286.47)"/><path class="cls-4" d="M221.29,299.1a2,2,0,1,0,2.82-.37A2,2,0,0,0,221.29,299.1Z" transform="translate(-139.44 -286.47)"/><path class="cls-4" d="M219.05,305.13a2,2,0,1,0,2.83-.36A2,2,0,0,0,219.05,305.13Z" transform="translate(-139.44 -286.47)"/><path class="cls-4" d="M216.29,310.41a2,2,0,1,0,2.83-.36A2,2,0,0,0,216.29,310.41Z" transform="translate(-139.44 -286.47)"/><path class="cls-4" d="M213.22,315.7a2,2,0,1,0,2.83-.36A2,2,0,0,0,213.22,315.7Z" transform="translate(-139.44 -286.47)"/><path class="cls-4" d="M234.57,294a2,2,0,1,1-2-2A2,2,0,0,1,234.57,294Z" transform="translate(-139.44 -286.47)"/><path class="cls-4" d="M234.16,301.09a2,2,0,1,1-1.64-2.33A2,2,0,0,1,234.16,301.09Z" transform="translate(-139.44 -286.47)"/><path class="cls-4" d="M232.47,309.67a2,2,0,1,1-3.65-1.68,2,2,0,0,1,2.68-1A2,2,0,0,1,232.47,309.67Z" transform="translate(-139.44 -286.47)"/><path class="cls-4" d="M229.28,316.71a2,2,0,1,1-.85-2.72A2,2,0,0,1,229.28,316.71Z" transform="translate(-139.44 -286.47)"/><path class="cls-4" d="M224.85,323.86a2,2,0,1,1-.59-2.78A2,2,0,0,1,224.85,323.86Z" transform="translate(-139.44 -286.47)"/><polygon class="cls-5" points="24.17 49.71 22.49 31.5 27.17 29.95 27.7 18.35 30 18.46 30.92 29.62 33.56 28.73 33.8 23.43 36.12 23.03 35.88 28.33 39.66 27.49 39.35 34.05 42.83 33.7 43.5 19.08 46.09 19.2 46.92 32.25 50.41 32.41 49.52 25.92 50.7 25.98 53.82 32.57 58.75 31.65 59.75 9.97 64.34 10.18 65.67 31.47 69.98 31.66 70.71 15.78 74.46 15.7 77.18 31.49 82.31 32.74 82.95 50.28 24.17 49.71"/><path class="cls-6" d="M203.12,293.4a2.28,2.28,0,1,1-2.16-2.09A2.14,2.14,0,0,1,203.12,293.4Z" transform="translate(-139.44 -286.47)"/><path class="cls-6" d="M208.58,292.27a3.86,3.86,0,1,1-3.67-3.53A3.63,3.63,0,0,1,208.58,292.27Z" transform="translate(-139.44 -286.47)"/><path class="cls-6" d="M212,289.52a3.34,3.34,0,1,1-3.17-3A3.12,3.12,0,0,1,212,289.52Z" transform="translate(-139.44 -286.47)"/><path class="cls-6" d="M213.35,292.29A3.64,3.64,0,1,1,209.9,289,3.39,3.39,0,0,1,213.35,292.29Z" transform="translate(-139.44 -286.47)"/><path class="cls-6" d="M216.82,291.91a2.49,2.49,0,1,1-2.36-2.27A2.32,2.32,0,0,1,216.82,291.91Z" transform="translate(-139.44 -286.47)"/><path class="cls-6" d="M213.71,299a1.66,1.66,0,1,1-1.58-1.52A1.56,1.56,0,0,1,213.71,299Z" transform="translate(-139.44 -286.47)"/><path class="cls-6" d="M217.68,298.18a2.81,2.81,0,1,1-2.67-2.57A2.63,2.63,0,0,1,217.68,298.18Z" transform="translate(-139.44 -286.47)"/><path class="cls-6" d="M220.17,296.18a2.43,2.43,0,1,1-2.31-2.22A2.27,2.27,0,0,1,220.17,296.18Z" transform="translate(-139.44 -286.47)"/><path class="cls-6" d="M221.16,298.19a2.65,2.65,0,1,1-2.52-2.42A2.48,2.48,0,0,1,221.16,298.19Z" transform="translate(-139.44 -286.47)"/><path class="cls-6" d="M223.68,297.92a1.81,1.81,0,1,1-1.72-1.66A1.69,1.69,0,0,1,223.68,297.92Z" transform="translate(-139.44 -286.47)"/><path class="cls-6" d="M169.34,302.41a1.66,1.66,0,1,1-1.58-1.52A1.55,1.55,0,0,1,169.34,302.41Z" transform="translate(-139.44 -286.47)"/><path class="cls-6" d="M173.31,301.59a2.81,2.81,0,1,1-2.67-2.57A2.63,2.63,0,0,1,173.31,301.59Z" transform="translate(-139.44 -286.47)"/><path class="cls-6" d="M175.8,299.59a2.28,2.28,0,0,1-2.51,2,2.13,2.13,0,1,1,2.51-2Z" transform="translate(-139.44 -286.47)"/><path class="cls-6" d="M176.78,301.61a2.64,2.64,0,1,1-2.51-2.42A2.48,2.48,0,0,1,176.78,301.61Z" transform="translate(-139.44 -286.47)"/><path class="cls-6" d="M179.31,301.33a1.81,1.81,0,1,1-1.72-1.65A1.69,1.69,0,0,1,179.31,301.33Z" transform="translate(-139.44 -286.47)"/><path class="cls-7" d="M227.42,361.58c0,1.55-3.55,3.56-38,3.56s-48.62-1.22-48.62-2.78,14.12-2.86,48.62-2.86S227.42,360,227.42,361.58Z" transform="translate(-139.44 -286.47)"/><path class="cls-8" d="M157.24,333.93s5.93,27.53,30.57,27.59c26,.05,40.1-13,46.47-32.54a53.62,53.62,0,0,1-35.39,7C178.8,332.78,164.45,330.42,157.24,333.93Z" transform="translate(-139.44 -286.47)"/><path class="cls-9" d="M236.17,325.75s-3.3,11.1-30.46,12.85-35.58-10.81-64.66,3.5c0,0-3.63-6.42,0-9.34,0,0,15-5.22,30.2-3.78S211.43,343.27,236.17,325.75Z" transform="translate(-139.44 -286.47)"/><path class="cls-9" d="M219.06,349.44s-6.44-9.6-15.39-11.46,3.08-1,3.08-1S214,340.16,219.06,349.44Z" transform="translate(-139.44 -286.47)"/><path class="cls-9" d="M203.49,348.65s-7-8.9-15.16-11.73,2.57-.39,2.57-.39A40.62,40.62,0,0,1,203.49,348.65Z" transform="translate(-139.44 -286.47)"/><path class="cls-9" d="M186.74,348.25s-8.62-10.91-18.58-14.38,3.14-.48,3.14-.48A49.8,49.8,0,0,1,186.74,348.25Z" transform="translate(-139.44 -286.47)"/><path class="cls-10" d="M183.73,313.54a2,2,0,0,1,2.33.63c.94,1.29,1.38,4.53,3.41,5.42a4,4,0,0,0,4.11-.48c.88-.49,1-1.09,1.55-1.32s.79.43-.44,1.55c-.59.54-3.17,3.54-5.78,2.93C185.49,321.46,181.5,314.67,183.73,313.54Z" transform="translate(-139.44 -286.47)"/><path class="cls-11" d="M192.68,325.49c1.22,3.16,4.43,9.45,5.67,8.59s1.64-1.76.79-1.46-.93.24-1,0c-.79-1.47-1.29-4.9-2.1-7.25C195.05,322.66,191.62,322.73,192.68,325.49Z" transform="translate(-139.44 -286.47)"/><path class="cls-12" d="M197.43,333.88s1.37-.32,1.71-1.26c0,0,1.32-.7.78.17S198.12,335,197.43,333.88Z" transform="translate(-139.44 -286.47)"/><path class="cls-13" d="M184.38,325.53s6.17-8,8.68-6.57c2.26,1.27,4.81,10.83,4.81,10.83a4,4,0,0,1-2.6,1.78l-3.54-5.79-5.28,6.16-1.89-4.66Z" transform="translate(-139.44 -286.47)"/><path class="cls-11" d="M185.32,334.06c-1.56,3-4.14,9.58-2.67,9.94s2.41.06,1.62-.38-.8-.54-.71-.79c.58-1.56,2.81-4.2,4-6.37C189,334,186.67,331.43,185.32,334.06Z" transform="translate(-139.44 -286.47)"/><path class="cls-12" d="M182.19,343.17a2.6,2.6,0,0,0,2.08.45s1.39.52.39.69S181.83,344.42,182.19,343.17Z" transform="translate(-139.44 -286.47)"/><path class="cls-14" d="M184.36,326.12s5.49,1.07,6.1,3.89c.54,2.53-4.92,10.78-4.92,10.78a3.94,3.94,0,0,1-3-.76l1.94-7.16s-3.52-1.16-4.26-2.94c-1.76-4.25,1.39-4,1.39-4Z" transform="translate(-139.44 -286.47)"/><path class="cls-15" d="M187.83,323a13.61,13.61,0,0,0-1.48-7.5c-1.51-2.87-4.41-2.21-6.08-1.48s-4.44,1.87-2.37,5.34c1.44,2.42,1.26,4.2,1.17,7h0c0,.07,0,.14,0,.21h0C178.5,329.72,187.44,325.78,187.83,323Z" transform="translate(-139.44 -286.47)"/><path class="cls-16" d="M180.62,311.64s1,1.23.2,2.22,3.6,2.11,3.3,1.32c-.38-1-1.08-1.5-.86-2.84Z" transform="translate(-139.44 -286.47)"/><path class="cls-17" d="M182.17,308.46c1.11.62,3,4.08,2.25,5.13-.32.45-2.11.47-3.57-.89a3.22,3.22,0,0,1-1.09-3.11A1.69,1.69,0,0,1,182.17,308.46Z" transform="translate(-139.44 -286.47)"/><path class="cls-18" d="M183.2,308.68c.31.41.28.53-1.07,1.09s-1.6.53-1.38.83c.66.87-.38.92.41,2s-.54.62-1.29-.21a2.72,2.72,0,0,1-.65-2.58A2.28,2.28,0,0,1,183.2,308.68Z" transform="translate(-139.44 -286.47)"/><path class="cls-18" d="M179.22,309.78a2.68,2.68,0,0,0,.65,2.58c.56.61,1.45,1,1.53.73s-.82-.24-.78-1.12-.54-.92-.59-1.67.52-.74,2-1.37c.61-.26.67-.54.53-.78A2.36,2.36,0,0,0,179.22,309.78Z" transform="translate(-139.44 -286.47)"/><path class="cls-18" d="M179.07,326.37c0,.07,0,.14,0,.21h0c-.43,2.43,4.82.62,7.4-1.59.08-.92-2.21.11-3.38-.09-2.71-.48,3.87-4.31,2.42-4.22s-3.28,1.35-3.48-.91-.41-3.14-1.72-4c-2.68-1.73-3.52,1.22-2.84,2.7a5.86,5.86,0,0,0,.45.91C179.34,321.82,179.16,323.6,179.07,326.37Z" transform="translate(-139.44 -286.47)"/><path class="cls-17" d="M178.47,315.66a2,2,0,0,1,1.82,1.59c.27,1.58-.76,4.68.66,6.38a4,4,0,0,0,3.9,1.38c1-.05,1.39-.54,2-.5s.52.73-1.08,1.2c-.76.22-4.41,1.78-6.48.07C176.57,323.54,176,315.7,178.47,315.66Z" transform="translate(-139.44 -286.47)"/></svg>