<svg id="Layer_1" data-name="Layer 1" xmlns="http://www.w3.org/2000/svg" viewBox="0 0 101.93 73.09"><defs><style>.cls-1{fill:#ffbd36;}.cls-2{fill:#bee4d7;}.cls-3{fill:#614dd3;}.cls-4{fill:#0a3c33;}.cls-5{fill:#fc593a;}.cls-6{fill:#114839;}.cls-7{fill:#d8d5ca;}.cls-8{fill:#311e69;}.cls-9{fill:#231754;}.cls-10{fill:#f33d25;}.cls-11{fill:#eaf6f9;}.cls-12{fill:#051536;}.cls-13{fill:#e0623f;}.cls-14{fill:#e67052;}.cls-15{fill:#7bb1cc;}.cls-16{fill:#ee9d7f;}.cls-17{fill:#9acfe5;}.cls-18{fill:#f27851;}.cls-19{fill:#f79254;}.cls-20{fill:#dd743a;}</style></defs><path class="cls-1" d="M90.37,299.81s-2.54-5.05,1.82-7.47C92.19,292.34,93.67,297.41,90.37,299.81Z" transform="translate(-22.92 -290.73)"/><path class="cls-1" d="M77.08,328.49l-.35-.51c7.82-5.21,13.5-29.59,13.55-29.84l.61.14C90.65,299.29,85.09,323.15,77.08,328.49Z" transform="translate(-22.92 -290.73)"/><path class="cls-1" d="M88.12,306.64l0-.62c2.74-.07,5.15-4.85,5.17-4.9l.56.27C93.72,301.6,91.23,306.56,88.12,306.64Z" transform="translate(-22.92 -290.73)"/><path class="cls-1" d="M90.56,305.51l-.1-.05.29-.55c1.45.75,4.21-1,4.24-1l.33.52C95.2,304.53,92.35,306.33,90.56,305.51Z" transform="translate(-22.92 -290.73)"/><path class="cls-1" d="M92.68,302.5s.3-5.64,5.29-5.58C98,296.92,96.73,302.06,92.68,302.5Z" transform="translate(-22.92 -290.73)"/><path class="cls-1" d="M94,304.49s3.76-4.22,7.62-1.06C101.58,303.43,97.41,306.68,94,304.49Z" transform="translate(-22.92 -290.73)"/><path class="cls-1" d="M86.07,312.59l.2-.58c2.59.91,6.55-2.71,6.59-2.74l.41.45C93.1,309.88,89,313.62,86.07,312.59Z" transform="translate(-22.92 -290.73)"/><path class="cls-1" d="M89.49,312.91a2.53,2.53,0,0,1-.81-.59l.46-.41c1.09,1.25,4.29.6,4.32.59l.12.61A8,8,0,0,1,89.49,312.91Z" transform="translate(-22.92 -290.73)"/><path class="cls-1" d="M91.81,310.35s2.29-5.17,6.93-3.33C98.74,307,95.75,311.38,91.81,310.35Z" transform="translate(-22.92 -290.73)"/><path class="cls-1" d="M92.3,312.67s5-2.61,7.49,1.71C99.79,314.38,94.74,315.94,92.3,312.67Z" transform="translate(-22.92 -290.73)"/><path class="cls-1" d="M85.17,318a3.51,3.51,0,0,1-1-.71l.45-.43c1.91,2,7.06.47,7.11.46l.17.59C91.68,318,87.66,319.13,85.17,318Z" transform="translate(-22.92 -290.73)"/><path class="cls-1" d="M89.12,320.53a4.32,4.32,0,0,1-2.52-2.32l.6-.17c.43,1.6,3.57,2.44,3.61,2.44l-.16.6A9.24,9.24,0,0,1,89.12,320.53Z" transform="translate(-22.92 -290.73)"/><path class="cls-1" d="M90.28,317.82s4.34-3.61,7.69.08C98,317.9,93.36,320.5,90.28,317.82Z" transform="translate(-22.92 -290.73)"/><path class="cls-1" d="M89.69,320.12s5.66-.12,6,4.85C95.65,325,90.43,324.13,89.69,320.12Z" transform="translate(-22.92 -290.73)"/><path class="cls-1" d="M87.52,308.42c-2.15-2.25-.44-7.53-.37-7.75l.59.2S86.07,306,88,308Z" transform="translate(-22.92 -290.73)"/><path class="cls-1" d="M86.43,305.83c-1.74-.79-2.46-3.9-2.49-4l.6-.14s.75,3.21,2.32,3.69l-.18.59Z" transform="translate(-22.92 -290.73)"/><path class="cls-1" d="M87.19,302.27s3.75-4.23.16-7.69C87.35,294.58,84.61,299.11,87.19,302.27Z" transform="translate(-22.92 -290.73)"/><path class="cls-1" d="M84.87,302.78s.31-5.65-4.66-6.12C80.21,296.66,80.89,301.91,84.87,302.78Z" transform="translate(-22.92 -290.73)"/><path class="cls-1" d="M85.75,313.92c-2.72-1.24-3.59-6.36-3.63-6.58l.61-.1c0,.05.9,5.33,3.5,6.21L86,314Z" transform="translate(-22.92 -290.73)"/><path class="cls-1" d="M82.47,311.94a8.83,8.83,0,0,1-2.67-2.12l.47-.4s2.14,2.5,3.76,2.19l.12.61A2.85,2.85,0,0,1,82.47,311.94Z" transform="translate(-22.92 -290.73)"/><path class="cls-1" d="M82.89,308.74s1.38-5.48-3.41-6.89C79.48,301.85,79.15,307.13,82.89,308.74Z" transform="translate(-22.92 -290.73)"/><path class="cls-1" d="M81.08,310.26s-2.35-5.14-7-3.25C74.12,307,77.15,311.34,81.08,310.26Z" transform="translate(-22.92 -290.73)"/><path class="cls-1" d="M82,320.21c-2.58-1.17-4.06-5.55-4.12-5.76l.58-.19c0,.05,1.72,5.13,4.43,5.59l-.1.61A3,3,0,0,1,82,320.21Z" transform="translate(-22.92 -290.73)"/><path class="cls-1" d="M78.09,318.64a10.44,10.44,0,0,1-2.15-1.37l.41-.47s2.5,2.14,4.06,1.58l.2.58A3.47,3.47,0,0,1,78.09,318.64Z" transform="translate(-22.92 -290.73)"/><path class="cls-1" d="M78.83,315.72s.5-5.63-4.44-6.28C74.39,309.44,74.88,314.71,78.83,315.72Z" transform="translate(-22.92 -290.73)"/><path class="cls-1" d="M77.28,317.51s-3.12-4.72-7.39-2.14C69.89,315.37,73.56,319.18,77.28,317.51Z" transform="translate(-22.92 -290.73)"/><path class="cls-2" d="M54.45,356.82l-.15-1a32.51,32.51,0,0,1-25.89-7.27l-.69.73A33.66,33.66,0,0,0,54.45,356.82Z" transform="translate(-22.92 -290.73)"/><path class="cls-2" d="M28.73,349.34s-3.56-4.38-5.57-2C22.31,348.4,23.67,350.64,28.73,349.34Z" transform="translate(-22.92 -290.73)"/><path class="cls-2" d="M30.38,350.61s-5.86-1.25-5.44,1.8C25.12,353.71,27.8,354.62,30.38,350.61Z" transform="translate(-22.92 -290.73)"/><path class="cls-2" d="M30.54,351.15S26,347.52,29,346.06C30.26,345.45,32.63,346.91,30.54,351.15Z" transform="translate(-22.92 -290.73)"/><path class="cls-2" d="M34.91,353.43s-4.71-3.45-1.82-5C34.32,347.73,36.76,349.09,34.91,353.43Z" transform="translate(-22.92 -290.73)"/><path class="cls-2" d="M38.62,355s-4.69-3.45-1.8-5C38.05,349.34,40.49,350.71,38.62,355Z" transform="translate(-22.92 -290.73)"/><path class="cls-2" d="M43.46,356.25s-5.28-2.69-2.77-4.71C41.75,350.68,44.41,351.66,43.46,356.25Z" transform="translate(-22.92 -290.73)"/><path class="cls-2" d="M47.46,356.71s-5.19-2.82-2.61-4.77C45.94,351.11,48.56,352.15,47.46,356.71Z" transform="translate(-22.92 -290.73)"/><path class="cls-2" d="M52.69,356.53s-5.82-1.48-4-4C49.48,351.46,52.3,351.83,52.69,356.53Z" transform="translate(-22.92 -290.73)"/><path class="cls-2" d="M33.77,352.85s-5.87-1.25-5.45,1.8C28.51,356,31.19,356.86,33.77,352.85Z" transform="translate(-22.92 -290.73)"/><path class="cls-2" d="M37.58,354.56s-5.87-1.25-5.45,1.8C32.32,357.66,35,358.57,37.58,354.56Z" transform="translate(-22.92 -290.73)"/><path class="cls-2" d="M41.52,355.68s-6-.06-4.78,2.86C37.25,359.78,40.07,360.14,41.52,355.68Z" transform="translate(-22.92 -290.73)"/><path class="cls-2" d="M46,356.46s-5.92.5-4.39,3.31C42.27,361,45.1,361.06,46,356.46Z" transform="translate(-22.92 -290.73)"/><path class="cls-2" d="M50.53,356.58s-5.74,1.24-3.77,3.85C47.6,361.53,50.39,361.27,50.53,356.58Z" transform="translate(-22.92 -290.73)"/><path class="cls-3" d="M67.23,315.22l4.88-.32c1.74-4.34,1.29-9.69.34-14.1l-3.71-2.66,3.17.42a46.27,46.27,0,0,0-2.13-6.25,21.66,21.66,0,0,0-10.14,6.38L62.35,301l-4.16-.24c-5.76,9.62.9,22.2.9,22.2,5.86-.38,9.47-2.47,11.58-5.39Z" transform="translate(-22.92 -290.73)"/><path class="cls-2" d="M81.88,351.6l-.11,1.1a39,39,0,0,0,12.17-1.47c8.69-2.45,15.16-7.65,18.71-15.06l-.87-.48C103.54,352.89,82.1,351.62,81.88,351.6Z" transform="translate(-22.92 -290.73)"/><path class="cls-2" d="M111.65,337s6.12-1.17,6.12-8.6C117.77,328.38,111.9,330.79,111.65,337Z" transform="translate(-22.92 -290.73)"/><path class="cls-2" d="M108.23,341.91s6.27,4.88,11.85-2.61C120.08,339.3,116.78,336.57,108.23,341.91Z" transform="translate(-22.92 -290.73)"/><path class="cls-2" d="M108.46,342s-5.32-6.09.6-13.25C109.06,328.77,112,332,108.46,342Z" transform="translate(-22.92 -290.73)"/><path class="cls-2" d="M102.54,347s5.76,5.59,12-1.25C114.52,345.71,111.51,342.6,102.54,347Z" transform="translate(-22.92 -290.73)"/><path class="cls-2" d="M102.76,347.1s-4.71-6.69,1.83-13.18C104.59,333.92,107.21,337.44,102.76,347.1Z" transform="translate(-22.92 -290.73)"/><path class="cls-2" d="M94.92,350.45s4.76,6.64,11.9,1C106.82,351.48,104.37,347.81,94.92,350.45Z" transform="translate(-22.92 -290.73)"/><path class="cls-2" d="M95.11,350.62a10.29,10.29,0,0,1,3.83-12.74S101,341.87,95.11,350.62Z" transform="translate(-22.92 -290.73)"/><path class="cls-2" d="M87.78,351.84s3,7.87,11.11,4.44C98.89,356.28,97.41,352,87.78,351.84Z" transform="translate(-22.92 -290.73)"/><path class="cls-2" d="M87.93,352.07s-1.62-8.39,6.65-11.34C94.58,340.73,95.57,345.21,87.93,352.07Z" transform="translate(-22.92 -290.73)"/><path class="cls-4" d="M90.93,346.27c16.08-18.63,15-37.94,15-38.14l-.83.06c0,.19,1,19.18-14.82,37.54Z" transform="translate(-22.92 -290.73)"/><rect class="cls-4" x="103.07" y="313.21" width="0.83" height="5.78" transform="translate(-116.6 -242.5) rotate(-18.23)"/><polygon class="cls-4" points="79.68 33.73 80.41 33.31 77.5 28.33 76.78 28.74 79.68 33.73"/><polygon class="cls-4" points="77.45 39.77 78.17 39.35 75.26 34.36 74.54 34.78 77.45 39.77"/><rect class="cls-4" x="96.1" y="330.19" width="0.83" height="5.78" transform="translate(-177.64 -196.69) rotate(-30.26)"/><polygon class="cls-4" points="71.62 50.33 72.34 49.91 69.43 44.93 68.71 45.35 71.62 50.33"/><polygon class="cls-4" points="82.09 26.96 85.47 22.27 84.8 21.79 81.42 26.47 82.09 26.96"/><rect class="cls-4" x="102.57" y="320.86" width="5.78" height="0.83" transform="translate(-214.13 -131.71) rotate(-43.15)"/><polygon class="cls-4" points="78.14 39.47 83.23 36.73 82.83 36 77.74 38.73 78.14 39.47"/><polygon class="cls-4" points="74.82 46.09 80.05 43.62 79.69 42.87 74.47 45.34 74.82 46.09"/><rect class="cls-4" x="92.85" y="341.44" width="5.78" height="0.83" transform="matrix(0.94, -0.34, 0.34, 0.94, -134.45, -237.09)"/><path class="cls-4" d="M104,306.64a2,2,0,1,0,2.63-1.09A2,2,0,0,0,104,306.64Z" transform="translate(-22.92 -290.73)"/><path class="cls-4" d="M99.94,311.76a2,2,0,0,0,3.81,1.29,2,2,0,1,0-3.81-1.29Z" transform="translate(-22.92 -290.73)"/><path class="cls-4" d="M97.79,317.17a2,2,0,1,0,2.82-.37A2,2,0,0,0,97.79,317.17Z" transform="translate(-22.92 -290.73)"/><path class="cls-4" d="M95.55,323.21a2,2,0,0,0,3.19,2.46,2,2,0,0,0-.36-2.82A2,2,0,0,0,95.55,323.21Z" transform="translate(-22.92 -290.73)"/><path class="cls-4" d="M92.79,328.49a2,2,0,1,0,2.82-.37A2,2,0,0,0,92.79,328.49Z" transform="translate(-22.92 -290.73)"/><path class="cls-4" d="M89.72,333.77a2,2,0,1,0,2.83-.36A2,2,0,0,0,89.72,333.77Z" transform="translate(-22.92 -290.73)"/><path class="cls-4" d="M111.07,312a2,2,0,1,1-2-2A2,2,0,0,1,111.07,312Z" transform="translate(-22.92 -290.73)"/><path class="cls-4" d="M110.66,319.16a2,2,0,1,1-1.64-2.33A2,2,0,0,1,110.66,319.16Z" transform="translate(-22.92 -290.73)"/><path class="cls-4" d="M109,327.75a2,2,0,0,1-2.66,1,2,2,0,1,1,2.66-1Z" transform="translate(-22.92 -290.73)"/><path class="cls-4" d="M105.78,334.78a2,2,0,1,1-.85-2.71A2,2,0,0,1,105.78,334.78Z" transform="translate(-22.92 -290.73)"/><path class="cls-4" d="M101.35,341.94a2,2,0,1,1-.59-2.79A2,2,0,0,1,101.35,341.94Z" transform="translate(-22.92 -290.73)"/><path class="cls-5" d="M35.94,299.27s-6.15-1.72-4.85-7.2C31.09,292.07,36.46,294.69,35.94,299.27Z" transform="translate(-22.92 -290.73)"/><path class="cls-5" d="M49.8,332.2l-.69-.11c1.59-10.49-14.46-33.78-14.62-34l.57-.4C35.73,298.64,51.43,321.44,49.8,332.2Z" transform="translate(-22.92 -290.73)"/><path class="cls-5" d="M39.94,306.35l-.52-.46c2-2.34-.15-8-.17-8.05l.65-.25C40,297.84,42.24,303.69,39.94,306.35Z" transform="translate(-22.92 -290.73)"/><path class="cls-5" d="M40.86,303.45l-.12.05-.24-.66c1.73-.65,2.4-4.26,2.4-4.3l.69.12C43.56,298.82,42.9,302.57,40.86,303.45Z" transform="translate(-22.92 -290.73)"/><path class="cls-5" d="M40,299.39s-4.48-4.54-.64-8.66C39.31,290.73,42.67,295.67,40,299.39Z" transform="translate(-22.92 -290.73)"/><path class="cls-5" d="M42.6,299.83s-.68-6.35,4.9-7.17C47.5,292.66,47,298.62,42.6,299.83Z" transform="translate(-22.92 -290.73)"/><path class="cls-5" d="M43.36,312.59,43,312c2.73-1.47,2.71-7.52,2.71-7.58h.7C46.44,304.65,46.45,310.92,43.36,312.59Z" transform="translate(-22.92 -290.73)"/><path class="cls-5" d="M46.23,310a2.69,2.69,0,0,1-1.11.23v-.69c1.87,0,3.75-3.13,3.77-3.16l.6.35A9,9,0,0,1,46.23,310Z" transform="translate(-22.92 -290.73)"/><path class="cls-5" d="M45.85,306.09s-2.58-5.85,2.49-8.32C48.34,297.77,49.71,303.58,45.85,306.09Z" transform="translate(-22.92 -290.73)"/><path class="cls-5" d="M48.16,307.44s1.63-6.17,7.13-5C55.29,302.48,52.75,307.89,48.16,307.44Z" transform="translate(-22.92 -290.73)"/><path class="cls-5" d="M47.19,317.45a3.86,3.86,0,0,1-1.37.32l0-.69c3.09-.12,5.76-5.55,5.79-5.6l.62.3C52.11,312,50,316.23,47.19,317.45Z" transform="translate(-22.92 -290.73)"/><path class="cls-5" d="M52.31,316.08c-1.17.5-2.72.92-3.86.33l.32-.62c1.67.86,4.75-1.14,4.79-1.16l.38.59A11.89,11.89,0,0,1,52.31,316.08Z" transform="translate(-22.92 -290.73)"/><path class="cls-5" d="M50.93,313.05s.28-6.38,5.92-6.36C56.85,306.69,55.51,312.51,50.93,313.05Z" transform="translate(-22.92 -290.73)"/><path class="cls-5" d="M52.4,315.29s4.2-4.82,8.6-1.29C61,314,56.32,317.72,52.4,315.29Z" transform="translate(-22.92 -290.73)"/><path class="cls-5" d="M41,308.2c-3.51.09-6.62-5.35-6.75-5.58l.61-.35c0,.06,3,5.31,6.12,5.24Z" transform="translate(-22.92 -290.73)"/><path class="cls-5" d="M38,307.15c-2,.85-5.14-.92-5.28-1l.35-.61s3.25,1.83,4.84.87l.36.6Z" transform="translate(-22.92 -290.73)"/><path class="cls-5" d="M35.58,303.8s-.67-6.35-6.3-6C29.28,297.82,31,303.55,35.58,303.8Z" transform="translate(-22.92 -290.73)"/><path class="cls-5" d="M34.25,306.12s-4.49-4.54-8.66-.75C25.59,305.37,30.49,308.79,34.25,306.12Z" transform="translate(-22.92 -290.73)"/><path class="cls-5" d="M44.23,313.87c-3.11,1.33-8-1.84-8.26-2l.38-.58s5.13,3.3,7.85,1.8l.34.6Z" transform="translate(-22.92 -290.73)"/><path class="cls-5" d="M40.08,315.1a10.06,10.06,0,0,1-3.81.62l0-.69s3.72.11,4.7-1.48l.59.36A3.07,3.07,0,0,1,40.08,315.1Z" transform="translate(-22.92 -290.73)"/><path class="cls-5" d="M37.72,312.31s-3.54-5.31-8.35-2.39C29.37,309.92,33.53,314.22,37.72,312.31Z" transform="translate(-22.92 -290.73)"/><path class="cls-5" d="M37.62,315s-6.08-1.95-8,3.34C29.6,318.33,35.52,319.09,37.62,315Z" transform="translate(-22.92 -290.73)"/><path class="cls-5" d="M46.61,321.8c-2.94,1.27-7.72-.83-7.94-.93l.28-.64c.06,0,5.59,2.46,8,.56l.43.54A3.29,3.29,0,0,1,46.61,321.8Z" transform="translate(-22.92 -290.73)"/><path class="cls-5" d="M42.34,323.86a11.89,11.89,0,0,1-2.78.75l-.08-.7s3.69-.46,4.41-2.19l.64.27A3.89,3.89,0,0,1,42.34,323.86Z" transform="translate(-22.92 -290.73)"/><path class="cls-5" d="M40.47,321s-4.33-4.7-8.63-1.05C31.84,320,36.62,323.55,40.47,321Z" transform="translate(-22.92 -290.73)"/><path class="cls-5" d="M40.78,323.67s-6.31-1-7.4,4.55C33.38,328.22,39.35,328.05,40.78,323.67Z" transform="translate(-22.92 -290.73)"/><path class="cls-6" d="M45.47,343.57S34.37,338.79,39,336s-1-6-5-5.87-9.25-5.45-4.5-7.37-8.38-8.62-4.8-8.72,8.41,1.79,9.55,6.79,5.15.58,4.27-2.15,6.84,3.43,3.21,8.78,3.91,5.1,4.59,2.33,4.07,1.82,1.79,6-1.25,6.52,1.08,7.77S45.47,343.57,45.47,343.57Z" transform="translate(-22.92 -290.73)"/><path class="cls-1" d="M53.4,352.87l-.09.84a30.33,30.33,0,0,1-8.87-3.11c-6.12-3.25-10.12-8.19-11.57-14.28l.73-.22C37,350.26,53.24,352.85,53.4,352.87Z" transform="translate(-22.92 -290.73)"/><path class="cls-1" d="M33.49,337.08s-4.4-1.87-3.19-7.4C30.3,329.68,34.31,332.44,33.49,337.08Z" transform="translate(-22.92 -290.73)"/><path class="cls-1" d="M35.25,341.31s-5.5,2.6-8.46-3.89C26.79,337.42,29.71,335.93,35.25,341.31Z" transform="translate(-22.92 -290.73)"/><path class="cls-1" d="M35.06,341.36s5-3.65,1.71-9.95C36.77,331.41,34,333.28,35.06,341.36Z" transform="translate(-22.92 -290.73)"/><path class="cls-1" d="M38.69,346s-5.23,3.21-8.77-2.9C29.92,343.11,32.68,341.29,38.69,346Z" transform="translate(-22.92 -290.73)"/><path class="cls-1" d="M38.5,346.07A7.71,7.71,0,0,0,39.28,336S36.74,338.16,38.5,346.07Z" transform="translate(-22.92 -290.73)"/><path class="cls-1" d="M43.83,349.86s-4.65,4.16-9.09-1.2C34.74,348.66,37.18,346.34,43.83,349.86Z" transform="translate(-22.92 -290.73)"/><path class="cls-1" d="M43.65,350a7.8,7.8,0,0,0-.79-10.11S40.69,342.49,43.65,350Z" transform="translate(-22.92 -290.73)"/><path class="cls-1" d="M48.94,352.08s-3.5,5.36-9,1.46C39.9,353.54,41.71,350.6,48.94,352.08Z" transform="translate(-22.92 -290.73)"/><path class="cls-1" d="M48.8,352.22s2.58-6-3.13-9.53C45.67,342.69,44.19,345.86,48.8,352.22Z" transform="translate(-22.92 -290.73)"/><path class="cls-7" d="M124.85,359.83c0,1.75-4,4-42.72,4s-54.6-1.37-54.6-3.11,15.86-3.2,54.6-3.2S124.85,358.09,124.85,359.83Z" transform="translate(-22.92 -290.73)"/><path class="cls-8" d="M51.7,314.21s1.67,7.5-5.67,9.5-1.89,28,.64,34.5,9.53-2,9.53-2,5.48,5.5,9.49.5c0,0,6,7,9.51,1.5s2.48-25.83-4-34.33-9.58-.67-9.78-9.67Z" transform="translate(-22.92 -290.73)"/><path class="cls-9" d="M64.1,313a2,2,0,0,1-1.75,2.21l-11.62,1.34a2,2,0,0,1-2.21-1.76l-.23-2a2,2,0,0,1,1.76-2.21l11.61-1.34A2,2,0,0,1,63.87,311Z" transform="translate(-22.92 -290.73)"/><path class="cls-9" d="M42.34,334.1l31.05-6.48,3.79,17.43-32.6,5.82S41.76,340.33,42.34,334.1Z" transform="translate(-22.92 -290.73)"/><path class="cls-10" d="M84.68,316.3S84.54,323,78,323.14s-7.36,23.19-6.57,29.18,8.44.28,8.44.28,3.48,5.76,7.89,2.37c0,0,3.62,7.13,7.7,3.22s7.4-21.24,3.69-29.73-7.93-2.54-6.25-10.16Z" transform="translate(-22.92 -290.73)"/><path class="cls-5" d="M95.38,317.82a1.73,1.73,0,0,1-1.94,1.5l-10-1.27a1.73,1.73,0,0,1-1.51-1.93l.22-1.72A1.74,1.74,0,0,1,84,312.89l10.06,1.27a1.73,1.73,0,0,1,1.5,1.94Z" transform="translate(-22.92 -290.73)"/><path class="cls-5" d="M72.85,330.56,100.71,335s.19,9.64-1.45,14.63c0,0-18.5-.06-28-6.7C71.23,343,71.68,334.15,72.85,330.56Z" transform="translate(-22.92 -290.73)"/><path class="cls-11" d="M95.75,341.55c-.41,2.62-2.25,4-4.58,3.59s-3.48-2.37-3.13-4.65a3.93,3.93,0,0,1,4.54-3.58A3.78,3.78,0,0,1,95.75,341.55Zm-5.79-.8c-.25,1.57.32,2.79,1.53,3s2.1-.86,2.34-2.41-.27-2.77-1.52-3S90.2,339.2,90,340.75Z" transform="translate(-22.92 -290.73)"/><path class="cls-12" d="M71.38,325.78c-1.45.86-2.3,2.87-5.93,2.63-3-.19-1.33,5.8,4.11,6,3.5.14,7.1-.19,6.84-5.26C76.2,325.21,72.79,324.94,71.38,325.78Z" transform="translate(-22.92 -290.73)"/><path class="cls-13" d="M74.74,335.47s-1.25-1.44-.3-4.45a78.82,78.82,0,0,1,5.32-11.47c.65-.78,1.75-2.34,2.26-2.5.25-.07-1,1.25-1.62,3-.32.89-3.13,11-3.77,12.7S75.81,335.93,74.74,335.47Z" transform="translate(-22.92 -290.73)"/><path class="cls-14" d="M78.16,361.39c-.77-.14-.81-.22-.82-.46-.08-3.06,3.42-7.42,2.51-11.44h0a14.16,14.16,0,0,0-1.57-4,21.5,21.5,0,0,0-2.08-3.07c-2.06-3.62-4.45-3.32-5.28-2.12-2.26,3.23,2.73,7.86,4.94,10.65h0a14,14,0,0,1,.08,1.85c-.28,3.07-.24,9.56,1,9.4S78.93,361.52,78.16,361.39Z" transform="translate(-22.92 -290.73)"/><path class="cls-15" d="M76.34,342.13s4.48,6.63,3.58,9.88c0,0-2.57-1.36-4-.1l-1.84-2.4-4.35-7.41Z" transform="translate(-22.92 -290.73)"/><path class="cls-16" d="M70.44,339.53c-4.25,1.53-1.78,9.7-2.1,12.61-.37,3.33,4.52,3.81,5.44-4.62a18.51,18.51,0,0,0-.23-3.55C73.94,339.76,71.81,339,70.44,339.53Z" transform="translate(-22.92 -290.73)"/><path class="cls-16" d="M57.73,351.92c.17,1.32.71,2,.82,1.18s.2-.85.44-.86c3-.21,7.25,3.22,11.14,2.12l-1.76-4a9,9,0,0,1-1.52.11C63.86,350.29,57.57,350.6,57.73,351.92Z" transform="translate(-22.92 -290.73)"/><path class="cls-17" d="M72,339.3s-2.88-.48-4,3.24c0,0-.72,2.54.39,7.81,0,0,3,1.57,2.75,3.58,0,0,3.2-1.51,2.63-9.43Z" transform="translate(-22.92 -290.73)"/><path class="cls-12" d="M71.74,326.82s-1.33,3.36-3.66,3.92c-3.14.76,5.57,4.78,5.57,4.78l-.07-6.81Z" transform="translate(-22.92 -290.73)"/><path class="cls-14" d="M75.4,341.17c-.64-3.18,1.12-5,1.07-7-.07-2.37-2.8-3.36-5.23-2.87-1.54.31-3.35.5-2.53,4.16.52,2.37,1,3.39-.56,5.63C66.25,343.82,75.44,341.36,75.4,341.17Z" transform="translate(-22.92 -290.73)"/><path class="cls-13" d="M72.43,328.52s0,1.93-.68,2.63c-.43.45,2.33,2,2.38,1.28.07-.88-.35-1.5.38-2.4Z" transform="translate(-22.92 -290.73)"/><path class="cls-18" d="M74.77,326.4c.61.87.77,4.2-.17,4.73-.42.23-1.78-.41-2.4-2a2.71,2.71,0,0,1,.31-2.76A1.43,1.43,0,0,1,74.77,326.4Z" transform="translate(-22.92 -290.73)"/><path class="cls-12" d="M75.25,327.06c0,.47-.06.74-1,.44-1.17-.38-1.15.56-1.1.89.18,1-1.29-.15-.85.94.68,1.63-.53,0-1-.53a2,2,0,0,1,.14-2.68C72.46,324.72,75.31,325.62,75.25,327.06Z" transform="translate(-22.92 -290.73)"/><path class="cls-19" d="M76,338.22a0,0,0,0,1,0,0c1.81-2.44-1.15-6.47-1.15-6.47l-1.18-.59c2,3.12,2.11,3.92,1.29,4-2.76.16-4.25-3.73-4.25-3.73a4.8,4.8,0,0,0-.58.07,4.33,4.33,0,0,0-.45.23s1.62.61,1.43,3.05c-.23,2.94-2.12,2.36-2.12,2.36a5.53,5.53,0,0,1-.66,3.33l-.75,1.47c1.84,1.25,5.6,1.25,9,.28A3.38,3.38,0,0,1,76,338.22Z" transform="translate(-22.92 -290.73)"/><path class="cls-20" d="M69.05,337a6.38,6.38,0,0,1-.67,3.45L67.6,342c1.59,1.18,5.08.91,5.08.91-.79-.74-1.43-2.55.61-3.23s-.16-1.08-1.45-1.47c-.7-.2-.93-1.19-1-2.06A1.38,1.38,0,0,1,69.05,337Z" transform="translate(-22.92 -290.73)"/><path class="cls-14" d="M69.83,331.77s.94,0,1.19,1.41c.29,1.69-1.67,5.31-.56,7.44a4.6,4.6,0,0,0,3.89,2.48c1.11.23,1.65-.18,2.28,0s.37.9-1.49.94c-.89,0-5.26.64-7.07-1.68C65.7,339.35,67.57,331.63,69.83,331.77Z" transform="translate(-22.92 -290.73)"/></svg>