<svg id="Layer_1" data-name="Layer 1" xmlns="http://www.w3.org/2000/svg" viewBox="0 0 102.84 76.97"><defs><style>.cls-1{fill:#d8d5ca;}.cls-2{fill:#ffbd36;}.cls-3{fill:#fc593a;}.cls-4{fill:#332766;}.cls-5{fill:#bee4d7;}.cls-6{fill:#1e1341;}.cls-7{fill:#fc9627;}.cls-8{fill:#317170;}.cls-9{fill:#235451;}.cls-10{fill:#fca09f;}.cls-11{fill:#fc8082;}.cls-12{fill:#f9b5a0;}.cls-13{fill:#7585f8;}.cls-14{fill:#7bb1cc;}.cls-15{fill:#9acfe5;}.cls-16{fill:#e28c71;}.cls-17{fill:#e67052;}.cls-18{fill:#f3b294;}.cls-19{fill:#051536;}</style></defs><path class="cls-1" d="M464.71,358.25c0,1.55-3.83,3.55-41,3.55s-52.37-1.22-52.37-2.77,15.2-2.86,52.37-2.86S464.71,356.69,464.71,358.25Z" transform="translate(-367.74 -292.88)"/><path class="cls-2" d="M450.18,351.68l3,3.87c4.57-1,8.75-4.29,11.88-7.52l.15-4.55,1.4,2.86a46.7,46.7,0,0,0,4-5.22,21.53,21.53,0,0,0-10.9-4.87l-.38,3.5-2.11-3.58c-11.15.55-17.9,13-17.9,13,3.56,4.66,7.29,6.49,10.88,6.63Z" transform="translate(-367.74 -292.88)"/><path class="cls-3" d="M452.12,323l.82.17a30.13,30.13,0,0,0-.1-9.39c-1.14-6.84-4.56-12.21-9.92-15.53l-.43.62C454.91,306.64,452.14,322.88,452.12,323Z" transform="translate(-367.74 -292.88)"/><path class="cls-3" d="M443.46,299.12s-.38-4.77-6-5.39C437.41,293.73,438.76,298.41,443.46,299.12Z" transform="translate(-367.74 -292.88)"/><path class="cls-3" d="M446.93,302.14s4.25-4.37-1-9.26C445.94,292.88,443.57,295.17,446.93,302.14Z" transform="translate(-367.74 -292.88)"/><path class="cls-3" d="M447,302S442,305.52,437,300.41C437,300.41,439.65,298.42,447,302Z" transform="translate(-367.74 -292.88)"/><path class="cls-3" d="M450.3,306.9s4.75-3.92.06-9.24C450.36,297.66,447.73,299.7,450.3,306.9Z" transform="translate(-367.74 -292.88)"/><path class="cls-3" d="M450.43,306.75a7.82,7.82,0,0,1-9.89-2.5S443.43,302.54,450.43,306.75Z" transform="translate(-367.74 -292.88)"/><path class="cls-3" d="M452.32,313s5.47-3.07,1.79-9C454.11,304,451.11,305.58,452.32,313Z" transform="translate(-367.74 -292.88)"/><path class="cls-3" d="M452.48,312.87a7.89,7.89,0,0,1-9.4-4S446.29,307.68,452.48,312.87Z" transform="translate(-367.74 -292.88)"/><path class="cls-3" d="M452.79,318.56s6.25-1.6,4.31-8.1C457.1,310.46,453.71,311.23,452.79,318.56Z" transform="translate(-367.74 -292.88)"/><path class="cls-3" d="M453,318.47s-6.53.53-8.1-6C444.88,312.45,448.38,312.07,453,318.47Z" transform="translate(-367.74 -292.88)"/><path class="cls-4" d="M453.06,344c9.76-16.15,6.48-30.62,6.44-30.77l-.62.15c0,.14,3.26,14.37-6.36,30.3Z" transform="translate(-367.74 -292.88)"/><rect class="cls-4" x="458.35" y="317.33" width="0.64" height="4.43" transform="translate(-463.94 -41.18) rotate(-27.89)"/><polygon class="cls-4" points="91.35 33.1 91.84 32.69 89 29.29 88.5 29.7 91.35 33.1"/><polygon class="cls-4" points="90.44 37.95 90.93 37.54 88.08 34.14 87.59 34.55 90.44 37.95"/><rect class="cls-4" x="455.27" y="331.06" width="0.64" height="4.43" transform="translate(-475.46 76.68) rotate(-39.87)"/><polygon class="cls-4" points="87.39 46.69 87.88 46.28 85.04 42.88 84.55 43.29 87.39 46.69"/><polygon class="cls-4" points="92.29 27.66 94.25 23.68 93.67 23.4 91.72 27.38 92.29 27.66"/><polygon class="cls-4" points="92.01 32.28 94.69 28.74 94.18 28.36 91.5 31.89 92.01 32.28"/><polygon class="cls-4" points="90.91 37.63 94.41 34.9 94.02 34.4 90.52 37.12 90.91 37.63"/><polygon class="cls-4" points="89.26 43.07 92.9 40.52 92.53 40 88.9 42.55 89.26 43.07"/><rect class="cls-4" x="453.92" y="339.69" width="4.44" height="0.64" transform="translate(-476.38 -21.41) rotate(-29.78)"/><path class="cls-4" d="M457.83,312.33a1.54,1.54,0,1,0,1.84-1.17A1.55,1.55,0,0,0,457.83,312.33Z" transform="translate(-367.74 -292.88)"/><path class="cls-4" d="M455.43,316.72a1.54,1.54,0,1,0,1.76-1.29A1.53,1.53,0,0,0,455.43,316.72Z" transform="translate(-367.74 -292.88)"/><path class="cls-4" d="M454.5,321.08a1.55,1.55,0,1,0,2.09-.63A1.55,1.55,0,0,0,454.5,321.08Z" transform="translate(-367.74 -292.88)"/><path class="cls-4" d="M453.59,325.94a1.55,1.55,0,1,0,2.09-.64A1.55,1.55,0,0,0,453.59,325.94Z" transform="translate(-367.74 -292.88)"/><path class="cls-4" d="M452.18,330.29a1.55,1.55,0,1,0,2.09-.64A1.56,1.56,0,0,0,452.18,330.29Z" transform="translate(-367.74 -292.88)"/><path class="cls-4" d="M450.54,334.68a1.55,1.55,0,1,0,2.09-.64A1.55,1.55,0,0,0,450.54,334.68Z" transform="translate(-367.74 -292.88)"/><path class="cls-4" d="M463.88,315.49a1.54,1.54,0,1,1-1.8-1.23A1.54,1.54,0,0,1,463.88,315.49Z" transform="translate(-367.74 -292.88)"/><path class="cls-4" d="M464.49,320.93a1.55,1.55,0,1,1-1.54-1.55A1.53,1.53,0,0,1,464.49,320.93Z" transform="translate(-367.74 -292.88)"/><path class="cls-4" d="M464.32,327.64a1.54,1.54,0,1,1-1.08-1.89A1.53,1.53,0,0,1,464.32,327.64Z" transform="translate(-367.74 -292.88)"/><path class="cls-4" d="M462.81,333.37a1.54,1.54,0,1,1-1-1.94A1.53,1.53,0,0,1,462.81,333.37Z" transform="translate(-367.74 -292.88)"/><path class="cls-4" d="M460.39,339.35a1.54,1.54,0,0,1-2,.81,1.54,1.54,0,1,1,1.22-2.83A1.53,1.53,0,0,1,460.39,339.35Z" transform="translate(-367.74 -292.88)"/><path class="cls-4" d="M398.46,303.05s-3-3.71.19-6.48C398.65,296.57,400.76,300.49,398.46,303.05Z" transform="translate(-367.74 -292.88)"/><path class="cls-4" d="M392.58,329l-.37-.36c5.51-5.67,5.89-26.75,5.89-27h.52C398.61,302.57,398.24,323.2,392.58,329Z" transform="translate(-367.74 -292.88)"/><path class="cls-4" d="M397.82,309.07l-.12-.51c2.24-.54,3.38-4.9,3.39-4.95l.5.13C401.54,303.93,400.36,308.45,397.82,309.07Z" transform="translate(-367.74 -292.88)"/><path class="cls-4" d="M399.63,307.71l-.09,0,.14-.5c1.33.35,3.3-1.55,3.32-1.57l.36.37C403.28,306.08,401.25,308.06,399.63,307.71Z" transform="translate(-367.74 -292.88)"/><path class="cls-4" d="M400.84,304.86s-.74-4.7,3.37-5.53C404.21,299.33,404.11,303.78,400.84,304.86Z" transform="translate(-367.74 -292.88)"/><path class="cls-4" d="M402.25,306.27s2.35-4.14,6.08-2.22C408.33,304.05,405.47,307.46,402.25,306.27Z" transform="translate(-367.74 -292.88)"/><path class="cls-4" d="M397.18,314.33l.07-.51c2.29.29,4.91-3.39,4.93-3.42l.43.3C402.49,310.86,399.78,314.66,397.18,314.33Z" transform="translate(-367.74 -292.88)"/><path class="cls-4" d="M400.06,314a2,2,0,0,1-.78-.34l.31-.42c1.12.83,3.63-.26,3.66-.27l.21.47A6.67,6.67,0,0,1,400.06,314Z" transform="translate(-367.74 -292.88)"/><path class="cls-4" d="M401.51,311.47s1-4.66,5.12-4C406.63,307.51,404.94,311.63,401.51,311.47Z" transform="translate(-367.74 -292.88)"/><path class="cls-4" d="M402.32,313.29s3.67-3,6.48.1C408.8,313.39,404.91,315.56,402.32,313.29Z" transform="translate(-367.74 -292.88)"/><path class="cls-4" d="M397.39,318.94a2.73,2.73,0,0,1-1-.4l.29-.43c1.93,1.27,5.9-.86,5.94-.88l.25.46C402.75,317.77,399.64,319.43,397.39,318.94Z" transform="translate(-367.74 -292.88)"/><path class="cls-4" d="M401.09,320.33a3.61,3.61,0,0,1-2.48-1.47l.46-.24c.64,1.25,3.38,1.38,3.4,1.38l0,.51A7.54,7.54,0,0,1,401.09,320.33Z" transform="translate(-367.74 -292.88)"/><path class="cls-4" d="M401.57,317.9s2.94-3.75,6.35-1.29C407.92,316.61,404.58,319.56,401.57,317.9Z" transform="translate(-367.74 -292.88)"/><path class="cls-4" d="M401.49,319.89s4.63-1.1,5.77,2.95C407.26,322.84,402.81,323.06,401.49,319.89Z" transform="translate(-367.74 -292.88)"/><path class="cls-4" d="M397.64,310.64c-2.17-1.47-1.69-6.12-1.67-6.32l.52.06c0,.05-.47,4.53,1.44,5.83Z" transform="translate(-367.74 -292.88)"/><path class="cls-4" d="M396.29,308.7c-1.58-.34-2.72-2.78-2.77-2.89l.47-.21s1.18,2.51,2.57,2.62l-.05.52Z" transform="translate(-367.74 -292.88)"/><path class="cls-4" d="M396.28,305.63s2.35-4.14-1.22-6.36C395.06,299.27,393.6,303.48,396.28,305.63Z" transform="translate(-367.74 -292.88)"/><path class="cls-4" d="M394.46,306.46s-.74-4.7-4.91-4.21C389.55,302.25,391,306.45,394.46,306.46Z" transform="translate(-367.74 -292.88)"/><path class="cls-4" d="M397.15,315.48c-2.46-.53-4.07-4.6-4.14-4.78l.48-.19s1.68,4.23,4,4.5l-.06.52Z" transform="translate(-367.74 -292.88)"/><path class="cls-4" d="M394.1,314.43a7.69,7.69,0,0,1-2.57-1.27l.31-.42s2.21,1.69,3.49,1.14l.2.48A2.31,2.31,0,0,1,394.1,314.43Z" transform="translate(-367.74 -292.88)"/><path class="cls-4" d="M393.89,311.72s.16-4.76-4-5.07C389.86,306.65,390.52,311.05,393.89,311.72Z" transform="translate(-367.74 -292.88)"/><path class="cls-4" d="M392.66,313.29s-2.84-3.82-6.31-1.45C386.35,311.84,389.61,314.88,392.66,313.29Z" transform="translate(-367.74 -292.88)"/><path class="cls-4" d="M395.16,321.33c-2.34-.51-4.32-3.86-4.41-4l.45-.26s2.31,3.92,4.63,3.83l0,.51A2.61,2.61,0,0,1,395.16,321.33Z" transform="translate(-367.74 -292.88)"/><path class="cls-4" d="M391.67,320.72a8.29,8.29,0,0,1-2-.75l.25-.46s2.43,1.32,3.62.59l.27.44A3,3,0,0,1,391.67,320.72Z" transform="translate(-367.74 -292.88)"/><path class="cls-4" d="M391.78,318.18s-.59-4.72-4.77-4.38C387,313.8,388.34,318.05,391.78,318.18Z" transform="translate(-367.74 -292.88)"/><path class="cls-4" d="M390.81,319.93s-3.4-3.33-6.46-.46C384.35,319.47,388,322,390.81,319.93Z" transform="translate(-367.74 -292.88)"/><path class="cls-5" d="M399.7,348.34l-.2-1a32.58,32.58,0,0,1-26.25-5.86l-.65.76A33.6,33.6,0,0,0,399.7,348.34Z" transform="translate(-367.74 -292.88)"/><path class="cls-5" d="M373.61,342.27s-3.79-4.19-5.67-1.66C367.15,341.68,368.63,343.84,373.61,342.27Z" transform="translate(-367.74 -292.88)"/><path class="cls-5" d="M375.33,343.45s-5.92-.94-5.34,2.09C370.24,346.83,373,347.59,375.33,343.45Z" transform="translate(-367.74 -292.88)"/><path class="cls-5" d="M375.52,344s-4.71-3.39-1.82-5C374.93,338.29,377.38,339.63,375.52,344Z" transform="translate(-367.74 -292.88)"/><path class="cls-5" d="M380,346s-4.88-3.18-2.09-4.92C379.1,340.35,381.61,341.58,380,346Z" transform="translate(-367.74 -292.88)"/><path class="cls-5" d="M383.8,347.43s-4.87-3.2-2.08-4.93C382.92,341.76,385.43,343,383.8,347.43Z" transform="translate(-367.74 -292.88)"/><path class="cls-5" d="M388.69,348.37s-5.41-2.4-3-4.55C386.69,342.9,389.39,343.74,388.69,348.37Z" transform="translate(-367.74 -292.88)"/><path class="cls-5" d="M392.72,348.61s-5.34-2.54-2.88-4.62C390.89,343.1,393.57,344,392.72,348.61Z" transform="translate(-367.74 -292.88)"/><path class="cls-5" d="M397.92,348.15s-5.88-1.16-4.2-3.78C394.45,343.26,397.28,343.47,397.92,348.15Z" transform="translate(-367.74 -292.88)"/><path class="cls-5" d="M378.83,345.5s-5.92-.94-5.34,2.09C373.74,348.88,376.47,349.64,378.83,345.5Z" transform="translate(-367.74 -292.88)"/><path class="cls-5" d="M382.73,347s-5.92-.93-5.34,2.09C377.64,350.38,380.37,351.14,382.73,347Z" transform="translate(-367.74 -292.88)"/><path class="cls-5" d="M386.73,347.9s-6,.27-4.62,3.12C382.68,352.23,385.52,352.44,386.73,347.9Z" transform="translate(-367.74 -292.88)"/><path class="cls-5" d="M391.25,348.45s-5.89.82-4.21,3.53C387.76,353.14,390.59,353.08,391.25,348.45Z" transform="translate(-367.74 -292.88)"/><path class="cls-5" d="M395.77,348.31s-5.66,1.56-3.56,4.05C393.11,353.42,395.89,353,395.77,348.31Z" transform="translate(-367.74 -292.88)"/><path class="cls-3" d="M396.27,338.27s-9.69-4.17-5.63-6.66-.85-5.23-4.36-5.12-8.07-4.76-3.93-6.44-7.31-7.52-4.19-7.61,7.34,1.56,8.34,5.93,4.49.51,3.72-1.87,6,3,2.81,7.65,3.41,4.46,4,2,3.55,1.59,1.56,5.2-1.09,5.7.94,6.79S396.27,338.27,396.27,338.27Z" transform="translate(-367.74 -292.88)"/><path class="cls-2" d="M400.54,344.62l-.09.84a30.57,30.57,0,0,1-8.87-3.1c-6.12-3.26-10.12-8.2-11.57-14.29l.73-.21C384.11,342,400.38,344.6,400.54,344.62Z" transform="translate(-367.74 -292.88)"/><path class="cls-2" d="M380.63,328.84s-4.4-1.88-3.18-7.41C377.45,321.43,381.45,324.19,380.63,328.84Z" transform="translate(-367.74 -292.88)"/><path class="cls-2" d="M382.39,333.07s-5.5,2.59-8.46-3.89C373.93,329.18,376.85,327.69,382.39,333.07Z" transform="translate(-367.74 -292.88)"/><path class="cls-2" d="M382.2,333.11s5-3.65,1.71-9.95C383.91,323.16,381.18,325,382.2,333.11Z" transform="translate(-367.74 -292.88)"/><path class="cls-2" d="M385.83,337.76s-5.23,3.21-8.77-2.9C377.06,334.86,379.82,333,385.83,337.76Z" transform="translate(-367.74 -292.88)"/><path class="cls-2" d="M385.64,337.83a7.73,7.73,0,0,0,.78-10.1S383.88,329.91,385.64,337.83Z" transform="translate(-367.74 -292.88)"/><path class="cls-2" d="M391,341.61s-4.65,4.16-9.09-1.19C381.88,340.42,384.32,338.1,391,341.61Z" transform="translate(-367.74 -292.88)"/><path class="cls-2" d="M390.79,341.71a7.79,7.79,0,0,0-.79-10.1S387.84,334.24,390.79,341.71Z" transform="translate(-367.74 -292.88)"/><path class="cls-2" d="M396.08,343.83s-3.5,5.36-9,1.46C387,345.29,388.85,342.35,396.08,343.83Z" transform="translate(-367.74 -292.88)"/><path class="cls-2" d="M395.94,344s2.58-6-3.13-9.54C392.81,334.44,391.34,337.61,395.94,344Z" transform="translate(-367.74 -292.88)"/><circle class="cls-4" cx="427.62" cy="330.2" r="28.32" transform="translate(-274.92 461.35) rotate(-89.38)"/><path class="cls-6" d="M429.87,318.13s-10.34-8.72-6.22-11.76c8.13-6,31.07,7.6,23.62,16.55s-6.46,2.74-8.7,2.74-6,3.72-3.48,6,2.73,10.19,6,10.19,3,9.27-2.62,14.58c0,0-2.51,1.37-8,2,0,0-7.84-10.55-4.44-15.08,3-4,1.49-8.7,4-12.68S432.72,323,429.87,318.13Z" transform="translate(-367.74 -292.88)"/><path class="cls-6" d="M405.58,312.42s9.38,3.42,7.26,6.78-4.59,5.71-3.47,8.57,8.19,10.81,3.78,15.91c-3.42,3.94-3.15,7.68-1.67,9.8,0,0-11-7.56-12.19-21.1C398.85,327.17,399,319.57,405.58,312.42Z" transform="translate(-367.74 -292.88)"/><path class="cls-2" d="M431.12,343.8a17.18,17.18,0,0,0-5.39-33.93c-5.1.81-7.86,5.2-11.85,7.84-3.05,2-14.16,3.81-14.16,3.81l3.06,19.26s11.12-1.73,14.63-.76C422,341.29,426,344.62,431.12,343.8Z" transform="translate(-367.74 -292.88)"/><polygon class="cls-7" points="38.83 34.04 56.35 26.59 58.76 41.82 39.83 40.31 39.89 39.51 57.8 40.93 55.71 27.74 39.15 34.78 38.83 34.04"/><rect class="cls-8" x="394.18" y="321.01" width="13.25" height="20.44" transform="translate(-414.67 -226.02) rotate(-9.01)"/><path class="cls-9" d="M406.2,342.59a1.06,1.06,0,0,1-1.23-.89l-3.53-22.21a1.08,1.08,0,0,1,.9-1.23h0a1.06,1.06,0,0,1,1.22.89l3.53,22.21a1.08,1.08,0,0,1-.89,1.23Z" transform="translate(-367.74 -292.88)"/><path class="cls-9" d="M403.15,343.08a1.07,1.07,0,0,1-1.22-.9L398.4,320a1.08,1.08,0,0,1,.89-1.23h0a1.07,1.07,0,0,1,1.23.89L404,341.85a1.07,1.07,0,0,1-.89,1.23Z" transform="translate(-367.74 -292.88)"/><path class="cls-9" d="M400.11,343.56a1.09,1.09,0,0,1-1.23-.9l-3.52-22.21a1.08,1.08,0,0,1,.89-1.23h0a1.08,1.08,0,0,1,1.23.89L401,342.33a1.08,1.08,0,0,1-.9,1.23Z" transform="translate(-367.74 -292.88)"/><path class="cls-9" d="M395.49,340a1.58,1.58,0,0,1-1.8-1.31l-2-12.53a1.58,1.58,0,0,1,1.31-1.81h0a1.59,1.59,0,0,1,1.8,1.31l2,12.53a1.59,1.59,0,0,1-1.31,1.81Z" transform="translate(-367.74 -292.88)"/><path class="cls-9" d="M409.24,342.11a1.08,1.08,0,0,1-1.23-.89L404.49,319a1.07,1.07,0,0,1,.89-1.23h0a1.08,1.08,0,0,1,1.23.9l3.52,22.21a1.07,1.07,0,0,1-.89,1.23Z" transform="translate(-367.74 -292.88)"/><path class="cls-10" d="M436.89,337.2c-11.24,5.76-34.29,6.92-34.29,6.92l-1.27,4.06-7.16-4.87L377.56,356.2l10.66,13.66s10.59-15.65,16.3-17.24,16.22,5.24,24.6.44c12.15-6.94,19.83-13.46,19.34-16.44S446.21,332.42,436.89,337.2Z" transform="translate(-367.74 -292.88)"/><path class="cls-11" d="M431.46,339.41s-.14,5.31-8.95,6.13-19.58,6.94-25.78,3.23C389.81,344.61,426.59,341.42,431.46,339.41Z" transform="translate(-367.74 -292.88)"/><path class="cls-10" d="M393,344.06s8.61-9.18,18.28-7.69c7.6,1.17,10.16,2.23,15.12,1s5.94,4.91-.5,5.86C419.84,344.13,393,356,393,344.06Z" transform="translate(-367.74 -292.88)"/><path class="cls-12" d="M413.73,335.54c-1.77,3-4.87,9.53-3.45,10s2.37.29,1.63-.24-.74-.63-.63-.87c.69-1.57,3.11-4.1,4.49-6.23C417.38,335.77,415.29,333,413.73,335.54Z" transform="translate(-367.74 -292.88)"/><path class="cls-13" d="M409.9,344.68s1.07.95,2,.65c0,0,1.33.66.33.75S409.44,345.94,409.9,344.68Z" transform="translate(-367.74 -292.88)"/><path class="cls-14" d="M412.33,330.13s6.44-1.27,6.8,1.69c.33,2.67-5.73,10.7-5.73,10.7a3.77,3.77,0,0,1-2.95-1.06l2.49-6.54-7,1.53,2.9-5.55Z" transform="translate(-367.74 -292.88)"/><path class="cls-12" d="M406.77,338.67c-2.49,2.39-7.2,7.91-6,8.77s2.22.89,1.64.19-.55-.8-.38-1c1.08-1.32,4.08-3.13,6-4.82C410.23,339.84,409,336.58,406.77,338.67Z" transform="translate(-367.74 -292.88)"/><path class="cls-13" d="M400.67,346.48s.78,1.19,1.77,1.15c0,0,1.11,1,.12.82S399.89,347.57,400.67,346.48Z" transform="translate(-367.74 -292.88)"/><path class="cls-15" d="M406.84,333.08s6.54.46,6.12,3.41c-.39,2.66-8.34,8.82-8.34,8.82a3.8,3.8,0,0,1-2.57-1.79l4.12-5.66s-4.67.59-5.35-1.07c-.59-1.45,1.59-5.33,1.59-5.33Z" transform="translate(-367.74 -292.88)"/><path class="cls-16" d="M409.4,325.92a3.39,3.39,0,0,1-.82-4,49.23,49.23,0,0,1,6.12-9.69c.8-.64,1.79-2.34,2.82-2s-1,2-1.91,2.53-3.21,9.49-3.91,10.94S410.88,326.42,409.4,325.92Z" transform="translate(-367.74 -292.88)"/><path class="cls-4" d="M410.69,331.53a13.44,13.44,0,0,0,.24-7.56c-.81-3.1-3.75-3.11-5.52-2.77s-4.69.81-3.47,4.61c.84,2.65.28,4.32-.43,7h0l-.06.2h0C400.22,335.87,409.7,334.07,410.69,331.53Z" transform="translate(-367.74 -292.88)"/><path class="cls-17" d="M406.28,319s.69,1.4-.3,2.17,3,2.84,2.89,2c-.15-1.06-.7-1.69-.2-2.92Z" transform="translate(-367.74 -292.88)"/><path class="cls-18" d="M408.49,316.22c.92.84,2,4.6,1,5.44-.41.37-2.13,0-3.24-1.65a3.15,3.15,0,0,1-.35-3.23A1.66,1.66,0,0,1,408.49,316.22Z" transform="translate(-367.74 -292.88)"/><path class="cls-19" d="M409.43,316.66c.2.47.15.58-1.27.82s-1.66.15-1.51.49c.43,1-.58.81,0,2s-.67.47-1.21-.49a2.68,2.68,0,0,1,0-2.63A2.26,2.26,0,0,1,409.43,316.66Z" transform="translate(-367.74 -292.88)"/><path class="cls-19" d="M405.35,316.84a2.66,2.66,0,0,0,0,2.63c.4.71,1.17,1.3,1.31,1s-.74-.42-.5-1.26-.31-1-.19-1.74.67-.6,2.27-.87c.64-.11.76-.36.68-.62A2.33,2.33,0,0,0,405.35,316.84Z" transform="translate(-367.74 -292.88)"/><path class="cls-6" d="M401.51,332.78l-.06.2h0c-1,2.24,4.5,1.67,7.48.11.28-.87-2.15-.38-3.24-.84-2.5-1.06,4.69-3.28,3.27-3.52s-3.46.57-3.14-1.66S403.9,322,403.9,322c-1.24.14-1.36,1.5-2.19,2.83a5.26,5.26,0,0,0,.23,1C402.78,328.46,402.22,330.13,401.51,332.78Z" transform="translate(-367.74 -292.88)"/><path class="cls-16" d="M404.17,326.07a3.4,3.4,0,0,0-.27-4.07,49.21,49.21,0,0,0-8.47-7.72c-.94-.4-2.34-1.78-3.25-1.19s1.52,1.68,2.51,1.93,5.61,8.29,6.68,9.51S402.88,327,404.17,326.07Z" transform="translate(-367.74 -292.88)"/></svg>