<svg id="Layer_1" data-name="Layer 1" xmlns="http://www.w3.org/2000/svg" viewBox="0 0 98.6 100.35"><defs><style>.cls-1{fill:#fc593a;}.cls-2{fill:#fba571;}.cls-3{fill:#0a3c33;}.cls-4{fill:#ffbd36;}.cls-5{fill:#d8d5ca;}.cls-6{fill:#614dd3;}.cls-7{fill:#332766;}.cls-8{fill:#1e1341;}.cls-9{fill:#c6e5f4;}.cls-10{fill:#7fb1cd;}.cls-11{fill:#e0623f;}.cls-12{fill:#f27851;}.cls-13{fill:#39021f;}.cls-14{fill:#6737c1;}.cls-15{fill:#ffc001;}.cls-16{fill:#bee4d7;}.cls-17{fill:#fca09f;}.cls-18{fill:#a6b900;}.cls-19{fill:#5a70e0;}.cls-20{fill:#fa2d68;}</style></defs><polygon class="cls-1" points="26.07 51.73 23.86 33.62 27.9 31.85 27.9 20.24 29.92 20.24 31.18 31.35 33.45 30.34 33.45 25.04 35.48 24.53 35.48 29.83 38.76 28.82 38.76 35.39 41.78 34.88 41.78 20.24 44.06 20.24 45.32 33.24 48.38 33.24 47.34 26.8 48.38 26.8 51.38 33.24 55.67 32.11 55.67 10.4 59.7 10.4 61.73 31.6 65.51 31.6 65.51 15.7 68.79 15.45 71.82 31.09 76.36 32.11 77.64 49.6 26.07 51.73"/><path class="cls-2" d="M41.13,72.67S35,71,36.27,65.46C36.27,65.46,41.64,68.09,41.13,72.67Z" transform="translate(-23.48 -30.14)"/><path class="cls-2" d="M55,105.59l-.69-.11C55.89,95,39.84,71.7,39.68,71.47l.57-.4C40.92,72,56.62,94.83,55,105.59Z" transform="translate(-23.48 -30.14)"/><path class="cls-2" d="M45.13,79.74l-.53-.45c2-2.35-.14-8-.17-8.06l.65-.25C45.18,71.23,47.42,77.08,45.13,79.74Z" transform="translate(-23.48 -30.14)"/><path class="cls-2" d="M46,76.84l-.12,0-.24-.66c1.74-.65,2.4-4.26,2.41-4.29l.68.11C48.74,72.22,48.09,76,46,76.84Z" transform="translate(-23.48 -30.14)"/><path class="cls-2" d="M45.14,72.79s-4.49-4.55-.64-8.67C44.5,64.12,47.86,69.06,45.14,72.79Z" transform="translate(-23.48 -30.14)"/><path class="cls-2" d="M47.78,73.23s-.68-6.36,4.9-7.18C52.68,66.05,52.22,72,47.78,73.23Z" transform="translate(-23.48 -30.14)"/><path class="cls-2" d="M48.54,86l-.33-.62c2.73-1.47,2.72-7.52,2.71-7.58h.7C51.62,78,51.63,84.31,48.54,86Z" transform="translate(-23.48 -30.14)"/><path class="cls-2" d="M51.41,83.36a2.69,2.69,0,0,1-1.11.23V82.9c1.87,0,3.76-3.13,3.78-3.16l.6.35A9,9,0,0,1,51.41,83.36Z" transform="translate(-23.48 -30.14)"/><path class="cls-2" d="M51,79.48s-2.57-5.85,2.49-8.32C53.52,71.16,54.9,77,51,79.48Z" transform="translate(-23.48 -30.14)"/><path class="cls-2" d="M53.34,80.83s1.64-6.17,7.14-5C60.48,75.87,57.93,81.28,53.34,80.83Z" transform="translate(-23.48 -30.14)"/><path class="cls-2" d="M52.37,90.84a3.61,3.61,0,0,1-1.37.32l0-.69c3.09-.11,5.76-5.55,5.79-5.6l.63.3C57.3,85.38,55.21,89.62,52.37,90.84Z" transform="translate(-23.48 -30.14)"/><path class="cls-2" d="M57.49,89.47c-1.16.5-2.71.92-3.85.34l.32-.62C55.62,90,58.71,88,58.74,88l.38.59A11.89,11.89,0,0,1,57.49,89.47Z" transform="translate(-23.48 -30.14)"/><path class="cls-2" d="M56.11,86.44s.29-6.38,5.92-6.36C62,80.08,60.69,85.9,56.11,86.44Z" transform="translate(-23.48 -30.14)"/><path class="cls-2" d="M57.59,88.68s4.2-4.82,8.59-1.29C66.18,87.39,61.5,91.11,57.59,88.68Z" transform="translate(-23.48 -30.14)"/><path class="cls-2" d="M46.16,81.59c-3.52.09-6.62-5.35-6.76-5.58l.61-.34S43,81,46.14,80.9Z" transform="translate(-23.48 -30.14)"/><path class="cls-2" d="M43.17,80.54c-2,.85-5.13-.92-5.27-1l.34-.6s3.25,1.82,4.85.86l.36.6Z" transform="translate(-23.48 -30.14)"/><path class="cls-2" d="M40.77,77.19s-.68-6.35-6.3-6C34.47,71.21,36.16,76.94,40.77,77.19Z" transform="translate(-23.48 -30.14)"/><path class="cls-2" d="M39.43,79.52S35,75,30.78,78.76C30.78,78.76,35.68,82.19,39.43,79.52Z" transform="translate(-23.48 -30.14)"/><path class="cls-2" d="M49.41,87.26c-3.1,1.33-8-1.84-8.26-2l.38-.58s5.14,3.3,7.85,1.8l.34.61Z" transform="translate(-23.48 -30.14)"/><path class="cls-2" d="M45.26,88.49a10,10,0,0,1-3.81.62l0-.69s3.71.11,4.69-1.48l.6.36A3.15,3.15,0,0,1,45.26,88.49Z" transform="translate(-23.48 -30.14)"/><path class="cls-2" d="M42.91,85.7s-3.54-5.31-8.36-2.38C34.55,83.32,38.71,87.61,42.91,85.7Z" transform="translate(-23.48 -30.14)"/><path class="cls-2" d="M42.8,88.38s-6.08-1.95-8,3.34C34.78,91.72,40.71,92.48,42.8,88.38Z" transform="translate(-23.48 -30.14)"/><path class="cls-2" d="M51.8,95.2c-2.94,1.26-7.73-.84-7.95-.94l.28-.64c.06,0,5.6,2.46,8,.56l.43.55A4,4,0,0,1,51.8,95.2Z" transform="translate(-23.48 -30.14)"/><path class="cls-2" d="M47.52,97.25a11.34,11.34,0,0,1-2.77.75l-.09-.69s3.69-.47,4.41-2.2l.64.27A3.89,3.89,0,0,1,47.52,97.25Z" transform="translate(-23.48 -30.14)"/><path class="cls-2" d="M45.65,94.4S41.33,89.7,37,93.35C37,93.35,41.8,96.94,45.65,94.4Z" transform="translate(-23.48 -30.14)"/><path class="cls-2" d="M46,97.06s-6.31-1-7.4,4.55C38.56,101.61,44.54,101.44,46,97.06Z" transform="translate(-23.48 -30.14)"/><path class="cls-3" d="M109.7,86.93l.83.17a30,30,0,0,0-.11-9.39c-1.14-6.84-4.56-12.21-9.91-15.53l-.44.62C112.5,70.52,109.73,86.77,109.7,86.93Z" transform="translate(-23.48 -30.14)"/><path class="cls-3" d="M101,63s-.38-4.77-6-5.39C95,57.62,96.34,62.3,101,63Z" transform="translate(-23.48 -30.14)"/><path class="cls-3" d="M104.51,66s4.25-4.38-1-9.26C103.52,56.77,101.16,59.06,104.51,66Z" transform="translate(-23.48 -30.14)"/><path class="cls-3" d="M104.62,65.86s-5.09,3.55-10.05-1.56C94.57,64.3,97.24,62.31,104.62,65.86Z" transform="translate(-23.48 -30.14)"/><path class="cls-3" d="M107.88,70.79s4.76-3.92.06-9.24C107.94,61.55,105.31,63.58,107.88,70.79Z" transform="translate(-23.48 -30.14)"/><path class="cls-3" d="M108,70.63a7.81,7.81,0,0,1-9.89-2.49S101,66.43,108,70.63Z" transform="translate(-23.48 -30.14)"/><path class="cls-3" d="M109.91,76.89s5.46-3.07,1.78-9C111.69,67.9,108.69,69.47,109.91,76.89Z" transform="translate(-23.48 -30.14)"/><path class="cls-3" d="M110.06,76.76a7.88,7.88,0,0,1-9.39-4S103.88,71.57,110.06,76.76Z" transform="translate(-23.48 -30.14)"/><path class="cls-3" d="M110.38,82.45s6.24-1.6,4.31-8.1C114.69,74.35,111.29,75.12,110.38,82.45Z" transform="translate(-23.48 -30.14)"/><path class="cls-3" d="M110.56,82.36s-6.53.53-8.09-6C102.47,76.34,106,76,110.56,82.36Z" transform="translate(-23.48 -30.14)"/><path class="cls-4" d="M110.65,107.86c9.76-16.16,6.47-30.63,6.44-30.77l-.62.15c0,.14,3.25,14.37-6.37,30.29Z" transform="translate(-23.48 -30.14)"/><rect class="cls-4" x="115.94" y="81.22" width="0.64" height="4.43" transform="translate(-49 33.96) rotate(-27.9)"/><polygon class="cls-4" points="93.19 59.72 93.69 59.31 90.84 55.92 90.35 56.32 93.19 59.72"/><polygon class="cls-4" points="92.28 64.58 92.78 64.17 89.93 60.77 89.44 61.18 92.28 64.58"/><rect class="cls-4" x="112.86" y="94.95" width="0.64" height="4.43" transform="translate(-59.45 65.18) rotate(-39.94)"/><rect class="cls-4" x="111.22" y="99.34" width="0.64" height="4.43" transform="translate(-62.68 65.7) rotate(-40.15)"/><polygon class="cls-4" points="94.14 54.29 96.09 50.31 95.52 50.03 93.56 54.01 94.14 54.29"/><polygon class="cls-4" points="93.86 58.9 96.53 55.37 96.03 54.98 93.35 58.52 93.86 58.9"/><polygon class="cls-4" points="92.76 64.26 96.26 61.53 95.86 61.03 92.37 63.75 92.76 64.26"/><polygon class="cls-4" points="91.11 69.69 94.74 67.15 94.38 66.63 90.75 69.17 91.11 69.69"/><rect class="cls-4" x="111.5" y="103.58" width="4.44" height="0.64" transform="translate(-60.06 40.04) rotate(-29.77)"/><path class="cls-4" d="M115.41,76.22a1.54,1.54,0,1,0,1.85-1.17A1.55,1.55,0,0,0,115.41,76.22Z" transform="translate(-23.48 -30.14)"/><path class="cls-4" d="M113,80.6a1.54,1.54,0,1,0,1.77-1.28A1.55,1.55,0,0,0,113,80.6Z" transform="translate(-23.48 -30.14)"/><path class="cls-4" d="M112.09,85a1.54,1.54,0,1,0,2.08-.64A1.53,1.53,0,0,0,112.09,85Z" transform="translate(-23.48 -30.14)"/><path class="cls-4" d="M111.17,89.83a1.55,1.55,0,1,0,2.73,1.45,1.55,1.55,0,0,0-2.73-1.45Z" transform="translate(-23.48 -30.14)"/><path class="cls-4" d="M109.77,94.18a1.54,1.54,0,1,0,2.09-.64A1.54,1.54,0,0,0,109.77,94.18Z" transform="translate(-23.48 -30.14)"/><path class="cls-4" d="M108.13,98.57a1.54,1.54,0,1,0,2.09-.64A1.54,1.54,0,0,0,108.13,98.57Z" transform="translate(-23.48 -30.14)"/><path class="cls-4" d="M121.46,79.38a1.54,1.54,0,1,1-1.8-1.23A1.54,1.54,0,0,1,121.46,79.38Z" transform="translate(-23.48 -30.14)"/><path class="cls-4" d="M122.07,84.82a1.54,1.54,0,1,1-1.53-1.55A1.53,1.53,0,0,1,122.07,84.82Z" transform="translate(-23.48 -30.14)"/><path class="cls-4" d="M121.91,91.53a1.54,1.54,0,1,1-3-.8,1.54,1.54,0,0,1,3,.8Z" transform="translate(-23.48 -30.14)"/><path class="cls-4" d="M120.4,97.26a1.54,1.54,0,1,1-1-1.94A1.55,1.55,0,0,1,120.4,97.26Z" transform="translate(-23.48 -30.14)"/><path class="cls-4" d="M118,103.24a1.55,1.55,0,1,1-.81-2A1.55,1.55,0,0,1,118,103.24Z" transform="translate(-23.48 -30.14)"/><path class="cls-5" d="M119.6,126.93c0,1.56-3.61,3.56-38.66,3.56s-49.39-1.22-49.39-2.78,14.35-2.85,49.39-2.85S119.6,125.38,119.6,126.93Z" transform="translate(-23.48 -30.14)"/><path class="cls-6" d="M52.32,110.42l-.11.9A32.6,32.6,0,0,1,42.6,108c-6.63-3.53-11-8.88-12.54-15.48l.8-.23C34.51,107.59,52.14,110.39,52.32,110.42Z" transform="translate(-23.48 -30.14)"/><path class="cls-6" d="M30.73,93.31s-4.76-2-3.44-8C27.29,85.28,31.62,88.27,30.73,93.31Z" transform="translate(-23.48 -30.14)"/><path class="cls-6" d="M32.64,97.89s-5.95,2.82-9.16-4.21C23.48,93.68,26.64,92.06,32.64,97.89Z" transform="translate(-23.48 -30.14)"/><path class="cls-6" d="M32.43,97.94s5.4-4,1.86-10.78C34.29,87.16,31.33,89.19,32.43,97.94Z" transform="translate(-23.48 -30.14)"/><path class="cls-6" d="M36.37,103s-5.66,3.48-9.51-3.14C26.86,99.84,29.86,97.87,36.37,103Z" transform="translate(-23.48 -30.14)"/><path class="cls-6" d="M36.17,103.05s5-4.54.84-10.94C37,92.11,34.26,94.47,36.17,103.05Z" transform="translate(-23.48 -30.14)"/><path class="cls-6" d="M41.94,107.16s-5,4.5-9.84-1.3C32.1,105.86,34.74,103.34,41.94,107.16Z" transform="translate(-23.48 -30.14)"/><path class="cls-6" d="M41.75,107.27a8.46,8.46,0,0,0-.86-11S38.54,99.17,41.75,107.27Z" transform="translate(-23.48 -30.14)"/><path class="cls-6" d="M47.48,109.56s-3.79,5.81-9.8,1.59C37.68,111.15,39.64,108,47.48,109.56Z" transform="translate(-23.48 -30.14)"/><path class="cls-6" d="M47.33,109.72s2.79-6.47-3.4-10.34C43.93,99.38,42.34,102.82,47.33,109.72Z" transform="translate(-23.48 -30.14)"/><path class="cls-7" d="M78.39,65.38A39.31,39.31,0,0,0,48.48,78.82c.11,0,12.71,4.38,9.85,8.64S52.1,94.75,53.61,98.4s11.13,13.79,5.14,20.28a15.79,15.79,0,0,0-2.5,3.53,56.78,56.78,0,0,0,19.6,4.12c-1-3-1.33-6.07.31-8.12,4-5.07,2-11.1,5.39-16.17s3.76-9.75-.11-15.94c0,0-14-11.11-8.43-15,11-7.63,42.16,9.7,32,21.11s-8.77,3.48-11.8,3.48-8.1,4.76-4.72,7.61,3.7,13,8.09,13c2,0,3,2.53,2.78,5.93a45.31,45.31,0,0,0,15.91-10.69,34.15,34.15,0,0,0,1.52-10C116.83,81.55,99.62,65.38,78.39,65.38Z" transform="translate(-23.48 -30.14)"/><path class="cls-8" d="M96.62,116.31c-4.39,0-4.72-10.15-8.09-13s1.68-7.61,4.72-7.61,1.68,7.93,11.8-3.48S84,63.48,73,71.11c-5.61,3.88,8.43,15,8.43,15,3.87,6.19,3.5,10.87.11,15.94s-1.35,11.1-5.39,16.17c-1.64,2.05-1.36,5.07-.31,8.12.67,0,1.34,0,2,0a57,57,0,0,0,21.53-4.13C99.66,118.84,98.65,116.31,96.62,116.31Z" transform="translate(-23.48 -30.14)"/><path class="cls-8" d="M53.61,98.4c-1.51-3.65,1.85-6.66,4.72-10.94s-9.74-8.6-9.85-8.64h0c-8.89,9.12-9.13,18.81-8.52,25.46a32.56,32.56,0,0,0,1.29,6.53c.25.82.53,1.63.84,2.41a46.18,46.18,0,0,0,14.17,9,15.79,15.79,0,0,1,2.5-3.53C64.74,112.19,55.12,102,53.61,98.4Z" transform="translate(-23.48 -30.14)"/><path class="cls-9" d="M113.54,108.68a3.76,3.76,0,0,0-3.05,1.55,4.89,4.89,0,0,0-5.87,1.76,6.13,6.13,0,0,0-8.76,4.52,4.43,4.43,0,0,0-3.15,2,6.79,6.79,0,0,0-11.93.38,4.74,4.74,0,0,0-5,.57,6.34,6.34,0,0,0-10.31-.62A5.27,5.27,0,0,0,62,117.51a5,5,0,0,0-1,.11,5.92,5.92,0,0,0-10.09-3.33,3.7,3.7,0,0,0-3.39-.65c0-.06,0-.11,0-.16a4.81,4.81,0,1,0-4.8,4.81,4.91,4.91,0,0,0,2-.42,3.9,3.9,0,0,0,3.87,3.45,3.81,3.81,0,0,0,1.31-.25,5.92,5.92,0,0,0,7,3,5.3,5.3,0,0,0,5.14,4,5.23,5.23,0,0,0,3.49-1.34,6.33,6.33,0,0,0,9.92,0,4.82,4.82,0,0,0,6.68,0,6.79,6.79,0,0,0,11.24-2.67,4.48,4.48,0,0,0,6.93-.67,6,6,0,0,0,1.7.25,6.14,6.14,0,0,0,5.8-4.13,4.81,4.81,0,0,0,.93.09,4.88,4.88,0,0,0,4.64-3.41,1.9,1.9,0,0,0,.25,0,3.79,3.79,0,0,0,0-7.57Z" transform="translate(-23.48 -30.14)"/><path class="cls-10" d="M82.47,37.33a2,2,0,1,1-2-2A2,2,0,0,1,82.47,37.33Z" transform="translate(-23.48 -30.14)"/><circle class="cls-10" cx="83.85" cy="35.95" r="3.36" transform="translate(11.58 82.89) rotate(-80.88)"/><path class="cls-10" d="M90.09,33.05a2.9,2.9,0,1,1-2.9-2.91A2.9,2.9,0,0,1,90.09,33.05Z" transform="translate(-23.48 -30.14)"/><path class="cls-10" d="M91.39,35.75a3.16,3.16,0,1,1-3.16-3.16A3.16,3.16,0,0,1,91.39,35.75Z" transform="translate(-23.48 -30.14)"/><path class="cls-10" d="M94.42,35.21a2.17,2.17,0,1,1-2.16-2.16A2.17,2.17,0,0,1,94.42,35.21Z" transform="translate(-23.48 -30.14)"/><path class="cls-10" d="M92,42.43A1.45,1.45,0,1,1,90.54,41,1.45,1.45,0,0,1,92,42.43Z" transform="translate(-23.48 -30.14)"/><path class="cls-10" d="M95.43,41.43A2.45,2.45,0,1,1,93,39,2.45,2.45,0,0,1,95.43,41.43Z" transform="translate(-23.48 -30.14)"/><circle class="cls-10" cx="71.94" cy="9.17" r="2.11"/><path class="cls-10" d="M98.48,41.29A2.31,2.31,0,1,1,96.18,39,2.3,2.3,0,0,1,98.48,41.29Z" transform="translate(-23.48 -30.14)"/><path class="cls-10" d="M100.68,40.89a1.58,1.58,0,1,1-1.57-1.57A1.57,1.57,0,0,1,100.68,40.89Z" transform="translate(-23.48 -30.14)"/><path class="cls-10" d="M53.21,47.88a1.45,1.45,0,1,1-1.45-1.44A1.45,1.45,0,0,1,53.21,47.88Z" transform="translate(-23.48 -30.14)"/><path class="cls-10" d="M56.66,46.88a2.45,2.45,0,1,1-2.45-2.44A2.45,2.45,0,0,1,56.66,46.88Z" transform="translate(-23.48 -30.14)"/><path class="cls-10" d="M58.76,44.77a2.12,2.12,0,1,1-2.12-2.11A2.11,2.11,0,0,1,58.76,44.77Z" transform="translate(-23.48 -30.14)"/><path class="cls-10" d="M59.71,46.74a2.31,2.31,0,1,1-2.31-2.3A2.31,2.31,0,0,1,59.71,46.74Z" transform="translate(-23.48 -30.14)"/><circle class="cls-10" cx="36.86" cy="16.2" r="1.58"/><path class="cls-11" d="M68.29,95.18c-.44,1.36-.21,2.26.27,1.54s.58-.72.82-.62c3,1.24,5,6.72,9.34,7.55l.82-4.82A9.37,9.37,0,0,1,78,98.19C75.09,96.58,68.72,93.82,68.29,95.18Z" transform="translate(-23.48 -30.14)"/><path class="cls-11" d="M76.66,94.11c3.07,1.16,4.8,6.59,9.17,7.3l.49-4.68a6.57,6.57,0,0,1-1.57-.59A12.94,12.94,0,0,0,76.66,94.11Z" transform="translate(-23.48 -30.14)"/><path class="cls-12" d="M82,83.53c-1.79-3.82-1-6.07-1.92-8-1.13-2.32-5.2-.56-6.55.49S70,78.7,72.64,81.37c1.86,1.86,2.12,3.51,2.67,6h0a1.42,1.42,0,0,0,0,.2h0A108.92,108.92,0,0,1,77,100.42c.15,3.27,3.05,4.47,3.66,2.1s1.31-5.11,1-7.11c-.23-1.32-.47-2.52-.69-3.57a35,35,0,0,1,2,6.6c1.1,3.4,4.63,3.93,4.38,1.44-.29-2.84-.51-5.82-1-8.06A19.21,19.21,0,0,0,82,83.53Z" transform="translate(-23.48 -30.14)"/><path class="cls-11" d="M73.32,73.71s1.19.89.69,2,3.75,1.09,3.3.44c-.58-.83-1.32-1.12-1.43-2.38Z" transform="translate(-23.48 -30.14)"/><path class="cls-12" d="M74,70.46c1.14.31,3.64,3,3.21,4.14-.18.48-1.79.91-3.43,0a3,3,0,0,1-1.71-2.56A1.59,1.59,0,0,1,74,70.46Z" transform="translate(-23.48 -30.14)"/><path class="cls-13" d="M75,70.43c.38.3.38.42-.71,1.24s-1.33.84-1.06,1.06c.8.64-.13.93.83,1.69s-.35.69-1.23.12a2.58,2.58,0,0,1-1.18-2.19A2.13,2.13,0,0,1,75,70.43Z" transform="translate(-23.48 -30.14)"/><path class="cls-13" d="M71.62,72.35a2.54,2.54,0,0,0,1.18,2.19c.66.42,1.56.58,1.57.31s-.81,0-1-.84-.7-.71-.92-1.38.3-.79,1.53-1.71c.5-.38.49-.65.31-.83A2.22,2.22,0,0,0,71.62,72.35Z" transform="translate(-23.48 -30.14)"/><path class="cls-14" d="M82.72,84.4c-2.17,2.76-5.79,3.29-7.37,3.39.6,3.68,1,6.33,1.26,8.25a16.41,16.41,0,0,0,5-.63c-.23-1.32-.47-2.52-.69-3.57a19.34,19.34,0,0,1,1.24,3.41c1.93-.57,3.68-1.4,4.39-2.34,0-.38-.12-.75-.18-1.09A17.16,17.16,0,0,0,82.72,84.4Z" transform="translate(-23.48 -30.14)"/><path class="cls-11" d="M79.39,72.93a2.09,2.09,0,0,0-.29,2.47c.88,1.4,3.81,3.06,3.89,5.34a4.09,4.09,0,0,1-2,3.75c-.8.66-1.43.55-1.86,1s.12.92,1.66.18c.74-.36,4.61-1.68,5-4.42C86.29,77.65,81.33,71.23,79.39,72.93Z" transform="translate(-23.48 -30.14)"/><path class="cls-15" d="M83,71.85s-1.26-1.13-.31-2.28C82.66,69.57,83.62,70.82,83,71.85Z" transform="translate(-23.48 -30.14)"/><path class="cls-15" d="M82.39,81.26l-.15-.1c1.61-2.3.53-9.69.52-9.77l.18,0C83,71.67,84,78.91,82.39,81.26Z" transform="translate(-23.48 -30.14)"/><path class="cls-15" d="M83.08,74,83,73.82c.76-.32.9-1.91.91-1.93l.18,0C84.09,72,83.94,73.63,83.08,74Z" transform="translate(-23.48 -30.14)"/><path class="cls-15" d="M83.64,73.41h0l0-.19c.48,0,1.06-.73,1.07-.73l.15.11S84.23,73.44,83.64,73.41Z" transform="translate(-23.48 -30.14)"/><path class="cls-15" d="M83.9,72.34s-.53-1.6.86-2.12C84.76,70.22,85,71.78,83.9,72.34Z" transform="translate(-23.48 -30.14)"/><path class="cls-15" d="M84.47,72.76s.59-1.59,2-1.13C86.47,71.63,85.67,73,84.47,72.76Z" transform="translate(-23.48 -30.14)"/><path class="cls-15" d="M83.16,75.86v-.18c.81,0,1.52-1.46,1.53-1.48l.16.08C84.82,74.35,84.09,75.83,83.16,75.86Z" transform="translate(-23.48 -30.14)"/><path class="cls-15" d="M84.15,75.58a.88.88,0,0,1-.29-.07l.08-.17c.44.23,1.26-.3,1.27-.3l.1.15A2.35,2.35,0,0,1,84.15,75.58Z" transform="translate(-23.48 -30.14)"/><path class="cls-15" d="M84.51,74.62s.08-1.69,1.57-1.68C86.08,72.94,85.72,74.48,84.51,74.62Z" transform="translate(-23.48 -30.14)"/><path class="cls-15" d="M84.9,75.21s1.11-1.27,2.27-.34C87.17,74.87,85.94,75.85,84.9,75.21Z" transform="translate(-23.48 -30.14)"/><path class="cls-15" d="M83.5,77.46a.86.86,0,0,1-.36-.08l.07-.17c.75.34,2-.63,2-.64l.11.14A3.41,3.41,0,0,1,83.5,77.46Z" transform="translate(-23.48 -30.14)"/><path class="cls-15" d="M84.87,77.74a1.29,1.29,0,0,1-1-.37l.15-.11c.29.4,1.26.28,1.27.28l0,.19A4.66,4.66,0,0,1,84.87,77.74Z" transform="translate(-23.48 -30.14)"/><path class="cls-15" d="M84.9,76.86s.81-1.48,2.15-.81C87.05,76.05,86.05,77.27,84.9,76.86Z" transform="translate(-23.48 -30.14)"/><path class="cls-15" d="M85,77.56s1.55-.65,2.18.71C87.17,78.27,85.63,78.6,85,77.56Z" transform="translate(-23.48 -30.14)"/><path class="cls-15" d="M83.11,74.55c-.84-.39-.94-2-.94-2.12h.18s.1,1.62.84,2Z" transform="translate(-23.48 -30.14)"/><path class="cls-15" d="M82.53,74c-.57,0-1.11-.82-1.14-.85l.16-.11s.56.81,1,.77l0,.19Z" transform="translate(-23.48 -30.14)"/><path class="cls-15" d="M82.35,72.87s.58-1.58-.79-2.15C81.56,70.72,81.29,72.27,82.35,72.87Z" transform="translate(-23.48 -30.14)"/><path class="cls-15" d="M81.76,73.27s-.53-1.6-2-1.19C79.8,72.08,80.56,73.46,81.76,73.27Z" transform="translate(-23.48 -30.14)"/><path class="cls-15" d="M83.22,76.27c-.89,0-1.69-1.38-1.73-1.44l.16-.09s.83,1.38,1.65,1.35v.18Z" transform="translate(-23.48 -30.14)"/><path class="cls-15" d="M82.09,76.08a2.82,2.82,0,0,1-1-.3l.09-.17s.86.47,1.28.2l.1.16A.86.86,0,0,1,82.09,76.08Z" transform="translate(-23.48 -30.14)"/><path class="cls-15" d="M81.86,75.14s-.22-1.67-1.7-1.54C80.16,73.6,80.64,75.1,81.86,75.14Z" transform="translate(-23.48 -30.14)"/><path class="cls-15" d="M81.52,75.76s-1.21-1.17-2.29-.15C79.23,75.61,80.54,76.49,81.52,75.76Z" transform="translate(-23.48 -30.14)"/><path class="cls-15" d="M82.85,78.43c-.84-.05-1.73-1.1-1.77-1.15l.14-.12s1,1.24,1.84,1.07l0,.18A1,1,0,0,1,82.85,78.43Z" transform="translate(-23.48 -30.14)"/><path class="cls-15" d="M81.6,78.42a3.37,3.37,0,0,1-.74-.15l.06-.18s.93.32,1.3,0l.12.14A1.09,1.09,0,0,1,81.6,78.42Z" transform="translate(-23.48 -30.14)"/><path class="cls-15" d="M81.49,77.52S81,75.9,79.57,76.26C79.57,76.26,80.28,77.67,81.49,77.52Z" transform="translate(-23.48 -30.14)"/><path class="cls-15" d="M81.25,78.19s-1.37-1-2.28.21C79,78.4,80.4,79.06,81.25,78.19Z" transform="translate(-23.48 -30.14)"/><path class="cls-16" d="M82.71,83.45l.17-.28a11,11,0,0,1-5.07-7.51l-.33,0A11.26,11.26,0,0,0,82.71,83.45Z" transform="translate(-23.48 -30.14)"/><path class="cls-16" d="M77.72,75.93s0-1.9-1-1.71C76.28,74.29,76.14,75.17,77.72,75.93Z" transform="translate(-23.48 -30.14)"/><path class="cls-16" d="M77.87,76.62s-1.23-1.6-1.79-.72C75.85,76.27,76.34,77.09,77.87,76.62Z" transform="translate(-23.48 -30.14)"/><path class="cls-16" d="M77.8,76.79s-.37-1.91.71-1.64C79,75.27,79.26,76.16,77.8,76.79Z" transform="translate(-23.48 -30.14)"/><path class="cls-16" d="M78.42,78.33s-.46-1.91.63-1.69C79.51,76.73,79.84,77.62,78.42,78.33Z" transform="translate(-23.48 -30.14)"/><path class="cls-16" d="M79,79.55s-.46-1.91.63-1.68C80.12,78,80.45,78.84,79,79.55Z" transform="translate(-23.48 -30.14)"/><path class="cls-16" d="M80,80.91s-.77-1.84.31-1.81C80.78,79.11,81.25,79.94,80,80.91Z" transform="translate(-23.48 -30.14)"/><path class="cls-16" d="M80.93,81.9s-.72-1.85.37-1.79C81.76,80.13,82.21,81,80.93,81.9Z" transform="translate(-23.48 -30.14)"/><path class="cls-16" d="M82.31,83s-1.17-1.64-.15-1.89C82.59,81,83.24,81.7,82.31,83Z" transform="translate(-23.48 -30.14)"/><path class="cls-16" d="M78.26,77.93s-1.24-1.6-1.79-.72C76.23,77.58,76.72,78.4,78.26,77.93Z" transform="translate(-23.48 -30.14)"/><path class="cls-16" d="M78.86,79.2s-1.23-1.6-1.79-.72C76.84,78.85,77.33,79.67,78.86,79.2Z" transform="translate(-23.48 -30.14)"/><path class="cls-16" d="M79.63,80.34S78.11,79,77.78,80C77.64,80.47,78.29,81.17,79.63,80.34Z" transform="translate(-23.48 -30.14)"/><path class="cls-16" d="M80.61,81.52s-1.63-1.16-1.84-.11C78.68,81.86,79.38,82.5,80.61,81.52Z" transform="translate(-23.48 -30.14)"/><path class="cls-16" d="M81.75,82.53s-1.74-.92-1.81.17C79.92,83.17,80.7,83.71,81.75,82.53Z" transform="translate(-23.48 -30.14)"/><path class="cls-17" d="M81.9,83.13a15.84,15.84,0,0,0,3.76-10.51l-.23,0A15.57,15.57,0,0,1,81.73,83Z" transform="translate(-23.48 -30.14)"/><rect class="cls-17" x="84.95" y="74.03" width="0.22" height="1.57" transform="translate(-44.18 4.09) rotate(-20.34)"/><polygon class="cls-17" points="61.42 46.95 61.61 46.83 60.77 45.5 60.58 45.62 61.42 46.95"/><rect class="cls-17" x="83.9" y="77.25" width="0.23" height="1.57" transform="translate(-52.1 26.45) rotate(-32.11)"/><polygon class="cls-17" points="60.16 50.08 60.35 49.96 59.51 48.63 59.32 48.75 60.16 50.08"/><rect class="cls-17" x="82.41" y="80.17" width="0.23" height="1.57" transform="translate(-53.98 26.52) rotate(-32.32)"/><rect class="cls-17" x="85.05" y="74.41" width="1.57" height="0.23" transform="translate(-47.43 73.81) rotate(-55.97)"/><rect class="cls-17" x="84.85" y="76.09" width="1.57" height="0.23" transform="translate(-52.28 52.69) rotate(-44.98)"/><polygon class="cls-17" points="61.04 48.53 62.41 47.74 62.29 47.54 60.93 48.33 61.04 48.53"/><rect class="cls-17" x="83.54" y="79.93" width="1.58" height="0.23" transform="translate(-50.72 17.19) rotate(-27.17)"/><polygon class="cls-17" points="59.01 52.15 60.47 51.56 60.39 51.35 58.93 51.94 59.01 52.15"/><path class="cls-17" d="M85.11,72.24a.54.54,0,0,0,.32.7.55.55,0,0,0,.39-1A.55.55,0,0,0,85.11,72.24Z" transform="translate(-23.48 -30.14)"/><path class="cls-17" d="M84.05,73.66a.56.56,0,0,0,.37.69.55.55,0,0,0,.32-1A.55.55,0,0,0,84.05,73.66Z" transform="translate(-23.48 -30.14)"/><path class="cls-17" d="M83.52,75.16a.54.54,0,0,0,.12.76.55.55,0,1,0,.64-.89A.54.54,0,0,0,83.52,75.16Z" transform="translate(-23.48 -30.14)"/><path class="cls-17" d="M83,76.82a.55.55,0,1,0,.77-.13A.55.55,0,0,0,83,76.82Z" transform="translate(-23.48 -30.14)"/><path class="cls-17" d="M82.26,78.28a.54.54,0,1,0,.76-.12A.54.54,0,0,0,82.26,78.28Z" transform="translate(-23.48 -30.14)"/><path class="cls-17" d="M81.47,79.74a.56.56,0,0,0,.12.77.55.55,0,1,0-.12-.77Z" transform="translate(-23.48 -30.14)"/><path class="cls-17" d="M87.09,73.64a.56.56,0,0,1-.52.58.55.55,0,0,1-.06-1.1A.56.56,0,0,1,87.09,73.64Z" transform="translate(-23.48 -30.14)"/><path class="cls-17" d="M87,75.58a.56.56,0,0,1-.62.47.55.55,0,0,1-.47-.62.55.55,0,0,1,1.09.15Z" transform="translate(-23.48 -30.14)"/><path class="cls-17" d="M86.65,77.94a.54.54,0,0,1-.71.29.56.56,0,0,1-.3-.72.55.55,0,0,1,1,.43Z" transform="translate(-23.48 -30.14)"/><path class="cls-17" d="M85.84,79.88a.55.55,0,1,1-1-.48.55.55,0,0,1,.73-.25A.54.54,0,0,1,85.84,79.88Z" transform="translate(-23.48 -30.14)"/><path class="cls-17" d="M84.7,81.86a.54.54,0,1,1-.93-.56.55.55,0,0,1,.75-.19A.54.54,0,0,1,84.7,81.86Z" transform="translate(-23.48 -30.14)"/><path class="cls-18" d="M82.18,82.87l.29.1a11,11,0,0,0,.31-3.32,7.75,7.75,0,0,0-2.92-5.85l-.18.2C83.78,77.19,82.2,82.82,82.18,82.87Z" transform="translate(-23.48 -30.14)"/><path class="cls-18" d="M80,74.11A2.23,2.23,0,0,0,78.08,72,2.81,2.81,0,0,0,80,74.11Z" transform="translate(-23.48 -30.14)"/><path class="cls-18" d="M81.13,75.3a2.2,2.2,0,0,0,0-3.3S80.2,72.72,81.13,75.3Z" transform="translate(-23.48 -30.14)"/><path class="cls-18" d="M81.17,75.25a2.75,2.75,0,0,1-3.49-.93S78.7,73.72,81.17,75.25Z" transform="translate(-23.48 -30.14)"/><path class="cls-18" d="M82.14,77.11a2.18,2.18,0,0,0,.36-3.26S81.5,74.47,82.14,77.11Z" transform="translate(-23.48 -30.14)"/><path class="cls-18" d="M82.19,77.06a2.78,2.78,0,0,1-3.4-1.25S79.88,75.32,82.19,77.06Z" transform="translate(-23.48 -30.14)"/><path class="cls-18" d="M82.63,79.34a2.15,2.15,0,0,0,1-3.11S82.47,76.68,82.63,79.34Z" transform="translate(-23.48 -30.14)"/><path class="cls-18" d="M82.69,79.3a2.8,2.8,0,0,1-3.17-1.76S80.7,77.23,82.69,79.3Z" transform="translate(-23.48 -30.14)"/><path class="cls-18" d="M82.59,81.32a2.18,2.18,0,0,0,1.82-2.7S83.18,78.77,82.59,81.32Z" transform="translate(-23.48 -30.14)"/><path class="cls-18" d="M82.66,81.3A2.76,2.76,0,0,1,80,78.87S81.27,78.86,82.66,81.3Z" transform="translate(-23.48 -30.14)"/><path class="cls-19" d="M82.69,82.44s-1.35-2.68,0-2.48.77-1.3,0-1.91-.89-2.51.32-2.12-.22-3,.47-2.42a2.29,2.29,0,0,1,.74,2.81c-.58,1.13.88.93,1.15.27s.75,1.74-.79,2.18-.07,1.59.5,1.18.48,1-.61,1.41-1.27,1-1,1.65S82.69,82.44,82.69,82.44Z" transform="translate(-23.48 -30.14)"/><path class="cls-20" d="M82.28,82.42l0,.29a10.38,10.38,0,0,1-3.18-1,7.79,7.79,0,0,1-4.25-4.95l.26-.09C76.42,81.66,82.22,82.41,82.28,82.42Z" transform="translate(-23.48 -30.14)"/><path class="cls-20" d="M75.05,77a2.21,2.21,0,0,1-1.21-2.59A2.8,2.8,0,0,1,75.05,77Z" transform="translate(-23.48 -30.14)"/><path class="cls-20" d="M75.72,78.5a2.21,2.21,0,0,1-3-1.29S73.7,76.65,75.72,78.5Z" transform="translate(-23.48 -30.14)"/><path class="cls-20" d="M75.65,78.52a2.69,2.69,0,0,0,.5-3.54S75.2,75.67,75.65,78.52Z" transform="translate(-23.48 -30.14)"/><path class="cls-20" d="M77,80.13a2.19,2.19,0,0,1-3.15-.93S74.8,78.52,77,80.13Z" transform="translate(-23.48 -30.14)"/><path class="cls-20" d="M76.92,80.16a2.74,2.74,0,0,0,.17-3.59S76.21,77.37,76.92,80.16Z" transform="translate(-23.48 -30.14)"/><path class="cls-20" d="M78.85,81.45a2.17,2.17,0,0,1-3.24-.33S76.45,80.27,78.85,81.45Z" transform="translate(-23.48 -30.14)"/><path class="cls-20" d="M78.79,81.49a2.76,2.76,0,0,0-.39-3.58S77.66,78.86,78.79,81.49Z" transform="translate(-23.48 -30.14)"/><path class="cls-20" d="M80.69,82.18a2.18,2.18,0,0,1-3.2.61S78.11,81.73,80.69,82.18Z" transform="translate(-23.48 -30.14)"/><path class="cls-20" d="M80.64,82.24a2.74,2.74,0,0,0-1.21-3.36S78.94,80,80.64,82.24Z" transform="translate(-23.48 -30.14)"/><path class="cls-11" d="M71.72,78a2,2,0,0,1,2.37.06c1.2,1,2.39,4.1,4.52,4.49a3.81,3.81,0,0,0,3.79-1.44c.72-.69.69-1.31,1.15-1.66s.85.24,0,1.62c-.43.67-2.17,4.21-4.79,4.22C75.28,85.27,69.88,79.6,71.72,78Z" transform="translate(-23.48 -30.14)"/></svg>