<svg id="Layer_1" data-name="Layer 1" xmlns="http://www.w3.org/2000/svg" viewBox="0 0 96.81 93.16"><defs><style>.cls-1{fill:#ffbd36;}.cls-2{fill:#fba571;}.cls-3{fill:#0a3c33;}.cls-4{fill:#114839;}.cls-5{fill:#614dd3;}.cls-6{fill:#fca09f;}.cls-7{fill:#1e1341;}.cls-8{fill:#ffc001;}.cls-9{fill:#f33d25;}.cls-10{fill:#fff;}.cls-11{fill:#9bc2e0;}.cls-12{fill:#fc593a;}.cls-13{fill:#7fb1cd;}.cls-14{fill:#a5cde6;}.cls-15{fill:#c6e5f4;}.cls-16{fill:#ee9d7f;}.cls-17{fill:#2e87cd;}.cls-18{fill:#7bb1cc;}.cls-19{fill:#9acfe5;}.cls-20{fill:#e67052;}.cls-21{fill:#fcc922;}.cls-22{fill:#ea9d15;}.cls-23{fill:#e0623f;}.cls-24{fill:#f27851;}.cls-25{fill:#051536;}</style></defs><path class="cls-1" d="M334.89,83.54s13.19,13.67,3.05,26.48C337.94,110,324.44,100,334.89,83.54Z" transform="translate(-272.41 -34.61)"/><path class="cls-1" d="M337.94,110s-4.46-19.13-3.05-26.48C334.89,83.54,323.18,99.21,337.94,110Z" transform="translate(-272.41 -34.61)"/><path class="cls-2" d="M345.68,110.42l3.85,2.35c3.63-2.36,6.12-6.65,7.73-10.48l-1.39-4,2.17,2a43.1,43.1,0,0,0,1.7-5.85,19.9,19.9,0,0,0-11-.55l.85,3.15-3-2.39c-9.45,4.22-11.08,17.25-11.08,17.25,4.63,2.83,8.47,3.16,11.61,2.07Z" transform="translate(-272.41 -34.61)"/><path class="cls-3" d="M362.27,101.63s.06-4.75,4.26-4.86C366.53,96.77,365.66,101.13,362.27,101.63Z" transform="translate(-272.41 -34.61)"/><path class="cls-3" d="M341.21,117.87l0-.51c7.85-.86,21.55-16.84,21.69-17l.39.34C362.68,101.36,349.27,117,341.21,117.87Z" transform="translate(-272.41 -34.61)"/><path class="cls-3" d="M357.93,105.86l.23-.47c2.08,1,5.73-1.62,5.76-1.65l.31.42C364.07,104.28,360.29,107,357.93,105.86Z" transform="translate(-272.41 -34.61)"/><path class="cls-3" d="M360.2,106l-.06-.08.42-.3c.8,1.12,3.53.91,3.55.91l.05.52C364,107,361.22,107.27,360.2,106Z" transform="translate(-272.41 -34.61)"/><path class="cls-3" d="M362.94,104.54s2.42-4.09,6.11-2.11C369.05,102.43,366.14,105.79,362.94,104.54Z" transform="translate(-272.41 -34.61)"/><path class="cls-3" d="M363.13,106.53s4.44-1.7,6.09,2.16C369.22,108.69,364.85,109.49,363.13,106.53Z" transform="translate(-272.41 -34.61)"/><path class="cls-3" d="M354.1,109.5l.38-.35c1.57,1.68,5.93.52,6,.51l.14.5C360.4,110.21,355.89,111.41,354.1,109.5Z" transform="translate(-272.41 -34.61)"/><path class="cls-3" d="M356.53,111.07a1.88,1.88,0,0,1-.38-.76l.5-.12c.33,1.35,3,2.11,3,2.12l-.14.5A6.68,6.68,0,0,1,356.53,111.07Z" transform="translate(-272.41 -34.61)"/><path class="cls-3" d="M359.25,110.06s3.71-3,6.46.21C365.71,110.27,361.79,112.36,359.25,110.06Z" transform="translate(-272.41 -34.61)"/><path class="cls-3" d="M358.71,112s4.76,0,4.93,4.19C363.64,116.17,359.26,115.36,358.71,112Z" transform="translate(-272.41 -34.61)"/><path class="cls-3" d="M351.33,113.19a3.11,3.11,0,0,1-.5-.93l.5-.15c.67,2.21,5.09,3.09,5.13,3.1l-.1.51C356.19,115.69,352.74,115,351.33,113.19Z" transform="translate(-272.41 -34.61)"/><path class="cls-3" d="M353.29,116.6a3.59,3.59,0,0,1-1-2.7l.51.11c-.3,1.36,1.72,3.2,1.74,3.22l-.34.39A9,9,0,0,1,353.29,116.6Z" transform="translate(-272.41 -34.61)"/><path class="cls-3" d="M355.21,115s4.64-1,5.7,3C360.91,118.09,356.46,118.23,355.21,115Z" transform="translate(-272.41 -34.61)"/><path class="cls-3" d="M353.88,116.52s4.26,2.11,2.56,5.94C356.44,122.46,352.87,119.8,353.88,116.52Z" transform="translate(-272.41 -34.61)"/><path class="cls-3" d="M356.8,107c-.74-2.51,2.59-5.78,2.73-5.92l.36.37s-3.24,3.19-2.59,5.4Z" transform="translate(-272.41 -34.61)"/><path class="cls-3" d="M357,104.6c-1-1.26-.32-3.87-.29-4l.5.13s-.69,2.68.3,3.65l-.36.37Z" transform="translate(-272.41 -34.61)"/><path class="cls-3" d="M358.94,102.24s4.44-1.7,3.1-5.68C362,96.56,358.25,98.88,358.94,102.24Z" transform="translate(-272.41 -34.61)"/><path class="cls-3" d="M357,101.72s2.42-4.1-1.1-6.37C355.91,95.35,354.38,99.52,357,101.72Z" transform="translate(-272.41 -34.61)"/><path class="cls-3" d="M353.34,110.37c-1.55-2-.21-6.14-.15-6.32l.5.17s-1.4,4.32.19,6l-.37.36C353.45,110.5,353.39,110.44,353.34,110.37Z" transform="translate(-272.41 -34.61)"/><path class="cls-3" d="M351.66,107.62a7.55,7.55,0,0,1-1.17-2.62l.51-.12s.62,2.7,2,3.1l-.15.5A2.36,2.36,0,0,1,351.66,107.62Z" transform="translate(-272.41 -34.61)"/><path class="cls-3" d="M353.22,105.4s3.16-3.56.13-6.47C353.35,98.93,351.05,102.74,353.22,105.4Z" transform="translate(-272.41 -34.61)"/><path class="cls-3" d="M351.28,105.83s.24-4.75-3.93-5.14C347.35,100.69,347.93,105.1,351.28,105.83Z" transform="translate(-272.41 -34.61)"/><path class="cls-3" d="M348.08,113.6c-1.46-1.88-.86-5.72-.83-5.9l.51.09s-.71,4.49,1.13,5.89l-.31.41A2.9,2.9,0,0,1,348.08,113.6Z" transform="translate(-272.41 -34.61)"/><path class="cls-3" d="M345.79,110.91a8.66,8.66,0,0,1-1.07-1.85l.49-.19s1,2.56,2.41,2.75l-.07.51A2.88,2.88,0,0,1,345.79,110.91Z" transform="translate(-272.41 -34.61)"/><path class="cls-3" d="M347.48,109s2.56-4-.88-6.41C346.6,102.62,344.93,106.74,347.48,109Z" transform="translate(-272.41 -34.61)"/><path class="cls-3" d="M345.63,109.76s-.5-4.73-4.68-4.46C341,105.3,342.21,109.56,345.63,109.76Z" transform="translate(-272.41 -34.61)"/><path class="cls-4" d="M324.46,114.26l.87-.48A32.55,32.55,0,0,1,323.46,87l-.91-.4A33.64,33.64,0,0,0,324.46,114.26Z" transform="translate(-272.41 -34.61)"/><path class="cls-4" d="M322.84,87.51s2.93-4.82,0-5.9C321.57,81.15,319.91,83.19,322.84,87.51Z" transform="translate(-272.41 -34.61)"/><path class="cls-4" d="M322.2,89.5s-.79-5.94-3.53-4.52C317.51,85.59,317.56,88.42,322.2,89.5Z" transform="translate(-272.41 -34.61)"/><path class="cls-4" d="M321.75,89.83s1.9-5.47,4.27-3.16C327,87.65,326.44,90.37,321.75,89.83Z" transform="translate(-272.41 -34.61)"/><path class="cls-4" d="M321.07,94.71s1.66-5.59,4.12-3.41C326.24,92.23,325.78,95,321.07,94.71Z" transform="translate(-272.41 -34.61)"/><path class="cls-4" d="M320.8,98.75s1.68-5.58,4.13-3.39C326,96.29,325.51,99.05,320.8,98.75Z" transform="translate(-272.41 -34.61)"/><path class="cls-4" d="M321.29,103.71s.76-5.87,3.5-4.19C326,100.23,325.93,103.06,321.29,103.71Z" transform="translate(-272.41 -34.61)"/><path class="cls-4" d="M322.21,107.64s.91-5.84,3.61-4.08C327,104.32,326.87,107.14,322.21,107.64Z" transform="translate(-272.41 -34.61)"/><path class="cls-4" d="M324.13,112.49s-.56-6,2.43-5.1C327.83,107.77,328.43,110.55,324.13,112.49Z" transform="translate(-272.41 -34.61)"/><path class="cls-4" d="M321.23,93.44s-.79-5.94-3.52-4.52C316.54,89.53,316.59,92.36,321.23,93.44Z" transform="translate(-272.41 -34.61)"/><path class="cls-4" d="M320.91,97.61s-.8-6-3.53-4.53C316.22,93.69,316.26,96.52,320.91,97.61Z" transform="translate(-272.41 -34.61)"/><path class="cls-4" d="M321.18,101.69s-2-5.64-4.3-3.53C315.88,99.05,316.49,101.83,321.18,101.69Z" transform="translate(-272.41 -34.61)"/><path class="cls-4" d="M322,106.18s-2.47-5.41-4.59-3C316.46,104.18,317.31,106.87,322,106.18Z" transform="translate(-272.41 -34.61)"/><path class="cls-4" d="M323.36,110.48s-3.1-5-4.89-2.26C317.71,109.38,318.9,111.93,323.36,110.48Z" transform="translate(-272.41 -34.61)"/><path class="cls-5" d="M299,112.33l.49-.8A30.88,30.88,0,0,1,285.2,90.4l-.94.1A31.91,31.91,0,0,0,299,112.33Z" transform="translate(-272.41 -34.61)"/><path class="cls-5" d="M285,91.15s.11-5.35-2.83-4.83C280.89,86.53,280.5,89,285,91.15Z" transform="translate(-272.41 -34.61)"/><path class="cls-5" d="M285.37,93.09s-3.47-4.5-5-2C279.67,92.1,281.05,94.41,285.37,93.09Z" transform="translate(-272.41 -34.61)"/><path class="cls-5" d="M285.16,93.58s-1-5.4,2-4.63C288.45,89.27,289.27,91.79,285.16,93.58Z" transform="translate(-272.41 -34.61)"/><path class="cls-5" d="M286.93,97.9s-1.3-5.38,1.76-4.75C290,93.41,290.92,95.9,286.93,97.9Z" transform="translate(-272.41 -34.61)"/><path class="cls-5" d="M288.62,101.34S287.35,96,290.4,96.6C291.7,96.86,292.62,99.35,288.62,101.34Z" transform="translate(-272.41 -34.61)"/><path class="cls-5" d="M291.38,105.18s-2.17-5.18.88-5.1C293.56,100.11,294.88,102.44,291.38,105.18Z" transform="translate(-272.41 -34.61)"/><path class="cls-5" d="M294,108s-2-5.22,1-5.06C296.32,103,297.58,105.35,294,108Z" transform="translate(-272.41 -34.61)"/><path class="cls-5" d="M297.88,111s-3.29-4.63-.43-5.34C298.67,105.41,300.49,107.4,297.88,111Z" transform="translate(-272.41 -34.61)"/><path class="cls-5" d="M286.46,96.78s-3.49-4.5-5-2C280.74,95.8,282.13,98.1,286.46,96.78Z" transform="translate(-272.41 -34.61)"/><path class="cls-5" d="M288.16,100.36s-3.47-4.51-5-2C282.46,99.37,283.84,101.67,288.16,100.36Z" transform="translate(-272.41 -34.61)"/><path class="cls-5" d="M290.33,103.58s-4.29-3.7-5.21-.86C284.72,103.93,286.54,105.92,290.33,103.58Z" transform="translate(-272.41 -34.61)"/><path class="cls-5" d="M293.09,106.9s-4.59-3.27-5.2-.3C287.63,107.86,289.62,109.67,293.09,106.9Z" transform="translate(-272.41 -34.61)"/><path class="cls-5" d="M296.3,109.75s-4.92-2.61-5.09.48C291.14,111.54,293.32,113.07,296.3,109.75Z" transform="translate(-272.41 -34.61)"/><path class="cls-6" d="M335.16,114.59c1.38-18.83-8.1-30.24-8.2-30.36l-.48.42c.09.11,9.41,11.34,8,29.89Z" transform="translate(-272.41 -34.61)"/><polygon class="cls-6" points="58.32 57.2 58.68 56.67 55.06 54.13 54.69 54.65 58.32 57.2"/><polygon class="cls-6" points="59.97 61.21 60.23 60.62 56.15 58.88 55.9 59.47 59.97 61.21"/><polygon class="cls-6" points="61.36 65.95 61.61 65.36 57.53 63.62 57.28 64.21 61.36 65.95"/><rect class="cls-6" x="332.25" y="101.69" width="0.64" height="4.43" transform="translate(-166.41 334) rotate(-66.79)"/><rect class="cls-6" x="332.78" y="106.35" width="0.64" height="4.43" transform="translate(-169 338.49) rotate(-67.08)"/><polygon class="cls-6" points="58.35 55.94 58.29 51.51 57.66 51.52 57.71 55.95 58.35 55.94"/><rect class="cls-6" x="330.46" y="92.23" width="4.44" height="0.64" transform="translate(-90 368.84) rotate(-79.75)"/><rect class="cls-6" x="332.48" y="97.59" width="4.43" height="0.64" transform="translate(-168.42 324.8) rotate(-64.88)"/><polygon class="cls-6" points="62.63 71.05 64.72 67.13 64.15 66.83 62.07 70.75 62.63 71.05"/><rect class="cls-6" x="333.89" y="109.35" width="4.43" height="0.64" transform="translate(-212.46 295.81) rotate(-56.71)"/><path class="cls-6" d="M325.08,84.22a1.54,1.54,0,1,0,3-.76,1.54,1.54,0,1,0-3,.76Z" transform="translate(-272.41 -34.61)"/><path class="cls-6" d="M324.92,89.22a1.56,1.56,0,0,0,1.95,1,1.54,1.54,0,1,0-1.95-1Z" transform="translate(-272.41 -34.61)"/><path class="cls-6" d="M326.08,93.53A1.54,1.54,0,1,0,327.64,92,1.53,1.53,0,0,0,326.08,93.53Z" transform="translate(-272.41 -34.61)"/><path class="cls-6" d="M327.46,98.27A1.55,1.55,0,1,0,329,96.76,1.54,1.54,0,0,0,327.46,98.27Z" transform="translate(-272.41 -34.61)"/><path class="cls-6" d="M328.17,102.79a1.55,1.55,0,1,0,1.58-1.52A1.55,1.55,0,0,0,328.17,102.79Z" transform="translate(-272.41 -34.61)"/><path class="cls-6" d="M328.7,107.44a1.55,1.55,0,1,0,1.58-1.51A1.55,1.55,0,0,0,328.7,107.44Z" transform="translate(-272.41 -34.61)"/><path class="cls-6" d="M331.91,84.3a1.54,1.54,0,0,1-2.45,1.88,1.54,1.54,0,0,1,2.45-1.88Z" transform="translate(-272.41 -34.61)"/><path class="cls-6" d="M334.91,88.87a1.54,1.54,0,1,1-2.07-.69A1.55,1.55,0,0,1,334.91,88.87Z" transform="translate(-272.41 -34.61)"/><path class="cls-6" d="M337.8,94.93a1.54,1.54,0,1,1-1.82-1.2A1.53,1.53,0,0,1,337.8,94.93Z" transform="translate(-272.41 -34.61)"/><path class="cls-6" d="M339.05,100.72a1.54,1.54,0,1,1-3.05.48,1.54,1.54,0,0,1,3.05-.48Z" transform="translate(-272.41 -34.61)"/><path class="cls-6" d="M339.6,107.15a1.55,1.55,0,0,1-1.45,1.64,1.54,1.54,0,0,1-.19-3.08A1.55,1.55,0,0,1,339.6,107.15Z" transform="translate(-272.41 -34.61)"/><path class="cls-7" d="M311.13,113.06l.81.26a30,30,0,0,0,.88-9.35c-.42-6.92-3.26-12.62-8.23-16.49l-.5.58C315.63,97,311.18,112.9,311.13,113.06Z" transform="translate(-272.41 -34.61)"/><path class="cls-7" d="M305,88.36s.13-4.77-5.45-6C299.58,82.37,300.43,87.17,305,88.36Z" transform="translate(-272.41 -34.61)"/><path class="cls-7" d="M308.17,91.73s4.68-3.9,0-9.31C308.15,82.42,305.56,84.45,308.17,91.73Z" transform="translate(-272.41 -34.61)"/><path class="cls-7" d="M308.29,91.58s-5.43,3-9.83-2.61C298.46,89,301.32,87.27,308.29,91.58Z" transform="translate(-272.41 -34.61)"/><path class="cls-7" d="M311,96.82s5.14-3.4,1-9.18C312,87.64,309.22,89.39,311,96.82Z" transform="translate(-272.41 -34.61)"/><path class="cls-7" d="M311.16,96.68a7.82,7.82,0,0,1-9.57-3.52S304.65,91.77,311.16,96.68Z" transform="translate(-272.41 -34.61)"/><path class="cls-7" d="M312.39,103.1s5.76-2.48,2.72-8.75C315.11,94.35,312,95.59,312.39,103.1Z" transform="translate(-272.41 -34.61)"/><path class="cls-7" d="M312.56,103A7.89,7.89,0,0,1,303.63,98S307,97.17,312.56,103Z" transform="translate(-272.41 -34.61)"/><path class="cls-7" d="M312.28,108.68s6.38-.94,5.13-7.6C317.41,101.08,314,101.49,312.28,108.68Z" transform="translate(-272.41 -34.61)"/><path class="cls-7" d="M312.47,108.61s-6.55-.16-7.42-6.84C305.05,101.77,308.57,101.76,312.47,108.61Z" transform="translate(-272.41 -34.61)"/><path class="cls-8" d="M296,111.12s-3.8-7.54,0-7,2.17-3.65,0-5.39-2.51-7.07.9-6-.62-8.37,1.34-6.82,3.7,4.73,2.07,7.92,2.49,2.63,3.25.77,2.12,4.9-2.22,6.14-.2,4.49,1.41,3.31,1.36,2.8-1.72,4-3.6,2.93-2.91,4.64S296,111.12,296,111.12Z" transform="translate(-272.41 -34.61)"/><polygon class="cls-9" points="46.57 77.43 39.84 77.43 42.08 23.55 44.89 23.55 46.57 77.43"/><path class="cls-9" d="M318.5,58.81a2.76,2.76,0,1,1-2.76-2.76A2.75,2.75,0,0,1,318.5,58.81Z" transform="translate(-272.41 -34.61)"/><path class="cls-10" d="M317.46,58.81a1.66,1.66,0,1,1-1.66-1.66A1.66,1.66,0,0,1,317.46,58.81Z" transform="translate(-272.41 -34.61)"/><path class="cls-9" d="M315.19,56.65l-1.6-22s3.09,1,3.32,6.81a118.12,118.12,0,0,1-1,15.32Z" transform="translate(-272.41 -34.61)"/><path class="cls-11" d="M317.91,59.61l19.28,10.81s-2.54,2-7.51-1a116.66,116.66,0,0,1-12.22-9.3Z" transform="translate(-272.41 -34.61)"/><path class="cls-9" d="M317.91,59.61l19.28,10.81s-3,2.4-7.93-.61-11.8-9.68-11.8-9.68Z" transform="translate(-272.41 -34.61)"/><path class="cls-9" d="M313.9,59.61l-17,14.44s-1.6-3.71,3.06-7.19,13.64-8,13.64-8Z" transform="translate(-272.41 -34.61)"/><polygon class="cls-12" points="65.05 82.62 59.49 81.2 72.67 37.21 74.99 37.8 65.05 82.62"/><path class="cls-12" d="M348.25,73.2a2.35,2.35,0,1,1-1.7-2.86A2.35,2.35,0,0,1,348.25,73.2Z" transform="translate(-272.41 -34.61)"/><path class="cls-10" d="M347.39,73a1.41,1.41,0,1,1-1-1.72A1.41,1.41,0,0,1,347.39,73Z" transform="translate(-272.41 -34.61)"/><path class="cls-12" d="M346,70.72l3.32-18.53s2.34,1.48,1.3,6.32a99.66,99.66,0,0,1-4.07,12.43Z" transform="translate(-272.41 -34.61)"/><path class="cls-11" d="M347.6,73.73l13.64,13s-2.53,1.14-6-2.39a100.63,100.63,0,0,1-8.12-10.25Z" transform="translate(-272.41 -34.61)"/><path class="cls-12" d="M347.6,73.73l13.64,13s-2.95,1.36-6.42-2.17-7.7-10.47-7.7-10.47Z" transform="translate(-272.41 -34.61)"/><path class="cls-12" d="M344.29,72.89l-17.07,8.34s-.55-3.39,4-5.29a102.7,102.7,0,0,1,12.95-3.77Z" transform="translate(-272.41 -34.61)"/><polygon class="cls-12" points="29.71 83.2 24.23 84.91 12.38 40.53 14.66 39.82 29.71 83.2"/><path class="cls-12" d="M288.22,74.65a2.35,2.35,0,1,1-3-1.54A2.36,2.36,0,0,1,288.22,74.65Z" transform="translate(-272.41 -34.61)"/><path class="cls-10" d="M287.37,74.92A1.41,1.41,0,1,1,285.6,74,1.42,1.42,0,0,1,287.37,74.92Z" transform="translate(-272.41 -34.61)"/><path class="cls-12" d="M285,73.74l-6.89-17.52s2.77,0,4.43,4.7a99.28,99.28,0,0,1,3,12.72Z" transform="translate(-272.41 -34.61)"/><path class="cls-11" d="M287.94,75.45l18.42,3.9s-1.55,2.29-6.36,1.1A98.75,98.75,0,0,1,287.71,76Z" transform="translate(-272.41 -34.61)"/><path class="cls-12" d="M287.94,75.45l18.42,3.9s-1.8,2.7-6.6,1.51S287.71,76,287.71,76Z" transform="translate(-272.41 -34.61)"/><path class="cls-12" d="M284.68,76.47l-10.16,16s-2.24-2.6.66-6.62a103.89,103.89,0,0,1,9.05-10Z" transform="translate(-272.41 -34.61)"/><path class="cls-13" d="M364.43,124.69c0,1.56-7.74,3.08-42.24,3.08s-48.62-1.22-48.62-2.78,14.12-2.85,48.62-2.85S364.43,123.13,364.43,124.69Z" transform="translate(-272.41 -34.61)"/><path class="cls-12" d="M302.29,114.76l.14.83a30.42,30.42,0,0,1-9.39-.49c-6.78-1.41-12-5-15.11-10.47l.64-.41C285.78,116.86,302.12,114.78,302.29,114.76Z" transform="translate(-272.41 -34.61)"/><path class="cls-12" d="M278.74,105.19s-4.74-.57-5.13-6.21C273.61,99,278.23,100.5,278.74,105.19Z" transform="translate(-272.41 -34.61)"/><path class="cls-12" d="M281.62,108.76s-4.55,4-9.21-1.36C272.41,107.4,274.79,105.15,281.62,108.76Z" transform="translate(-272.41 -34.61)"/><path class="cls-12" d="M281.45,108.86s3.75-4.9-1.15-10C280.3,98.83,278.2,101.39,281.45,108.86Z" transform="translate(-272.41 -34.61)"/><path class="cls-12" d="M286.24,112.3s-4.12,4.55-9.24-.32C277,112,279.14,109.46,286.24,112.3Z" transform="translate(-272.41 -34.61)"/><path class="cls-12" d="M286.07,112.42a7.71,7.71,0,0,0-2.08-9.91S282.16,105.31,286.07,112.42Z" transform="translate(-272.41 -34.61)"/><path class="cls-12" d="M292.25,114.56s-3.3,5.29-9.05,1.4C283.2,116,284.88,113.05,292.25,114.56Z" transform="translate(-272.41 -34.61)"/><path class="cls-12" d="M292.11,114.7a7.79,7.79,0,0,0-3.59-9.48S287.18,108.36,292.11,114.7Z" transform="translate(-272.41 -34.61)"/><path class="cls-12" d="M297.78,115.25s-1.86,6.13-8.27,3.94C289.51,119.19,290.42,115.86,297.78,115.25Z" transform="translate(-272.41 -34.61)"/><path class="cls-12" d="M297.69,115.43s.8-6.45-5.68-8.27C292,107.16,291.48,110.61,297.69,115.43Z" transform="translate(-272.41 -34.61)"/><path class="cls-3" d="M277.86,123.65s10.33-20.43,38.88-20.84c23.95-.33,36.84,9.28,43.5,21.4C360.24,124.21,308.25,126.19,277.86,123.65Z" transform="translate(-272.41 -34.61)"/><path class="cls-14" d="M277.86,123.65s10.33-20.43,38.88-20.84c23.95-.33,36.84,9.28,43.5,21.4C360.24,124.21,308.25,126.19,277.86,123.65Z" transform="translate(-272.41 -34.61)"/><path class="cls-13" d="M276.45,123.87s6.82-5.07,11-3.42,8.83,3.56,13.33,1.69,10.4-7.81,16.7-6.51,11.27,6.55,18.28,6.51,5.88-.57,10.28-.64,11.37.47,14.38,2.85C360.4,124.35,318.46,128.48,276.45,123.87Z" transform="translate(-272.41 -34.61)"/><path class="cls-13" d="M287.34,123.65c-1.81-.72-4.13-.16-6.17.7,3.43.32,6.85.59,10.23.81C290,124.71,288.65,124.17,287.34,123.65Z" transform="translate(-272.41 -34.61)"/><path class="cls-13" d="M351.61,124.91a54.5,54.5,0,0,0-5.68-.21c-4.4.07-3.26.6-10.28.64s-12-5.21-18.28-6.5-12.2,4.62-16.7,6.5l-.76.28A485,485,0,0,0,351.61,124.91Z" transform="translate(-272.41 -34.61)"/><path class="cls-3" d="M295.31,109.82s-1.89-4.75-6.31-6.59c0,0,4.42.09,7.28,6,0,0-3.66-6.1-1.42-9.5,0,0-1.36,2,1.73,7.92a5.15,5.15,0,0,1,.9-5.88s-1.09,4,.16,6c0,0,1.08-2.45,3.06-3.06,0,0-2.77,3.23-2.27,5.15Z" transform="translate(-272.41 -34.61)"/><path class="cls-3" d="M338.46,109.56s-1.89-4.75-6.3-6.58c0,0,4.41.08,7.27,6,0,0-3.65-6.11-1.42-9.51,0,0-1.35,2,1.74,7.92a5.11,5.11,0,0,1,.9-5.87s-1.1,4,.15,6c0,0,1.09-2.46,3.07-3.07,0,0-2.78,3.23-2.28,5.15Z" transform="translate(-272.41 -34.61)"/><path class="cls-3" d="M323.34,106.51s-1.9-4.75-6.31-6.59c0,0,4.42.09,7.27,6,0,0-3.65-6.1-1.42-9.5,0,0-1.35,2,1.74,7.92a5.15,5.15,0,0,1,.9-5.88s-1.1,4,.15,6c0,0,1.09-2.45,3.07-3.06,0,0-2.78,3.23-2.28,5.15Z" transform="translate(-272.41 -34.61)"/><path class="cls-15" d="M288.23,115.45a31.9,31.9,0,0,1,14.2-8.77c9-2.49,21.74-3.41,31.59-.36,10.61,3.28,24.27,11.55,16.81,12.13-8.45.65-13.88-2.18-19-1.9-12.79.68-11.9-6.9-18.15-5.25s-10.36,8.16-15.18,8.21S286.12,119.06,288.23,115.45Z" transform="translate(-272.41 -34.61)"/><path class="cls-16" d="M314.44,103c.3,2.29,1.3,5.32,1.25,6.88,0,.24-.05.33-.86.47s-.11.69,1.24.83,1.4-6.46,1.1-9.59C316.92,98.87,314.09,100.36,314.44,103Z" transform="translate(-272.41 -34.61)"/><path class="cls-17" d="M316.73,110.62a2.28,2.28,0,0,1-1.9-.25s-1.35,0-.57.48S316.62,111.83,316.73,110.62Z" transform="translate(-272.41 -34.61)"/><path class="cls-16" d="M306.75,93.73c1.08,2,3.07,4.54,3.57,6,.08.24.07.34-.64.75s.13.68,1.45.35-.94-6.54-2.31-9.38C307.63,89,305.5,91.36,306.75,93.73Z" transform="translate(-272.41 -34.61)"/><path class="cls-17" d="M311.55,100.06s-1.05.77-1.87.43c0,0-1.27.49-.37.65S311.87,101.24,311.55,100.06Z" transform="translate(-272.41 -34.61)"/><path class="cls-18" d="M310.54,86.67s-5.41-2.58-6,.08c-.52,2.39,4,11.06,4,11.06a3.42,3.42,0,0,0,2.76-.71l-1.21-5.55,3.4-.08-.79-3.83Z" transform="translate(-272.41 -34.61)"/><path class="cls-19" d="M317.85,88.09l-.43,20.14-2.39-.06L312,87.38S313.77,88.34,317.85,88.09Z" transform="translate(-272.41 -34.61)"/><path class="cls-20" d="M311.94,81.94a3.08,3.08,0,0,0,2-3.12c0-2.52-1.45-8.32-1.43-9.26.05-1.71,2.64-1.82,1.66-1.91-1.27-.11-2.06-.7-2.36.61a109.44,109.44,0,0,0-1.1,11C310.85,80.76,310.52,81.88,311.94,81.94Z" transform="translate(-272.41 -34.61)"/><path class="cls-21" d="M317.94,89.39h0l0-.19h0c-.15-2.5-.35-4.09.89-6.3,1.77-3.17-.74-4.13-2.26-4.75s-4.15-1.13-5.44,1.48A12.25,12.25,0,0,0,310,86.42C310.37,88.87,318.51,92.19,317.94,89.39Z" transform="translate(-272.41 -34.61)"/><path class="cls-22" d="M316.54,78.15l-.48-.17c.1.39.24.84.36,1.27.42,1.48-.17,2.24-2.69,2.39s0,1.9,1.53,2.39-.77.77-3.11,1.27,3.27,1.76,4.44,2.48c.78.48.38,1.83,0,2.67.9,0,1.47-.25,1.31-1.06l0-.19c-.15-2.5-.35-4.09.89-6.3a4.13,4.13,0,0,0,.6-1.88c-.09-.4-.19-.8-.3-1.18A5.21,5.21,0,0,0,316.54,78.15Z" transform="translate(-272.41 -34.61)"/><path class="cls-23" d="M316.27,83a3.09,3.09,0,0,0,3.66-.64c1.86-1.71,5.62-6.63,5.89-7.53s3.13.18,2.51-.59-.94-1.3-2.11-.63a108,108,0,0,0-8.83,6.7C316.39,81.41,315.35,81.94,316.27,83Z" transform="translate(-272.41 -34.61)"/><path class="cls-20" d="M318.56,77.37s-1.39.33-1.36,1.47-3.73-.45-3.08-.85c.83-.52,1.59-.49,2.17-1.56Z" transform="translate(-272.41 -34.61)"/><path class="cls-24" d="M319.18,74.24c-1.12-.16-4.36,1.29-4.4,2.44,0,.5,1.24,1.49,3,1.32a2.89,2.89,0,0,0,2.48-1.63A1.53,1.53,0,0,0,319.18,74.24Z" transform="translate(-272.41 -34.61)"/><path class="cls-25" d="M318.33,73.84c-.45.13-.49.23.16,1.37s.87,1.25.54,1.34c-.95.26-.23.87-1.37,1.18s0,.74,1,.56a2.4,2.4,0,0,0,1.87-1.49A2,2,0,0,0,318.33,73.84Z" transform="translate(-272.41 -34.61)"/><path class="cls-25" d="M320.57,76.8a2.39,2.39,0,0,1-1.87,1.49c-.74.14-1.6-.06-1.5-.31s.72.28,1.17-.38.89-.36,1.34-.87,0-.82-.71-2.1c-.3-.52-.19-.75,0-.84A2.12,2.12,0,0,1,320.57,76.8Z" transform="translate(-272.41 -34.61)"/></svg>