<svg id="Layer_1" data-name="Layer 1" xmlns="http://www.w3.org/2000/svg" viewBox="0 0 116.54 75.29"><defs><style>.cls-1{fill:#ffbd36;}.cls-2{fill:#614dd3;}.cls-3{fill:#317170;}.cls-4{fill:#fba571;}.cls-5{fill:#1e1341;}.cls-6{fill:#d8d5ca;}.cls-7{fill:#114839;}.cls-8{fill:#3c8480;}.cls-9{fill:#da2222;}.cls-10{fill:#ffc001;}.cls-11{fill:#fec746;}.cls-12{fill:#e8a603;}.cls-13{fill:#a6b900;}.cls-14{fill:#795144;}.cls-15{fill:#311e69;}.cls-16{fill:#231754;}.cls-17{fill:#0a3c33;}.cls-18{fill:#0d5d42;}.cls-19{fill:#5e9a20;}.cls-20{fill:#e3f0d1;}.cls-21{fill:#fc593a;}.cls-22{fill:#f33d25;}.cls-23{fill:#dd2719;}.cls-24{fill:#ee9d7f;}.cls-25{fill:#7bb1cc;}.cls-26{fill:#7585f8;}.cls-27{fill:#9acfe5;}.cls-28{fill:#e0623f;}.cls-29{fill:#051536;}.cls-30{fill:#f79254;}.cls-31{fill:#f27851;}.cls-32{fill:#e67052;}</style></defs><path class="cls-1" d="M268.28,357.77s-11.1-4.78-6.45-7.63-1-6-5-5.87-9.25-5.44-4.5-7.37-8.38-8.61-4.8-8.71S256,330,257.09,335s5.15.59,4.27-2.14,6.84,3.43,3.21,8.77,3.91,5.11,4.59,2.34,4.07,1.81,1.8,5.95-1.26,6.53,1.07,7.77S268.28,357.77,268.28,357.77Z" transform="translate(-246.91 -288.77)"/><path class="cls-2" d="M263.63,326.74s-5-2.11-3.3-6.58C260.33,320.16,264.56,323,263.63,326.74Z" transform="translate(-246.91 -288.77)"/><path class="cls-2" d="M271.7,355.91l-.57-.16c2.48-8.64-8.48-30-8.59-30.17l.53-.27C263.53,326.19,274.24,347.05,271.7,355.91Z" transform="translate(-246.91 -288.77)"/><path class="cls-2" d="M266.22,333.12l-.39-.44c2-1.75.75-6.73.74-6.78l.57-.14C267.19,326,268.44,331.14,266.22,333.12Z" transform="translate(-246.91 -288.77)"/><path class="cls-2" d="M267.31,330.78l-.11,0-.13-.58c1.53-.35,2.48-3.32,2.49-3.35l.56.18C270.08,327.19,269.12,330.27,267.31,330.78Z" transform="translate(-246.91 -288.77)"/><path class="cls-2" d="M267,327.28s-3.28-4.31.4-7.35C267.39,319.93,269.68,324.45,267,327.28Z" transform="translate(-246.91 -288.77)"/><path class="cls-2" d="M269.16,327.93s.13-5.41,4.9-5.49C274.06,322.44,273,327.4,269.16,327.93Z" transform="translate(-246.91 -288.77)"/><path class="cls-2" d="M268.42,338.73l-.21-.55c2.45-.94,3.09-6,3.1-6.08l.59.08C271.87,332.4,271.2,337.67,268.42,338.73Z" transform="translate(-246.91 -288.77)"/><path class="cls-2" d="M271.11,336.84a2.24,2.24,0,0,1-1,.08l.09-.58c1.57.23,3.5-2.22,3.52-2.25l.46.37A7.56,7.56,0,0,1,271.11,336.84Z" transform="translate(-246.91 -288.77)"/><path class="cls-2" d="M271.21,333.54s-1.52-5.19,3-6.72C274.21,326.82,274.74,331.86,271.21,333.54Z" transform="translate(-246.91 -288.77)"/><path class="cls-2" d="M273,334.93s2-5,6.53-3.39C279.54,331.54,276.82,335.81,273,334.93Z" transform="translate(-246.91 -288.77)"/><path class="cls-2" d="M271.11,343.24a3.2,3.2,0,0,1-1.19.12l.06-.59c2.61.24,5.44-4,5.47-4.07l.5.32C275.84,339.18,273.62,342.52,271.11,343.24Z" transform="translate(-246.91 -288.77)"/><path class="cls-2" d="M275.55,342.64a4.07,4.07,0,0,1-3.27-.14l.34-.48c1.3.9,4.12-.44,4.14-.46l.26.53A9.41,9.41,0,0,1,275.55,342.64Z" transform="translate(-246.91 -288.77)"/><path class="cls-2" d="M274.73,340s.93-5.33,5.66-4.71C280.39,335.24,278.63,340,274.73,340Z" transform="translate(-246.91 -288.77)"/><path class="cls-2" d="M275.72,342s4.06-3.58,7.36-.14C283.08,341.84,278.75,344.46,275.72,342Z" transform="translate(-246.91 -288.77)"/><path class="cls-2" d="M266.89,334.79c-3-.31-5-5.22-5.07-5.43l.55-.22c0,.05,2,4.79,4.58,5.06Z" transform="translate(-246.91 -288.77)"/><path class="cls-2" d="M264.49,333.58c-1.76.5-4.21-1.33-4.32-1.41l.36-.47s2.53,1.88,4,1.25l.24.54A1.06,1.06,0,0,1,264.49,333.58Z" transform="translate(-246.91 -288.77)"/><path class="cls-2" d="M262.84,330.51s.12-5.41-4.65-5.72C258.19,324.79,259,329.79,262.84,330.51Z" transform="translate(-246.91 -288.77)"/><path class="cls-2" d="M261.46,332.31s-3.27-4.3-7.19-1.57C254.27,330.74,258,334.15,261.46,332.31Z" transform="translate(-246.91 -288.77)"/><path class="cls-2" d="M269,339.9c-2.75.79-6.55-2.41-6.72-2.55l.38-.45s4,3.33,6.41,2.36l.22.55A1.61,1.61,0,0,1,269,339.9Z" transform="translate(-246.91 -288.77)"/><path class="cls-2" d="M265.39,340.49a8.7,8.7,0,0,1-3.27.11l.09-.58s3.11.5,4.11-.74l.46.37A2.72,2.72,0,0,1,265.39,340.49Z" transform="translate(-246.91 -288.77)"/><path class="cls-2" d="M263.71,337.89S261.31,333,257,335C257,335,260,339,263.71,337.89Z" transform="translate(-246.91 -288.77)"/><path class="cls-2" d="M263.33,340.13s-4.9-2.3-7.1,1.93C256.23,342.06,261.12,343.35,263.33,340.13Z" transform="translate(-246.91 -288.77)"/><path class="cls-2" d="M270.15,346.83c-2.61.75-6.4-1.54-6.58-1.65l.31-.5c.05,0,4.43,2.68,6.7,1.34l.3.51A3.3,3.3,0,0,1,270.15,346.83Z" transform="translate(-246.91 -288.77)"/><path class="cls-2" d="M266.33,348.1a9.39,9.39,0,0,1-2.41.32v-.59s3.15,0,3.95-1.36l.51.29A3.34,3.34,0,0,1,266.33,348.1Z" transform="translate(-246.91 -288.77)"/><path class="cls-2" d="M265.07,345.5s-3.12-4.42-7.13-1.83C257.94,343.67,261.56,347.21,265.07,345.5Z" transform="translate(-246.91 -288.77)"/><path class="cls-2" d="M265,347.77s-5.19-1.51-6.71,3C258.33,350.79,263.37,351.29,265,347.77Z" transform="translate(-246.91 -288.77)"/><path class="cls-3" d="M346,345.07l5.16,1.82c3.71-3.7,5.6-9.41,6.57-14.36L355,328.16l3.07,1.83a52.31,52.31,0,0,0,.57-7.37c-5.59-.48-9.9.41-13.25,2.1l1.8,3.53-4.18-2.08c-10.16,7.36-8.86,23.23-8.86,23.23,6.2,2.19,10.84,1.64,14.29-.44Z" transform="translate(-246.91 -288.77)"/><path class="cls-4" d="M327.37,351.35l-.28,1a35,35,0,0,0,11.09.67c8.16-.77,14.78-4.35,19.15-10.39l-.69-.56C346.48,356,327.55,351.4,327.37,351.35Z" transform="translate(-246.91 -288.77)"/><path class="cls-4" d="M356.31,343.15s5.65,0,6.86-6.67C363.17,336.48,357.54,337.67,356.31,343.15Z" transform="translate(-246.91 -288.77)"/><path class="cls-4" d="M352.46,347s4.8,5.38,11-.39C363.46,346.6,361,343.62,352.46,347Z" transform="translate(-246.91 -288.77)"/><path class="cls-4" d="M352.64,347.13s-3.76-6.3,2.69-11.72C355.33,335.41,357.45,338.72,352.64,347.13Z" transform="translate(-246.91 -288.77)"/><path class="cls-4" d="M346.55,350.57s4.23,5.94,10.9.84C357.45,351.41,355.27,348.15,346.55,350.57Z" transform="translate(-246.91 -288.77)"/><path class="cls-4" d="M346.73,350.73s-3.11-6.73,3.77-11.45C350.5,339.28,352.28,342.84,346.73,350.73Z" transform="translate(-246.91 -288.77)"/><path class="cls-4" d="M339.19,352.44s3.16,6.71,10.45,2.86C349.64,355.3,348,351.63,339.19,352.44Z" transform="translate(-246.91 -288.77)"/><path class="cls-4" d="M339.33,352.64a9.32,9.32,0,0,1,5.49-10.75S346,345.78,339.33,352.64Z" transform="translate(-246.91 -288.77)"/><path class="cls-4" d="M332.59,352.53s1.37,7.5,9.19,5.77C341.78,358.3,341.16,354.23,332.59,352.53Z" transform="translate(-246.91 -288.77)"/><path class="cls-4" d="M332.68,352.76s-.08-7.75,7.78-9C340.46,343.72,340.62,347.87,332.68,352.76Z" transform="translate(-246.91 -288.77)"/><path class="cls-5" d="M337.05,345.56c9.76-16.15,6.47-30.62,6.43-30.77l-.61.15c0,.14,3.25,14.37-6.37,30.3Z" transform="translate(-246.91 -288.77)"/><rect class="cls-5" x="342.33" y="318.92" width="0.64" height="4.43" transform="translate(-357.52 -90.5) rotate(-27.98)"/><polygon class="cls-5" points="96.16 38.79 96.65 38.38 93.81 34.99 93.31 35.39 96.16 38.79"/><polygon class="cls-5" points="95.25 43.65 95.74 43.24 92.89 39.84 92.4 40.25 95.25 43.65"/><rect class="cls-5" x="339.25" y="332.65" width="0.64" height="4.43" transform="translate(-382.63 6.84) rotate(-39.88)"/><polygon class="cls-5" points="92.2 52.39 92.69 51.98 89.85 48.58 89.36 48.99 92.2 52.39"/><polygon class="cls-5" points="97.1 33.36 99.06 29.38 98.48 29.1 96.53 33.08 97.1 33.36"/><polygon class="cls-5" points="96.82 37.98 99.5 34.44 98.99 34.06 96.31 37.59 96.82 37.98"/><rect class="cls-5" x="341.97" y="330.17" width="4.43" height="0.64" transform="translate(-377.39 -7.05) rotate(-37.97)"/><polygon class="cls-5" points="94.07 48.77 97.71 46.22 97.34 45.7 93.71 48.24 94.07 48.77"/><rect class="cls-5" x="337.9" y="341.28" width="4.43" height="0.64" transform="translate(-371.67 -74.71) rotate(-29.78)"/><path class="cls-5" d="M341.81,313.92a1.54,1.54,0,1,0,1.85-1.17A1.55,1.55,0,0,0,341.81,313.92Z" transform="translate(-246.91 -288.77)"/><path class="cls-5" d="M339.41,318.31a1.54,1.54,0,1,0,1.77-1.29A1.54,1.54,0,0,0,339.41,318.31Z" transform="translate(-246.91 -288.77)"/><path class="cls-5" d="M338.48,322.67a1.55,1.55,0,1,0,2.09-.63A1.55,1.55,0,0,0,338.48,322.67Z" transform="translate(-246.91 -288.77)"/><path class="cls-5" d="M337.57,327.53a1.55,1.55,0,1,0,2.09-.64A1.55,1.55,0,0,0,337.57,327.53Z" transform="translate(-246.91 -288.77)"/><path class="cls-5" d="M336.16,331.88a1.55,1.55,0,1,0,2.09-.64A1.56,1.56,0,0,0,336.16,331.88Z" transform="translate(-246.91 -288.77)"/><path class="cls-5" d="M334.53,336.27a1.54,1.54,0,1,0,2.09-.64A1.54,1.54,0,0,0,334.53,336.27Z" transform="translate(-246.91 -288.77)"/><path class="cls-5" d="M347.86,317.08a1.54,1.54,0,1,1-1.8-1.23A1.54,1.54,0,0,1,347.86,317.08Z" transform="translate(-246.91 -288.77)"/><path class="cls-5" d="M348.47,322.52a1.55,1.55,0,1,1-1.54-1.55A1.53,1.53,0,0,1,348.47,322.52Z" transform="translate(-246.91 -288.77)"/><path class="cls-5" d="M348.3,329.23a1.54,1.54,0,1,1-1.08-1.89A1.54,1.54,0,0,1,348.3,329.23Z" transform="translate(-246.91 -288.77)"/><path class="cls-5" d="M346.79,335a1.54,1.54,0,1,1-1-1.94A1.53,1.53,0,0,1,346.79,335Z" transform="translate(-246.91 -288.77)"/><path class="cls-5" d="M344.38,340.94a1.55,1.55,0,1,1-2.84-1.22,1.55,1.55,0,0,1,2.84,1.22Z" transform="translate(-246.91 -288.77)"/><path class="cls-6" d="M351.71,360.08c0,1.75-4,4-42.73,4s-54.6-1.37-54.6-3.11,15.86-3.2,54.6-3.2S351.71,358.34,351.71,360.08Z" transform="translate(-246.91 -288.77)"/><path class="cls-7" d="M293.37,313.47c.39-1.11,1-3,4.06-2.44s9.27-3.21,8.62-9.5,3.12-5.72,1.77-9.87c-1-3-5.58-3.75-7.43-1.82s-6.06.58-6.21,5.62c-.18,6.05-9.31,4.92-4.57,11.83,2.12,3.09,1.39,7.3-1.14,12.55l1.42,1.12S292.91,314.78,293.37,313.47Z" transform="translate(-246.91 -288.77)"/><path class="cls-3" d="M297,315.87c.67-1,1.74-2.62,4.56-1.26s9.79-.62,10.84-6.86,9.8-5.67,6.6-10.33-6.74-.92-9,.44-3.74,0-7.39.87c-5.88,1.42-8.78,6.6-7.56,10.18s-.61,7.41-4.44,11.8l1.06,1.45S296.24,317,297,315.87Z" transform="translate(-246.91 -288.77)"/><path class="cls-8" d="M296.61,320c.9-.75,2.34-2.21,4.69-.15s7.44,5,10.13-.68,11-2.83,9.12-8.18-6.24-2.7-8.82-2-4.15-3.13-7.34-1.15a15.59,15.59,0,0,0-6.39,6.53c-1.91,3.27-1.73,4.69-6.6,7.88l.73,1S295.55,320.91,296.61,320Z" transform="translate(-246.91 -288.77)"/><path class="cls-9" d="M295.47,327.88s1.76-6.61-7.1-9.77c-2.17-.78-6.71-1.46-6.78,6.21s1.15,6-.08,7.67,2.28-1.64,3.69-1.46S294,334.87,295.47,327.88Z" transform="translate(-246.91 -288.77)"/><path class="cls-10" d="M332.52,312.68s1.14-5.9-8.47-5.66-8.37,9-6.84,16.13,4.72,12.34,10.44,12.33C331.78,335.47,333.93,317.15,332.52,312.68Z" transform="translate(-246.91 -288.77)"/><path class="cls-11" d="M321.93,312.68s1.14-5.9-8.47-5.66-8.37,9-6.84,16.13,4.72,12.34,10.44,12.33C321.19,335.47,323.34,317.15,321.93,312.68Z" transform="translate(-246.91 -288.77)"/><path class="cls-12" d="M318.71,316.83s-1-5.94,8.62-5.45,8.13,9.18,6.41,16.32-5,12.2-10.76,12C318.85,339.63,317.19,321.25,318.71,316.83Z" transform="translate(-246.91 -288.77)"/><path class="cls-12" d="M319.08,317.61s1.14-5.91-8.47-5.67-8.37,9-6.83,16.14,5.15,11.67,10.87,11.67C318.78,339.74,320.49,322.07,319.08,317.61Z" transform="translate(-246.91 -288.77)"/><path class="cls-13" d="M314.65,311.36s-2.13,1-.86,1.41.73,1.64,4.36,1.51,7-1.48,5.24-2.34A11.71,11.71,0,0,0,314.65,311.36Z" transform="translate(-246.91 -288.77)"/><path class="cls-10" d="M310.83,318.3s-.82-6,8.79-5.5,9.93,7.48,8.2,14.62S321.91,341.21,318,340,309.3,322.73,310.83,318.3Z" transform="translate(-246.91 -288.77)"/><path class="cls-13" d="M317.61,311.94a12.51,12.51,0,0,1,5.06-8.13s-.07.86,1.19.73-7,5.55-5.24,7.4Z" transform="translate(-246.91 -288.77)"/><path class="cls-14" d="M272.22,307.92s-4.61-4.07-3.19-6.5c0,0,1.07.6,1.52-.18s1,5.41,2.75,5.18Z" transform="translate(-246.91 -288.77)"/><path class="cls-15" d="M271.78,311s3.38-5.59,8-2.36,6.44,7.31,14,8.22,13.36,2.78,15,9.6c1.6,6.5-.59,14.81-15.32,13.13C280.93,338.15,266.81,322.48,271.78,311Z" transform="translate(-246.91 -288.77)"/><path class="cls-16" d="M293.44,339.58c14.63,1.66,16.89-6.51,15.35-13-2.83,4.84-8.81,6.46-12.22,5.49-5.53-1.58-3.72-3.89-1.78-7.39s-4.37-3-11.36-1.84-9.58-12.07-9.58-12.07a8.18,8.18,0,0,1-2.2.56C267.09,322.79,281.05,338.16,293.44,339.58Z" transform="translate(-246.91 -288.77)"/><path class="cls-17" d="M273.77,305.56c-1.65.68-4.23,2.21-3.88,6s.55,5.88-.91,7.2,4.4-1,5.84-5,2.8,2.43,2.8,3.25,2.27-2.81,2.09-4.76,3,1.11,6.54-.06c0,0-4.76-2.41-5.76-4.36A5.75,5.75,0,0,0,273.77,305.56Z" transform="translate(-246.91 -288.77)"/><path class="cls-18" d="M269.89,311.53c.36,3.75.55,5.88-.91,7.2s4.16-.93,5.74-4.72c-.88-3,1.27-4.86,1.95-6.09s-2,.19-3.89.84c-1,.37-.75-1.16-.28-2.56A5.28,5.28,0,0,0,269.89,311.53Z" transform="translate(-246.91 -288.77)"/><path class="cls-19" d="M324.47,337.71s-1.64-2.3-.33-3.93,2.48-2.49,2.45-3.93,2.05-3,3-2.69,3.85,2.18,2.93,5.34.87,5.81-1,6.64-3.09.79-3.85-.25S326,339.09,324.47,337.71Z" transform="translate(-246.91 -288.77)"/><polygon class="cls-19" points="80.42 43.85 90.63 47.21 90.4 45.61 81.01 41.65 80.42 43.85"/><path class="cls-18" d="M341.29,333.73c-.12-.92-2.43-1.37-3.23-1.85-2.64-1.61-8.62-8.86-8.62-8.86l-.85,1.56,7.87,7.53-7.67-4.19-.25,1.8,7.36,4.81,0,1L331,334.38v2l5,.55-.26.84-11.37-1.71-.18,2.07s10.15,1.68,14.52,1.57C340.37,339.67,341.84,337.84,341.29,333.73Z" transform="translate(-246.91 -288.77)"/><path class="cls-17" d="M320.6,333s-3-1-1.84-2.48-1-3.49-.54-4.64,3-3.07,4.25-2.05,1.14,0,2.06-1.1,2.78-1.56,3.68-.39,1.84,5,.18,7.17-3.45,2.29-2.76,4a2.16,2.16,0,0,1-2.55,3.09C320.88,336.11,320.54,334.7,320.6,333Z" transform="translate(-246.91 -288.77)"/><path class="cls-18" d="M325,329.61s-1.73,4.63,2.36,4c1.94-.28,3.29.69,3-1.06s2.64,0,1.07-4.19c-.37-1,1.22-.93,1.59-1.61a3.91,3.91,0,0,0,.17-3.62c-.44-1.36-2.72-3.88-4-2.19s-2.61,3.51-1.53,4.41S325.33,328,325,329.61Z" transform="translate(-246.91 -288.77)"/><path class="cls-17" d="M322.87,341.36s-1.86-2.12-.71-3.87,2.24-2.71,2.07-4.14,1.75-3.18,2.71-3,5.13,2.1,4.52,5.33.32,5.41-1.44,6.41-3,1.08-3.85.12S324.54,342.59,322.87,341.36Z" transform="translate(-246.91 -288.77)"/><path class="cls-20" d="M288.87,338.65a4.72,4.72,0,0,1,2.19.94c.86.64,4.52,1.21,4.19-1s-2.42-1.55-4.26-1.12c-4.43,1-7-1.85-7.46-1.74A10,10,0,0,0,288.87,338.65Z" transform="translate(-246.91 -288.77)"/><path class="cls-17" d="M288.87,338.65s-6.41-1-9.42-9.92c0,0-2.5-5.63-6.84-.8S281.62,339.67,288.87,338.65Z" transform="translate(-246.91 -288.77)"/><rect class="cls-21" x="22.78" y="42.38" width="44.3" height="28.6"/><rect class="cls-22" x="57.88" y="42.38" width="34.91" height="28.6"/><polygon class="cls-23" points="58.16 42.38 58.16 42.38 65.97 51.77 92.78 51.73 92.67 42.38 58.16 42.38"/><polygon class="cls-21" points="92.67 42.38 101.48 49.49 65.39 49.49 58.16 42.38 92.67 42.38"/><polygon class="cls-23" points="57.88 42.38 55.37 51.77 22.78 51.77 22.78 42.38 57.88 42.38"/><polygon class="cls-22" points="22.78 42.38 13.81 49.49 50.53 49.49 57.88 42.38 22.78 42.38"/><path class="cls-23" d="M335.86,344a.86.86,0,0,1-.91.79h-24A.86.86,0,0,1,310,344h0a.86.86,0,0,1,.91-.8h24a.86.86,0,0,1,.91.8Z" transform="translate(-246.91 -288.77)"/><path class="cls-21" d="M335,344a.86.86,0,0,0-.91-.8H310.94a.8.8,0,1,0,0,1.59H334.1A.86.86,0,0,0,335,344Z" transform="translate(-246.91 -288.77)"/><path class="cls-23" d="M335.86,347a.86.86,0,0,1-.91.79h-24A.86.86,0,0,1,310,347h0a.86.86,0,0,1,.91-.79h24a.86.86,0,0,1,.91.79Z" transform="translate(-246.91 -288.77)"/><path class="cls-21" d="M335,347a.86.86,0,0,0-.91-.79H310.94a.8.8,0,1,0,0,1.58H334.1A.86.86,0,0,0,335,347Z" transform="translate(-246.91 -288.77)"/><path class="cls-24" d="M314.7,331.67c1-.52,1.39-1.16.72-1s-.73.08-.81-.11c-1-2.4.57-6.93-1.38-9.83l-2.73,2.62a6.84,6.84,0,0,1,.51,1.22C311.71,327.08,313.69,332.19,314.7,331.67Z" transform="translate(-246.91 -288.77)"/><path class="cls-25" d="M300.08,326.8s-1,4.11,1.87,4.91c0,0,6.36-4.34,8.55-8.38a22.43,22.43,0,0,0,1.71,4.72s.46.55,2-.73c0,0,1.15-6.75-2.69-7.81s-11.48,7.29-11.48,7.29Z" transform="translate(-246.91 -288.77)"/><path class="cls-26" d="M314,331.33s.38,0,.88-.61a3.93,3.93,0,0,0,.58-.07c.28-.06.4,0,.3.22a2.5,2.5,0,0,1-1.14.84C314.15,331.83,314,331.33,314,331.33Z" transform="translate(-246.91 -288.77)"/><path class="cls-24" d="M304.55,346.54c-.74-.18-.78-.27-.76-.5.15-2.9,3.92-6.73,3.35-10.6h0a13.54,13.54,0,0,0-1.23-3.91,22.47,22.47,0,0,0-1.79-3.07c-1.74-3.58-4.1-3.49-5-2.43-2.46,2.88,2.06,7.65,4,10.48h0a11.57,11.57,0,0,1-.06,1.74c-.52,2.89-1,9,.29,9S305.3,346.73,304.55,346.54Z" transform="translate(-246.91 -288.77)"/><path class="cls-27" d="M303.41,323.48s.93-.65-.22,1.69a25.08,25.08,0,0,1,4.26,10.75c.31,2.67-1.37,4.9-3,7.83,0,0-1.63.19-2.17-.26,0,0,0-4.84.84-7,0,0-6.76-4.13-4.71-8.69a3.72,3.72,0,0,1,3.87-2S302.85,323,303.41,323.48Z" transform="translate(-246.91 -288.77)"/><path class="cls-26" d="M302.79,346.66s.4.15,1.16-.31a3.93,3.93,0,0,0,.67.16c.33,0,.43.14.24.34a2.81,2.81,0,0,1-1.51.48C302.86,347.31,302.79,346.66,302.79,346.66Z" transform="translate(-246.91 -288.77)"/><path class="cls-28" d="M299.1,317.85s-.05-.93,1.44-1.19c1.74-.3,5.53,1.61,7.71.5a4.43,4.43,0,0,0,2.48-3.86c.2-1.09-.23-1.63,0-2.25s.92-.37,1,1.46c0,.88.78,5.19-1.58,7C307.05,321.86,299,320.07,299.1,317.85Z" transform="translate(-246.91 -288.77)"/><path class="cls-29" d="M302,311.58a1,1,0,0,0-.8-.87c-1.72-.23-4.68,1.64-5,5-.58,5.65,1.71,4-.07,7.05-1.68,2.88,3.64,4.45,6.95,2.05,1.93-1.4-3.83-4-3.29-5s1.55-1.23,1.76-2.93a31.46,31.46,0,0,1,.79-4.25A.78.78,0,0,0,302,311.58Z" transform="translate(-246.91 -288.77)"/><path class="cls-29" d="M301.55,316.86c.11-.82.25-1.73.4-2.52-.35-.07-.66-.58-1.18-.62,0,0-5.59,4.19-1.75,9.31,3.88-1.19.15-1.51,1.05-2.53,0,0-.42-.51-.41-.53a1,1,0,0,0,.13-.18C300.32,318.81,301.34,318.56,301.55,316.86Z" transform="translate(-246.91 -288.77)"/><path class="cls-30" d="M305,325.73c.45-.51-1.23-2-.43-3.37s1.57-2.45-.16-4.27-3.13-2.6-4.24-1.74c-2.69,2.07-1.34,2.65-1.27,4.18,0,.86.62,4.69-1.34,7.13a2.09,2.09,0,0,1-.24.27C295.79,330.11,305,325.73,305,325.73Z" transform="translate(-246.91 -288.77)"/><path class="cls-31" d="M300,316.47s3.07,2.51,3.87,2.39-.87-1.86-1.33-2.28A1.73,1.73,0,0,0,300,316.47Z" transform="translate(-246.91 -288.77)"/><path class="cls-32" d="M300.19,313s1,2.11.65,3c-.21.48,2.16,1.56,1.91,1a1.79,1.79,0,0,1,.16-2.19Z" transform="translate(-246.91 -288.77)"/><path class="cls-31" d="M302.34,311.61c.79.74,1.59,4,.88,4.72-.34.34-1.88.51-2.78-1.46a3,3,0,0,1-.31-2.8A1.42,1.42,0,0,1,302.34,311.61Z" transform="translate(-246.91 -288.77)"/><path class="cls-29" d="M302.76,311.72c.08.42.09.66-.85.58-1.17-.1-1,.71-.83,1,.35.81-1.12.06-.6,1,1.27,2.27-1.25,1-2.15,2.41a16.31,16.31,0,0,1,.73-5C299.69,310.26,302.52,310.45,302.76,311.72Z" transform="translate(-246.91 -288.77)"/><path class="cls-32" d="M299.22,317s.7-.42,1.5.58c.94,1.15,1,4.75,2.75,5.9a4,4,0,0,0,4,.23c.95-.3,1.19-.84,1.75-1s.67.53-.73,1.36c-.67.39-3.74,2.72-6.1,1.72C299.3,324.54,297.44,317.87,299.22,317Z" transform="translate(-246.91 -288.77)"/></svg>