<svg id="Layer_1" data-name="Layer 1" xmlns="http://www.w3.org/2000/svg" viewBox="0 0 115.47 76.32"><defs><style>.cls-1{fill:#dbd5c6;}.cls-2{fill:#9bc2e0;}.cls-3{fill:#7fb1cd;}.cls-4{fill:#332766;}.cls-5{fill:#1e1341;}.cls-6{fill:#fc593a;}.cls-7{fill:#f33d25;}.cls-8{fill:#f27851;}.cls-9{fill:#dd743a;}.cls-10{fill:#ee9d7f;}.cls-11{fill:#7585f8;}.cls-12{fill:#7bb1cc;}.cls-13{fill:#9acfe5;}.cls-14{fill:#f79254;}.cls-15{fill:#051536;}</style></defs><path class="cls-1" d="M229.14,112.33c-4-2.22-13.3-7.44-4.68-14s-.68-14.1-1.66-20.12c-.67-4.16,1.9-7.13,8.49-7.13s14.47,12,11.5,16.72,4.25,4.12,6.33,4.69c3.52,1,6.47,6.44-.67,10.47-8.24,4.64,1,1.1,1.15,4.89.1,3.48-3.4,6.57-8.73,6.27S232.92,114.41,229.14,112.33Z" transform="translate(-137.36 -53.02)"/><path class="cls-2" d="M234.8,124.88s5.35-28.56-3.51-43c0,0,2.67,2,6.25,11.34,2.82,7.32,3.41,25.08,1.31,31.64Z" transform="translate(-137.36 -53.02)"/><path class="cls-1" d="M173.12,98.6c3.38-13-17.58-5.62-7.14-13.55s3.9-14.64,2.71-21.94c-.82-5,3.2-10.09,11.19-10.09s13.38,10.09,9.79,15.86,5.14,5,7.67,5.68c4.27,1.17,7.84,7.81-.82,12.69-10,5.62,1.27,1.34,1.4,5.93.12,4.21-4.12,8-10.58,7.6S171.8,103.65,173.12,98.6Z" transform="translate(-137.36 -53.02)"/><path class="cls-2" d="M182.43,113.73s4-34.53-6.7-52c0,0,3.22,2.44,7.57,13.74,3.42,8.87,4.13,30.4,1.58,38.35Z" transform="translate(-137.36 -53.02)"/><path class="cls-1" d="M205.57,97.93c2.77-10.63-14.4-4.6-5.85-11.1s3.2-12,2.23-18c-.68-4.13,2.62-8.26,9.16-8.26s11,8.26,8,13-.31,7.88,1.76,8.45c3.49.95,5.41,4.92,5.52,8.68.1,3.45-3.89,9.29-9.18,9S204.5,102.06,205.57,97.93Z" transform="translate(-137.36 -53.02)"/><path class="cls-2" d="M211.19,110.38S216.5,82,207.71,67.72c0,0,2.64,2,6.2,11.26,2.8,7.26,3.38,24.89,1.3,31.4Z" transform="translate(-137.36 -53.02)"/><path class="cls-1" d="M146.13,113.36c-4-2.23-14-9.35-5.36-15.9s2.68-7.36,1.7-13.38c-.68-4.16,2.64-8.33,9.24-8.33s11,8.33,8.07,13.09S164,93,166.11,93.53c3.52,1,6.47,6.44-.68,10.46-8.23,4.64,1,1.11,1.16,4.9.09,3.47-3.4,6.57-8.73,6.27S149.9,115.43,146.13,113.36Z" transform="translate(-137.36 -53.02)"/><path class="cls-2" d="M151.78,125.9s5.35-28.55-3.5-43c0,0,2.66,2,6.25,11.34,2.82,7.31,3.4,25.07,1.3,31.63Z" transform="translate(-137.36 -53.02)"/><path class="cls-2" d="M187.3,72s-3.19,4.28-2.63,8.47-.91-1.19-.91-1.19A13.49,13.49,0,0,1,187.3,72Z" transform="translate(-137.36 -53.02)"/><path class="cls-2" d="M191.28,80.88s-5,5-5.1,10.56-1-1.73-1-1.73A17.86,17.86,0,0,1,191.28,80.88Z" transform="translate(-137.36 -53.02)"/><path class="cls-2" d="M176.54,77s5.65,4.24,6.5,9.77.71-1.85.71-1.85A17.91,17.91,0,0,0,176.54,77Z" transform="translate(-137.36 -53.02)"/><path class="cls-2" d="M170.88,66.16s6.91,1.49,10,6.15-.13-2-.13-2A17.9,17.9,0,0,0,170.88,66.16Z" transform="translate(-137.36 -53.02)"/><path class="cls-2" d="M205.86,87.92s6,3.8,7.23,9.24.57-1.9.57-1.9A17.93,17.93,0,0,0,205.86,87.92Z" transform="translate(-137.36 -53.02)"/><path class="cls-2" d="M206.19,77.31s6,3.79,7.23,9.23.57-1.89.57-1.89A17.85,17.85,0,0,0,206.19,77.31Z" transform="translate(-137.36 -53.02)"/><path class="cls-2" d="M205.44,71.38s6,3.79,7.23,9.24.57-1.9.57-1.9A17.85,17.85,0,0,0,205.44,71.38Z" transform="translate(-137.36 -53.02)"/><path class="cls-2" d="M222.8,83.43s-6,3.79-7.23,9.23-.57-1.9-.57-1.9A17.94,17.94,0,0,1,222.8,83.43Z" transform="translate(-137.36 -53.02)"/><path class="cls-2" d="M228.8,85.78s6,3.79,7.24,9.23.56-1.9.56-1.9A17.86,17.86,0,0,0,228.8,85.78Z" transform="translate(-137.36 -53.02)"/><path class="cls-2" d="M230.32,96.61s6,3.79,7.24,9.23.56-1.9.56-1.9A17.86,17.86,0,0,0,230.32,96.61Z" transform="translate(-137.36 -53.02)"/><path class="cls-2" d="M246.32,93.81s-6,3.79-7.24,9.23-.57-1.9-.57-1.9A17.93,17.93,0,0,1,246.32,93.81Z" transform="translate(-137.36 -53.02)"/><path class="cls-2" d="M230.32,96.61s6,3.79,7.24,9.23.56-1.9.56-1.9A17.86,17.86,0,0,0,230.32,96.61Z" transform="translate(-137.36 -53.02)"/><path class="cls-2" d="M145.59,89.05s6,3.79,7.23,9.23.57-1.9.57-1.9A17.86,17.86,0,0,0,145.59,89.05Z" transform="translate(-137.36 -53.02)"/><path class="cls-2" d="M158.88,93s-3.8,2.41-4.61,5.89-.36-1.22-.36-1.22A11.37,11.37,0,0,1,158.88,93Z" transform="translate(-137.36 -53.02)"/><path class="cls-3" d="M245.56,125.36c0,1.74-4,4-42.73,4s-54.59-1.36-54.59-3.11,15.86-3.2,54.59-3.2S245.56,123.61,245.56,125.36Z" transform="translate(-137.36 -53.02)"/><path class="cls-4" d="M151.39,124.61s11.47-20.42,43.18-20.83c26.59-.34,40.89,9.28,48.3,21.4C242.87,125.18,185.13,127.16,151.39,124.61Z" transform="translate(-137.36 -53.02)"/><path class="cls-3" d="M149.82,124.83s7.58-5.06,12.2-3.42,9.8,3.57,14.8,1.69,11.54-7.8,18.54-6.5,12.51,6.55,20.3,6.5,6.53-.56,11.42-.63,12.62.46,16,2.85C243.05,125.32,196.48,129.44,149.82,124.83Z" transform="translate(-137.36 -53.02)"/><path class="cls-3" d="M233.29,125.87c-2.24-.19-4.46-.23-6.31-.2-4.89.07-3.62.6-11.42.64s-13.3-5.21-20.3-6.51-13.55,4.63-18.54,6.51q-.42.15-.84.27C200,127.51,221.47,126.6,233.29,125.87Z" transform="translate(-137.36 -53.02)"/><path class="cls-5" d="M162.9,116.41a35.78,35.78,0,0,1,15.77-8.76c10-2.49,24.15-3.41,35.08-.36,11.78,3.28,27,11.55,18.67,12.13-9.38.65-15.41-2.18-21.15-1.9-14.2.67-13.21-6.9-20.15-5.26s-11.51,8.16-16.86,8.22S160.56,120,162.9,116.41Z" transform="translate(-137.36 -53.02)"/><path class="cls-6" d="M204.13,113.56s-6-17.92,7.91-25.5c11.84-6.43,10.05-13.33,10.05-13.33s9.09,18.51-.39,29.51C215,112,205.9,113.26,204.13,113.56Z" transform="translate(-137.36 -53.02)"/><path class="cls-7" d="M221.73,75.21s2.35,34.68-17.74,38.93l-1.06-.67S222,107.84,221.73,75.21Z" transform="translate(-137.36 -53.02)"/><path class="cls-7" d="M213.59,91.35s3.91,6.14,2.17,11.94,1.63-1.6,1.63-1.6A16.25,16.25,0,0,0,213.59,91.35Z" transform="translate(-137.36 -53.02)"/><path class="cls-7" d="M223.65,99.42s-6,1.88-8.35,6.26,0-1.77,0-1.77A15.87,15.87,0,0,1,223.65,99.42Z" transform="translate(-137.36 -53.02)"/><path class="cls-7" d="M220.37,107.84s-6.34-.12-10.23,3.25.63-1.67.63-1.67A17.12,17.12,0,0,1,220.37,107.84Z" transform="translate(-137.36 -53.02)"/><path class="cls-7" d="M208.15,97.09s3.9,6.14,2.17,11.94,1.62-1.6,1.62-1.6A16.27,16.27,0,0,0,208.15,97.09Z" transform="translate(-137.36 -53.02)"/><path class="cls-6" d="M214.12,79.53S195.94,84.72,189,70.44c-5.87-12.12-12.85-10.65-12.85-10.65s18.92-8.23,29.46,1.76C213,68.57,213.9,77.75,214.12,79.53Z" transform="translate(-137.36 -53.02)"/><path class="cls-7" d="M176.63,60.16s34.75-.72,38.06,19.54l-.72,1S209.24,61.38,176.63,60.16Z" transform="translate(-137.36 -53.02)"/><path class="cls-7" d="M192.37,69.05s6.31-3.62,12-1.62-1.53-1.69-1.53-1.69A16.23,16.23,0,0,0,192.37,69.05Z" transform="translate(-137.36 -53.02)"/><path class="cls-7" d="M200.9,59.37s1.6,6.08,5.86,8.64S205,68,205,68A15.88,15.88,0,0,1,200.9,59.37Z" transform="translate(-137.36 -53.02)"/><path class="cls-7" d="M209.16,63s-.41,6.34,2.77,10.38-1.64-.71-1.64-.71A17.11,17.11,0,0,1,209.16,63Z" transform="translate(-137.36 -53.02)"/><path class="cls-7" d="M197.85,74.75s6.31-3.61,12-1.61-1.53-1.7-1.53-1.7A16.3,16.3,0,0,0,197.85,74.75Z" transform="translate(-137.36 -53.02)"/><path class="cls-6" d="M174.09,70.61S190.41,80.16,184.88,95c-4.69,12.62,1.2,16.65,1.2,16.65s-19-8-19.11-22.5C166.92,79,173,72,174.09,70.61Z" transform="translate(-137.36 -53.02)"/><path class="cls-7" d="M186,111.09s-24.56-24.6-12.22-41l1.25-.2S164.35,86.69,186,111.09Z" transform="translate(-137.36 -53.02)"/><path class="cls-7" d="M181.56,93.58s-7-2.06-9.49-7.58-.17,2.28-.17,2.28A16.32,16.32,0,0,0,181.56,93.58Z" transform="translate(-137.36 -53.02)"/><path class="cls-7" d="M168.67,94.1s3.29-5.35,2.18-10.2,1.2,1.3,1.2,1.3A15.91,15.91,0,0,1,168.67,94.1Z" transform="translate(-137.36 -53.02)"/><path class="cls-7" d="M165.61,85.6s4.86-4.08,5.58-9.17.62,1.67.62,1.67A17.12,17.12,0,0,1,165.61,85.6Z" transform="translate(-137.36 -53.02)"/><path class="cls-7" d="M181.89,85.67s-7-2.06-9.49-7.58-.16,2.28-.16,2.28A16.22,16.22,0,0,0,181.89,85.67Z" transform="translate(-137.36 -53.02)"/><path class="cls-8" d="M204.65,89.23s2.53-.2,2,.41-1,.63-2.29.3Z" transform="translate(-137.36 -53.02)"/><path class="cls-9" d="M196.17,81.87c-.36-.26-1.58-.64-1.73.34-.25,1.56,2.07,5.09,2.94,5.85s7.12,2,7.12,2a.69.69,0,0,0,.19-1L199,85.9S197.38,82.8,196.17,81.87Z" transform="translate(-137.36 -53.02)"/><path class="cls-10" d="M205.85,108.55c.33-.63.29-.71.12-.84a3.28,3.28,0,0,0-.47-.33l.85-.85a4.83,4.83,0,0,1,.67.86C207,107.51,206.56,108.43,205.85,108.55Z" transform="translate(-137.36 -53.02)"/><path class="cls-11" d="M207,107.39v0c.76.71-.41,1.53-1.15,1.83s0-.65,0-.65C206.56,108.43,207,107.51,207,107.39Z" transform="translate(-137.36 -53.02)"/><path class="cls-12" d="M191.23,92.58a18.17,18.17,0,0,0,1.78,3.3,22.37,22.37,0,0,0,3.92,4.22c1.53,1.72,5.51,5.89,8.67,7.48.37.19,1.26-.86,1-1.32-1.68-3.05-2.38-4.45-5.24-7A24.4,24.4,0,0,0,200.28,95c-.68-1.49-2.48-5-4.21-6Z" transform="translate(-137.36 -53.02)"/><path class="cls-10" d="M192.5,113.82c.65-.3.66-.39.61-.6a5.17,5.17,0,0,0-.19-.55l1.2-.17a5.83,5.83,0,0,1,0,1.1A2,2,0,0,1,192.5,113.82Z" transform="translate(-137.36 -53.02)"/><path class="cls-11" d="M194.13,113.6h0c.19,1-1.24,1-2,.77s.36-.54.36-.54A2,2,0,0,0,194.13,113.6Z" transform="translate(-137.36 -53.02)"/><path class="cls-13" d="M190.4,92.27a18,18,0,0,0-.55,3.71,22.28,22.28,0,0,0,.59,5.73c.19,2.3.87,8,2.44,11.19.18.37,1.53.07,1.6-.45.5-3.45.77-5,0-8.77a24.89,24.89,0,0,0,1.67-4c.35-1.61,1-5.47.22-7.31Z" transform="translate(-137.36 -53.02)"/><path class="cls-14" d="M192.53,82.38c-1.16.94-2.11,3.16-2.41,10.38-.06,1.59,9.14,1.74,9.13.16,0-4.23-.78-6-2.09-9.74C196.81,82.16,194.83,80.52,192.53,82.38Z" transform="translate(-137.36 -53.02)"/><path class="cls-8" d="M186.53,73.63s.5-1.89,0-1.43-.8.36-.58,1.64Z" transform="translate(-137.36 -53.02)"/><path class="cls-9" d="M193.06,83.46c.2.37,0,1.49-1.34,1.49s-3.91-3-4.47-4-1.36-7.27-1.36-7.27a.45.45,0,0,1,.74-.06l2.33,6S192.38,82.14,193.06,83.46Z" transform="translate(-137.36 -53.02)"/><path class="cls-8" d="M194.18,75.73c-1.24.41-2.75,1.57-1.78,4.68.66,2.15,3.14.36,3.14.36S197.15,74.74,194.18,75.73Z" transform="translate(-137.36 -53.02)"/><path class="cls-8" d="M193.06,80.51a2.68,2.68,0,0,1,.15,1.6c-.24.7,1.75.71,2.22.4s-.51-1,.11-2.57C196.09,78.5,193.06,80.51,193.06,80.51Z" transform="translate(-137.36 -53.02)"/><path class="cls-15" d="M192.27,76.51s-.65,1.37,1,1.77c2.14.51-.21,3.5,2.66,3.61,1.12,0,.38-.18,1-1.44.88-1.73.49-5.81-1.86-5.81A2.93,2.93,0,0,0,192.27,76.51Z" transform="translate(-137.36 -53.02)"/><path class="cls-15" d="M195.13,75.62a2.23,2.23,0,0,1,2.09-1.28c1.86.15,3.46,3.13,2.68,5.43-.28.84-.1,1.65,1.34,1.7,3.11.11,3.7,4.34,1.22,5.31-3.37,1.33-5.17-.19-6.28-2.2s.16-3.11-1.39-5.37C193.75,77.71,194.42,77,195.13,75.62Z" transform="translate(-137.36 -53.02)"/></svg>