<svg id="Layer_1" data-name="Layer 1" xmlns="http://www.w3.org/2000/svg" viewBox="0 0 87.14 101.76"><defs><style>.cls-1{fill:#bee4d7;}.cls-2{fill:#d8d5ca;}.cls-3{fill:#ffbd36;}.cls-4{fill:#1e1341;}.cls-5{fill:#fc593a;}.cls-6{fill:#ffbd35;}.cls-7{fill:#0d1e51;}.cls-8{fill:#332766;}.cls-9{fill:#317170;}.cls-10{fill:#0d5d42;}.cls-11{fill:#dd2719;}.cls-12{fill:#fca09f;}.cls-13{fill:#e67052;}.cls-14{fill:#7bb1cc;}.cls-15{fill:#5a70e0;}.cls-16{fill:#051536;}.cls-17{fill:#e0623f;}.cls-18{fill:#f27851;}.cls-19{fill:#f33d25;}.cls-20{fill:#fc9627;}.cls-21{fill:#feb824;}</style></defs><path class="cls-1" d="M404.09,96.45,405,96a32.61,32.61,0,0,1-1.88-26.83l-.91-.41A33.65,33.65,0,0,0,404.09,96.45Z" transform="translate(-382.79 -35.22)"/><path class="cls-1" d="M402.47,69.71s2.93-4.83,0-5.9C401.2,63.35,399.55,65.39,402.47,69.71Z" transform="translate(-382.79 -35.22)"/><path class="cls-1" d="M401.83,71.7s-.79-6-3.52-4.53C397.14,67.78,397.19,70.62,401.83,71.7Z" transform="translate(-382.79 -35.22)"/><path class="cls-1" d="M401.38,72s1.9-5.48,4.27-3.17C406.66,69.84,406.07,72.57,401.38,72Z" transform="translate(-382.79 -35.22)"/><path class="cls-1" d="M400.71,76.91s1.65-5.59,4.12-3.41C405.87,74.43,405.41,77.19,400.71,76.91Z" transform="translate(-382.79 -35.22)"/><path class="cls-1" d="M400.43,80.94s1.68-5.57,4.13-3.38C405.61,78.49,405.14,81.24,400.43,80.94Z" transform="translate(-382.79 -35.22)"/><path class="cls-1" d="M400.93,85.91s.75-5.88,3.49-4.2C405.59,82.43,405.56,85.25,400.93,85.91Z" transform="translate(-382.79 -35.22)"/><path class="cls-1" d="M401.84,89.83s.91-5.84,3.61-4.07C406.6,86.51,406.5,89.33,401.84,89.83Z" transform="translate(-382.79 -35.22)"/><path class="cls-1" d="M403.76,94.69s-.56-6,2.43-5.1C407.46,90,408.06,92.74,403.76,94.69Z" transform="translate(-382.79 -35.22)"/><path class="cls-1" d="M400.87,75.64s-.8-6-3.53-4.52C396.18,71.72,396.22,74.55,400.87,75.64Z" transform="translate(-382.79 -35.22)"/><path class="cls-1" d="M400.54,79.81s-.8-6-3.53-4.53C395.85,75.89,395.9,78.72,400.54,79.81Z" transform="translate(-382.79 -35.22)"/><path class="cls-1" d="M400.81,83.89s-2-5.64-4.3-3.54C395.51,81.25,396.12,84,400.81,83.89Z" transform="translate(-382.79 -35.22)"/><path class="cls-1" d="M401.58,88.38s-2.46-5.41-4.59-3C396.09,86.37,397,89.07,401.58,88.38Z" transform="translate(-382.79 -35.22)"/><path class="cls-1" d="M403,92.68s-3.11-5-4.9-2.26C397.34,91.58,398.53,94.13,403,92.68Z" transform="translate(-382.79 -35.22)"/><path class="cls-2" d="M469.93,125.37c0,1.55-3.53,3.56-37.85,3.56s-48.37-1.22-48.37-2.78,14.05-2.86,48.37-2.86S469.93,123.81,469.93,125.37Z" transform="translate(-382.79 -35.22)"/><path class="cls-3" d="M454.54,108.26l4.35,2.23c3.73-2.83,6.09-7.66,7.54-11.93l-1.82-4.19,2.5,2a47.73,47.73,0,0,0,1.39-6.46,21.8,21.8,0,0,0-12,.27l1.17,3.34-3.45-2.34c-9.88,5.3-10.62,19.51-10.62,19.51,5.22,2.69,9.39,2.75,12.7,1.33Z" transform="translate(-382.79 -35.22)"/><path class="cls-4" d="M453.06,105.53c9.76-16.16,6.48-30.63,6.44-30.78l-.62.15c0,.14,3.26,14.37-6.36,30.3Z" transform="translate(-382.79 -35.22)"/><polygon class="cls-4" points="76.64 47.99 77.2 47.69 75.13 43.77 74.56 44.07 76.64 47.99"/><polygon class="cls-4" points="76.3 52.31 76.79 51.9 73.95 48.51 73.45 48.91 76.3 52.31"/><polygon class="cls-4" points="75.39 57.17 75.88 56.76 73.03 53.36 72.55 53.77 75.39 57.17"/><rect class="cls-4" x="455.27" y="92.62" width="0.64" height="4.43" transform="translate(-337.67 278.86) rotate(-39.87)"/><polygon class="cls-4" points="72.35 65.91 72.83 65.5 69.99 62.1 69.5 62.51 72.35 65.91"/><polygon class="cls-4" points="77.24 46.88 79.2 42.9 78.63 42.63 76.67 46.6 77.24 46.88"/><polygon class="cls-4" points="76.96 51.5 79.64 47.97 79.13 47.58 76.45 51.11 76.96 51.5"/><rect class="cls-4" x="457.99" y="90.13" width="4.43" height="0.64" transform="translate(-341.03 267.07) rotate(-37.97)"/><polygon class="cls-4" points="74.21 62.29 77.85 59.74 77.48 59.22 73.85 61.77 74.21 62.29"/><rect class="cls-4" x="453.92" y="101.25" width="4.43" height="0.64" transform="translate(-373.04 204.59) rotate(-29.76)"/><path class="cls-4" d="M457.83,73.88a1.54,1.54,0,1,0,1.84-1.16A1.54,1.54,0,0,0,457.83,73.88Z" transform="translate(-382.79 -35.22)"/><path class="cls-4" d="M455.42,78.27A1.54,1.54,0,1,0,457.19,77,1.56,1.56,0,0,0,455.42,78.27Z" transform="translate(-382.79 -35.22)"/><path class="cls-4" d="M454.5,82.64a1.55,1.55,0,1,0,2.09-.64A1.54,1.54,0,0,0,454.5,82.64Z" transform="translate(-382.79 -35.22)"/><path class="cls-4" d="M453.59,87.49a1.55,1.55,0,1,0,2.09-.63A1.55,1.55,0,0,0,453.59,87.49Z" transform="translate(-382.79 -35.22)"/><path class="cls-4" d="M452.18,91.84a1.55,1.55,0,1,0,2.09-.64A1.55,1.55,0,0,0,452.18,91.84Z" transform="translate(-382.79 -35.22)"/><path class="cls-4" d="M450.54,96.23a1.55,1.55,0,1,0,2.09-.64A1.55,1.55,0,0,0,450.54,96.23Z" transform="translate(-382.79 -35.22)"/><path class="cls-4" d="M463.88,77.05a1.54,1.54,0,1,1-1.8-1.24A1.54,1.54,0,0,1,463.88,77.05Z" transform="translate(-382.79 -35.22)"/><path class="cls-4" d="M464.49,82.48A1.55,1.55,0,1,1,463,80.93,1.55,1.55,0,0,1,464.49,82.48Z" transform="translate(-382.79 -35.22)"/><path class="cls-4" d="M464.32,89.2a1.54,1.54,0,1,1-1.08-1.9A1.54,1.54,0,0,1,464.32,89.2Z" transform="translate(-382.79 -35.22)"/><path class="cls-4" d="M462.81,94.93a1.54,1.54,0,1,1-1-2A1.54,1.54,0,0,1,462.81,94.93Z" transform="translate(-382.79 -35.22)"/><path class="cls-4" d="M460.39,100.91a1.55,1.55,0,1,1-.81-2A1.55,1.55,0,0,1,460.39,100.91Z" transform="translate(-382.79 -35.22)"/><path class="cls-5" d="M438,119.28l-.23.81a30.05,30.05,0,0,0,9.37.56c6.9-.65,12.51-3.68,16.2-8.78l-.59-.48C454.16,123.23,438.16,119.32,438,119.28Z" transform="translate(-382.79 -35.22)"/><path class="cls-5" d="M462.48,112.34s4.78,0,5.8-5.64C468.28,106.7,463.52,107.71,462.48,112.34Z" transform="translate(-382.79 -35.22)"/><path class="cls-5" d="M459.22,115.59s4.06,4.55,9.3-.33C468.52,115.26,466.4,112.74,459.22,115.59Z" transform="translate(-382.79 -35.22)"/><path class="cls-5" d="M459.38,115.71s-3.18-5.33,2.27-9.92C461.65,105.79,463.44,108.6,459.38,115.71Z" transform="translate(-382.79 -35.22)"/><path class="cls-5" d="M454.22,118.62s3.58,5,9.22.71C463.44,119.33,461.6,116.56,454.22,118.62Z" transform="translate(-382.79 -35.22)"/><path class="cls-5" d="M454.37,118.75a7.81,7.81,0,0,1,3.2-9.69S459.06,112.08,454.37,118.75Z" transform="translate(-382.79 -35.22)"/><path class="cls-5" d="M448,120.2s2.67,5.67,8.83,2.42C456.83,122.62,455.49,119.51,448,120.2Z" transform="translate(-382.79 -35.22)"/><path class="cls-5" d="M448.12,120.36a7.87,7.87,0,0,1,4.64-9.08S453.74,114.56,448.12,120.36Z" transform="translate(-382.79 -35.22)"/><path class="cls-5" d="M442.42,120.27s1.15,6.35,7.77,4.88C450.19,125.15,449.66,121.71,442.42,120.27Z" transform="translate(-382.79 -35.22)"/><path class="cls-5" d="M442.49,120.46s-.06-6.55,6.58-7.64C449.07,112.82,449.21,116.34,442.49,120.46Z" transform="translate(-382.79 -35.22)"/><path class="cls-6" d="M403.9,109.69s-10.67-5.68-5.79-8.13-.48-6-4.49-6.26-8.77-6.19-3.88-7.72-7.64-9.28-4.07-9.08,8.24,2.47,9,7.55,5.08,1,4.43-1.78,6.53,4,2.48,9S405,98.69,405.92,96s3.9,2.15,1.3,6.08-1.79,6.4.42,7.84S403.9,109.69,403.9,109.69Z" transform="translate(-382.79 -35.22)"/><path class="cls-7" d="M390,98.45s-4.92,1.11-6.08-3.19C383.9,95.26,388.63,95.07,390,98.45Z" transform="translate(-382.79 -35.22)"/><path class="cls-7" d="M412,116.19l-.52.19c-2.82-7.9-22.72-18.11-22.92-18.22l.25-.49C389.6,98.09,409.06,108.09,412,116.19Z" transform="translate(-382.79 -35.22)"/><path class="cls-7" d="M395.42,101.89l-.54-.12c.53-2.4-3.09-5.52-3.13-5.55l.36-.42C392.27,95.94,396,99.17,395.42,101.89Z" transform="translate(-382.79 -35.22)"/><path class="cls-7" d="M395,99.52l-.07.08-.41-.37c1-1.1.07-3.86.07-3.89l.52-.17C395.12,95.29,396.06,98.15,395,99.52Z" transform="translate(-382.79 -35.22)"/><path class="cls-7" d="M392.82,97s-4.83-1.49-3.69-5.8C389.13,91.24,393.32,93.43,392.82,97Z" transform="translate(-382.79 -35.22)"/><path class="cls-7" d="M394.82,96.35s-2.84-4.17.73-6.82C395.55,89.53,397.47,93.84,394.82,96.35Z" transform="translate(-382.79 -35.22)"/><path class="cls-7" d="M400.13,105l-.46-.3c1.35-2.05-.93-6.26-.95-6.3l.48-.27C399.3,98.27,401.66,102.63,400.13,105Z" transform="translate(-382.79 -35.22)"/><path class="cls-7" d="M401.14,102.05a2.1,2.1,0,0,1-.68.58l-.25-.49c1.31-.67,1.44-3.58,1.45-3.61l.55,0A7.14,7.14,0,0,1,401.14,102.05Z" transform="translate(-382.79 -35.22)"/><path class="cls-7" d="M399.43,99.49s-4-3.1-1.38-6.72C398.05,92.77,401.18,96.3,399.43,99.49Z" transform="translate(-382.79 -35.22)"/><path class="cls-7" d="M401.55,99.57s-1.18-4.91,3.11-6.12C404.66,93.45,404.91,98.17,401.55,99.57Z" transform="translate(-382.79 -35.22)"/><path class="cls-7" d="M404.62,106.9a3,3,0,0,1-.84.74l-.27-.48c2.11-1.23,1.94-6,1.93-6.06l.55,0C406,101.26,406.14,105,404.62,106.9Z" transform="translate(-382.79 -35.22)"/><path class="cls-7" d="M407.66,104a3.82,3.82,0,0,1-2.55,1.68v-.55c1.48,0,2.88-2.58,2.9-2.6l.48.26A8.55,8.55,0,0,1,407.66,104Z" transform="translate(-382.79 -35.22)"/><path class="cls-7" d="M405.57,102.44s-2.19-4.55,1.74-6.64C407.31,95.8,408.56,100.35,405.57,102.44Z" transform="translate(-382.79 -35.22)"/><path class="cls-7" d="M407.44,103.44s1.12-4.92,5.5-4.11C412.94,99.33,411.07,103.67,407.44,103.44Z" transform="translate(-382.79 -35.22)"/><path class="cls-7" d="M396.83,102.79c-2.42,1.38-6.62-1.25-6.79-1.36l.29-.47s4.1,2.56,6.22,1.35Z" transform="translate(-382.79 -35.22)"/><path class="cls-7" d="M394.35,103.17c-1.06,1.34-3.92,1.29-4,1.28v-.55s2.94,0,3.7-1.21l.47.28A1.43,1.43,0,0,1,394.35,103.17Z" transform="translate(-382.79 -35.22)"/><path class="cls-7" d="M391.43,101.74s-2.85-4.17-6.63-1.81C384.8,99.93,388.13,103.29,391.43,101.74Z" transform="translate(-382.79 -35.22)"/><path class="cls-7" d="M391.37,103.86s-4.83-1.49-6.31,2.71C385.06,106.57,389.75,107.12,391.37,103.86Z" transform="translate(-382.79 -35.22)"/><path class="cls-7" d="M401.21,105.52c-1.66,2.09-6.29,1.73-6.49,1.71l0-.55c.05,0,4.81.38,6.14-1.68l.46.29A1.88,1.88,0,0,1,401.21,105.52Z" transform="translate(-382.79 -35.22)"/><path class="cls-7" d="M398.79,107.93a8.18,8.18,0,0,1-2.43,1.86l-.24-.5s2.63-1.31,2.72-2.78l.55,0A2.54,2.54,0,0,1,398.79,107.93Z" transform="translate(-382.79 -35.22)"/><path class="cls-7" d="M396.1,106.87s-4.45-2.38-6.71,1.46C389.39,108.33,393.89,109.76,396.1,106.87Z" transform="translate(-382.79 -35.22)"/><path class="cls-7" d="M397,108.77s-5,.92-4.34,5.33C392.69,114.1,397.11,112.41,397,108.77Z" transform="translate(-382.79 -35.22)"/><path class="cls-7" d="M405.84,110.15c-1.57,2-5.69,2.31-5.88,2.32l0-.55c.05,0,4.81-.38,5.8-2.62l.51.22A2.55,2.55,0,0,1,405.84,110.15Z" transform="translate(-382.79 -35.22)"/><path class="cls-7" d="M403.64,113.18a8.51,8.51,0,0,1-1.66,1.56l-.31-.45s2.39-1.71,2.24-3.18l.55,0A3,3,0,0,1,403.64,113.18Z" transform="translate(-382.79 -35.22)"/><path class="cls-7" d="M401.27,111.9s-4.77-1.66-6.4,2.49C394.87,114.39,399.54,115.1,401.27,111.9Z" transform="translate(-382.79 -35.22)"/><path class="cls-7" d="M402.48,113.63s-4.76,1.68-3.45,5.94C399,119.57,403.13,117.22,402.48,113.63Z" transform="translate(-382.79 -35.22)"/><circle class="cls-8" cx="44.99" cy="61.83" r="28.32"/><path class="cls-4" d="M430,85s-10.35-8.71-6.22-11.75c8.12-6,31.07,7.6,23.61,16.55s-6.46,2.73-8.7,2.73-6,3.73-3.48,6,2.74,10.19,6,10.19,3,9.26-2.62,14.57c0,0-2.52,1.38-8,2,0,0-7.83-10.55-4.43-15.08,3-4,1.48-8.7,4-12.68S432.88,89.82,430,85Z" transform="translate(-382.79 -35.22)"/><path class="cls-4" d="M405.73,79.26S415.11,82.68,413,86s-4.6,5.71-3.48,8.57,8.2,10.82,3.79,15.91c-3.42,4-3.15,7.68-1.67,9.8,0,0-11-7.56-12.19-21.09C399,94,399.18,86.41,405.73,79.26Z" transform="translate(-382.79 -35.22)"/><path class="cls-9" d="M423.8,53.73s-12.32,5-15.65-5.28c-2.3-7-3-9.13-6.75-13.23C401.4,35.22,428.46,35.63,423.8,53.73Z" transform="translate(-382.79 -35.22)"/><path class="cls-9" d="M425.81,85.65s-12.8,3.51-14.94-7c-1.46-7.25-2-9.42-5.18-13.93C405.69,64.68,432.53,68.21,425.81,85.65Z" transform="translate(-382.79 -35.22)"/><path class="cls-9" d="M431.36,69.62s-4.45-12.51,5.92-15.41c7.12-2,9.25-2.67,13.51-6.19C450.79,48,449.24,75,431.36,69.62Z" transform="translate(-382.79 -35.22)"/><path class="cls-10" d="M422.15,103.57s13-53.22-12.81-60.67c0,0,11.58.66,16.84,14.31,4.13,10.73,5,36.75,1.91,46.36Z" transform="translate(-382.79 -35.22)"/><path class="cls-11" d="M406.44,111.6s2.58-6.32,6.39-6.8,5.94-5,8.89-4a42.78,42.78,0,0,0,10.46,2.41c3.48.27,5.9,2.68,5.36,4.56S422,114.34,406.44,111.6Z" transform="translate(-382.79 -35.22)"/><path class="cls-12" d="M405.15,117.35s-7.31-1.5-16.41,4.54l13.08-10.31Z" transform="translate(-382.79 -35.22)"/><path class="cls-10" d="M427.44,81.08s1.06-17.39,14.5-20.74A27.45,27.45,0,0,0,429.87,82Z" transform="translate(-382.79 -35.22)"/><path class="cls-10" d="M426.89,91.19s-1.07-17.39-14.5-20.74a27.42,27.42,0,0,1,12.06,21.67Z" transform="translate(-382.79 -35.22)"/><path class="cls-13" d="M442.72,94.3c-.33-.19-2.06-.63-1.71,1s4,5,4.52,5.16.76-.72.76-.72S444.73,95.45,442.72,94.3Z" transform="translate(-382.79 -35.22)"/><path class="cls-13" d="M446.24,99.61a3,3,0,0,1,.26.86c0,.43-1.89,1.31-1.7.71s.82-.79.68-.93S446.24,99.61,446.24,99.61Z" transform="translate(-382.79 -35.22)"/><path class="cls-13" d="M450.23,102c0-.35-.73-1.8-2-.46s-1.89,6-1.68,6.47,1.1,0,1.1,0S450.47,104.1,450.23,102Z" transform="translate(-382.79 -35.22)"/><path class="cls-13" d="M447.78,107.9a3.59,3.59,0,0,1-.58.75c-.35.3-2.31-.4-1.68-.67s1.2,0,1.24-.17S447.78,107.9,447.78,107.9Z" transform="translate(-382.79 -35.22)"/><path class="cls-14" d="M444.68,83.53l-3.19,2.8s-3.91,3.62-4.1,4.45,6.71,9.51,6.71,9.51l2.2-2L444,92.68l3-2.54Z" transform="translate(-382.79 -35.22)"/><path class="cls-14" d="M450.43,83.72s4.22,3.48,2.78,10.58A49.89,49.89,0,0,1,448.63,107l-2.4-.08s1.54-5.92,1.43-9.22-3-14.15-3-14.15S445.09,84.39,450.43,83.72Z" transform="translate(-382.79 -35.22)"/><path class="cls-15" d="M425.14,85.27c-.14.3.22,1.06,1.07.82a2.32,2.32,0,0,1,1.21-.13S425.75,84,425.14,85.27Z" transform="translate(-382.79 -35.22)"/><path class="cls-15" d="M424.22,88.3a.77.77,0,0,0,1.24-.56,2.35,2.35,0,0,1,.44-1.13S423.36,87.15,424.22,88.3Z" transform="translate(-382.79 -35.22)"/><path class="cls-16" d="M442.9,69.89c-1,1.27-1.45,3.5-4.87,4.27s2.68,4.74,6,3.88,6.58-2.33,4.61-6.81C447.05,67.72,443.88,68.65,442.9,69.89Z" transform="translate(-382.79 -35.22)"/><path class="cls-16" d="M443.21,71.09s-1,3.09-2,3.53,7.69,1.47,7.69,1.47l-3.05-4.32Z" transform="translate(-382.79 -35.22)"/><path class="cls-17" d="M443.43,74.61a1.84,1.84,0,0,0-1.81,1.25c-.42,1.4.2,4.3-1.27,5.69a3.67,3.67,0,0,1-3.69.86c-.91-.15-1.2-.63-1.74-.66s-.55.62.86,1.2c.67.28,3.82,2,5.88.71C444.35,81.92,445.7,74.89,443.43,74.61Z" transform="translate(-382.79 -35.22)"/><path class="cls-18" d="M441.44,76.74c-.06-2.56,3.34-3,6-2.57,1.68.25,4.41.75,3.28,4.32-.79,2.49-1.25,3.82.54,6.14.24.31-.2-.39,0,0-1.51,1-2.6.37-4.49.77a12.7,12.7,0,0,1-3.8-.11c.17-1.89.52-.13.54-.24C444,81.59,441.5,78.91,441.44,76.74Z" transform="translate(-382.79 -35.22)"/><path class="cls-5" d="M442.7,85.25c.28-2.22.46-2.6-.44-3.68-2-2.43.93-7.14.93-7.14l.95-.26c-1.94,3.35-1.24,4.41-.37,4.41,2.86,0,3.78-4.38,3.78-4.38l1,.18a5.3,5.3,0,0,0-1,4c.4,3,2.62,2.26,2.62,2.26,0,1-.37,1.33.51,3l1.14,1.25C449.47,86.48,443.06,87,442.7,85.25Z" transform="translate(-382.79 -35.22)"/><path class="cls-17" d="M445.89,71.77s-.05,1.69.64,2.33c.44.41-2,2.18-2.09,1.52-.1-.85.27-1.47-.47-2.29Z" transform="translate(-382.79 -35.22)"/><path class="cls-18" d="M443.53,69.84c-.55.87-.53,4.09.4,4.55.41.2,1.69-.49,2.21-2a2.58,2.58,0,0,0-.44-2.64A1.38,1.38,0,0,0,443.53,69.84Z" transform="translate(-382.79 -35.22)"/><path class="cls-16" d="M443.1,70.5c0,.45.09.71,1,.37,1.11-.41,1.14.49,1.1.81-.11.94,1-.26.87.86s.79-.42.86-.6.28-1-.75-2.25S443,69.12,443.1,70.5Z" transform="translate(-382.79 -35.22)"/><path class="cls-19" d="M450.18,80.65s-1.15.83-3.31-.13c0,0-1.06-.32-.93.21s1,1,1.38,1.08,1.58,1.39-.36,1.73-1,1.32-.39,1.32,2.89,0,2.27.56-.85,1-1,.76a7.41,7.41,0,0,0,3.95-1.28A3.88,3.88,0,0,1,450.18,80.65Z" transform="translate(-382.79 -35.22)"/><path class="cls-20" d="M438.17,84.12s-1-3.33-2.93-2.66a2.89,2.89,0,0,0-1.8,4.37l.85-.36s-1.06-2.17.53-2.85,2.49,1.74,2.49,1.74Z" transform="translate(-382.79 -35.22)"/><path class="cls-20" d="M439.82,84.78s3.82-4.43,6-.84,2.29,7-2.93,8.06l-.27-.65s4.82-1.4,3.51-4.5-2.33-4.27-6.05-1.49Z" transform="translate(-382.79 -35.22)"/><path class="cls-21" d="M439.51,84.24c-1.65-1-6.81.34-7.28,2.28-.51,2.12.94,7.25,1.41,8.62s7.63-.78,9.61-2.06S441.58,85.45,439.51,84.24Z" transform="translate(-382.79 -35.22)"/><polygon class="cls-21" points="50.79 55.1 50.69 55 46.83 51.24 44.68 52.71 50.93 58.6 50.79 55.1"/><path class="cls-20" d="M429.4,85.48s.49.2.48.57a2.38,2.38,0,0,1-1,1.47c-.41.17-1.33.93-1.86.43S428.61,85.6,429.4,85.48Z" transform="translate(-382.79 -35.22)"/><path class="cls-13" d="M448.79,74.55a1.83,1.83,0,0,0-.94,2c.34,1.4,2.32,3.55,1.74,5.46a3.66,3.66,0,0,1-2.76,2.58c-.86.34-1.36.07-1.84.32s-.16.8,1.35.59c.71-.11,4.32-.18,5.44-2.34C453.23,80.29,450.9,73.65,448.79,74.55Z" transform="translate(-382.79 -35.22)"/><path class="cls-15" d="M426.2,90.83a.76.76,0,0,0,.45-1.27,2.48,2.48,0,0,1-.51-1.11S424.77,90.66,426.2,90.83Z" transform="translate(-382.79 -35.22)"/><path class="cls-15" d="M424.52,93.48A.77.77,0,0,0,425,92.2a2.3,2.3,0,0,1-.51-1.1S423.09,93.31,424.52,93.48Z" transform="translate(-382.79 -35.22)"/><path class="cls-15" d="M427.11,95.3a.77.77,0,0,0-.06-1.35,2.42,2.42,0,0,1-.89-.84S425.71,95.67,427.11,95.3Z" transform="translate(-382.79 -35.22)"/><path class="cls-15" d="M424.82,97.58a.77.77,0,0,0,.51-1.25,2.31,2.31,0,0,1-.45-1.13S423.4,97.34,424.82,97.58Z" transform="translate(-382.79 -35.22)"/><path class="cls-5" d="M442.11,104.32c-11.23,5.77-34.29,6.92-34.29,6.92l-1.27,4.07-7.15-4.87-16.61,12.89L393.45,137s10.58-15.65,16.29-17.23,16.22,5.23,24.61.44c12.14-6.94,19.82-13.47,19.33-16.45S451.43,99.54,442.11,104.32Z" transform="translate(-382.79 -35.22)"/><path class="cls-19" d="M436.68,106.53s-.14,5.31-8.94,6.14-19.59,6.94-25.78,3.22C395,111.74,431.82,108.54,436.68,106.53Z" transform="translate(-382.79 -35.22)"/><path class="cls-5" d="M398.22,111.18s8.61-9.17,18.28-7.68c7.61,1.17,10.16,2.23,15.12,1s5.95,4.91-.5,5.86C425.06,111.25,398.22,123.08,398.22,111.18Z" transform="translate(-382.79 -35.22)"/></svg>