<svg xmlns="http://www.w3.org/2000/svg" xmlns:xlink="http://www.w3.org/1999/xlink" viewBox="0 0 143.51 91.14"><defs><style>.cls-1{fill:url(#linear-gradient);}</style><linearGradient id="linear-gradient" x1="375.41" y1="250.88" x2="375.41" y2="374.65" gradientUnits="userSpaceOnUse"><stop offset="0" stop-color="#74c8fb"/><stop offset="1" stop-color="#d8005f"/></linearGradient></defs><g id="OBJECTS"><path class="cls-1" d="M447.16,335.64l-57.94,16.47c-1.21,3.5-5.1,8.34-13.81,8.34s-12.6-4.84-13.82-8.34l-57.94-16.47,1.24-4.34,60.57,17.21.22,1.44c.11.59,1.31,6,9.73,6s9.62-5.4,9.73-6l.25-1.39,1.36-.41,59.18-16.82Zm-136.34-10.7v4.57l64.59,18Zm3-7.93-.23,4.56,61.81,24.32Zm4-6.45-.23,4.56,57.82,28.27ZM440,329.51v-4.57l-64.58,22.57Zm-2.77-7.94L437,317l-61.58,28.88Zm-4-6.45-.24-4.56-57.58,32.83ZM327.88,287.44H327v-2h14.82v2h-.93l0,19.14,0,12-13.08-6.88Zm4.24,17.88H329.7v3.49h2.42Zm0-9.88H329.7v3.49h2.42Zm3.52,4.94h-2.42v3.49h2.42Zm0-9.88h-2.42V294h2.42Zm3.51,9.88h-2.42v3.49h2.42Zm0-9.88h-2.42V294h2.42Zm6.64-12.44h-1.35v-2h17v2h-1.35V328.7l-14.34-7.55Zm4.87,37.75h-2.42v3.49h2.42Zm0-9.88h-2.42v3.48h2.42Zm0-9.76h-2.42v3.48h2.42Zm0-4.95h-2.42v3.49h2.42Zm0-9.88h-2.42v3.49h2.42Zm3.52,34.47h-2.42v3.49h2.42Zm0-4.94h-2.42v3.49h2.42Zm0-9.88h-2.42v3.48h2.42Zm0-9.77h-2.42v3.49h2.42Zm0-4.94h-2.42v3.49h2.42Zm0-4.94h-2.42v3.49h2.42Zm3.51,29.53h-2.42v3.49h2.42Zm0-9.88h-2.42v3.48h2.42Zm0-4.82h-2.42v3.48h2.42Zm0-14.83h-2.42v3.49h2.42Zm52.23,6.1H409v-2H423.8v2h-.87v24.28l-13.08,6.88,0-12Zm4.17,12.94h-2.42v3.49h2.42Zm0-9.88h-2.42V294h2.42Zm3.5,9.88h-2.42v3.49h2.42Zm0-9.88h-2.42V294h2.42Zm3.53,14.82h-2.43v3.49h2.43Zm0-9.88h-2.43v3.49h2.43Zm-30.44-17.38h-1.35v-2h17v2H405v43.09l-14.34,7.55Zm4.87,32.81h-2.42v3.49h2.42Zm0-9.88h-2.42v3.48h2.42Zm0-4.82h-2.42v3.48h2.42Zm0-14.83h-2.42v3.49h2.42Zm3.51,34.47h-2.43v3.49h2.43Zm0-4.94h-2.43v3.49h2.43Zm0-9.88h-2.43v3.48h2.43Zm0-9.77h-2.43v3.49h2.43Zm0-4.94h-2.43v3.49h2.43Zm0-4.94h-2.43v3.49h2.43Zm3.52,34.47h-2.42v3.49h2.42Zm0-9.88h-2.42v3.48h2.42Zm0-9.76h-2.42v3.48h2.42Zm0-4.95h-2.42v3.49h2.42Zm0-9.88h-2.42v3.49h2.42Zm-36.49-9.14h-1.64v-2.89h21.91v2.89h-1.64v59.64l-9.31,4.91-9.32-4.91Zm5.21,45.62h-2.42v3.49h2.42Zm0-9.69h-2.42v3.49h2.42Zm0-9.89h-2.42v3.49h2.42Zm0-4.94h-2.42v3.49h2.42Zm0-4.82h-2.42V292h2.42Zm0-4.94h-2.42V287h2.42Zm3.52,44.16H372.4v3.49h2.42Zm0-4.94H372.4v3.49h2.42Zm0-4.94H372.4v3.49h2.42Zm0-4.94H372.4v3.49h2.42Zm0-4.75H372.4v3.49h2.42Zm0-4.94H372.4v3.48h2.42Zm0-4.95H372.4v3.49h2.42Zm0-9.76H372.4V292h2.42Zm0-9.88H372.4v3.49h2.42Zm0-4.94H372.4v3.48h2.42Zm3.51,44.16h-2.42v3.49h2.42Zm0-9.69h-2.42v3.49h2.42Zm0-14.83h-2.42v3.49h2.42Zm0-9.76h-2.42V287h2.42Zm0-4.94h-2.42v3.49h2.42Zm0-4.94h-2.42v3.48h2.42Zm3.6,49.1h-2.42v3.49h2.42Zm0-9.88h-2.42v3.49h2.42Zm0-4.75h-2.42v3.49h2.42Zm0-9.89h-2.42v3.49h2.42Zm0-9.76h-2.42V292h2.42Zm0-4.94h-2.42V287h2.42Zm0-9.88h-2.42v3.48h2.42Z" transform="translate(-303.65 -269.31)"/></g></svg>