<svg id="logo-17" xmlns="http://www.w3.org/2000/svg" viewBox="0 0 118.88 35"><defs><style>.cls-1{fill:#0f52ff;}.cls-2{fill:#5bd0f4;}</style></defs><path class="cls-1" d="M19.5,2a17.5,17.5,0,1,0,0,35V28.25a8.75,8.75,0,0,1-3.35-.67,8.66,8.66,0,0,1-4.73-4.73,8.71,8.71,0,0,1,0-6.7,8.66,8.66,0,0,1,4.73-4.73,8.75,8.75,0,0,1,3.35-.67Z" transform="translate(-2 -2)"/><path class="cls-1" d="M19.5,25.33a5.83,5.83,0,1,0-5.83-5.83A5.83,5.83,0,0,0,19.5,25.33Z" transform="translate(-2 -2)"/><path class="cls-2" d="M2,19.5a17.5,17.5,0,1,0,35,0H28.25a8.75,8.75,0,0,1-.67,3.35,8.66,8.66,0,0,1-4.73,4.73,8.71,8.71,0,0,1-6.7,0,8.66,8.66,0,0,1-4.73-4.73,8.75,8.75,0,0,1-.67-3.35Z" transform="translate(-2 -2)"/><path class="cls-2" d="M25.33,19.5a5.83,5.83,0,0,0-11.66,0H25.33Z" transform="translate(-2 -2)"/><path class="cls-1" d="M42.75,23.8a.61.61,0,0,1-.45-.18.64.64,0,0,1-.19-.46v-8.3a.63.63,0,0,1,.19-.46.61.61,0,0,1,.45-.18H48.3a.61.61,0,0,1,.45.16.57.57,0,0,1,.17.44.54.54,0,0,1-.17.42.65.65,0,0,1-.45.16H43.39v3h3.52a.65.65,0,0,1,.46.16.6.6,0,0,1,.17.43.57.57,0,0,1-.17.42.65.65,0,0,1-.46.17H43.39v3.06H48.3a.65.65,0,0,1,.45.16.54.54,0,0,1,.17.42.57.57,0,0,1-.17.44.61.61,0,0,1-.45.16Z" transform="translate(-2 -2)"/><path class="cls-1" d="M54,23.8a.61.61,0,0,1-.58-.4l-3.59-8.22a.81.81,0,0,1,0-.69.52.52,0,0,1,.52-.27.6.6,0,0,1,.59.38L54,22.17H53.9l3.22-7.57a.62.62,0,0,1,.23-.3.67.67,0,0,1,.35-.08.55.55,0,0,1,.51.26.63.63,0,0,1,0,.58L54.57,23.4a.8.8,0,0,1-.23.3A.56.56,0,0,1,54,23.8Z" transform="translate(-2 -2)"/><path class="cls-1" d="M60.38,23.8a.61.61,0,0,1-.45-.18.63.63,0,0,1-.18-.46v-8.3a.62.62,0,0,1,.18-.46.61.61,0,0,1,.45-.18h5.55a.61.61,0,0,1,.45.16.57.57,0,0,1,.18.44.54.54,0,0,1-.18.42.65.65,0,0,1-.45.16H61v3h3.52a.65.65,0,0,1,.46.16.6.6,0,0,1,.17.43.57.57,0,0,1-.17.42.65.65,0,0,1-.46.17H61v3.06h4.91a.65.65,0,0,1,.45.16.54.54,0,0,1,.18.42.57.57,0,0,1-.18.44.61.61,0,0,1-.45.16Z" transform="translate(-2 -2)"/><path class="cls-1" d="M69,23.8a.61.61,0,0,1-.45-.18.64.64,0,0,1-.19-.46v-8.3a.63.63,0,0,1,.19-.46.61.61,0,0,1,.45-.18h2.21a3.44,3.44,0,0,1,1.63.38,2.79,2.79,0,0,1,1.11,1.07,3,3,0,0,1,.4,1.57,2.74,2.74,0,0,1-.4,1.48,2.68,2.68,0,0,1-1.11,1,3.44,3.44,0,0,1-1.63.37H69.61v3.05a.63.63,0,0,1-.18.46A.62.62,0,0,1,69,23.8Zm.64-4.87h1.57a2.19,2.19,0,0,0,1-.21,1.68,1.68,0,0,0,.68-.61,1.6,1.6,0,0,0,.24-.87,1.9,1.9,0,0,0-.24-1,1.7,1.7,0,0,0-.68-.65,2,2,0,0,0-1-.23H69.61Zm4.45,4.87a.67.67,0,0,1-.31-.07.75.75,0,0,1-.24-.23L71.3,19.94l1.24-.36,2,3.24a.68.68,0,0,1,.06.67A.57.57,0,0,1,74.06,23.8Z" transform="translate(-2 -2)"/><path class="cls-2" d="M75.63,15.4a.58.58,0,0,1-.59-.59.6.6,0,0,1,.17-.43.57.57,0,0,1,.42-.16H82.2a.57.57,0,0,1,.42.16.6.6,0,0,1,.17.43.58.58,0,0,1-.59.59Zm3.29,8.4a.61.61,0,0,1-.45-.18.64.64,0,0,1-.19-.46V14.22h1.28v8.94a.63.63,0,0,1-.18.46A.65.65,0,0,1,78.92,23.8Z" transform="translate(-2 -2)"/><path class="cls-2" d="M84.84,23.8a.65.65,0,0,1-.46-.18.63.63,0,0,1-.18-.46v-8.3a.62.62,0,0,1,.18-.46.65.65,0,0,1,.46-.18.63.63,0,0,1,.46.18.61.61,0,0,1,.17.46v3.52h5.7V14.86a.62.62,0,0,1,.18-.46.63.63,0,0,1,.46-.18.6.6,0,0,1,.45.18.65.65,0,0,1,.17.46v8.3a.67.67,0,0,1-.17.46.6.6,0,0,1-.45.18.62.62,0,0,1-.64-.64V19.51h-5.7v3.65a.63.63,0,0,1-.17.46A.63.63,0,0,1,84.84,23.8Z" transform="translate(-2 -2)"/><path class="cls-2" d="M95.52,23.8a.61.61,0,0,1-.45-.18.63.63,0,0,1-.18-.46v-8.3a.62.62,0,0,1,.18-.46.61.61,0,0,1,.45-.18h5.55a.61.61,0,0,1,.45.16.57.57,0,0,1,.18.44.54.54,0,0,1-.18.42.65.65,0,0,1-.45.16H96.16v3h3.52a.65.65,0,0,1,.46.16.6.6,0,0,1,.17.43.57.57,0,0,1-.17.42.65.65,0,0,1-.46.17H96.16v3.06h4.91a.65.65,0,0,1,.45.16.54.54,0,0,1,.18.42.57.57,0,0,1-.18.44.61.61,0,0,1-.45.16Z" transform="translate(-2 -2)"/><path class="cls-2" d="M104.1,23.8a.61.61,0,0,1-.45-.18.63.63,0,0,1-.18-.46v-8.3a.62.62,0,0,1,.18-.46.61.61,0,0,1,.45-.18.62.62,0,0,1,.49.23l5.35,7.12V14.86a.62.62,0,0,1,.18-.46.65.65,0,0,1,.46-.18.58.58,0,0,1,.45.18.62.62,0,0,1,.18.46v8.3a.63.63,0,0,1-.18.46.58.58,0,0,1-.45.18.85.85,0,0,1-.26-.05.58.58,0,0,1-.23-.17l-5.35-7.12v6.7a.63.63,0,0,1-.18.46A.62.62,0,0,1,104.1,23.8Z" transform="translate(-2 -2)"/><path class="cls-2" d="M113.28,23.8a.6.6,0,0,1-.53-.29.67.67,0,0,1,0-.63l3.45-8.23a.61.61,0,0,1,.6-.43.58.58,0,0,1,.6.43l3.46,8.26a.65.65,0,0,1,0,.62.6.6,0,0,1-.53.27.63.63,0,0,1-.59-.39l-3-7.56H117l-3.09,7.56a.6.6,0,0,1-.25.29A.66.66,0,0,1,113.28,23.8Zm.65-2.11.49-1.05h4.81l.49,1.05Z" transform="translate(-2 -2)"/></svg>