<svg id="Layer_1" data-name="Layer 1" xmlns="http://www.w3.org/2000/svg" viewBox="0 0 40 40"><defs><style>.cls-1{fill:#f06225;}</style></defs><path class="cls-1" d="M20,0A20,20,0,0,1,40,20V34a6,6,0,0,1-6,6H21V31.23a10.83,10.83,0,0,1,1.17-5.78,10,10,0,0,1,6.91-4.63l.38-.06a.81.81,0,0,0,.5-1,.83.83,0,0,0-.5-.5l-.38-.06a10,10,0,0,1-8.26-8.26l-.06-.38a.81.81,0,0,0-1-.5.83.83,0,0,0-.5.5l-.06.38a10,10,0,0,1-4.63,6.91A10.83,10.83,0,0,1,8.77,19H0A20,20,0,0,1,20,0Z"/><path class="cls-1" d="M0,21H8.77a10.83,10.83,0,0,1,5.78,1.17,9.89,9.89,0,0,1,3.28,3.28A10.83,10.83,0,0,1,19,31.23V40H6a6,6,0,0,1-6-6ZM40,2a2,2,0,1,1-2-2A2,2,0,0,1,40,2Z"/></svg>