<svg id="logo-47" xmlns="http://www.w3.org/2000/svg" xmlns:xlink="http://www.w3.org/1999/xlink" viewBox="0 0 122.18 26.09"><defs><style>.cls-1{fill:url(#linear-gradient);}.cls-2{fill:#6f74b7;}</style><linearGradient id="linear-gradient" x1="150.47" y1="15.5" x2="119.92" y2="15.5" gradientTransform="matrix(1, 0, 0, -1, 0, 30)" gradientUnits="userSpaceOnUse"><stop offset="0" stop-color="#64c2db"/><stop offset="0.51" stop-color="#7476ed"/><stop offset="1" stop-color="#e56f8c"/></linearGradient></defs><path class="cls-1" d="M128.06,25.42c-3,3-8,3-9.45-1A16.37,16.37,0,0,1,118,22a17.21,17.21,0,1,1,33.75,0,16.37,16.37,0,0,1-.66,2.4c-1.41,4-6.47,4-9.45,1L137,20.81A2,2,0,0,1,136.7,19a1.83,1.83,0,0,0-.11-1.11,1.9,1.9,0,0,0-.7-.86,1.93,1.93,0,0,0-2.13,0,1.9,1.9,0,0,0-.7.86A1.83,1.83,0,0,0,133,19a2,2,0,0,1-.28,1.77Z" transform="translate(-29.85 -1.45)"/><path class="cls-2" d="M34.5,22.24a4.76,4.76,0,0,1-2.35-.58A4.23,4.23,0,0,1,30.48,20a5.56,5.56,0,0,1-.63-2.75v-3a4.94,4.94,0,0,1,1.37-3.74,5.15,5.15,0,0,1,3.71-1.3,4.93,4.93,0,0,1,3.59,1.23,4.43,4.43,0,0,1,1.27,3.34v.07H37.45v-.14a2.54,2.54,0,0,0-.28-1.21,2,2,0,0,0-.84-.85,2.79,2.79,0,0,0-1.4-.32A2.56,2.56,0,0,0,33,12a2.94,2.94,0,0,0-.72,2.1v3.1A3,3,0,0,0,33,19.35a2.55,2.55,0,0,0,2,.8,2.37,2.37,0,0,0,1.89-.68,2.57,2.57,0,0,0,.59-1.73v-.18h-3v-2h5.33V22H37.6V20.78h-.33a2.6,2.6,0,0,1-.4.65A2.19,2.19,0,0,1,36,22,4.17,4.17,0,0,1,34.5,22.24Z" transform="translate(-29.85 -1.45)"/><path class="cls-2" d="M42.06,22V9.39h2.37V19.83h5.76V22Z" transform="translate(-29.85 -1.45)"/><path class="cls-2" d="M51.81,22V9.39h2.38V22Z" transform="translate(-29.85 -1.45)"/><path class="cls-2" d="M56.57,22V9.39h4.51l2.51,11h.32v-11h2.34V22H61.73l-2.5-11h-.32V22Z" transform="translate(-29.85 -1.45)"/><path class="cls-2" d="M71.54,22V11.55H67.87V9.39h9.72v2.16H73.92V22Z" transform="translate(-29.85 -1.45)"/><path class="cls-2" d="M79.21,22V9.39h8.1v2.16H81.59v3h5.22v2.16H81.59v3.11h5.83V22Z" transform="translate(-29.85 -1.45)"/><path class="cls-2" d="M94,22.24a5.15,5.15,0,0,1-3.71-1.3,4.94,4.94,0,0,1-1.37-3.74v-3a4.94,4.94,0,0,1,1.37-3.74A5.15,5.15,0,0,1,94,9.14a4.83,4.83,0,0,1,3.59,1.27,4.67,4.67,0,0,1,1.27,3.48V14H96.49v-.18A2.73,2.73,0,0,0,95.87,12a2.37,2.37,0,0,0-1.9-.72A2.56,2.56,0,0,0,92,12a2.94,2.94,0,0,0-.72,2.1v3.1A3,3,0,0,0,92,19.33a2.53,2.53,0,0,0,2,.79,2.34,2.34,0,0,0,1.9-.73,2.76,2.76,0,0,0,.62-1.83v-.32h2.34v.25A4.67,4.67,0,0,1,97.56,21,4.83,4.83,0,0,1,94,22.24Z" transform="translate(-29.85 -1.45)"/><path class="cls-2" d="M100.78,22V9.39h2.37v5.2h4.68V9.39h2.38V22h-2.38V16.75h-4.68V22Z" transform="translate(-29.85 -1.45)"/></svg>