<svg xmlns="http://www.w3.org/2000/svg" xmlns:xlink="http://www.w3.org/1999/xlink" viewBox="0 0 299.18 355.59"><defs><style>.cls-1{isolation:isolate;}.cls-2{fill:url(#radial-gradient);}.cls-3{fill:url(#radial-gradient-2);}.cls-4{fill:url(#radial-gradient-3);}.cls-5{fill:url(#radial-gradient-4);}.cls-6{fill:url(#radial-gradient-5);}.cls-7{fill:url(#radial-gradient-6);}.cls-8{fill:url(#radial-gradient-7);}.cls-9{fill:url(#radial-gradient-8);}.cls-10{fill:url(#radial-gradient-9);}.cls-11{fill:url(#radial-gradient-10);}.cls-12{fill:url(#radial-gradient-11);}.cls-13{fill:url(#radial-gradient-12);}.cls-14{fill:url(#radial-gradient-13);}.cls-15{fill:url(#radial-gradient-14);}.cls-16{fill:url(#radial-gradient-15);}.cls-17{fill:url(#radial-gradient-16);}.cls-18{fill:url(#radial-gradient-17);}.cls-19{fill:url(#radial-gradient-18);}.cls-20{fill:url(#radial-gradient-19);}.cls-21{fill:url(#radial-gradient-20);}.cls-22{fill:#fff;opacity:0.52;mix-blend-mode:soft-light;}.cls-23{fill:url(#radial-gradient-21);}.cls-24{fill:url(#radial-gradient-22);}.cls-25{fill:url(#radial-gradient-23);}.cls-26{fill:url(#radial-gradient-24);}.cls-27{fill:url(#radial-gradient-25);}.cls-28{fill:url(#radial-gradient-26);}.cls-29{fill:url(#radial-gradient-27);}.cls-30{fill:url(#radial-gradient-28);}.cls-31{fill:url(#radial-gradient-29);}.cls-32{fill:url(#radial-gradient-30);}.cls-33{fill:url(#radial-gradient-31);}.cls-34{fill:url(#radial-gradient-32);}.cls-35{fill:url(#radial-gradient-33);}.cls-36{fill:url(#radial-gradient-34);}.cls-37{fill:url(#radial-gradient-35);}.cls-38{fill:url(#radial-gradient-36);}</style><radialGradient id="radial-gradient" cx="689.52" cy="1107.59" r="54.88" gradientTransform="matrix(0.1, 1.08, -1.31, 0.25, 1856.41, -767.5)" gradientUnits="userSpaceOnUse"><stop offset="0" stop-color="#131818"/><stop offset="0.13" stop-color="#172820"/><stop offset="0.52" stop-color="#235135"/><stop offset="0.82" stop-color="#2a6b42"/><stop offset="1" stop-color="#2d7547"/></radialGradient><radialGradient id="radial-gradient-2" cx="666.27" cy="1122.17" r="50.08" gradientTransform="matrix(0.1, 1.08, -1.31, 0.25, 1850.22, -740.05)" xlink:href="#radial-gradient"/><radialGradient id="radial-gradient-3" cx="5707.6" cy="-752.08" r="54.88" gradientTransform="matrix(-0.1, 1.08, 1.31, 0.25, 2166.64, -5689.94)" xlink:href="#radial-gradient"/><radialGradient id="radial-gradient-4" cx="5684.35" cy="-737.49" r="50.08" gradientTransform="matrix(-0.1, 1.08, 1.31, 0.25, 2172.84, -5662.5)" xlink:href="#radial-gradient"/><radialGradient id="radial-gradient-5" cx="5713.37" cy="-855.68" r="70.01" gradientTransform="matrix(-0.1, 1.08, 1.31, 0.25, 2253.49, -5774.52)" xlink:href="#radial-gradient"/><radialGradient id="radial-gradient-6" cx="5683.72" cy="-837.08" r="63.89" gradientTransform="matrix(-0.1, 1.08, 1.31, 0.25, 2261.4, -5739.51)" xlink:href="#radial-gradient"/><radialGradient id="radial-gradient-7" cx="5986.77" cy="396.55" r="54.88" gradientTransform="matrix(-0.57, 0.92, 1.06, 0.81, 3619.24, -5445.79)" xlink:href="#radial-gradient"/><radialGradient id="radial-gradient-8" cx="5963.52" cy="411.14" r="50.08" gradientTransform="matrix(-0.57, 0.92, 1.06, 0.81, 3612.46, -5418.48)" xlink:href="#radial-gradient"/><radialGradient id="radial-gradient-9" cx="609.36" cy="1002.66" r="62.12" gradientTransform="matrix(0.15, 1.07, -1.3, 0.31, 1663.53, -776.78)" gradientUnits="userSpaceOnUse"><stop offset="0" stop-color="#182936"/><stop offset="0.12" stop-color="#193039"/><stop offset="0.67" stop-color="#1f4945"/><stop offset="1" stop-color="#21534a"/></radialGradient><radialGradient id="radial-gradient-10" cx="583.05" cy="1019.17" r="56.69" gradientTransform="matrix(0.15, 1.07, -1.3, 0.31, 1657.96, -745.42)" xlink:href="#radial-gradient-9"/><radialGradient id="radial-gradient-11" cx="623.9" cy="-217.48" r="75.41" gradientTransform="matrix(0.68, 0.84, -0.95, 0.94, -100.78, -59.04)" xlink:href="#radial-gradient-9"/><radialGradient id="radial-gradient-12" cx="591.95" cy="-197.44" r="68.81" gradientTransform="matrix(0.68, 0.84, -0.95, 0.94, -86.88, -22.96)" xlink:href="#radial-gradient-9"/><radialGradient id="radial-gradient-13" cx="5815.24" cy="-697.13" r="70.03" gradientTransform="matrix(-0.11, 1.07, 1.28, 0.29, 2109.57, -5910.31)" xlink:href="#radial-gradient-9"/><radialGradient id="radial-gradient-14" cx="5785.58" cy="-678.52" r="63.9" gradientTransform="matrix(-0.11, 1.07, 1.28, 0.29, 2116.8, -5875.18)" xlink:href="#radial-gradient-9"/><radialGradient id="radial-gradient-15" cx="5925.56" cy="-502.2" r="70.03" gradientTransform="matrix(-0.11, 1.07, 1.28, 0.29, 1852.61, -5844.59)" xlink:href="#radial-gradient-9"/><radialGradient id="radial-gradient-16" cx="5895.89" cy="-483.58" r="63.9" gradientTransform="matrix(-0.11, 1.07, 1.28, 0.29, 1859.84, -5809.46)" xlink:href="#radial-gradient-9"/><radialGradient id="radial-gradient-17" cx="2037.1" cy="-2070.4" r="56.56" gradientTransform="matrix(0.51, 0.86, 1.12, -0.66, 1662.55, -2799.26)" gradientUnits="userSpaceOnUse"><stop offset="0" stop-color="#2ea17d"/><stop offset="0.17" stop-color="#2e9778"/><stop offset="0.46" stop-color="#2e7d69"/><stop offset="0.83" stop-color="#2e5351"/><stop offset="1" stop-color="#2e3d44"/></radialGradient><radialGradient id="radial-gradient-18" cx="1998.69" cy="-2069.44" r="51.48" gradientTransform="matrix(0.51, 0.86, 0.86, -0.51, 1132.16, -2484.38)" gradientUnits="userSpaceOnUse"><stop offset="0" stop-color="#2ea17d"/><stop offset="0.17" stop-color="#2e9778"/><stop offset="0.46" stop-color="#2e7d69"/><stop offset="0.83" stop-color="#2e5451"/><stop offset="1" stop-color="#2e3d44"/></radialGradient><radialGradient id="radial-gradient-19" cx="1403.42" cy="-2152.2" r="68.47" gradientTransform="matrix(-0.65, -0.76, -0.99, 0.84, -688.49, 3151.78)" gradientUnits="userSpaceOnUse"><stop offset="0" stop-color="#297373"/><stop offset="0.73" stop-color="#1d3439"/><stop offset="1" stop-color="#181c23"/></radialGradient><radialGradient id="radial-gradient-20" cx="5249.46" cy="-2166.08" r="78.28" gradientTransform="matrix(0.74, 0.18, -0.68, 0.98, -4890.28, 1419.45)" gradientUnits="userSpaceOnUse"><stop offset="0" stop-color="#297373"/><stop offset="0.19" stop-color="#27696a"/><stop offset="0.51" stop-color="#224f52"/><stop offset="0.92" stop-color="#1a252c"/><stop offset="1" stop-color="#181c23"/></radialGradient><radialGradient id="radial-gradient-21" cx="1139.35" cy="-2007.54" r="74.54" gradientTransform="matrix(-0.76, -0.64, -0.84, 0.99, -330.65, 3115.58)" xlink:href="#radial-gradient-19"/><radialGradient id="radial-gradient-22" cx="5658.92" cy="-2022.35" r="85.22" gradientTransform="matrix(0.76, 0.05, -0.51, 1.08, -4922.66, 2232.67)" xlink:href="#radial-gradient-20"/><radialGradient id="radial-gradient-23" cx="5542.81" cy="985.91" r="64.5" gradientTransform="matrix(-0.94, 0.34, -0.44, -1.22, 6220.47, -397.95)" gradientUnits="userSpaceOnUse"><stop offset="0" stop-color="#2ca358"/><stop offset="0.18" stop-color="#2c9956"/><stop offset="0.49" stop-color="#2d7f51"/><stop offset="0.87" stop-color="#2e5549"/><stop offset="1" stop-color="#2e4646"/></radialGradient><radialGradient id="radial-gradient-24" cx="5499.02" cy="987.01" r="58.71" gradientTransform="translate(6120.64 -674.2) rotate(160.13)" gradientUnits="userSpaceOnUse"><stop offset="0" stop-color="#2ca358"/><stop offset="0.18" stop-color="#2c9956"/><stop offset="0.48" stop-color="#2d7f51"/><stop offset="0.87" stop-color="#2e5649"/><stop offset="1" stop-color="#2e4646"/></radialGradient><radialGradient id="radial-gradient-25" cx="1972.96" cy="-1911.95" r="68.77" gradientTransform="matrix(0.51, 0.86, 1.12, -0.66, 1621.96, -2775.16)" xlink:href="#radial-gradient-17"/><radialGradient id="radial-gradient-26" cx="1926.26" cy="-1910.79" r="62.59" xlink:href="#radial-gradient-18"/><radialGradient id="radial-gradient-27" cx="4185.53" cy="2154.49" r="73.24" gradientTransform="translate(-4265.99 1608.06) rotate(-49.59) scale(1 1.3)" xlink:href="#radial-gradient-19"/><radialGradient id="radial-gradient-28" cx="1012" cy="2139.3" r="83.73" gradientTransform="matrix(-0.74, 0.18, 0.68, 0.98, -81.79, -2078.41)" xlink:href="#radial-gradient-20"/><radialGradient id="radial-gradient-29" cx="4666.67" cy="1692.38" r="56.03" gradientTransform="matrix(0.84, -0.55, 0.71, 1.08, -4570.46, 883.49)" gradientUnits="userSpaceOnUse"><stop offset="0" stop-color="#30964f"/><stop offset="0.53" stop-color="#245738"/><stop offset="1" stop-color="#181c23"/></radialGradient><radialGradient id="radial-gradient-30" cx="258.96" cy="1680.68" r="64.06" gradientTransform="matrix(-0.76, -0.04, 0.38, 1.13, 136.26, -1753.86)" gradientUnits="userSpaceOnUse"><stop offset="0" stop-color="#30964f"/><stop offset="0.15" stop-color="#2e8c4c"/><stop offset="0.4" stop-color="#297242"/><stop offset="0.71" stop-color="#214833"/><stop offset="1" stop-color="#181c23"/></radialGradient><radialGradient id="radial-gradient-31" cx="1227.73" cy="-2159.19" r="56.03" gradientTransform="matrix(-0.71, -0.7, -0.91, 0.93, -573.46, 3207.33)" xlink:href="#radial-gradient-29"/><radialGradient id="radial-gradient-32" cx="5503.11" cy="-2170.69" r="64.06" gradientTransform="matrix(0.76, 0.11, -0.59, 1.04, -4967.15, 1950.35)" xlink:href="#radial-gradient-30"/><radialGradient id="radial-gradient-33" cx="592.23" cy="597.47" r="56.67" gradientTransform="translate(12.71 -434.24) rotate(4.99) scale(1 1.3)" xlink:href="#radial-gradient-23"/><radialGradient id="radial-gradient-34" cx="560.81" cy="590.7" r="56.94" gradientTransform="matrix(1, 0.09, -0.09, 1, -2.77, -256.92)" xlink:href="#radial-gradient-24"/><radialGradient id="radial-gradient-35" cx="2069.44" cy="-2629.6" r="51.79" gradientTransform="matrix(-0.42, -0.91, -1.18, 0.55, -1705.63, 3721.98)" xlink:href="#radial-gradient-29"/><radialGradient id="radial-gradient-36" cx="4215.55" cy="-2640.73" r="59.21" gradientTransform="matrix(0.67, 0.37, -0.92, 0.76, -4749.07, 824.61)" xlink:href="#radial-gradient-30"/></defs><g class="cls-1"><g id="OBJECTS"><path class="cls-2" d="M488.07,257.13c4.95,9.77,8.43,19.07,8,34.23,4.24-18.64-1.21-35.06-13.26-44.27-17.83,5.88-41,27.66-51.31,57.6,8.77-17.37,28.83-39.35,42.2-50.83-13.69,13-26.87,37.68-30.16,59.6,6.22-16.92,19.45-39.73,29.75-54.38-9.1,15.82-16.94,41.38-21.16,58.72,9.9-20,19.81-44.72,26.42-60.66-6,16.67-9.47,38.31-13.88,58.44,8.29-19.77,14.78-40.68,17.17-56-1.32,16.64-3,34.12-7.54,53.56,8.45-20.16,12.1-37.55,10.83-53.08,2.19,12.26,3.72,24,1.06,43.44Q494.64,275.36,488.07,257.13Z" transform="translate(-359.3 -90.98)"/><path class="cls-3" d="M482.81,247l-.31-.05c-14.6-6.23-25.17-7.25-46.74-1.31a94.64,94.64,0,0,1,29.63-.66,78.45,78.45,0,0,0-38.67,8.19,200.65,200.65,0,0,1,35-5.48c-16.31,2.43-35.16,8.65-43.59,17.91,8.52-6,24.56-10.91,39-14.2a118.67,118.67,0,0,0-43,26.66c13.23-9.65,34.63-19.61,50.91-25.63C448.9,260,431,274.63,418.79,293.87c16-19.09,52.14-43.29,64-46.78l-.14-.06Z" transform="translate(-359.3 -90.98)"/><path class="cls-4" d="M584.54,290.48c-5,9.77-8.44,19.06-8,34.22-4.23-18.63,1.21-35.06,13.26-44.26,17.83,5.88,41,27.65,51.31,57.6-8.77-17.37-28.82-39.35-42.2-50.84,13.69,13,26.87,37.68,30.16,59.6-6.21-16.91-19.45-39.73-29.75-54.38,9.1,15.83,16.94,41.39,21.16,58.73-9.89-20-19.81-44.73-26.42-60.67,6,16.68,9.48,38.31,13.89,58.44-8.29-19.76-14.79-40.68-17.18-56,1.32,16.64,3.05,34.12,7.54,53.55-8.45-20.15-12.09-37.55-10.83-53.07-2.19,12.25-3.72,24-1.06,43.44Q578,308.71,584.54,290.48Z" transform="translate(-359.3 -90.98)"/><path class="cls-5" d="M589.79,280.36l.31,0c14.6-6.24,25.17-7.26,46.74-1.31a94.37,94.37,0,0,0-29.63-.67,78.39,78.39,0,0,1,38.68,8.2,201.75,201.75,0,0,0-35-5.49c16.31,2.44,35.16,8.66,43.59,17.92-8.52-6-24.56-10.92-39-14.21a119,119,0,0,1,43,26.67c-13.23-9.66-34.63-19.62-50.91-25.64,16.13,7.5,34,22.18,46.24,41.42-16-19.08-52.14-43.29-64-46.77l.14-.06Z" transform="translate(-359.3 -90.98)"/><path class="cls-6" d="M529.76,188c-6.32,12.46-10.76,24.32-10.18,43.65-5.4-23.77,1.54-44.72,16.92-56.46,22.74,7.5,52.24,35.28,65.45,73.48-11.19-22.16-36.77-50.2-53.83-64.85,17.46,16.56,34.28,48.06,38.47,76-7.93-21.57-24.81-50.68-37.94-69.36,11.6,20.19,21.6,52.79,27,74.91C563,239.82,550.36,208.3,541.93,188c7.64,21.27,12.09,48.87,17.71,74.55-10.57-25.21-18.86-51.89-21.91-71.39,1.69,21.23,3.89,43.53,9.63,68.31-10.79-25.7-15.44-47.89-13.82-67.69-2.8,15.63-4.75,30.65-1.35,55.41Q521.39,211.21,529.76,188Z" transform="translate(-359.3 -90.98)"/><path class="cls-7" d="M536.46,175.06l.4-.06c18.62-7.95,32.1-9.26,59.61-1.67-14.69-2.76-26.7-2.13-37.79-.85A100.14,100.14,0,0,1,608,182.93a256.6,256.6,0,0,0-44.7-7c20.81,3.1,44.85,11,55.6,22.85-10.86-7.65-31.33-13.93-49.73-18.12a151.46,151.46,0,0,1,54.89,34c-16.87-12.32-44.17-25-64.94-32.7,20.59,9.57,43.43,28.29,59,52.83-20.45-24.34-66.51-55.21-81.62-59.66l.18-.08Z" transform="translate(-359.3 -90.98)"/><path class="cls-8" d="M580.74,376.21c-8.81,6.51-16.1,13.25-22.5,27,4.59-18.54,16.83-30.78,31.73-33.59,13.29,13.26,24.17,43.11,20,74.51,0-19.46-8.09-48.1-14.88-64.37,6.41,17.74,7.09,45.73.19,66.79,2-17.9.46-44.23-2.17-61.94,1,18.22-3.45,44.58-7.46,62,.14-22.33,2.38-48.86,3.64-66.07-2.14,17.59-8.74,38.49-13.84,58.45,1.47-21.38,5.05-43,9.78-57.72-6.29,15.46-12.6,31.86-17.3,51.24,1.49-21.8,6-39,14.14-52.28-7.45,10-14.11,19.8-20.44,38.34Q566.68,389.55,580.74,376.21Z" transform="translate(-359.3 -90.98)"/><path class="cls-9" d="M590,369.53l.3.1c15.85,1,25.75,4.82,42.35,19.82a94.49,94.49,0,0,0-26.17-13.9,78.39,78.39,0,0,1,30.87,24.69,200.74,200.74,0,0,0-28.84-20.64c13.48,9.5,27.52,23.52,30.89,35.58-4.91-9.18-17-20.78-28.45-30.2a118.75,118.75,0,0,1,26.47,43.15c-7.48-14.57-22.13-33.08-34-45.77,11.05,13.95,20.46,35.11,22.72,57.78C620.38,415.89,599,378,590,369.61h.15Z" transform="translate(-359.3 -90.98)"/><path class="cls-10" d="M471,192.52c6.11,10.78,10.54,21.1,10.82,38.27,3.81-21.29-3.21-39.58-17.32-49.35-19.85,7.58-44.85,33.43-55,67.83,9-20.11,30.52-46,45-59.7-14.79,15.39-28.4,44-31,69,6.14-19.45,19.9-46,30.77-63.05-9.45,18.38-17,47.68-20.83,67.51,10.14-23.15,20-51.61,26.68-70-5.89,19.17-8.7,43.82-12.62,66.81,8.33-22.79,14.58-46.78,16.47-64.18-.61,18.88-1.65,38.74-5.71,60.94,8.5-23.23,11.7-43.09,9.46-60.57,3.12,13.74,5.47,27,3.48,49.06Q479.4,212.77,471,192.52Z" transform="translate(-359.3 -90.98)"/><path class="cls-11" d="M464.55,181.35l-.36,0c-16.83-6.28-28.83-6.88-52.91,1,12.91-3.05,23.59-3,33.47-2.31a88.76,88.76,0,0,0-43.3,11.3,226.63,226.63,0,0,1,39.33-8c-18.31,3.6-39.29,11.63-48.33,22.54,9.31-7.23,27.19-13.63,43.33-18.11a134.36,134.36,0,0,0-47.25,32.41c14.45-11.61,38.12-24,56.21-31.66-17.85,9.33-37.32,26.87-50.11,49.26,17.13-22.42,56.68-51.69,69.89-56.25l-.17-.06Z" transform="translate(-359.3 -90.98)"/><path class="cls-12" d="M558.13,254.58c13.12,7.37,24.19,15.32,35.26,33-9.41-24.5-28.17-39.1-49-40.4-15.86,20.34-25.63,62.88-14.57,105-3.26-26.54,2.84-67,9.33-90.29-5.71,25.28-1.88,63.56,11.12,91.1-5.83-24.06-8.16-60.23-7.59-84.82,1.7,25,12.28,60.19,20.71,83.22-4-30.42-11.56-66.21-16.19-89.46,5.9,23.61,18.46,51,28.81,77.34-5.64-28.91-14.21-57.76-23.16-77,11.21,20,22.6,41.29,32.31,66.91C579.44,299.63,570.31,277,557,260.22c11.86,12.32,22.61,24.6,34.4,48.8Q579.55,270.37,558.13,254.58Z" transform="translate(-359.3 -90.98)"/><path class="cls-13" d="M544.4,247l-.4.19c-21.43,4-34.27,11-54.36,34.22,11.5-11.27,22.63-17.9,33.33-23.4A107.68,107.68,0,0,0,485.07,297a276.06,276.06,0,0,1,35.82-33c-16.77,15.24-33.53,36.75-36.07,53.76,5.13-13.35,19.69-31.23,33.65-46A162.91,162.91,0,0,0,489.72,335c7.72-21.13,24.54-48.86,38.53-68.17-12.69,20.89-21.92,51.34-21.15,82.63,3.73-34,26.45-89.28,37.32-102.31l-.21,0Z" transform="translate(-359.3 -90.98)"/><path class="cls-14" d="M542.85,119.85c-6.32,12.19-10.8,23.83-10.5,43.11-4.94-23.86,2.1-44.48,17.23-55.63,22,8.25,50.4,36.93,62.75,75.42-10.6-22.45-35.13-51.25-51.54-66.43,16.77,17.09,32.73,49.05,36.43,77-7.43-21.76-23.47-51.32-36-70.38,11,20.5,20.32,53.31,25.27,75.52-12-25.86-23.84-57.68-31.78-78.22,7.16,21.44,11.12,49.08,16.25,74.84-10-25.47-17.67-52.32-20.38-71.84,1.36,21.19,3.2,43.47,8.46,68.35-10.16-26-14.39-48.22-12.55-67.88-2.93,15.46-5,30.36-2.06,55.12Q534.39,142.7,542.85,119.85Z" transform="translate(-359.3 -90.98)"/><path class="cls-15" d="M549.54,107.23l.4,0c18.24-7.27,31.37-8.11,58.06.4-14.26-3.26-26-3-36.78-2.15a96.9,96.9,0,0,1,47.89,12.11A247.86,247.86,0,0,0,575.68,109c20.22,3.81,43.52,12.55,53.83,24.68-10.47-8-30.31-15-48.18-19.77a151.52,151.52,0,0,1,53,35.77c-16.26-12.85-42.67-26.44-62.79-34.81,19.91,10.24,41.9,29.68,56.73,54.65-19.59-24.94-64-57.29-78.68-62.23l.18-.07Z" transform="translate(-359.3 -90.98)"/><path class="cls-16" d="M522.21,360.72c-6.32,12.19-10.8,23.83-10.5,43.11C506.78,380,513.82,359.35,529,348.2c22,8.25,50.39,36.93,62.74,75.42-10.6-22.45-35.13-51.25-51.54-66.43,16.78,17.09,32.73,49,36.44,77-7.43-21.76-23.48-51.32-36-70.38,11,20.5,20.33,53.31,25.28,75.52-12-25.86-23.85-57.68-31.78-78.22,7.15,21.44,11.11,49.08,16.24,74.84-10-25.47-17.67-52.32-20.38-71.84,1.36,21.19,3.21,43.47,8.46,68.35-10.15-26-14.39-48.22-12.55-67.88-2.93,15.46-5,30.36-2.05,55.12Q513.74,383.57,522.21,360.72Z" transform="translate(-359.3 -90.98)"/><path class="cls-17" d="M528.91,348.1l.39,0c18.24-7.27,31.38-8.11,58.07.4-14.27-3.26-26-3-36.79-2.15a96.9,96.9,0,0,1,47.89,12.11,246.84,246.84,0,0,0-43.42-8.51c20.21,3.81,43.52,12.55,53.82,24.68-10.47-8-30.31-14.95-48.17-19.77a151.61,151.61,0,0,1,53,35.77c-16.27-12.85-42.68-26.44-62.8-34.81,19.92,10.24,41.91,29.67,56.74,54.65-19.6-24.94-64-57.29-78.68-62.23l.17-.07Z" transform="translate(-359.3 -90.98)"/><path class="cls-18" d="M426.5,328.43a1.43,1.43,0,0,0,.16-2.15,44.66,44.66,0,0,0-7.88-5.93c-11.53-7.12-2.67-14.54,3.78-9.9a29.61,29.61,0,0,1,9.23,10.42,1.42,1.42,0,0,0,2.37.23,26,26,0,0,0,3.41-5.63,19.67,19.67,0,0,0,1.67-11.3c-.64-3.67-3.07-8-8-11.94a21.27,21.27,0,0,0-5.78-3.35c-39.15,14.68-60,43.59-60,43.59,3.65,4.27,8.82,6.83,14.75,8a1.42,1.42,0,0,0,1.45-2.22,11.1,11.1,0,0,0-2.23-2.29c-5.94-4.67-.41-8.3,2.53-6.7,3.22,1.75,4.34,7.48,4.48,9.08.05.53.08,1,.09,1.51a1.42,1.42,0,0,0,1.41,1.38,59.78,59.78,0,0,0,15-1.88,1.43,1.43,0,0,0,.9-2.09,17.71,17.71,0,0,0-6.11-6c-9.2-5.88-1.72-11.25,2.32-9,4.66,2.57,7.22,9.75,8.28,13.89a1.42,1.42,0,0,0,1.87,1A64.44,64.44,0,0,0,426.5,328.43Zm-38.54-8c1.53,2.58-2.76,4.4-4.28,1.85S386.45,317.9,388,320.45Zm-.13-5c1.4-.65,2.12,1.65.73,2.3S386.44,316.14,387.83,315.49Zm32.49-12.17a7.53,7.53,0,0,1-5-.16c-2-.87-1.29-3.05.28-4a5.55,5.55,0,0,1,2.19-.68,4.81,4.81,0,0,1,2.83.41,2.41,2.41,0,0,1,.95,3.54A2.74,2.74,0,0,1,420.32,303.32Zm5.83-1.47c.08-.62.47-1.09,1.41-1.1a2.15,2.15,0,0,1,1.62.84,3,3,0,0,1,.71,2,1.63,1.63,0,0,1-1,1.36,1.82,1.82,0,0,1-2.14-.81A3.89,3.89,0,0,1,426.15,301.85ZM403.75,317c-2.66-.49-6.07-2.89-6-5.9a2.41,2.41,0,0,1,1.93-2.32c2-.57,6.25.37,7.69,3.65A3.2,3.2,0,0,1,403.75,317Z" transform="translate(-359.3 -90.98)"/><path class="cls-19" d="M425.21,289.14a19.39,19.39,0,0,0-.76-6.64c-2.94-10.14-7.29-11.79-7.75-12.09a19.65,19.65,0,0,0-11-3,26.44,26.44,0,0,0-6.52.88,1.42,1.42,0,0,0-.74,2.27,29.46,29.46,0,0,1,5.87,12.62c1.67,7.76-8.67,12.92-10.59-.49a44,44,0,0,0-2.29-9.59,1.43,1.43,0,0,0-2-.72,64.86,64.86,0,0,0-14.49,11.49A1.43,1.43,0,0,0,375,286c3.37,2.62,8.94,7.84,9.42,13.14.43,4.59-7.48,9.3-9.19-1.48a17.64,17.64,0,0,0-3.05-8,1.43,1.43,0,0,0-2.27,0,59.44,59.44,0,0,0-7.71,13,1.43,1.43,0,0,0,.7,1.85c.43.19.88.42,1.35.68,1.4.77,6.21,4.08,6.53,7.73.29,3.34-5.24,7-7.15-.36a11,11,0,0,0-1.21-3,1.43,1.43,0,0,0-2.61.45c-1.72,6.35.83,17.4,5.61,22.44C365.45,332.47,388.65,305.44,425.21,289.14Zm-33.68,7.95a3,3,0,0,1-3.41-1.95,10.77,10.77,0,0,1-.58-3,3,3,0,0,1,2.1-3.16c1.58-.41,2.95.7,3.72,2.23C395.39,295.24,392.91,296.82,391.53,297.09Zm23.85-11.55c-2.17.43-4.91-1.82-4.63-5.93a3,3,0,0,1,3.61-2.74C415.93,277.22,422.16,284.2,415.38,285.54Zm-23.14,16.33c1.42,2.39-2.36,4.46-3.78,2.07S390.83,299.48,392.24,301.87Zm16.69-9.3c-2-1.34.19-4.43,2.22-3.62,1.5.61,1.12,2.32.13,3.26A1.84,1.84,0,0,1,408.93,292.57Zm-29.89,21c-1.06,2.1-4.17,1.07-5-.65a5.2,5.2,0,0,1-.78-2.4,2.36,2.36,0,0,1,1.68-2.08c2.61-.67,5.33,2.58,4.18,5Z" transform="translate(-359.3 -90.98)"/><path class="cls-20" d="M475.91,275.41c9.19-4.42,22.54-8.35,35.15-10.72,27.51-5.17,45.31-24.43,40.63-42.53-3.11-12-11.86-19-23.91-19.38C498,218.74,479.8,260.09,475.91,275.41Z" transform="translate(-359.3 -90.98)"/><path class="cls-21" d="M475.91,275.41c1-13.82-1.67-17.39-3.19-36.78-1.81-23,11.43-49.28,31.59-51.75,10.82-1.33,21.39,6,23.47,15.9C500.17,226.61,483.79,257.52,475.91,275.41Z" transform="translate(-359.3 -90.98)"/><path class="cls-22" d="M503.14,218.05c-1.79.17-3.58.21-5.36.22s-3.55,0-5.3,0a27,27,0,0,0-5.17.51,14.24,14.24,0,0,0-4.77,1.88,16.63,16.63,0,0,0-3.89,3.52,14.18,14.18,0,0,1,3.51-4.06,13.9,13.9,0,0,1,4.91-2.37c3.55-.95,7.19-.8,10.71-.83a44,44,0,0,0,10.41-.89,25.78,25.78,0,0,0,7.76-3.26q1.71-1.61,3.45-3.17,2.34-2,4.73-4a5.08,5.08,0,0,1-1.41.42,11.85,11.85,0,0,1-2.66.09,41,41,0,0,1-5.2-.79c-3.42-.7-6.78-1.53-10.18-2a39.72,39.72,0,0,0-5.1-.53,26.14,26.14,0,0,0-5.08.23,18,18,0,0,0-9.19,4.22,15.42,15.42,0,0,1,4-3.38,17.06,17.06,0,0,1,5-1.88,30.08,30.08,0,0,1,10.58,0,101.59,101.59,0,0,1,10.21,2.36c1.68.43,3.35.88,5,1.15a12,12,0,0,0,2.54.21,5.06,5.06,0,0,0,1.87-.4c1.07-.88,2.14-1.75,3.24-2.6l-3.1,2.85a5.83,5.83,0,0,0-.18,2.59,13.55,13.55,0,0,0,.7,2.84c.62,1.86,1.42,3.67,2.21,5.48,1.61,3.62,3.23,7.27,4.49,11.08a36,36,0,0,1,2,11.88,20.77,20.77,0,0,1-1,6,20.09,20.09,0,0,1-2.68,5.36,22.78,22.78,0,0,0,2.6-11.33,33.2,33.2,0,0,0-.71-5.79,46.57,46.57,0,0,0-1.54-5.67c-1.21-3.74-2.76-7.38-4.18-11.1a48.69,48.69,0,0,1-1.87-5.7,13.82,13.82,0,0,1-.42-3,7.2,7.2,0,0,1,.24-2.34c-1.6,1.48-3,2.78-4.55,4.3-.87.87-1.76,1.73-2.63,2.61a34.36,34.36,0,0,0-1.73,4.06,34,34,0,0,0-1.57,6.06,39.87,39.87,0,0,0,.31,12.47c.3,2.08.67,4.18.89,6.32a21.84,21.84,0,0,1-.2,6.5,14.21,14.21,0,0,1-2.68,5.91,22,22,0,0,1-4.64,4.4,24.48,24.48,0,0,0,4.1-4.78,14.43,14.43,0,0,0,2.18-5.72,22.38,22.38,0,0,0,0-6.17c-.25-2.08-.63-4.16-1-6.26a52.47,52.47,0,0,1-.59-6.41,29.58,29.58,0,0,1,.58-6.44,36.06,36.06,0,0,1,3.12-8.71l-1.88,2c-.62.65-1.22,1.33-1.83,2Q507.41,223.23,503,229a24.38,24.38,0,0,0-1.33,6.43c-.25,3.13-.22,6.31-.49,9.52a39.15,39.15,0,0,1-.72,4.8,26.1,26.1,0,0,1-1.51,4.63,23.76,23.76,0,0,1-2.36,4.24,26.58,26.58,0,0,1-3.13,3.64,42.4,42.4,0,0,0,2.57-4A29.34,29.34,0,0,0,498,254a35.43,35.43,0,0,0,1.86-9.15c.29-3.14.32-6.33.79-9.53a21.52,21.52,0,0,1,1.19-4.74q-1.54,2.07-3,4.19c-4.15,5.91-7.93,12.08-11.53,18.34l-2.66,4.74-2.55,4.79L480.77,265l-1.22,2.42c-.82,1.62-1.64,3.24-2.48,4.84,2.83-6.67,5.8-13.3,9.27-19.68A186.07,186.07,0,0,1,497.7,234c.68-1,1.38-1.93,2.08-2.88a22.35,22.35,0,0,1-4.17,2.63c-2.44,1.22-5,2.11-7.25,3.36a20.42,20.42,0,0,0-6,4.91,49,49,0,0,0-4.39,6.65,27.24,27.24,0,0,1,3.56-7.29c.42-.55.86-1.08,1.3-1.61s1-1,1.47-1.47,1.1-.85,1.64-1.28,1.17-.75,1.77-1.09a75.45,75.45,0,0,1,7.46-3.14,29.5,29.5,0,0,0,5.53-2.91,135.66,135.66,0,0,1,10.83-12.74c.91-1,1.85-1.89,2.8-2.81a21.19,21.19,0,0,1-5.87,2.71A28.38,28.38,0,0,1,503.14,218.05Z" transform="translate(-359.3 -90.98)"/><path class="cls-23" d="M420.71,401.64c9.07-6.39,22.7-13,35.82-17.81,28.62-10.47,44.27-34.35,36-52.94-5.49-12.37-16.15-18.3-29.14-16.53C434.22,336.84,422.14,384.5,420.71,401.64Z" transform="translate(-359.3 -90.98)"/><path class="cls-24" d="M420.71,401.64c-1.41-15-4.91-18.38-10-38.92-6.06-24.38,3.45-55,24.65-61.22,11.38-3.37,24,2.58,28.06,12.86C438,344.9,426,381,420.71,401.64Z" transform="translate(-359.3 -90.98)"/><path class="cls-22" d="M439.68,335.17c-1.9.51-3.82.87-5.73,1.2s-3.81.59-5.69.94a30.45,30.45,0,0,0-5.45,1.48,15.78,15.78,0,0,0-4.79,2.87,18.24,18.24,0,0,0-3.54,4.48,15.37,15.37,0,0,1,3-5,15.12,15.12,0,0,1,4.85-3.41c3.64-1.67,7.58-2.15,11.35-2.82a48.42,48.42,0,0,0,11-2.82,27.88,27.88,0,0,0,7.74-4.89q1.54-2,3.14-4c1.43-1.73,2.88-3.45,4.35-5.14a5.43,5.43,0,0,1-1.43.7,12.55,12.55,0,0,1-2.84.57,43.73,43.73,0,0,1-5.72.08c-3.8-.13-7.56-.42-11.3-.38a46.93,46.93,0,0,0-5.57.35,28.59,28.59,0,0,0-5.42,1.16,19.47,19.47,0,0,0-9.11,6.18,16.75,16.75,0,0,1,3.71-4.35,18.25,18.25,0,0,1,5-2.91,32.46,32.46,0,0,1,11.36-1.89,113,113,0,0,1,11.38.7c1.88.17,3.75.35,5.62.34a12.71,12.71,0,0,0,2.76-.24,5.29,5.29,0,0,0,1.93-.75c1-1.14,2-2.27,3-3.37q-1.41,1.8-2.81,3.61a6.21,6.21,0,0,0,.26,2.81,16,16,0,0,0,1.26,2.92c1,1.89,2.18,3.69,3.35,5.49,2.38,3.6,4.78,7.23,6.82,11.1a39.15,39.15,0,0,1,4.29,12.39,22.39,22.39,0,0,1,0,6.59,21.88,21.88,0,0,1-1.91,6.23,24.8,24.8,0,0,0,.76-12.63,37.14,37.14,0,0,0-1.81-6.1,52.28,52.28,0,0,0-2.66-5.8c-2-3.8-4.29-7.43-6.48-11.17a51.34,51.34,0,0,1-3-5.79,15.69,15.69,0,0,1-1-3.14,8,8,0,0,1-.16-2.56c-1.45,1.87-2.72,3.52-4.12,5.43-.78,1.1-1.57,2.18-2.35,3.27a38,38,0,0,0-1.14,4.68,36.93,36.93,0,0,0-.59,6.79,43.1,43.1,0,0,0,2.57,13.32c.69,2.19,1.46,4.38,2.08,6.63a23.66,23.66,0,0,1,.95,7,15.38,15.38,0,0,1-1.82,6.82,23.41,23.41,0,0,1-4.19,5.56,26.91,26.91,0,0,0,3.54-5.86,15.63,15.63,0,0,0,1.33-6.54,24.34,24.34,0,0,0-1.15-6.62c-.64-2.18-1.41-4.35-2.14-6.55a57.21,57.21,0,0,1-1.78-6.78,32.39,32.39,0,0,1-.53-7,39.35,39.35,0,0,1,1.79-9.91l-1.67,2.43c-.55.82-1.07,1.65-1.61,2.47q-4.29,6.65-8,13.63a26.7,26.7,0,0,0-.27,7.14c.29,3.41.9,6.82,1.18,10.32a42.24,42.24,0,0,1,.08,5.28,28.09,28.09,0,0,1-.78,5.24,26,26,0,0,1-1.78,5,29,29,0,0,1-2.71,4.48,49.29,49.29,0,0,0,2.05-4.75,31.89,31.89,0,0,0,1.32-4.94,38.87,38.87,0,0,0,.36-10.17c-.25-3.41-.8-6.85-.86-10.37a23.61,23.61,0,0,1,.42-5.3c-.85,1.67-1.69,3.35-2.49,5.05-3.4,7.09-6.36,14.38-9.1,21.76l-2,5.55L425,386.83l-.95,2.8-.88,2.82q-.87,2.82-1.8,5.64c1.85-7.67,3.85-15.33,6.44-22.8a199.1,199.1,0,0,1,8.86-22c.55-1.17,1.13-2.32,1.71-3.48a23.94,23.94,0,0,1-4,3.58c-2.39,1.75-4.95,3.15-7.18,4.91a22.1,22.1,0,0,0-5.55,6.35,52.37,52.37,0,0,0-3.53,7.92,29.7,29.7,0,0,1,2.52-8.47c.34-.66.73-1.31,1.11-2s.88-1.22,1.32-1.83,1-1.12,1.52-1.68,1.12-1,1.71-1.48a81.91,81.91,0,0,1,7.45-4.71,32.62,32.62,0,0,0,5.41-4.12,148.42,148.42,0,0,1,9.35-15.61c.8-1.2,1.64-2.37,2.5-3.53a23.19,23.19,0,0,1-5.81,4A31.63,31.63,0,0,1,439.68,335.17Z" transform="translate(-359.3 -90.98)"/><path class="cls-25" d="M547,280.54a1.62,1.62,0,0,0,2.36.49c3.92-2.88,11.39-7.35,17.35-6.23,5.16,1,7.87,11.11-4.5,9.63a20.13,20.13,0,0,0-9.71.84,1.64,1.64,0,0,0-.73,2.49,68.67,68.67,0,0,0,11.85,12.51,1.63,1.63,0,0,0,2.25-.19c.35-.41.74-.83,1.16-1.26,1.29-1.31,6.42-5.55,10.52-4.76,3.76.72,6,7.92-2.62,7.74a13,13,0,0,0-3.62.39,1.63,1.63,0,0,0-.33,3c6.06,3.27,12.47,4.76,18.78,3.64,0,0,2.56-40.58-21.29-81.86a24.22,24.22,0,0,0-7.52-1.25c-7.19-.08-12.46,2-15.68,4.73a22.43,22.43,0,0,0-6.72,11.17,29.48,29.48,0,0,0-1.07,7.43,1.62,1.62,0,0,0,2.25,1.52,33.7,33.7,0,0,1,15.68-2.5c9,.59,11.47,13.53-3.84,11.46a51.13,51.13,0,0,0-11.24-.49,1.63,1.63,0,0,0-1.41,2A73.67,73.67,0,0,0,547,280.54ZM581,286.68c-3.18,1.15-5.64-3.57-2.43-4.73S584.25,285.52,581,286.68Zm-1-7.51c-.75-1.57,1.55-3.08,2.31-1.49S580.78,280.77,580,279.17Zm-18-37.41a2.74,2.74,0,0,1,3.4-2.42,5.31,5.31,0,0,1,2.79,1.69,6.33,6.33,0,0,1,1.44,2.18c.73,1.94-.2,4.4-2.62,3.69a8.62,8.62,0,0,1-4.53-3.48A3.19,3.19,0,0,1,562,241.76Zm-5.73-2.32a2.08,2.08,0,0,1-2.47-.83,1.84,1.84,0,0,1,.1-1.92,3.45,3.45,0,0,1,2-1.21,2.47,2.47,0,0,1,2,.43,1.4,1.4,0,0,1,.44,2A4.39,4.39,0,0,1,556.3,239.44Zm11,21.43c3.63-1.85,8.07.4,9.42,2.35a2.77,2.77,0,0,1,0,3.44c-2.14,2.69-6.88,2.34-9.58.84A3.65,3.65,0,0,1,567.33,260.87Z" transform="translate(-359.3 -90.98)"/><path class="cls-26" d="M589.73,308.84c7.86-1,18.12-8.86,21.21-15.7a1.64,1.64,0,0,0-2-2.29,12.87,12.87,0,0,0-3.2,1.74c-7,5.05-9.24-2.14-6.56-4.87,2.92-3,9.56-2.42,11.36-2.08.59.11,1.15.24,1.67.38a1.62,1.62,0,0,0,2-1.12,68.26,68.26,0,0,0,2.62-17,1.62,1.62,0,0,0-2-1.63,20.07,20.07,0,0,0-8.47,4.83c-9.32,8.25-12.87-1.63-9.17-5.36,4.26-4.31,13-4.88,17.81-4.75a1.63,1.63,0,0,0,1.66-1.75,73.49,73.49,0,0,0-4.44-20.62,1.62,1.62,0,0,0-2.3-.84,50.44,50.44,0,0,0-9,6.8c-11.41,10.41-16.78-1.61-9.68-7.24a33.61,33.61,0,0,1,14.31-6.87,1.62,1.62,0,0,0,1-2.53,29.67,29.67,0,0,0-5.11-5.5,22.41,22.41,0,0,0-11.88-5.36c-.62-.06-5.65-1.77-15.58,5a21.88,21.88,0,0,0-5.48,5.3C588.88,268.23,589.73,308.84,589.73,308.84Zm5.32-56.58c1.79-.79,3.8-.77,4.9.73a3.46,3.46,0,0,1-.44,4.3,12.38,12.38,0,0,1-2.7,2.25,3.42,3.42,0,0,1-4.42-.75C591.37,257.55,590.33,254.36,595.05,252.26Zm-8.13-27.82a3.39,3.39,0,0,1,1.2,5c-2.72,3.82-6.77,3.82-8.37,1.87C574.75,225.25,585.3,223.61,586.92,224.44Zm3.21,42.6c-3,1.08-4.81-3.48-1.83-4.56S593.11,266,590.13,267Zm-11.61-26.86c-.19-1.55.72-3.33,2.48-2.77,2.38.75,2.06,5.05-.66,4.79A2.09,2.09,0,0,1,578.52,240.18Zm13,42c.78-3,5.53-3.9,7.35-1.42a2.7,2.7,0,0,1,0,3.05,6,6,0,0,1-2.44,1.55c-2,.89-5.5-.46-4.9-3.08C591.49,282.29,591.49,282.25,591.5,282.22Z" transform="translate(-359.3 -90.98)"/><path class="cls-27" d="M537.51,193.28a1.73,1.73,0,0,0,.19-2.6,53.53,53.53,0,0,0-9.59-7.21c-14-8.66-3.24-17.68,4.61-12a35.92,35.92,0,0,1,11.21,12.67,1.72,1.72,0,0,0,2.88.27,30.89,30.89,0,0,0,4.15-6.84,23.79,23.79,0,0,0,2-13.74c-.77-4.47-3.73-9.71-9.71-14.52a26,26,0,0,0-7-4.07c-47.6,17.85-73,53-73,53,4.44,5.19,10.72,8.31,17.93,9.73a1.74,1.74,0,0,0,1.77-2.71,14.16,14.16,0,0,0-2.72-2.78c-7.22-5.68-.5-10.09,3.08-8.14,3.91,2.12,5.27,9.09,5.45,11,0,.64.09,1.25.1,1.83a1.73,1.73,0,0,0,1.72,1.68,72.7,72.7,0,0,0,18.22-2.28,1.74,1.74,0,0,0,1.09-2.54,21.48,21.48,0,0,0-7.42-7.28c-11.19-7.15-2.09-13.67,2.81-11,5.67,3.11,8.79,11.85,10.07,16.88a1.73,1.73,0,0,0,2.28,1.19A78.09,78.09,0,0,0,537.51,193.28Zm-46.86-9.69c1.85,3.13-3.36,5.34-5.2,2.25S488.81,180.49,490.65,183.59Zm-.17-6c1.71-.8,2.58,2,.89,2.79S488.79,178.34,490.48,177.56ZM530,162.76a9.13,9.13,0,0,1-6.08-.2c-2.48-1.06-1.57-3.71.34-4.82a6.88,6.88,0,0,1,2.66-.82,5.83,5.83,0,0,1,3.45.5,2.93,2.93,0,0,1,1.15,4.3A3.37,3.37,0,0,1,530,162.76Zm7.09-1.79a1.5,1.5,0,0,1,1.71-1.34,2.62,2.62,0,0,1,2,1,3.73,3.73,0,0,1,.87,2.38,2,2,0,0,1-1.22,1.65,2.25,2.25,0,0,1-2.61-1A4.79,4.79,0,0,1,537.08,161Zm-27.24,18.46c-3.23-.6-7.38-3.52-7.32-7.18a2.94,2.94,0,0,1,2.35-2.82c2.43-.7,7.6.46,9.35,4.43A3.9,3.9,0,0,1,509.84,179.43Z" transform="translate(-359.3 -90.98)"/><path class="cls-28" d="M535.94,145.51a23.33,23.33,0,0,0-.93-8.07c-3.57-12.33-8.86-14.33-9.42-14.7a23.77,23.77,0,0,0-13.41-3.63,31.34,31.34,0,0,0-7.93,1.07,1.73,1.73,0,0,0-.9,2.75,35.93,35.93,0,0,1,7.13,15.35c2,9.44-10.53,15.71-12.87-.59A53.86,53.86,0,0,0,494.83,126a1.73,1.73,0,0,0-2.47-.87,78.25,78.25,0,0,0-17.61,14,1.74,1.74,0,0,0,.18,2.57c4.09,3.18,10.86,9.53,11.45,16,.51,5.58-9.1,11.31-11.18-1.8a21.4,21.4,0,0,0-3.71-9.71,1.73,1.73,0,0,0-2.76,0,73.34,73.34,0,0,0-9.38,15.8,1.73,1.73,0,0,0,.86,2.24c.53.25,1.07.52,1.64.83,1.71.94,7.55,5,7.94,9.4.36,4.07-6.37,8.46-8.69-.43a13.87,13.87,0,0,0-1.47-3.6,1.74,1.74,0,0,0-3.18.54c-2.09,7.73,1,21.16,6.83,27.29C463.28,198.2,491.48,165.34,535.94,145.51Zm-41,9.68a3.67,3.67,0,0,1-4.15-2.38,13.16,13.16,0,0,1-.69-3.68,3.67,3.67,0,0,1,2.54-3.84c1.92-.49,3.6.85,4.53,2.72C499.68,152.93,496.66,154.85,495,155.19Zm29-14.05c-2.64.52-6-2.22-5.62-7.21a3.61,3.61,0,0,1,4.39-3.33C524.65,131,532.23,139.51,524,141.14ZM495.85,161c1.72,2.9-2.87,5.41-4.6,2.51S494.13,158.09,495.85,161Zm20.3-11.32c-2.42-1.63.23-5.38,2.69-4.39,1.83.73,1.37,2.81.16,4A2.2,2.2,0,0,1,516.15,149.68Zm-36.35,25.5c-1.29,2.56-5.07,1.31-6.13-.78a6.42,6.42,0,0,1-.95-2.93,2.87,2.87,0,0,1,2-2.53c3.18-.81,6.48,3.14,5.09,6.14C479.83,175.11,479.82,175.15,479.8,175.18Z" transform="translate(-359.3 -90.98)"/><path class="cls-29" d="M633,237.26c-9.83-4.73-24.11-8.94-37.6-11.47-29.43-5.52-48.46-26.13-43.46-45.49,3.32-12.87,12.69-20.35,25.57-20.73C609.41,176.64,628.83,220.88,633,237.26Z" transform="translate(-359.3 -90.98)"/><path class="cls-30" d="M633,237.26c-1.07-14.79,1.79-18.61,3.41-39.34,1.93-24.61-12.23-52.71-33.79-55.36-11.57-1.41-22.88,6.39-25.11,17C607,184.45,627.35,221.32,633,237.26Z" transform="translate(-359.3 -90.98)"/><path class="cls-22" d="M603.85,175.9c1.92.19,3.84.22,5.75.24s3.79,0,5.66,0a29.88,29.88,0,0,1,5.53.55,15.54,15.54,0,0,1,5.11,2,18.07,18.07,0,0,1,4.15,3.77,15.27,15.27,0,0,0-3.75-4.35,15,15,0,0,0-5.25-2.52c-3.8-1-7.69-.86-11.45-.89a47.09,47.09,0,0,1-11.15-1,27.53,27.53,0,0,1-8.29-3.48q-1.83-1.72-3.69-3.4c-1.67-1.44-3.36-2.87-5.06-4.27a5.75,5.75,0,0,0,1.5.45,12.38,12.38,0,0,0,2.85.09,44.92,44.92,0,0,0,5.56-.84c3.66-.75,7.26-1.64,10.89-2.2a43.58,43.58,0,0,1,5.45-.56,29.09,29.09,0,0,1,5.44.24,19.19,19.19,0,0,1,9.83,4.52,16.12,16.12,0,0,0-4.3-3.61,17.82,17.82,0,0,0-5.33-2,31.89,31.89,0,0,0-11.32,0,110,110,0,0,0-10.91,2.52c-1.8.47-3.58.95-5.39,1.24a13.14,13.14,0,0,1-2.72.22,5.31,5.31,0,0,1-2-.42q-1.71-1.41-3.46-2.78l3.31,3a6.18,6.18,0,0,1,.19,2.77,14.84,14.84,0,0,1-.75,3c-.66,2-1.51,3.92-2.36,5.86-1.72,3.87-3.45,7.78-4.8,11.85a38.57,38.57,0,0,0-2.17,12.71,22.66,22.66,0,0,0,1,6.39,21.68,21.68,0,0,0,2.87,5.73,24.36,24.36,0,0,1-2.78-12.12,35,35,0,0,1,.76-6.2,49.85,49.85,0,0,1,1.65-6.06c1.29-4,2.95-7.89,4.47-11.87a51.17,51.17,0,0,0,2-6.1,15.72,15.72,0,0,0,.45-3.21,7.87,7.87,0,0,0-.26-2.5c1.71,1.58,3.21,3,4.87,4.6l2.81,2.79a36.17,36.17,0,0,1,1.85,4.35,35.69,35.69,0,0,1,1.68,6.48,42.33,42.33,0,0,1-.34,13.33c-.31,2.23-.71,4.47-.94,6.76a23.17,23.17,0,0,0,.21,6.95,15.23,15.23,0,0,0,2.87,6.32,23.06,23.06,0,0,0,5,4.71,26.22,26.22,0,0,1-4.38-5.11,15.28,15.28,0,0,1-2.34-6.12,23.55,23.55,0,0,1,0-6.6c.26-2.22.66-4.44,1-6.7a55.53,55.53,0,0,0,.63-6.85,31.28,31.28,0,0,0-.62-6.89,38.73,38.73,0,0,0-3.34-9.32l2,2.09c.67.7,1.31,1.42,2,2.13q5.24,5.75,9.94,11.93a26,26,0,0,1,1.42,6.87c.27,3.35.23,6.76.53,10.19a40.72,40.72,0,0,0,.77,5.13,27.79,27.79,0,0,0,1.61,5,24.72,24.72,0,0,0,2.52,4.53,27.94,27.94,0,0,0,3.36,3.9,46.31,46.31,0,0,1-2.76-4.27,31.78,31.78,0,0,1-2.08-4.57,37.76,37.76,0,0,1-2-9.8c-.32-3.34-.34-6.77-.84-10.19a23.56,23.56,0,0,0-1.28-5.07q1.66,2.22,3.24,4.49c4.44,6.32,8.49,12.91,12.34,19.62l2.84,5.06,2.73,5.13,1.38,2.55,1.31,2.6c.86,1.73,1.75,3.45,2.65,5.17-3-7.13-6.21-14.23-9.93-21A199.07,199.07,0,0,0,609.68,193c-.73-1-1.47-2.07-2.23-3.09a23.83,23.83,0,0,0,4.47,2.81c2.6,1.31,5.31,2.26,7.75,3.61a21.6,21.6,0,0,1,6.41,5.25,51.48,51.48,0,0,1,4.7,7.11,29.1,29.1,0,0,0-3.81-7.8c-.44-.59-.92-1.16-1.39-1.72s-1.05-1-1.57-1.57-1.17-.92-1.76-1.37-1.24-.81-1.89-1.17a81.18,81.18,0,0,0-8-3.36,32.07,32.07,0,0,1-5.91-3.11,143.43,143.43,0,0,0-11.59-13.62c-1-1-2-2-3-3a22.88,22.88,0,0,0,6.28,2.91A30.59,30.59,0,0,0,603.85,175.9Z" transform="translate(-359.3 -90.98)"/><path class="cls-31" d="M576.29,168.45c-6.21-5.58-15.8-11.72-25.16-16.47-20.43-10.36-30-29.57-22.19-42.71,5.2-8.75,13.68-12.24,23.23-9.76C572,118.88,576.74,155.53,576.29,168.45Z" transform="translate(-359.3 -90.98)"/><path class="cls-32" d="M576.29,168.45c2.38-11.09,5.3-13.28,10.93-28.16,6.68-17.66,2.3-41.34-13-47.89-8.2-3.52-18.18-.21-22.08,7.11C568.54,124.11,575.56,155.54,576.29,168.45Z" transform="translate(-359.3 -90.98)"/><path class="cls-22" d="M568,117.15c1.37.55,2.77,1,4.16,1.4s2.8.78,4.17,1.21a22.55,22.55,0,0,1,3.94,1.59,11.85,11.85,0,0,1,3.32,2.57,14,14,0,0,1,2.25,3.65,11.85,11.85,0,0,0-1.83-4,11.37,11.37,0,0,0-3.31-3,34.54,34.54,0,0,0-8.23-3.11,36.34,36.34,0,0,1-8-3.08,20.78,20.78,0,0,1-5.34-4.34c-.65-1.1-1.32-2.19-2-3.28q-1.38-2.13-2.8-4.22a4.47,4.47,0,0,0,1,.65,9.65,9.65,0,0,0,2.07.68,34.45,34.45,0,0,0,4.27.57c2.84.23,5.68.35,8.46.71a33.39,33.39,0,0,1,4.13.76,21.52,21.52,0,0,1,3.94,1.34,14.66,14.66,0,0,1,6.26,5.43,12.6,12.6,0,0,0-2.39-3.58,13.72,13.72,0,0,0-3.48-2.62,24.65,24.65,0,0,0-8.32-2.42,85,85,0,0,0-8.56-.48c-1.41,0-2.83-.07-4.22-.25a9.24,9.24,0,0,1-2-.42,3.93,3.93,0,0,1-1.38-.74c-.64-.93-1.28-1.86-1.95-2.78.59,1,1.19,2,1.78,3a4.63,4.63,0,0,1-.45,2.07,11.6,11.6,0,0,1-1.2,2.07c-.91,1.32-2,2.56-3,3.8-2.09,2.48-9.51,13.34-10.37,16.55a17,17,0,0,0-.61,4.91,16.42,16.42,0,0,0,.88,4.83,18.63,18.63,0,0,1,.55-9.5,27.41,27.41,0,0,1,1.89-4.39,38.37,38.37,0,0,1,2.5-4.1C546,116,548,113.45,550,110.85a40.29,40.29,0,0,0,2.78-4,12.41,12.41,0,0,0,1-2.26,6.27,6.27,0,0,0,.34-1.9c.92,1.53,1.72,2.87,2.59,4.43.49.88,1,1.76,1.46,2.64a27.43,27.43,0,0,1,.44,3.6,28.23,28.23,0,0,1-.16,5.12,32.54,32.54,0,0,1-3.1,9.72c-.71,1.57-1.48,3.13-2.14,4.76a17.77,17.77,0,0,0-1.33,5.15,11.61,11.61,0,0,0,.75,5.26,17.74,17.74,0,0,0,2.64,4.52,20.17,20.17,0,0,1-2.13-4.69,11.79,11.79,0,0,1-.41-5,18.57,18.57,0,0,1,1.44-4.84c.67-1.57,1.45-3.12,2.18-4.7a41.55,41.55,0,0,0,1.93-4.9,24.21,24.21,0,0,0,1-5.19,29.48,29.48,0,0,0-.46-7.56l1,2c.33.66.65,1.33,1,2,1.74,3.55,3.32,7.19,4.74,10.88a20.09,20.09,0,0,1-.42,5.36c-.52,2.51-1.28,5-1.8,7.59a30.58,30.58,0,0,0-.53,3.94,21.2,21.2,0,0,0,.12,4,18.9,18.9,0,0,0,.89,3.87,21,21,0,0,0,1.62,3.58,36,36,0,0,1-1.1-3.73,23.52,23.52,0,0,1-.55-3.8,28.78,28.78,0,0,1,.63-7.62c.49-2.53,1.2-5.05,1.56-7.67a18.41,18.41,0,0,0,.16-4c.49,1.33,1,2.66,1.41,4,1.91,5.59,3.47,11.3,4.86,17.05l1,4.32.9,4.35.47,2.17.4,2.19c.27,1.46.55,2.91.84,4.37-.7-5.89-1.51-11.78-2.78-17.59a150.94,150.94,0,0,0-4.66-17.22c-.31-.92-.64-1.83-1-2.74a17.89,17.89,0,0,0,2.68,3c1.63,1.52,3.41,2.8,4.92,4.31a16.47,16.47,0,0,1,3.58,5.22A40.6,40.6,0,0,1,580.8,147a22.31,22.31,0,0,0-1.14-6.54c-.19-.53-.42-1-.65-1.56s-.55-1-.82-1.49-.66-.92-1-1.39-.75-.85-1.14-1.25a61.48,61.48,0,0,0-5.14-4.18,24.21,24.21,0,0,1-3.68-3.55,110,110,0,0,0-5.6-12.49c-.49-1-1-1.91-1.55-2.85a17.42,17.42,0,0,0,4,3.47A23.29,23.29,0,0,0,568,117.15Z" transform="translate(-359.3 -90.98)"/><path class="cls-33" d="M473.7,354.82c7.17-4.27,17.77-8.44,27.88-11.28,22.05-6.19,35.17-23.18,30.06-37.6-3.41-9.58-11-14.65-20.89-14.07C487.58,307,475.77,342.05,473.7,354.82Z" transform="translate(-359.3 -90.98)"/><path class="cls-34" d="M473.7,354.82c-.18-11.35-2.62-14.06-5.25-29.75-3.13-18.63,5.76-41,22-44.47,8.72-1.86,17.86,3.33,20.28,11.27C489.91,312.82,476.92,342.29,473.7,354.82Z" transform="translate(-359.3 -90.98)"/><path class="cls-22" d="M491.76,306.09c-1.44.28-2.91.43-4.35.57s-2.9.22-4.32.38a22.36,22.36,0,0,0-4.18.79,11.8,11.8,0,0,0-3.75,1.88,13.45,13.45,0,0,0-2.92,3.14,11.77,11.77,0,0,1,2.57-3.56,11.53,11.53,0,0,1,3.83-2.28,34.57,34.57,0,0,1,8.67-1.45,36,36,0,0,0,8.42-1.48,20.94,20.94,0,0,0,6.09-3.21c.85-1,1.72-1.9,2.59-2.84q1.75-1.81,3.56-3.59a4.59,4.59,0,0,1-1.11.44,9.89,9.89,0,0,1-2.16.26,34.12,34.12,0,0,1-4.3-.27c-2.84-.32-5.64-.75-8.45-.94a34.5,34.5,0,0,0-4.19-.06,21.94,21.94,0,0,0-4.13.55,14.72,14.72,0,0,0-7.19,4.11,12.76,12.76,0,0,1,3-3,13.79,13.79,0,0,1,3.92-1.89,24.69,24.69,0,0,1,8.63-.76,85.41,85.41,0,0,1,8.49,1.19c1.4.23,2.79.48,4.19.58a9.73,9.73,0,0,0,2.09,0,4.15,4.15,0,0,0,1.49-.45c.81-.8,1.62-1.58,2.45-2.36l-2.32,2.55a4.89,4.89,0,0,0,0,2.12,10.8,10.8,0,0,0,.78,2.26c.63,1.48,1.42,2.89,2.19,4.31,1.57,2.84,3.16,5.7,4.47,8.71a29.64,29.64,0,0,1,2.5,9.54,17.07,17.07,0,0,1-.36,4.94,16.25,16.25,0,0,1-1.8,4.56,18.65,18.65,0,0,0,1.3-9.43,26.8,26.8,0,0,0-1-4.67,36.84,36.84,0,0,0-1.66-4.5c-1.26-3-2.78-5.82-4.21-8.75a42.1,42.1,0,0,1-1.94-4.52,12.24,12.24,0,0,1-.56-2.41,6,6,0,0,1,0-1.92c-1.2,1.32-2.25,2.48-3.41,3.83-.64.78-1.3,1.54-1.95,2.32a29.39,29.39,0,0,0-1.12,3.44,28,28,0,0,0-.84,5.05,32.32,32.32,0,0,0,1.16,10.14c.39,1.68.84,3.36,1.17,5.09a17.46,17.46,0,0,1,.31,5.31,11.58,11.58,0,0,1-1.76,5,17.77,17.77,0,0,1-3.46,3.92,20,20,0,0,0,3-4.19,11.76,11.76,0,0,0,1.37-4.82,18.27,18.27,0,0,0-.47-5c-.35-1.67-.81-3.34-1.23-5a44.39,44.39,0,0,1-.94-5.17,24.71,24.71,0,0,1,0-5.3A29.58,29.58,0,0,1,502,301.8l-1.4,1.72c-.46.58-.9,1.17-1.35,1.76q-3.6,4.73-6.76,9.76a20,20,0,0,0-.63,5.33c0,2.57.28,5.17.29,7.8a32.76,32.76,0,0,1-.24,4A21.51,21.51,0,0,1,491,336a19.61,19.61,0,0,1-1.62,3.62,22.13,22.13,0,0,1-2.29,3.2,37.7,37.7,0,0,0,1.81-3.44,24.05,24.05,0,0,0,1.27-3.63,28.47,28.47,0,0,0,.86-7.6c0-2.57-.2-5.18,0-7.82a18.26,18.26,0,0,1,.62-4c-.74,1.2-1.46,2.41-2.16,3.64-3,5.12-5.6,10.41-8.08,15.78l-1.82,4.05L477.79,344l-.87,2-.83,2.07c-.54,1.38-1.1,2.75-1.67,4.12,1.83-5.64,3.77-11.26,6.14-16.72a152.1,152.1,0,0,1,7.92-16c.48-.84,1-1.67,1.48-2.5a17.42,17.42,0,0,1-3.21,2.44c-1.89,1.17-3.89,2.08-5.66,3.27a16.68,16.68,0,0,0-4.54,4.44,39.84,39.84,0,0,0-3.1,5.73,22.4,22.4,0,0,1,2.38-6.2c.3-.48.62-.94.95-1.4s.72-.87,1.09-1.31.83-.77,1.24-1.16.9-.7,1.36-1a63.51,63.51,0,0,1,5.86-3.09,24.4,24.4,0,0,0,4.29-2.78,113.15,113.15,0,0,1,7.92-11.16c.67-.85,1.37-1.68,2.07-2.5a17.4,17.4,0,0,1-4.58,2.64A23.57,23.57,0,0,1,491.76,306.09Z" transform="translate(-359.3 -90.98)"/><path class="cls-35" d="M563.36,403.68a1.45,1.45,0,0,0-.71-2.06,44.91,44.91,0,0,0-9.73-2.35c-13.6-2-8.33-12.48-.45-10.75a30.06,30.06,0,0,1,12.78,6,1.44,1.44,0,0,0,2.3-.74,26.3,26.3,0,0,0,.92-6.61,19.94,19.94,0,0,0-3-11.2c-2.06-3.17-6.06-6.21-12.23-7.92a21.57,21.57,0,0,0-6.74-.79C515.93,396.66,508.1,432,508.1,432c5.12,2.52,11,2.83,17,1.53a1.45,1.45,0,0,0,.46-2.65,11.67,11.67,0,0,0-3-1.24c-7.41-2-3.72-7.56-.33-7.25,3.7.33,7,5.23,7.82,6.66.25.47.48.93.68,1.36a1.44,1.44,0,0,0,1.87.73,61.18,61.18,0,0,0,13.22-7.77,1.46,1.46,0,0,0,0-2.31,17.87,17.87,0,0,0-8.09-3.12c-10.94-1.79-6.12-9.79-1.47-9.34,5.37.51,10.65,6.18,13.29,9.61a1.46,1.46,0,0,0,2.15.16A65.35,65.35,0,0,0,563.36,403.68Zm-39.11,8.05c2.45,1.79-.81,5.21-3.25,3.45S521.81,410,524.25,411.73Zm-2.12-4.56c1-1.17,2.64.68,1.6,1.85S521.1,408.33,522.13,407.17Zm25.39-24.39a7.64,7.64,0,0,1-4.73,1.85c-2.25,0-2.43-2.32-1.33-3.8a5.61,5.61,0,0,1,1.77-1.51,4.84,4.84,0,0,1,2.8-.76,2.45,2.45,0,0,1,2.31,2.92A2.84,2.84,0,0,1,547.52,382.78Zm4.84-3.71a1.25,1.25,0,0,1,.87-1.6,2.2,2.2,0,0,1,1.84.13,3.1,3.1,0,0,1,1.45,1.54,1.62,1.62,0,0,1-.39,1.66,1.86,1.86,0,0,1-2.32.11A4,4,0,0,1,552.36,379.07Zm-14.78,23.14c-2.67.61-6.81-.26-8-3.08a2.46,2.46,0,0,1,.87-2.94c1.63-1.34,6-2.16,8.63.31A3.26,3.26,0,0,1,537.58,402.21Z" transform="translate(-359.3 -90.98)"/><path class="cls-36" d="M546.38,367.6a19.76,19.76,0,0,0-3.38-5.89c-6.81-8.26-11.52-8-12.08-8.15a19.89,19.89,0,0,0-11.47,1.65,26,26,0,0,0-5.72,3.44,1.44,1.44,0,0,0,.21,2.41,29.77,29.77,0,0,1,10.54,9.4c4.68,6.56-2.88,15.52-10.06,3.8a44.8,44.8,0,0,0-6-8,1.44,1.44,0,0,0-2.18.15,65.57,65.57,0,0,0-8.89,16.52,1.45,1.45,0,0,0,1,1.91c4.19,1.09,11.47,3.72,14,8.46,2.24,4.1-3.23,11.67-9.16,2.31a17.93,17.93,0,0,0-6.05-6.22,1.45,1.45,0,0,0-2.12.9,60.66,60.66,0,0,0-2,15.2,1.45,1.45,0,0,0,1.4,1.44q.72,0,1.53.09c1.62.16,7.43,1.32,9.19,4.59,1.62,3-2.09,8.58-6.8,2.54a11.54,11.54,0,0,0-2.32-2.28,1.46,1.46,0,0,0-2.26,1.47c1,6.61,7.77,15.88,14.25,18.65C508.1,432,518.86,397.48,546.38,367.6Zm-28.19,20.94a3.06,3.06,0,0,1-4-.45,11.13,11.13,0,0,1-1.75-2.59,3.07,3.07,0,0,1,.69-3.78c1.31-1,3-.54,4.37.58C521,385.25,519.36,387.73,518.19,388.54Zm17.58-20.35c-1.85,1.27-5.31.28-6.69-3.66a3,3,0,0,1,2.26-4C532.94,360.22,541.55,364.22,535.77,368.19Zm-15,24.51c2.28,1.66-.41,5.1-2.69,3.45S518.49,391.05,520.77,392.7Zm11.82-15.37c-2.4-.45-1.6-4.2.61-4.26,1.64,0,2,1.71,1.43,3A1.85,1.85,0,0,1,532.59,377.33Zm-19.43,31.54c-.14,2.39-3.46,2.68-4.95,1.43a5.28,5.28,0,0,1-1.71-1.93,2.41,2.41,0,0,1,.73-2.61c2.17-1.67,6,.26,5.93,3Z" transform="translate(-359.3 -90.98)"/><path class="cls-37" d="M475.29,396.75c7.59-1.37,18.12-1.55,27.79-.74,21.1,1.77,38-8.69,38.19-22.82.16-9.41-4.82-16.27-13.53-18.95C502.77,359.87,481.21,386.37,475.29,396.75Z" transform="translate(-359.3 -90.98)"/><path class="cls-38" d="M475.29,396.75c3.51-9.88,2.29-13,5.08-27.46,3.32-17.13,18.26-33.63,33.45-31.37,8.16,1.21,14.4,8.66,13.92,16.32C502.92,365.64,482.13,387,475.29,396.75Z" transform="translate(-359.3 -90.98)"/><path class="cls-22" d="M506.7,360.41c-1.34-.23-2.66-.57-4-.92s-2.57-.74-3.86-1.07a21.48,21.48,0,0,0-3.87-.67,11,11,0,0,0-3.86.42,12.27,12.27,0,0,0-3.54,1.78,10,10,0,0,1,7.43-3,31.62,31.62,0,0,1,8,1.55,33.76,33.76,0,0,0,7.78,1.45,19.39,19.39,0,0,0,6.31-.82c1-.55,2.1-1.09,3.15-1.62q2.12-1,4.25-2a4.12,4.12,0,0,1-1.11,0,8.69,8.69,0,0,1-1.95-.48,30.36,30.36,0,0,1-3.63-1.62c-2.36-1.2-4.64-2.48-7-3.55a32.48,32.48,0,0,0-3.61-1.41,20.25,20.25,0,0,0-3.76-.85,13.67,13.67,0,0,0-7.55,1.22,11.6,11.6,0,0,1,3.61-1.65,12.89,12.89,0,0,1,4-.37,22.66,22.66,0,0,1,7.72,2.14,77.5,77.5,0,0,1,7,3.77c1.14.66,2.27,1.32,3.44,1.86a9.22,9.22,0,0,0,1.82.66,3.67,3.67,0,0,0,1.44.09c1-.43,1.92-.85,2.88-1.25l-2.83,1.46a4.37,4.37,0,0,0-.65,1.85,10.18,10.18,0,0,0-.06,2.21c.07,1.48.29,3,.5,4.44a89.07,89.07,0,0,1,1,9,27,27,0,0,1-.92,9.07,15.86,15.86,0,0,1-1.91,4.16,15.23,15.23,0,0,1-3,3.37,17.36,17.36,0,0,0,4.18-7.74,24.63,24.63,0,0,0,.64-4.37,34.61,34.61,0,0,0,0-4.44c-.13-3-.53-5.94-.81-8.93a36.14,36.14,0,0,1-.22-4.54,11,11,0,0,1,.3-2.27,5.32,5.32,0,0,1,.65-1.66c-1.47.76-2.75,1.43-4.19,2.22-.81.47-1.63.92-2.44,1.38A24.79,24.79,0,0,0,516,362a25.42,25.42,0,0,0-2.36,4.11,29.78,29.78,0,0,0-2.28,9.15c-.21,1.58-.36,3.18-.63,4.78a16.74,16.74,0,0,1-1.45,4.7,10.67,10.67,0,0,1-3.15,3.77,16.58,16.58,0,0,1-4.27,2.28,18.86,18.86,0,0,0,3.95-2.66,10.93,10.93,0,0,0,2.75-3.73,16.89,16.89,0,0,0,1.21-4.51c.24-1.56.39-3.16.57-4.76a41.47,41.47,0,0,1,.86-4.79,22.79,22.79,0,0,1,1.72-4.58,27.85,27.85,0,0,1,4-5.72l-1.76,1-1.74,1.09q-4.65,2.92-9,6.26a18.63,18.63,0,0,0-2.26,4.42c-.81,2.23-1.43,4.56-2.27,6.84a29.52,29.52,0,0,1-1.5,3.35,20.43,20.43,0,0,1-2,3.08,18.19,18.19,0,0,1-2.58,2.61,20.19,20.19,0,0,1-3,2,32.47,32.47,0,0,0,2.68-2.4,21.06,21.06,0,0,0,2.28-2.72,26.69,26.69,0,0,0,3.2-6.3c.85-2.23,1.51-4.56,2.5-6.79a16,16,0,0,1,1.82-3.22c-1,.8-2.05,1.62-3.05,2.45-4.22,3.47-8.22,7.21-12.11,11l-2.89,2.92-2.82,3-1.42,1.48-1.38,1.52c-.92,1-1.85,2-2.78,3,3.4-4.29,6.9-8.53,10.72-12.48a139.45,139.45,0,0,1,12-11.28c.69-.57,1.39-1.13,2.1-1.69a16.6,16.6,0,0,1-3.58,1.08c-2,.4-4,.54-6,1a15.26,15.26,0,0,0-5.36,2.37,36.69,36.69,0,0,0-4.54,4,20.66,20.66,0,0,1,4.07-4.6c.41-.32.84-.61,1.27-.91s.91-.51,1.36-.77,1-.41,1.46-.61,1-.31,1.51-.44a56.34,56.34,0,0,1,6.07-.78,22.87,22.87,0,0,0,4.61-1A101.42,101.42,0,0,1,513,361.44c.85-.52,1.73-1,2.6-1.49a16.07,16.07,0,0,1-4.82.8A21.41,21.41,0,0,1,506.7,360.41Z" transform="translate(-359.3 -90.98)"/></g></g></svg>