<svg xmlns="http://www.w3.org/2000/svg" xmlns:xlink="http://www.w3.org/1999/xlink" viewBox="0 0 840.85 787.35"><defs><style>.cls-1{isolation:isolate;}.cls-2{fill:#83c601;}.cls-3,.cls-4,.cls-5,.cls-6,.cls-7,.cls-8{mix-blend-mode:multiply;}.cls-3{fill:url(#linear-gradient);}.cls-4{fill:url(#linear-gradient-2);}.cls-5{fill:url(#linear-gradient-3);}.cls-6{fill:url(#linear-gradient-4);}.cls-7{fill:url(#linear-gradient-5);}.cls-8{fill:url(#linear-gradient-6);}</style><linearGradient id="linear-gradient" x1="1363.11" y1="689.01" x2="1333.26" y2="815.12" gradientUnits="userSpaceOnUse"><stop offset="0" stop-color="#fff"/><stop offset="0.5" stop-color="#569914"/><stop offset="1" stop-color="#fff"/></linearGradient><linearGradient id="linear-gradient-2" x1="1290.96" y1="1055.13" x2="1411.84" y2="1011.85" xlink:href="#linear-gradient"/><linearGradient id="linear-gradient-3" x1="1544.2" y1="862.21" x2="1638.22" y2="951.75" xlink:href="#linear-gradient"/><linearGradient id="linear-gradient-4" x1="1524.82" y1="977.63" x2="1482.29" y2="1102.24" xlink:href="#linear-gradient"/><linearGradient id="linear-gradient-5" x1="1210.54" y1="853.03" x2="1303.72" y2="951.34" xlink:href="#linear-gradient"/><linearGradient id="linear-gradient-6" x1="1443.18" y1="772.44" x2="1570.04" y2="735.88" xlink:href="#linear-gradient"/></defs><g class="cls-1"><g id="graphics"><path class="cls-2" d="M1425,652.52c-44.2,53.9-67.25,121-65.4,191.73l.45,17.14-32.62-7.64-23.81-25a345.4,345.4,0,0,1,23.62-118.53c28.35-72.7,69.6-110.79,97.76-138.95l11.19,45.27Z" transform="translate(-1004.58 -478.3)"/><path class="cls-3" d="M1342.06,677.31a352.88,352.88,0,0,0-14.83,33,345.17,345.17,0,0,0-22.91,102.63,271.83,271.83,0,0,1,55.24,17.2A288.18,288.18,0,0,1,1396,695,159.52,159.52,0,0,0,1342.06,677.31Z" transform="translate(-1004.58 -478.3)"/><path class="cls-2" d="M1211.62,1022.07a290.19,290.19,0,0,0,198.75-39.22l14.62-9,11.19,36.7L1425,1039.05a346.56,346.56,0,0,1-166.63,42.79c-51.28,0-85.11-10.59-117.06-19.15l33-30.27Z" transform="translate(-1004.58 -478.3)"/><path class="cls-4" d="M1271.6,1025.56a154.64,154.64,0,0,1,24.08,54.25A347.12,347.12,0,0,0,1425,1039.05l.73-1.86a158.92,158.92,0,0,0-19.59-51.81A290.89,290.89,0,0,1,1271.6,1025.56Z" transform="translate(-1004.58 -478.3)"/><path class="cls-2" d="M1638.36,1022.07c-24.59-65.24-71.14-118.73-133.35-152.5l-15.07-8.18,27.4-27,29-5.58a345.58,345.58,0,0,1,90.86,79.74c48.77,60.9,61.13,115.61,71.45,154.15l-33.78-8.32Z" transform="translate(-1004.58 -478.3)"/><path class="cls-5" d="M1522.62,879.92A287.74,287.74,0,0,1,1618,979.14a159.19,159.19,0,0,0,41-40.2,351.2,351.2,0,0,0-21.82-30.4,345.45,345.45,0,0,0-78.08-71.61A278.08,278.08,0,0,1,1522.62,879.92Z" transform="translate(-1004.58 -478.3)"/><path class="cls-2" d="M1271.49,1265.66c-52.7,0-105.41-32.51-143.79-69.26C914.37,983.07,989.41,622,1266.8,509.47c275.6-111.76,578.63,90.73,578.63,389.64,0,212-155.48,366.55-266.92,366.55-89.8,0-142.7-92.29-123.08-185.4,35-166.1,136.46-163.58,188.7-306.87-104.19-21-161.13,9.56-219.14,45.1-57.92-35.5-114.55-66.23-219.14-45.1,52.19,143.13,153.75,141,188.7,306.87C1414.2,1173.52,1361.17,1265.65,1271.49,1265.66ZM1166.85,1156.4c127.19,116.35,190.23,17.43,172.94-64.6C1307.17,937,1197.7,950.68,1143,760.9l-7.9-27.4c80.58-21.59,172.33-46.31,289.91,19.73,51.76-29.07,101.5-42.69,155.3-42.69s97.88,13.12,134.61,23l-7.9,27.4c-54.71,189.75-164.18,176.07-196.81,330.9-17.24,81.85,45.44,181.24,173,64.6,141.69-142.14,141.54-373-.43-515-142.44-142.43-373-142.45-515.44,0C1025.31,783.36,1025.16,1014.26,1166.85,1156.4Z" transform="translate(-1004.58 -478.3)"/><path class="cls-6" d="M1507.43,1115.58a131.64,131.64,0,0,1,2.76-23.78c10.34-49.06,28.4-81.2,50-108.25a281.15,281.15,0,0,1-57.7-16.75c-19.65,28.14-36.41,63-47,113.46q-1.76,8.31-2.73,16.59A159.32,159.32,0,0,0,1507.43,1115.58Z" transform="translate(-1004.58 -478.3)"/><path class="cls-7" d="M1191.27,869.44c30.34,46.23,64.48,73.46,93.24,107.64a279.18,279.18,0,0,1,39.2-40.27c-29.69-33.7-62.54-61-89.88-105.22A159.4,159.4,0,0,0,1191.27,869.44Z" transform="translate(-1004.58 -478.3)"/><path class="cls-8" d="M1580.09,766.5c-2.07-21.25-8.17-41.19-13.67-55.65-46.7,2.08-90.68,14.8-136.05,39.41,10.59,23.35,14,42.73,14.77,56.18C1483.58,784.21,1524,766.46,1580.09,766.5Z" transform="translate(-1004.58 -478.3)"/><path class="cls-2" d="M1141.3,1062.69c9.49-35.42,21.63-91.94,71.45-154.15a345.58,345.58,0,0,1,90.86-79.74L1360,861.39,1345,869.57c-62.21,33.77-108.76,87.26-133.35,152.5Z" transform="translate(-1004.58 -478.3)"/><path class="cls-2" d="M1708.68,1062.69l-27,7.24A346,346,0,0,1,1425,1039.05V973.89l14.62,9a290.21,290.21,0,0,0,198.75,39.22Z" transform="translate(-1004.58 -478.3)"/><path class="cls-2" d="M1489.94,861.39l.45-17.14c1.85-70.78-21.2-137.83-65.4-191.73v-81.2l19.79,19.79A345.85,345.85,0,0,1,1546.37,828.8Z" transform="translate(-1004.58 -478.3)"/></g></g></svg>